G75*
%MOIN*%
%OFA0B0*%
%FSLAX25Y25*%
%IPPOS*%
%LPD*%
%AMOC8*
5,1,8,0,0,1.08239X$1,22.5*
%
%ADD10C,0.00394*%
%ADD11C,0.07800*%
%ADD12C,0.00000*%
%ADD13C,0.03746*%
%ADD14OC8,0.07800*%
%ADD15R,0.01975X0.06306*%
%ADD16R,0.08400X0.07400*%
%ADD17R,0.03156X0.03943*%
%ADD18R,0.03943X0.03156*%
%ADD19R,0.06306X0.04337*%
%ADD20R,0.05400X0.02900*%
%ADD21C,0.09000*%
%ADD22C,0.07000*%
%ADD23R,0.05124X0.02762*%
%ADD24R,0.05912X0.04337*%
%ADD25R,0.09849X0.09849*%
D10*
X0013852Y0009142D02*
X0013224Y0010066D01*
X0012790Y0011090D01*
X0012356Y0012115D01*
X0012115Y0013241D01*
X0012115Y0135651D01*
X0012356Y0136777D01*
X0012790Y0137802D01*
X0013224Y0138826D01*
X0013852Y0139750D01*
X0014628Y0140525D01*
X0015404Y0141301D01*
X0016327Y0141929D01*
X0017352Y0142363D01*
X0018377Y0142798D01*
X0019503Y0143038D01*
X0202967Y0143038D01*
X0204094Y0142798D01*
X0205119Y0142363D01*
X0206143Y0141929D01*
X0207067Y0141301D01*
X0207843Y0140525D01*
X0208619Y0139750D01*
X0209247Y0138826D01*
X0209681Y0137802D01*
X0210115Y0136777D01*
X0210355Y0135651D01*
X0210355Y0013241D01*
X0210115Y0012115D01*
X0209681Y0011090D01*
X0209247Y0010066D01*
X0208619Y0009142D01*
X0207843Y0008366D01*
X0207067Y0007591D01*
X0206143Y0006962D01*
X0205119Y0006528D01*
X0204094Y0006094D01*
X0202967Y0005854D01*
X0019503Y0005854D01*
X0018377Y0006094D01*
X0017352Y0006528D01*
X0016327Y0006962D01*
X0015404Y0007591D01*
X0013852Y0009142D01*
D11*
X0075846Y0016300D03*
X0085846Y0017300D03*
X0095846Y0016300D03*
X0108846Y0016300D03*
X0118846Y0017300D03*
X0128846Y0016300D03*
X0141846Y0016300D03*
X0151846Y0017300D03*
X0161846Y0016300D03*
X0200846Y0015800D03*
X0201846Y0025800D03*
X0200846Y0035800D03*
X0201846Y0045800D03*
X0200846Y0055800D03*
X0201846Y0065800D03*
X0200846Y0121100D03*
X0200846Y0132500D03*
X0161846Y0130800D03*
X0151846Y0131800D03*
X0141846Y0130800D03*
X0128846Y0130800D03*
X0118846Y0131800D03*
X0108846Y0130800D03*
X0095846Y0130800D03*
X0085846Y0131800D03*
X0075846Y0130800D03*
D12*
X0028335Y0080280D02*
X0028337Y0080361D01*
X0028343Y0080443D01*
X0028353Y0080524D01*
X0028367Y0080604D01*
X0028384Y0080683D01*
X0028406Y0080762D01*
X0028431Y0080839D01*
X0028460Y0080916D01*
X0028493Y0080990D01*
X0028530Y0081063D01*
X0028569Y0081134D01*
X0028613Y0081203D01*
X0028659Y0081270D01*
X0028709Y0081334D01*
X0028762Y0081396D01*
X0028818Y0081456D01*
X0028876Y0081512D01*
X0028938Y0081566D01*
X0029002Y0081617D01*
X0029068Y0081664D01*
X0029136Y0081708D01*
X0029207Y0081749D01*
X0029279Y0081786D01*
X0029354Y0081820D01*
X0029429Y0081850D01*
X0029507Y0081876D01*
X0029585Y0081899D01*
X0029664Y0081917D01*
X0029744Y0081932D01*
X0029825Y0081943D01*
X0029906Y0081950D01*
X0029988Y0081953D01*
X0030069Y0081952D01*
X0030150Y0081947D01*
X0030231Y0081938D01*
X0030312Y0081925D01*
X0030392Y0081908D01*
X0030470Y0081888D01*
X0030548Y0081863D01*
X0030625Y0081835D01*
X0030700Y0081803D01*
X0030773Y0081768D01*
X0030844Y0081729D01*
X0030914Y0081686D01*
X0030981Y0081641D01*
X0031047Y0081592D01*
X0031109Y0081540D01*
X0031169Y0081484D01*
X0031226Y0081426D01*
X0031281Y0081366D01*
X0031332Y0081302D01*
X0031380Y0081237D01*
X0031425Y0081169D01*
X0031467Y0081099D01*
X0031505Y0081027D01*
X0031540Y0080953D01*
X0031571Y0080878D01*
X0031598Y0080801D01*
X0031621Y0080723D01*
X0031641Y0080644D01*
X0031657Y0080564D01*
X0031669Y0080483D01*
X0031677Y0080402D01*
X0031681Y0080321D01*
X0031681Y0080239D01*
X0031677Y0080158D01*
X0031669Y0080077D01*
X0031657Y0079996D01*
X0031641Y0079916D01*
X0031621Y0079837D01*
X0031598Y0079759D01*
X0031571Y0079682D01*
X0031540Y0079607D01*
X0031505Y0079533D01*
X0031467Y0079461D01*
X0031425Y0079391D01*
X0031380Y0079323D01*
X0031332Y0079258D01*
X0031281Y0079194D01*
X0031226Y0079134D01*
X0031169Y0079076D01*
X0031109Y0079020D01*
X0031047Y0078968D01*
X0030981Y0078919D01*
X0030914Y0078874D01*
X0030845Y0078831D01*
X0030773Y0078792D01*
X0030700Y0078757D01*
X0030625Y0078725D01*
X0030548Y0078697D01*
X0030470Y0078672D01*
X0030392Y0078652D01*
X0030312Y0078635D01*
X0030231Y0078622D01*
X0030150Y0078613D01*
X0030069Y0078608D01*
X0029988Y0078607D01*
X0029906Y0078610D01*
X0029825Y0078617D01*
X0029744Y0078628D01*
X0029664Y0078643D01*
X0029585Y0078661D01*
X0029507Y0078684D01*
X0029429Y0078710D01*
X0029354Y0078740D01*
X0029279Y0078774D01*
X0029207Y0078811D01*
X0029136Y0078852D01*
X0029068Y0078896D01*
X0029002Y0078943D01*
X0028938Y0078994D01*
X0028876Y0079048D01*
X0028818Y0079104D01*
X0028762Y0079164D01*
X0028709Y0079226D01*
X0028659Y0079290D01*
X0028613Y0079357D01*
X0028569Y0079426D01*
X0028530Y0079497D01*
X0028493Y0079570D01*
X0028460Y0079644D01*
X0028431Y0079721D01*
X0028406Y0079798D01*
X0028384Y0079877D01*
X0028367Y0079956D01*
X0028353Y0080036D01*
X0028343Y0080117D01*
X0028337Y0080199D01*
X0028335Y0080280D01*
X0028335Y0065320D02*
X0028337Y0065401D01*
X0028343Y0065483D01*
X0028353Y0065564D01*
X0028367Y0065644D01*
X0028384Y0065723D01*
X0028406Y0065802D01*
X0028431Y0065879D01*
X0028460Y0065956D01*
X0028493Y0066030D01*
X0028530Y0066103D01*
X0028569Y0066174D01*
X0028613Y0066243D01*
X0028659Y0066310D01*
X0028709Y0066374D01*
X0028762Y0066436D01*
X0028818Y0066496D01*
X0028876Y0066552D01*
X0028938Y0066606D01*
X0029002Y0066657D01*
X0029068Y0066704D01*
X0029136Y0066748D01*
X0029207Y0066789D01*
X0029279Y0066826D01*
X0029354Y0066860D01*
X0029429Y0066890D01*
X0029507Y0066916D01*
X0029585Y0066939D01*
X0029664Y0066957D01*
X0029744Y0066972D01*
X0029825Y0066983D01*
X0029906Y0066990D01*
X0029988Y0066993D01*
X0030069Y0066992D01*
X0030150Y0066987D01*
X0030231Y0066978D01*
X0030312Y0066965D01*
X0030392Y0066948D01*
X0030470Y0066928D01*
X0030548Y0066903D01*
X0030625Y0066875D01*
X0030700Y0066843D01*
X0030773Y0066808D01*
X0030844Y0066769D01*
X0030914Y0066726D01*
X0030981Y0066681D01*
X0031047Y0066632D01*
X0031109Y0066580D01*
X0031169Y0066524D01*
X0031226Y0066466D01*
X0031281Y0066406D01*
X0031332Y0066342D01*
X0031380Y0066277D01*
X0031425Y0066209D01*
X0031467Y0066139D01*
X0031505Y0066067D01*
X0031540Y0065993D01*
X0031571Y0065918D01*
X0031598Y0065841D01*
X0031621Y0065763D01*
X0031641Y0065684D01*
X0031657Y0065604D01*
X0031669Y0065523D01*
X0031677Y0065442D01*
X0031681Y0065361D01*
X0031681Y0065279D01*
X0031677Y0065198D01*
X0031669Y0065117D01*
X0031657Y0065036D01*
X0031641Y0064956D01*
X0031621Y0064877D01*
X0031598Y0064799D01*
X0031571Y0064722D01*
X0031540Y0064647D01*
X0031505Y0064573D01*
X0031467Y0064501D01*
X0031425Y0064431D01*
X0031380Y0064363D01*
X0031332Y0064298D01*
X0031281Y0064234D01*
X0031226Y0064174D01*
X0031169Y0064116D01*
X0031109Y0064060D01*
X0031047Y0064008D01*
X0030981Y0063959D01*
X0030914Y0063914D01*
X0030845Y0063871D01*
X0030773Y0063832D01*
X0030700Y0063797D01*
X0030625Y0063765D01*
X0030548Y0063737D01*
X0030470Y0063712D01*
X0030392Y0063692D01*
X0030312Y0063675D01*
X0030231Y0063662D01*
X0030150Y0063653D01*
X0030069Y0063648D01*
X0029988Y0063647D01*
X0029906Y0063650D01*
X0029825Y0063657D01*
X0029744Y0063668D01*
X0029664Y0063683D01*
X0029585Y0063701D01*
X0029507Y0063724D01*
X0029429Y0063750D01*
X0029354Y0063780D01*
X0029279Y0063814D01*
X0029207Y0063851D01*
X0029136Y0063892D01*
X0029068Y0063936D01*
X0029002Y0063983D01*
X0028938Y0064034D01*
X0028876Y0064088D01*
X0028818Y0064144D01*
X0028762Y0064204D01*
X0028709Y0064266D01*
X0028659Y0064330D01*
X0028613Y0064397D01*
X0028569Y0064466D01*
X0028530Y0064537D01*
X0028493Y0064610D01*
X0028460Y0064684D01*
X0028431Y0064761D01*
X0028406Y0064838D01*
X0028384Y0064917D01*
X0028367Y0064996D01*
X0028353Y0065076D01*
X0028343Y0065157D01*
X0028337Y0065239D01*
X0028335Y0065320D01*
D13*
X0030008Y0065320D03*
X0030008Y0080280D03*
D14*
X0048846Y0101800D03*
X0058846Y0101800D03*
X0058846Y0111800D03*
X0048846Y0111800D03*
X0048846Y0121800D03*
X0058846Y0121800D03*
X0058846Y0131800D03*
X0048846Y0131800D03*
X0048846Y0046300D03*
X0058846Y0046300D03*
X0058846Y0036300D03*
X0048846Y0036300D03*
X0048846Y0026300D03*
X0058846Y0026300D03*
X0058846Y0016300D03*
X0048846Y0016300D03*
X0178846Y0015800D03*
X0188846Y0015800D03*
X0188846Y0025800D03*
X0178846Y0025800D03*
X0178846Y0035800D03*
X0188846Y0035800D03*
X0188846Y0045800D03*
X0178846Y0045800D03*
X0178846Y0101800D03*
X0188846Y0101800D03*
X0188846Y0111800D03*
X0178846Y0111800D03*
X0178846Y0121800D03*
X0188846Y0121800D03*
X0188846Y0131800D03*
X0178846Y0131800D03*
D15*
X0069862Y0087072D03*
X0067303Y0087072D03*
X0064744Y0087072D03*
X0062185Y0087072D03*
X0059626Y0087072D03*
X0057067Y0087072D03*
X0054508Y0087072D03*
X0051949Y0087072D03*
X0049390Y0087072D03*
X0046831Y0087072D03*
X0046831Y0058528D03*
X0049390Y0058528D03*
X0051949Y0058528D03*
X0054508Y0058528D03*
X0057067Y0058528D03*
X0059626Y0058528D03*
X0062185Y0058528D03*
X0064744Y0058528D03*
X0067303Y0058528D03*
X0069862Y0058528D03*
D16*
X0079346Y0088300D03*
X0079346Y0105300D03*
D17*
X0086787Y0105800D03*
X0091906Y0105800D03*
X0092906Y0090800D03*
X0087787Y0090800D03*
X0084906Y0070800D03*
X0079787Y0070800D03*
X0104787Y0051800D03*
X0104787Y0047800D03*
X0109906Y0047800D03*
X0109906Y0051800D03*
X0176787Y0079300D03*
X0181906Y0079300D03*
X0181906Y0085300D03*
X0176787Y0085300D03*
X0176787Y0089800D03*
X0176787Y0093800D03*
X0181906Y0093800D03*
X0181906Y0089800D03*
X0039606Y0079800D03*
X0034487Y0079800D03*
X0024106Y0074600D03*
X0018987Y0074600D03*
X0023587Y0056900D03*
X0028706Y0056900D03*
D18*
X0040346Y0056241D03*
X0040346Y0061359D03*
X0042846Y0084241D03*
X0042846Y0089359D03*
D19*
X0116559Y0090918D03*
X0116559Y0098792D03*
X0116559Y0083044D03*
X0116559Y0075170D03*
X0116559Y0067296D03*
X0116559Y0059422D03*
X0116559Y0051548D03*
X0166165Y0051548D03*
X0166165Y0059422D03*
X0166165Y0067296D03*
X0166165Y0075170D03*
X0166165Y0083044D03*
X0166165Y0090918D03*
X0166165Y0098792D03*
D20*
X0108346Y0100175D03*
X0108346Y0103378D03*
D21*
X0030189Y0106020D03*
X0030189Y0133580D03*
X0030189Y0043580D03*
X0030189Y0016020D03*
D22*
X0020346Y0019957D03*
X0020346Y0039643D03*
X0020346Y0109957D03*
X0020346Y0129643D03*
D23*
X0019905Y0069040D03*
X0019905Y0065300D03*
X0019905Y0061560D03*
X0030188Y0061560D03*
X0030188Y0069040D03*
D24*
X0031377Y0086460D03*
X0022716Y0090200D03*
X0031377Y0093940D03*
D25*
X0202446Y0091339D03*
X0202446Y0108661D03*
M02*
