G75*
%MOIN*%
%OFA0B0*%
%FSLAX25Y25*%
%IPPOS*%
%LPD*%
%AMOC8*
5,1,8,0,0,1.08239X$1,22.5*
%
%ADD10C,0.00394*%
%ADD11C,0.07800*%
%ADD12R,0.05400X0.02600*%
%ADD13R,0.02600X0.05400*%
%ADD14R,0.05912X0.01975*%
%ADD15C,0.00000*%
%ADD16C,0.03746*%
%ADD17R,0.06693X0.07874*%
%ADD18R,0.06693X0.10630*%
%ADD19OC8,0.07800*%
%ADD20C,0.02172*%
%ADD21R,0.13760X0.06040*%
%ADD22R,0.05200X0.09200*%
%ADD23R,0.14573X0.09061*%
%ADD24R,0.03943X0.03156*%
%ADD25R,0.03156X0.03943*%
%ADD26R,0.09061X0.02762*%
%ADD27C,0.01301*%
%ADD28C,0.03500*%
%ADD29C,0.05000*%
%ADD30R,0.08200X0.04400*%
%ADD31R,0.04337X0.04731*%
%ADD32R,0.02959X0.09061*%
D10*
X0013852Y0009142D02*
X0013224Y0010066D01*
X0012790Y0011090D01*
X0012356Y0012115D01*
X0012115Y0013241D01*
X0012115Y0135651D01*
X0012356Y0136777D01*
X0012790Y0137802D01*
X0013224Y0138826D01*
X0013852Y0139750D01*
X0014628Y0140525D01*
X0015404Y0141301D01*
X0016327Y0141929D01*
X0017352Y0142363D01*
X0018377Y0142798D01*
X0019503Y0143038D01*
X0202967Y0143038D01*
X0204094Y0142798D01*
X0205119Y0142363D01*
X0206143Y0141929D01*
X0207067Y0141301D01*
X0207843Y0140525D01*
X0208619Y0139750D01*
X0209247Y0138826D01*
X0209681Y0137802D01*
X0210115Y0136777D01*
X0210355Y0135651D01*
X0210355Y0013241D01*
X0210115Y0012115D01*
X0209681Y0011090D01*
X0209247Y0010066D01*
X0208619Y0009142D01*
X0207843Y0008366D01*
X0207067Y0007591D01*
X0206143Y0006962D01*
X0205119Y0006528D01*
X0204094Y0006094D01*
X0202967Y0005854D01*
X0019503Y0005854D01*
X0018377Y0006094D01*
X0017352Y0006528D01*
X0016327Y0006962D01*
X0015404Y0007591D01*
X0013852Y0009142D01*
D11*
X0075846Y0016300D03*
X0085846Y0017300D03*
X0095846Y0016300D03*
X0108846Y0016300D03*
X0118846Y0017300D03*
X0128846Y0016300D03*
X0141846Y0016300D03*
X0151846Y0017300D03*
X0161846Y0016300D03*
X0200846Y0015800D03*
X0201846Y0025800D03*
X0200846Y0035800D03*
X0201846Y0045800D03*
X0200846Y0055800D03*
X0201846Y0065800D03*
X0200846Y0121100D03*
X0200846Y0132500D03*
X0161846Y0130800D03*
X0151846Y0131800D03*
X0141846Y0130800D03*
X0128846Y0130800D03*
X0118846Y0131800D03*
X0108846Y0130800D03*
X0095846Y0130800D03*
X0085846Y0131800D03*
X0075846Y0130800D03*
D12*
G36*
X0126330Y0094534D02*
X0122513Y0090717D01*
X0120674Y0092556D01*
X0124491Y0096373D01*
X0126330Y0094534D01*
G37*
G36*
X0128557Y0092307D02*
X0124740Y0088490D01*
X0122901Y0090329D01*
X0126718Y0094146D01*
X0128557Y0092307D01*
G37*
G36*
X0130784Y0090080D02*
X0126967Y0086263D01*
X0125128Y0088102D01*
X0128945Y0091919D01*
X0130784Y0090080D01*
G37*
G36*
X0133011Y0087853D02*
X0129194Y0084036D01*
X0127355Y0085875D01*
X0131172Y0089692D01*
X0133011Y0087853D01*
G37*
G36*
X0135238Y0085626D02*
X0131421Y0081809D01*
X0129582Y0083648D01*
X0133399Y0087465D01*
X0135238Y0085626D01*
G37*
G36*
X0137465Y0083398D02*
X0133648Y0079581D01*
X0131809Y0081420D01*
X0135626Y0085237D01*
X0137465Y0083398D01*
G37*
G36*
X0139692Y0081171D02*
X0135875Y0077354D01*
X0134036Y0079193D01*
X0137853Y0083010D01*
X0139692Y0081171D01*
G37*
G36*
X0141919Y0078944D02*
X0138102Y0075127D01*
X0136263Y0076966D01*
X0140080Y0080783D01*
X0141919Y0078944D01*
G37*
G36*
X0115792Y0057271D02*
X0111975Y0053454D01*
X0110136Y0055293D01*
X0113953Y0059110D01*
X0115792Y0057271D01*
G37*
G36*
X0118019Y0055044D02*
X0114202Y0051227D01*
X0112363Y0053066D01*
X0116180Y0056883D01*
X0118019Y0055044D01*
G37*
G36*
X0113565Y0059498D02*
X0109748Y0055681D01*
X0107909Y0057520D01*
X0111726Y0061337D01*
X0113565Y0059498D01*
G37*
G36*
X0111338Y0061725D02*
X0107521Y0057908D01*
X0105682Y0059747D01*
X0109499Y0063564D01*
X0111338Y0061725D01*
G37*
G36*
X0109111Y0063952D02*
X0105294Y0060135D01*
X0103455Y0061974D01*
X0107272Y0065791D01*
X0109111Y0063952D01*
G37*
G36*
X0106884Y0066180D02*
X0103067Y0062363D01*
X0101228Y0064202D01*
X0105045Y0068019D01*
X0106884Y0066180D01*
G37*
G36*
X0104657Y0068407D02*
X0100840Y0064590D01*
X0099001Y0066429D01*
X0102818Y0070246D01*
X0104657Y0068407D01*
G37*
G36*
X0102429Y0070634D02*
X0098612Y0066817D01*
X0096773Y0068656D01*
X0100590Y0072473D01*
X0102429Y0070634D01*
G37*
D13*
G36*
X0102429Y0076966D02*
X0100590Y0075127D01*
X0096773Y0078944D01*
X0098612Y0080783D01*
X0102429Y0076966D01*
G37*
G36*
X0104657Y0079193D02*
X0102818Y0077354D01*
X0099001Y0081171D01*
X0100840Y0083010D01*
X0104657Y0079193D01*
G37*
G36*
X0106884Y0081420D02*
X0105045Y0079581D01*
X0101228Y0083398D01*
X0103067Y0085237D01*
X0106884Y0081420D01*
G37*
G36*
X0109111Y0083648D02*
X0107272Y0081809D01*
X0103455Y0085626D01*
X0105294Y0087465D01*
X0109111Y0083648D01*
G37*
G36*
X0111338Y0085875D02*
X0109499Y0084036D01*
X0105682Y0087853D01*
X0107521Y0089692D01*
X0111338Y0085875D01*
G37*
G36*
X0113565Y0088102D02*
X0111726Y0086263D01*
X0107909Y0090080D01*
X0109748Y0091919D01*
X0113565Y0088102D01*
G37*
G36*
X0115792Y0090329D02*
X0113953Y0088490D01*
X0110136Y0092307D01*
X0111975Y0094146D01*
X0115792Y0090329D01*
G37*
G36*
X0118019Y0092556D02*
X0116180Y0090717D01*
X0112363Y0094534D01*
X0114202Y0096373D01*
X0118019Y0092556D01*
G37*
G36*
X0141919Y0068656D02*
X0140080Y0066817D01*
X0136263Y0070634D01*
X0138102Y0072473D01*
X0141919Y0068656D01*
G37*
G36*
X0139692Y0066429D02*
X0137853Y0064590D01*
X0134036Y0068407D01*
X0135875Y0070246D01*
X0139692Y0066429D01*
G37*
G36*
X0137465Y0064202D02*
X0135626Y0062363D01*
X0131809Y0066180D01*
X0133648Y0068019D01*
X0137465Y0064202D01*
G37*
G36*
X0135238Y0061974D02*
X0133399Y0060135D01*
X0129582Y0063952D01*
X0131421Y0065791D01*
X0135238Y0061974D01*
G37*
G36*
X0133011Y0059747D02*
X0131172Y0057908D01*
X0127355Y0061725D01*
X0129194Y0063564D01*
X0133011Y0059747D01*
G37*
G36*
X0130784Y0057520D02*
X0128945Y0055681D01*
X0125128Y0059498D01*
X0126967Y0061337D01*
X0130784Y0057520D01*
G37*
G36*
X0128557Y0055293D02*
X0126718Y0053454D01*
X0122901Y0057271D01*
X0124740Y0059110D01*
X0128557Y0055293D01*
G37*
G36*
X0126330Y0053066D02*
X0124491Y0051227D01*
X0120674Y0055044D01*
X0122513Y0056883D01*
X0126330Y0053066D01*
G37*
D14*
X0031976Y0067682D03*
X0031976Y0070241D03*
X0031976Y0072800D03*
X0031976Y0075359D03*
X0031976Y0077918D03*
D15*
X0028335Y0080280D02*
X0028337Y0080361D01*
X0028343Y0080443D01*
X0028353Y0080524D01*
X0028367Y0080604D01*
X0028384Y0080683D01*
X0028406Y0080762D01*
X0028431Y0080839D01*
X0028460Y0080916D01*
X0028493Y0080990D01*
X0028530Y0081063D01*
X0028569Y0081134D01*
X0028613Y0081203D01*
X0028659Y0081270D01*
X0028709Y0081334D01*
X0028762Y0081396D01*
X0028818Y0081456D01*
X0028876Y0081512D01*
X0028938Y0081566D01*
X0029002Y0081617D01*
X0029068Y0081664D01*
X0029136Y0081708D01*
X0029207Y0081749D01*
X0029279Y0081786D01*
X0029354Y0081820D01*
X0029429Y0081850D01*
X0029507Y0081876D01*
X0029585Y0081899D01*
X0029664Y0081917D01*
X0029744Y0081932D01*
X0029825Y0081943D01*
X0029906Y0081950D01*
X0029988Y0081953D01*
X0030069Y0081952D01*
X0030150Y0081947D01*
X0030231Y0081938D01*
X0030312Y0081925D01*
X0030392Y0081908D01*
X0030470Y0081888D01*
X0030548Y0081863D01*
X0030625Y0081835D01*
X0030700Y0081803D01*
X0030773Y0081768D01*
X0030844Y0081729D01*
X0030914Y0081686D01*
X0030981Y0081641D01*
X0031047Y0081592D01*
X0031109Y0081540D01*
X0031169Y0081484D01*
X0031226Y0081426D01*
X0031281Y0081366D01*
X0031332Y0081302D01*
X0031380Y0081237D01*
X0031425Y0081169D01*
X0031467Y0081099D01*
X0031505Y0081027D01*
X0031540Y0080953D01*
X0031571Y0080878D01*
X0031598Y0080801D01*
X0031621Y0080723D01*
X0031641Y0080644D01*
X0031657Y0080564D01*
X0031669Y0080483D01*
X0031677Y0080402D01*
X0031681Y0080321D01*
X0031681Y0080239D01*
X0031677Y0080158D01*
X0031669Y0080077D01*
X0031657Y0079996D01*
X0031641Y0079916D01*
X0031621Y0079837D01*
X0031598Y0079759D01*
X0031571Y0079682D01*
X0031540Y0079607D01*
X0031505Y0079533D01*
X0031467Y0079461D01*
X0031425Y0079391D01*
X0031380Y0079323D01*
X0031332Y0079258D01*
X0031281Y0079194D01*
X0031226Y0079134D01*
X0031169Y0079076D01*
X0031109Y0079020D01*
X0031047Y0078968D01*
X0030981Y0078919D01*
X0030914Y0078874D01*
X0030845Y0078831D01*
X0030773Y0078792D01*
X0030700Y0078757D01*
X0030625Y0078725D01*
X0030548Y0078697D01*
X0030470Y0078672D01*
X0030392Y0078652D01*
X0030312Y0078635D01*
X0030231Y0078622D01*
X0030150Y0078613D01*
X0030069Y0078608D01*
X0029988Y0078607D01*
X0029906Y0078610D01*
X0029825Y0078617D01*
X0029744Y0078628D01*
X0029664Y0078643D01*
X0029585Y0078661D01*
X0029507Y0078684D01*
X0029429Y0078710D01*
X0029354Y0078740D01*
X0029279Y0078774D01*
X0029207Y0078811D01*
X0029136Y0078852D01*
X0029068Y0078896D01*
X0029002Y0078943D01*
X0028938Y0078994D01*
X0028876Y0079048D01*
X0028818Y0079104D01*
X0028762Y0079164D01*
X0028709Y0079226D01*
X0028659Y0079290D01*
X0028613Y0079357D01*
X0028569Y0079426D01*
X0028530Y0079497D01*
X0028493Y0079570D01*
X0028460Y0079644D01*
X0028431Y0079721D01*
X0028406Y0079798D01*
X0028384Y0079877D01*
X0028367Y0079956D01*
X0028353Y0080036D01*
X0028343Y0080117D01*
X0028337Y0080199D01*
X0028335Y0080280D01*
X0028335Y0065320D02*
X0028337Y0065401D01*
X0028343Y0065483D01*
X0028353Y0065564D01*
X0028367Y0065644D01*
X0028384Y0065723D01*
X0028406Y0065802D01*
X0028431Y0065879D01*
X0028460Y0065956D01*
X0028493Y0066030D01*
X0028530Y0066103D01*
X0028569Y0066174D01*
X0028613Y0066243D01*
X0028659Y0066310D01*
X0028709Y0066374D01*
X0028762Y0066436D01*
X0028818Y0066496D01*
X0028876Y0066552D01*
X0028938Y0066606D01*
X0029002Y0066657D01*
X0029068Y0066704D01*
X0029136Y0066748D01*
X0029207Y0066789D01*
X0029279Y0066826D01*
X0029354Y0066860D01*
X0029429Y0066890D01*
X0029507Y0066916D01*
X0029585Y0066939D01*
X0029664Y0066957D01*
X0029744Y0066972D01*
X0029825Y0066983D01*
X0029906Y0066990D01*
X0029988Y0066993D01*
X0030069Y0066992D01*
X0030150Y0066987D01*
X0030231Y0066978D01*
X0030312Y0066965D01*
X0030392Y0066948D01*
X0030470Y0066928D01*
X0030548Y0066903D01*
X0030625Y0066875D01*
X0030700Y0066843D01*
X0030773Y0066808D01*
X0030844Y0066769D01*
X0030914Y0066726D01*
X0030981Y0066681D01*
X0031047Y0066632D01*
X0031109Y0066580D01*
X0031169Y0066524D01*
X0031226Y0066466D01*
X0031281Y0066406D01*
X0031332Y0066342D01*
X0031380Y0066277D01*
X0031425Y0066209D01*
X0031467Y0066139D01*
X0031505Y0066067D01*
X0031540Y0065993D01*
X0031571Y0065918D01*
X0031598Y0065841D01*
X0031621Y0065763D01*
X0031641Y0065684D01*
X0031657Y0065604D01*
X0031669Y0065523D01*
X0031677Y0065442D01*
X0031681Y0065361D01*
X0031681Y0065279D01*
X0031677Y0065198D01*
X0031669Y0065117D01*
X0031657Y0065036D01*
X0031641Y0064956D01*
X0031621Y0064877D01*
X0031598Y0064799D01*
X0031571Y0064722D01*
X0031540Y0064647D01*
X0031505Y0064573D01*
X0031467Y0064501D01*
X0031425Y0064431D01*
X0031380Y0064363D01*
X0031332Y0064298D01*
X0031281Y0064234D01*
X0031226Y0064174D01*
X0031169Y0064116D01*
X0031109Y0064060D01*
X0031047Y0064008D01*
X0030981Y0063959D01*
X0030914Y0063914D01*
X0030845Y0063871D01*
X0030773Y0063832D01*
X0030700Y0063797D01*
X0030625Y0063765D01*
X0030548Y0063737D01*
X0030470Y0063712D01*
X0030392Y0063692D01*
X0030312Y0063675D01*
X0030231Y0063662D01*
X0030150Y0063653D01*
X0030069Y0063648D01*
X0029988Y0063647D01*
X0029906Y0063650D01*
X0029825Y0063657D01*
X0029744Y0063668D01*
X0029664Y0063683D01*
X0029585Y0063701D01*
X0029507Y0063724D01*
X0029429Y0063750D01*
X0029354Y0063780D01*
X0029279Y0063814D01*
X0029207Y0063851D01*
X0029136Y0063892D01*
X0029068Y0063936D01*
X0029002Y0063983D01*
X0028938Y0064034D01*
X0028876Y0064088D01*
X0028818Y0064144D01*
X0028762Y0064204D01*
X0028709Y0064266D01*
X0028659Y0064330D01*
X0028613Y0064397D01*
X0028569Y0064466D01*
X0028530Y0064537D01*
X0028493Y0064610D01*
X0028460Y0064684D01*
X0028431Y0064761D01*
X0028406Y0064838D01*
X0028384Y0064917D01*
X0028367Y0064996D01*
X0028353Y0065076D01*
X0028343Y0065157D01*
X0028337Y0065239D01*
X0028335Y0065320D01*
D16*
X0030008Y0065320D03*
X0030008Y0080280D03*
D17*
X0021346Y0087304D03*
X0021346Y0058296D03*
D18*
X0021346Y0072800D03*
D19*
X0048846Y0046300D03*
X0058846Y0046300D03*
X0058846Y0036300D03*
X0048846Y0036300D03*
X0048846Y0026300D03*
X0058846Y0026300D03*
X0058846Y0016300D03*
X0048846Y0016300D03*
X0048846Y0101800D03*
X0058846Y0101800D03*
X0058846Y0111800D03*
X0048846Y0111800D03*
X0048846Y0121800D03*
X0058846Y0121800D03*
X0058846Y0131800D03*
X0048846Y0131800D03*
X0178846Y0131800D03*
X0188846Y0131800D03*
X0188846Y0121800D03*
X0178846Y0121800D03*
X0178846Y0111800D03*
X0188846Y0111800D03*
X0188846Y0101800D03*
X0178846Y0101800D03*
X0178846Y0045800D03*
X0188846Y0045800D03*
X0188846Y0035800D03*
X0178846Y0035800D03*
X0178846Y0025800D03*
X0188846Y0025800D03*
X0188846Y0015800D03*
X0178846Y0015800D03*
D20*
X0111962Y0045984D02*
X0107912Y0041934D01*
X0104571Y0045275D02*
X0108621Y0049325D01*
X0105281Y0052666D02*
X0101231Y0048616D01*
D21*
G36*
X0109311Y0040300D02*
X0099582Y0050029D01*
X0103853Y0054300D01*
X0113582Y0044571D01*
X0109311Y0040300D01*
G37*
D22*
X0150246Y0051000D03*
X0159346Y0051000D03*
X0168446Y0051000D03*
X0168446Y0095600D03*
X0159346Y0095600D03*
X0150246Y0095600D03*
D23*
X0159346Y0120001D03*
X0159346Y0026599D03*
D24*
X0185346Y0065241D03*
X0190346Y0065241D03*
X0190346Y0070359D03*
X0185346Y0070359D03*
X0169346Y0081241D03*
X0169346Y0086359D03*
D25*
X0198787Y0086800D03*
X0203906Y0086800D03*
X0172906Y0058800D03*
X0167787Y0058800D03*
X0155906Y0058800D03*
X0150787Y0058800D03*
X0150787Y0063800D03*
X0155906Y0063800D03*
G36*
X0139933Y0090999D02*
X0142165Y0088767D01*
X0139379Y0085981D01*
X0137147Y0088213D01*
X0139933Y0090999D01*
G37*
G36*
X0136314Y0094619D02*
X0138546Y0092387D01*
X0135760Y0089601D01*
X0133528Y0091833D01*
X0136314Y0094619D01*
G37*
G36*
X0092260Y0047101D02*
X0090028Y0049333D01*
X0092814Y0052119D01*
X0095046Y0049887D01*
X0092260Y0047101D01*
G37*
G36*
X0095879Y0043481D02*
X0093647Y0045713D01*
X0096433Y0048499D01*
X0098665Y0046267D01*
X0095879Y0043481D01*
G37*
G36*
X0092379Y0039981D02*
X0090147Y0042213D01*
X0092933Y0044999D01*
X0095165Y0042767D01*
X0092379Y0039981D01*
G37*
G36*
X0088760Y0043601D02*
X0086528Y0045833D01*
X0089314Y0048619D01*
X0091546Y0046387D01*
X0088760Y0043601D01*
G37*
X0065906Y0059800D03*
X0060787Y0059800D03*
X0041906Y0022800D03*
X0036787Y0022800D03*
X0034287Y0112800D03*
X0039406Y0112800D03*
X0039406Y0119800D03*
X0034287Y0119800D03*
X0034287Y0126800D03*
X0039406Y0126800D03*
D26*
X0063110Y0080300D03*
X0063110Y0075300D03*
X0063110Y0070300D03*
X0063110Y0065300D03*
X0083583Y0065300D03*
X0083583Y0070300D03*
X0083583Y0075300D03*
X0083583Y0080300D03*
D27*
X0183828Y0059735D02*
X0186864Y0059735D01*
X0183828Y0059735D02*
X0183828Y0062771D01*
X0186864Y0062771D01*
X0186864Y0059735D01*
X0186864Y0061035D02*
X0183828Y0061035D01*
X0183828Y0062335D02*
X0186864Y0062335D01*
X0188828Y0059735D02*
X0191864Y0059735D01*
X0188828Y0059735D02*
X0188828Y0062771D01*
X0191864Y0062771D01*
X0191864Y0059735D01*
X0191864Y0061035D02*
X0188828Y0061035D01*
X0188828Y0062335D02*
X0191864Y0062335D01*
X0191864Y0052829D02*
X0188828Y0052829D01*
X0188828Y0055865D01*
X0191864Y0055865D01*
X0191864Y0052829D01*
X0191864Y0054129D02*
X0188828Y0054129D01*
X0188828Y0055429D02*
X0191864Y0055429D01*
X0186864Y0052829D02*
X0183828Y0052829D01*
X0183828Y0055865D01*
X0186864Y0055865D01*
X0186864Y0052829D01*
X0186864Y0054129D02*
X0183828Y0054129D01*
X0183828Y0055429D02*
X0186864Y0055429D01*
D28*
X0020346Y0039643D03*
X0020346Y0019957D03*
X0020346Y0109957D03*
X0020346Y0129643D03*
D29*
X0030189Y0133580D03*
X0030189Y0106020D03*
X0030189Y0043580D03*
X0030189Y0016020D03*
D30*
X0203246Y0092050D03*
X0203246Y0107800D03*
D31*
X0037346Y0089146D03*
X0037346Y0082454D03*
D32*
X0125309Y0107070D03*
X0125309Y0121637D03*
X0125384Y0041280D03*
X0125384Y0026713D03*
M02*
