%
M48
M72
T01C0.01000
T02C0.01200
T03C0.01600
T04C0.02362
T05C0.03150
T06C0.03346
T07C0.04000
T08C0.04724
%
T01
X26346Y70600
X26346Y98400
T02
X40446Y94800
X26346Y86400
X26346Y78200
X65346Y48800
X76346Y35800
X67846Y11800
X82846Y61800
X93846Y72800
X105846Y69800
X107346Y72800
X123346Y71800
X74346Y80300
X77346Y117800
T03
X73346Y120800
X81346Y124800
X87346Y120800
X92746Y121700
X98346Y120800
X102346Y116800
X111346Y113800
X113346Y117800
X106346Y107800
X94346Y107800
X95346Y97800
X102346Y94800
X104596Y90800
X98346Y87800
X95346Y90800
X86096Y84300
X80346Y94800
X75346Y99300
X67846Y101800
X67846Y106800
X67546Y111300
X54046Y97100
X61346Y92800
X48546Y81900
X45246Y76000
X47846Y72800
X51346Y75000
X54346Y72800
X69346Y75800
X70346Y79800
X70346Y65800
X77846Y61300
X71346Y52800
X81846Y42300
X78346Y40800
X64346Y31300
X93346Y36800
X100346Y37800
X105096Y56800
X127346Y68800
X140846Y63300
X136346Y54800
X135346Y50800
X129346Y52800
X144346Y37800
X133096Y29050
X129346Y34800
X143346Y26800
X129346Y22800
X163346Y35800
X163346Y41800
X173846Y40300
X173346Y54800
X180346Y54800
X195346Y60800
X182346Y69300
X176746Y66800
X159346Y66800
X155346Y69800
X148346Y74800
X143346Y73800
X129346Y78800
X145346Y89800
X139346Y94800
X147346Y103800
X144846Y109300
X142346Y112800
X152346Y108800
X168346Y108800
X173246Y93800
X187846Y90300
X198346Y83800
X194746Y81050
X190346Y78300
X202846Y80300
X159346Y81300
X160346Y58800
X168346Y20800
X39846Y109300
X28346Y114800
X36346Y100100
X20346Y93300
X33846Y89100
X19046Y80900
X34846Y61800
X62846Y126300
X66546Y126900
X67346Y135800
X41346Y133800
X134346Y120800
X204846Y115800
T04
X199346Y100800
X171846Y66800
X119346Y46800
T05
X20346Y19957
X20346Y39643
X20346Y109957
X20346Y129643
T06
X30008Y80280
X30008Y65320
T07
X48846Y46300
X58846Y46300
X58846Y36300
X48846Y36300
X48846Y26300
X58846Y26300
X58846Y16300
X48846Y16300
X75846Y16300
X85846Y17300
X95846Y16300
X108846Y16300
X118846Y17300
X128846Y16300
X141846Y16300
X151846Y17300
X161846Y16300
X178846Y15800
X188846Y15800
X200846Y15800
X201846Y25800
X188846Y25800
X178846Y25800
X178846Y35800
X188846Y35800
X200846Y35800
X201846Y45800
X188846Y45800
X178846Y45800
X200846Y55800
X201846Y65800
X188846Y101800
X178846Y101800
X178846Y111800
X188846Y111800
X200846Y121100
X188846Y121800
X178846Y121800
X178846Y131800
X188846Y131800
X200846Y132500
X161846Y130800
X151846Y131800
X141846Y130800
X128846Y130800
X118846Y131800
X108846Y130800
X95846Y130800
X85846Y131800
X75846Y130800
X58846Y131800
X48846Y131800
X48846Y121800
X58846Y121800
X58846Y111800
X48846Y111800
X48846Y101800
X58846Y101800
T08
X30189Y106020
X30189Y133580
X30189Y43580
X30189Y16020
M30
