  0
SECTION
  2
HEADER
  9
$ACADVER
  1
AC1012
  9
$DWGCODEPAGE
  3
undefined
  9
$INSBASE
 10
0.0
 20
0.0
 30
0.0
  9
$EXTMIN
 10
1.000000000000000E+20
 20
1.000000000000000E+20
 30
1.000000000000000E+20
  9
$EXTMAX
 10
-1.000000000000000E+20
 20
-1.000000000000000E+20
 30
-1.000000000000000E+20
  9
$LIMMIN
 10
0.0
 20
0.0
  9
$LIMMAX
 10
12.0
 20
9.0
  9
$ORTHOMODE
 70
     0
  9
$REGENMODE
 70
     1
  9
$FILLMODE
 70
     1
  9
$QTEXTMODE
 70
     0
  9
$MIRRTEXT
 70
     1
  9
$DRAGMODE
 70
     2
  9
$LTSCALE
 40
1.0
  9
$OSMODE
 70
    37
  9
$ATTMODE
 70
     1
  9
$TEXTSIZE
 40
0.2
  9
$TRACEWID
 40
0.05
  9
$TEXTSTYLE
  7
STANDARD
  9
$CLAYER
  8
0
  9
$CELTYPE
  6
BYLAYER
  9
$CECOLOR
 62
   256
  9
$CELTSCALE
 40
1.0
  9
$DELOBJ
 70
     1
  9
$DISPSILH
 70
     0
  9
$DIMSCALE
 40
1.0
  9
$DIMASZ
 40
0.18
  9
$DIMEXO
 40
0.0625
  9
$DIMDLI
 40
0.38
  9
$DIMRND
 40
0.0
  9
$DIMDLE
 40
0.0
  9
$DIMEXE
 40
0.18
  9
$DIMTP
 40
0.0
  9
$DIMTM
 40
0.0
  9
$DIMTXT
 40
0.18
  9
$DIMCEN
 40
0.09
  9
$DIMTSZ
 40
0.0
  9
$DIMTOL
 70
     0
  9
$DIMLIM
 70
     0
  9
$DIMTIH
 70
     1
  9
$DIMTOH
 70
     1
  9
$DIMSE1
 70
     0
  9
$DIMSE2
 70
     0
  9
$DIMTAD
 70
     0
  9
$DIMZIN
 70
     0
  9
$DIMBLK
  1

  9
$DIMASO
 70
     1
  9
$DIMSHO
 70
     1
  9
$DIMPOST
  1

  9
$DIMAPOST
  1

  9
$DIMALT
 70
     0
  9
$DIMALTD
 70
     2
  9
$DIMALTF
 40
25.4
  9
$DIMLFAC
 40
1.0
  9
$DIMTOFL
 70
     0
  9
$DIMTVP
 40
0.0
  9
$DIMTIX
 70
     0
  9
$DIMSOXD
 70
     0
  9
$DIMSAH
 70
     0
  9
$DIMBLK1
  1

  9
$DIMBLK2
  1

  9
$DIMSTYLE
  2
STANDARD
  9
$DIMCLRD
 70
     0
  9
$DIMCLRE
 70
     0
  9
$DIMCLRT
 70
     0
  9
$DIMTFAC
 40
1.0
  9
$DIMGAP
 40
0.09
  9
$DIMJUST
 70
     0
  9
$DIMSD1
 70
     0
  9
$DIMSD2
 70
     0
  9
$DIMTOLJ
 70
     1
  9
$DIMTZIN
 70
     0
  9
$DIMALTZ
 70
     0
  9
$DIMALTTZ
 70
     0
  9
$DIMFIT
 70
     3
  9
$DIMUPT
 70
     0
  9
$DIMUNIT
 70
     2
  9
$DIMDEC
 70
     4
  9
$DIMTDEC
 70
     4
  9
$DIMALTU
 70
     2
  9
$DIMALTTD
 70
     2
  9
$DIMTXSTY
  7
STANDARD
  9
$DIMAUNIT
 70
     0
  9
$LUNITS
 70
     2
  9
$LUPREC
 70
     4
  9
$SKETCHINC
 40
0.1
  9
$FILLETRAD
 40
0.5
  9
$AUNITS
 70
     0
  9
$AUPREC
 70
     0
  9
$MENU
  1
.
  9
$ELEVATION
 40
0.0
  9
$PELEVATION
 40
0.0
  9
$THICKNESS
 40
0.0
  9
$LIMCHECK
 70
     0
  9
$CHAMFERA
 40
0.5
  9
$CHAMFERB
 40
0.5
  9
$CHAMFERC
 40
1.0
  9
$CHAMFERD
 40
0.0
  9
$SKPOLY
 70
     0
  9
$TDCREATE
 40
2457156.427766192
  9
$TDUPDATE
 40
2457156.427766192
  9
$TDINDWG
 40
0.0000000116
  9
$TDUSRTIMER
 40
0.0000000116
  9
$USRTIMER
 70
     1
  9
$ANGBASE
 50
0.0
  9
$ANGDIR
 70
     0
  9
$PDMODE
 70
     0
  9
$PDSIZE
 40
0.0
  9
$PLINEWID
 40
0.0
  9
$COORDS
 70
     1
  9
$SPLFRAME
 70
     0
  9
$SPLINETYPE
 70
     6
  9
$SPLINESEGS
 70
     8
  9
$ATTDIA
 70
     0
  9
$ATTREQ
 70
     1
  9
$HANDLING
 70
     1
  9
$HANDSEED
  5
F7
  9
$SURFTAB1
 70
     6
  9
$SURFTAB2
 70
     6
  9
$SURFTYPE
 70
     6
  9
$SURFU
 70
     6
  9
$SURFV
 70
     6
  9
$UCSNAME
  2

  9
$UCSORG
 10
0.0
 20
0.0
 30
0.0
  9
$UCSXDIR
 10
1.0
 20
0.0
 30
0.0
  9
$UCSYDIR
 10
0.0
 20
1.0
 30
0.0
  9
$PUCSNAME
  2

  9
$PUCSORG
 10
0.0
 20
0.0
 30
0.0
  9
$PUCSXDIR
 10
1.0
 20
0.0
 30
0.0
  9
$PUCSYDIR
 10
0.0
 20
1.0
 30
0.0
  9
$USERI1
 70
     0
  9
$USERI2
 70
     0
  9
$USERI3
 70
     0
  9
$USERI4
 70
     0
  9
$USERI5
 70
     0
  9
$USERR1
 40
0.0
  9
$USERR2
 40
0.0
  9
$USERR3
 40
0.0
  9
$USERR4
 40
0.0
  9
$USERR5
 40
0.0
  9
$WORLDVIEW
 70
     1
  9
$SHADEDGE
 70
     3
  9
$SHADEDIF
 70
    70
  9
$TILEMODE
 70
     1
  9
$MAXACTVP
 70
    64
  9
$PINSBASE
 10
0.0
 20
0.0
 30
0.0
  9
$PLIMCHECK
 70
     0
  9
$PEXTMIN
 10
1.000000000000000E+20
 20
1.000000000000000E+20
 30
1.000000000000000E+20
  9
$PEXTMAX
 10
-1.000000000000000E+20
 20
-1.000000000000000E+20
 30
-1.000000000000000E+20
  9
$PLIMMIN
 10
0.0
 20
0.0
  9
$PLIMMAX
 10
12.0
 20
9.0
  9
$UNITMODE
 70
     0
  9
$VISRETAIN
 70
     1
  9
$PLINEGEN
 70
     0
  9
$PSLTSCALE
 70
     1
  9
$TREEDEPTH
 70
  3020
  9
$PICKSTYLE
 70
     1
  9
$CMLSTYLE
  2
STANDARD
  9
$CMLJUST
 70
     0
  9
$CMLSCALE
 40
1.0
  9
$SAVEIMAGES
 70
     1
  0
ENDSEC
  0
SECTION
  2
CLASSES
  0
CLASS
  1
ACDBDICTIONARYWDFLT
  2
AcDbDictionaryWithDefault
  3
ObjectDBX Classes
 90
    32768
280
     0
281
     0
  0
CLASS
  1
VISUALSTYLE
  2
AcDbVisualStyle
  3
ObjectDBX Classes
 90
     4095
280
     0
281
     0
  0
CLASS
  1
MATERIAL
  2
AcDbMaterial
  3
ObjectDBX Classes
 90
     1153
280
     0
281
     0
  0
CLASS
  1
SUN
  2
AcDbSun
  3
SCENEOE
 90
     1024
280
     0
281
     0
  0
CLASS
  1
DICTIONARYVAR
  2
AcDbDictionaryVar
  3
ObjectDBX Classes
 90
        0
280
     0
281
     0
  0
CLASS
  1
XRECORD
  2
AcDbXrecord
  3
AutoCAD 2000
 90
    32768
280
     0
281
     0
  0
CLASS
  1
LWPOLYLINE
  2
AcDbPolyline
  3
AutoCAD 2000
 90
    32768
280
     0
281
     1
  0
CLASS
  1
HATCH
  2
AcDbHatch
  3
AutoCAD 2000
 90
    32768
280
     0
281
     1
  0
CLASS
  1
ACDBPLACEHOLDER
  2
AcDbPlaceHolder
  3
ObjectDBX Classes
 90
        0
280
     0
281
     0
  0
CLASS
  1
LAYOUT
  2
AcDbLayout
  3
ObjectDBX Classes
 90
        0
280
     0
281
     0
  0
ENDSEC
  0
SECTION
  2
TABLES
  0
TABLE
  2
VPORT
  5
8
330
0
100
AcDbSymbolTable
 70
     1
  0
VPORT
  5
29
330
8
100
AcDbSymbolTableRecord
100
AcDbViewportTableRecord
  2
*ACTIVE
 70
     0
 10
0.0
 20
0.0
 11
1.0
 21
1.0
 12
0.0
 22
0.0
 13
0.0
 23
0.0
 14
0.5
 24
0.5
 15
0.5
 25
0.5
 16
0.0
 26
0.0
 36
1.0
 17
148.5000416295416
 27
-105.0007777515277
 37
0.0
 40
210.0015555030554
 41
1.414275634995294
 42
50.0
 43
0.0
 44
0.0
 50
0.0
 51
0.0
 71
     0
 72
   100
 73
     1
 74
     3
 75
     0
 76
     0
 77
     0
 78
     0
  0
ENDTAB
  0
TABLE
  2
LTYPE
  5
5
330
0
100
AcDbSymbolTable
 70
     1
  0
LTYPE
  5
14
330
5
100
AcDbSymbolTableRecord
100
AcDbLinetypeTableRecord
  2
BYBLOCK
 70
     0
  3

 72
    65
 73
     0
 40
0.0
  0
LTYPE
  5
15
330
5
100
AcDbSymbolTableRecord
100
AcDbLinetypeTableRecord
  2
BYLAYER
 70
     0
  3

 72
    65
 73
     0
 40
0.0
  0
LTYPE
  5
16
330
5
100
AcDbSymbolTableRecord
100
AcDbLinetypeTableRecord
  2
CONTINUOUS
 70
     0
  3
Solid line
 72
    65
 73
     0
 40
0.0
  0
ENDTAB
  0
TABLE
  2
LAYER
  5
2
330
0
100
AcDbSymbolTable
 70
     2
  0
LAYER
  5
10
330
2
100
AcDbSymbolTableRecord
100
AcDbLayerTableRecord
  2
0
 70
     0
 62
     7
  6
CONTINUOUS
  0
LAYER
  5
40
330
2
100
AcDbSymbolTableRecord
100
AcDbLayerTableRecord
  2
LIVELLO_1
 70
     0
 62
     7
  6
CONTINUOUS
  0
ENDTAB
  0
TABLE
  2
STYLE
  5
3
330
0
100
AcDbSymbolTable
 70
     1
  0
STYLE
  5
11
330
3
100
AcDbSymbolTableRecord
100
AcDbTextStyleTableRecord
  2
STANDARD
 70
     0
 40
0.0
 41
1.0
 50
0.0
 71
     0
 42
0.2
  3
txt
  4

  0
ENDTAB
  0
TABLE
  2
VIEW
  5
6
330
0
100
AcDbSymbolTable
 70
     0
  0
ENDTAB
  0
TABLE
  2
UCS
  5
7
330
0
100
AcDbSymbolTable
 70
     0
  0
ENDTAB
  0
TABLE
  2
APPID
  5
9
330
0
100
AcDbSymbolTable
 70
     1
  0
APPID
  5
12
330
9
100
AcDbSymbolTableRecord
100
AcDbRegAppTableRecord
  2
ACAD
 70
     0
  0
ENDTAB
  0
TABLE
  2
DIMSTYLE
  5
A
330
0
100
AcDbSymbolTable
 70
     1
  0
DIMSTYLE
105
27
330
A
100
AcDbSymbolTableRecord
100
AcDbDimStyleTableRecord
  2
STANDARD
 70
     0
  3

  4

  5

  6

  7

 40
1.0
 41
0.18
 42
0.0625
 43
0.38
 44
0.18
 45
0.0
 46
0.0
 47
0.0
 48
0.0
140
0.18
141
0.09
142
0.0
143
25.4
144
1.0
145
0.0
146
1.0
147
0.09
 71
     0
 72
     0
 73
     1
 74
     1
 75
     0
 76
     0
 77
     0
 78
     0
170
     0
171
     2
172
     0
173
     0
174
     0
175
     0
176
     0
177
     0
178
     0
270
     2
271
     4
272
     4
273
     2
274
     2
340
11
275
     0
280
     0
281
     0
282
     0
283
     1
284
     0
285
     0
286
     0
287
     3
288
     0
  0
ENDTAB
  0
TABLE
  2
BLOCK_RECORD
  5
1
330
0
100
AcDbSymbolTable
 70
     5
  0
BLOCK_RECORD
  5
1F
330
1
100
AcDbSymbolTableRecord
100
AcDbBlockTableRecord
  2
*MODEL_SPACE
  0
BLOCK_RECORD
  5
1B
330
1
100
AcDbSymbolTableRecord
100
AcDbBlockTableRecord
  2
*PAPER_SPACE
  0
BLOCK_RECORD
  5
41
330
1
100
AcDbSymbolTableRecord
100
AcDbBlockTableRecord
  2
BLOCK_2
  0
BLOCK_RECORD
  5
45
330
1
100
AcDbSymbolTableRecord
100
AcDbBlockTableRecord
  2
BLOCK_3
  0
BLOCK_RECORD
  5
4A
330
1
100
AcDbSymbolTableRecord
100
AcDbBlockTableRecord
  2
BLOCK_4
  0
BLOCK_RECORD
  5
56
330
1
100
AcDbSymbolTableRecord
100
AcDbBlockTableRecord
  2
*U4
  0
ENDTAB
  0
ENDSEC
  0
SECTION
  2
BLOCKS
  0
BLOCK
  5
20
330
1F
100
AcDbEntity
  8
0
100
AcDbBlockBegin
  2
*MODEL_SPACE
 70
     0
 10
0.0
 20
0.0
 30
0.0
  3
*MODEL_SPACE
  1

  0
ENDBLK
  5
21
330
1F
100
AcDbEntity
  8
0
100
AcDbBlockEnd
  0
BLOCK
  5
1C
330
1B
100
AcDbEntity
 67
     1
  8
0
100
AcDbBlockBegin
  2
*PAPER_SPACE
 70
     0
 10
0.0
 20
0.0
 30
0.0
  3
*PAPER_SPACE
  1

  0
ENDBLK
  5
1D
330
1B
100
AcDbEntity
 67
     1
  8
0
100
AcDbBlockEnd
  0
BLOCK
  5
43
330
41
100
AcDbEntity
  8
0
100
AcDbBlockBegin
  2
BLOCK_2
 70
     0
 10
0.0
 20
0.0
 30
0.0
  3
BLOCK_2
  1

  0
INSERT
  5
46
330
41
100
AcDbEntity
  8
LIVELLO_1
100
AcDbBlockReference
  2
BLOCK_3
 10
0.0
 20
0.0
 30
0.0
  0
INSERT
  5
4B
330
41
100
AcDbEntity
  8
LIVELLO_1
100
AcDbBlockReference
  2
BLOCK_4
 10
0.0
 20
0.0
 30
0.0
  0
ENDBLK
  5
44
330
41
100
AcDbEntity
  8
0
100
AcDbBlockEnd
  0
BLOCK
  5
47
330
45
100
AcDbEntity
  8
0
100
AcDbBlockBegin
  2
BLOCK_3
 70
     0
 10
0.0
 20
0.0
 30
0.0
  3
BLOCK_3
  1

  0
SPLINE
  5
49
330
45
100
AcDbEntity
  8
LIVELLO_1
100
AcDbSpline
210
0.0
220
0.0
230
1.0
 70
    11
 71
     3
 72
   101
 73
    97
 74
     0
 42
0.0000000001
 43
0.0000000001
 12
1.0
 22
0.0
 32
0.0
 13
1.0
 23
0.0
 33
0.0
 40
0.0
 40
0.0
 40
0.0
 40
0.0
 40
1.0
 40
1.0
 40
1.0
 40
2.0
 40
2.0
 40
2.0
 40
3.0
 40
3.0
 40
3.0
 40
4.0
 40
4.0
 40
4.0
 40
5.0
 40
5.0
 40
5.0
 40
6.0
 40
6.0
 40
6.0
 40
7.0
 40
7.0
 40
7.0
 40
8.0
 40
8.0
 40
8.0
 40
9.0
 40
9.0
 40
9.0
 40
10.0
 40
10.0
 40
10.0
 40
11.0
 40
11.0
 40
11.0
 40
12.0
 40
12.0
 40
12.0
 40
13.0
 40
13.0
 40
13.0
 40
14.0
 40
14.0
 40
14.0
 40
15.0
 40
15.0
 40
15.0
 40
16.0
 40
16.0
 40
16.0
 40
17.0
 40
17.0
 40
17.0
 40
18.0
 40
18.0
 40
18.0
 40
19.0
 40
19.0
 40
19.0
 40
20.0
 40
20.0
 40
20.0
 40
21.0
 40
21.0
 40
21.0
 40
22.0
 40
22.0
 40
22.0
 40
23.0
 40
23.0
 40
23.0
 40
24.0
 40
24.0
 40
24.0
 40
25.0
 40
25.0
 40
25.0
 40
26.0
 40
26.0
 40
26.0
 40
27.0
 40
27.0
 40
27.0
 40
28.0
 40
28.0
 40
28.0
 40
29.0
 40
29.0
 40
29.0
 40
30.0
 40
30.0
 40
30.0
 40
31.0
 40
31.0
 40
31.0
 40
32.0
 40
32.0
 40
32.0
 40
32.0
 10
166.0000762117555
 20
-128.0007232662495
 30
0.0
 10
166.0000762117555
 20
-128.2757232822408
 30
0.0
 10
165.9438263257222
 20
-128.5382233749765
 30
0.0
 10
165.8422639956724
 20
-128.7772860050842
 30
0.0
 10
165.7407016656227
 20
-129.0163486351932
 30
0.0
 10
165.5938268915565
 20
-129.2319738026729
 30
0.0
 10
165.412577115492
 20
-129.4132239681551
 30
0.0
 10
165.2313273394275
 20
-129.5944741336371
 30
0.0
 10
165.0157025613635
 20
-129.741349297119
 30
0.0
 10
164.7766402233181
 20
-129.8429119192323
 30
0.0
 10
164.5375778852726
 20
-129.9444745413443
 30
0.0
 10
164.2750779872458
 20
-130.0007246220865
 30
0.0
 10
164.0000779712544
 20
-130.0007246220865
 30
0.0
 10
164.0000779712544
 20
-130.0007246220865
 30
0.0
 10
156.2500770936923
 20
-130.0007246220865
 30
0.0
 10
156.2500770936923
 20
-130.0007246220865
 30
0.0
 10
156.2500770936923
 20
-130.0007246220865
 30
0.0
 10
148.5000762161303
 20
-130.0007246220865
 30
0.0
 10
148.5000762161303
 20
-130.0007246220865
 30
0.0
 10
148.5000762161303
 20
-130.0007246220865
 30
0.0
 10
140.7500753385682
 20
-130.0007246220865
 30
0.0
 10
140.7500753385682
 20
-130.0007246220865
 30
0.0
 10
140.7500753385682
 20
-130.0007246220865
 30
0.0
 10
133.0000744610059
 20
-130.0007246220865
 30
0.0
 10
133.0000744610059
 20
-130.0007246220865
 30
0.0
 10
132.7250744450145
 20
-130.0007246220865
 30
0.0
 10
132.4625745469873
 20
-129.9444745413443
 30
0.0
 10
132.2235122089422
 20
-129.8429119192323
 30
0.0
 10
131.9844498708967
 20
-129.741349297119
 30
0.0
 10
131.768825092833
 20
-129.5944741336371
 30
0.0
 10
131.5875753167686
 20
-129.4132239681551
 30
0.0
 10
131.4063255407038
 20
-129.2319738026729
 30
0.0
 10
131.2594507666379
 20
-129.0163486351932
 30
0.0
 10
131.1578884365881
 20
-128.7772860050842
 30
0.0
 10
131.0563261065384
 20
-128.5382233749765
 30
0.0
 10
131.0000762205051
 20
-128.2757232822408
 30
0.0
 10
131.0000762205051
 20
-128.0007232662495
 30
0.0
 10
131.0000762205051
 20
-128.0007232662495
 30
0.0
 10
131.0000762205051
 20
-116.5007239472936
 30
0.0
 10
131.0000762205051
 20
-116.5007239472936
 30
0.0
 10
131.0000762205051
 20
-116.5007239472936
 30
0.0
 10
131.0000762205051
 20
-105.0007246283364
 30
0.0
 10
131.0000762205051
 20
-105.0007246283364
 30
0.0
 10
131.0000762205051
 20
-105.0007246283364
 30
0.0
 10
131.0000762205051
 20
-93.50072530937949
 30
0.0
 10
131.0000762205051
 20
-93.50072530937949
 30
0.0
 10
131.0000762205051
 20
-93.50072530937949
 30
0.0
 10
131.0000762205051
 20
-82.00072599042294
 30
0.0
 10
131.0000762205051
 20
-82.00072599042294
 30
0.0
 10
131.0000762205051
 20
-81.72572597443155
 30
0.0
 10
131.0563261065384
 20
-81.46322588169588
 30
0.0
 10
131.1578884365881
 20
-81.22416325158785
 30
0.0
 10
131.2594507666379
 20
-80.98510062147983
 30
0.0
 10
131.4063255407038
 20
-80.76947545399914
 30
0.0
 10
131.5875753167686
 20
-80.58822528851736
 30
0.0
 10
131.768825092833
 20
-80.4069751230359
 30
0.0
 10
131.9844498708967
 20
-80.26009995955305
 30
0.0
 10
132.2235122089422
 20
-80.15853733744072
 30
0.0
 10
132.4625745469873
 20
-80.05697471532808
 30
0.0
 10
132.7250744450145
 20
-80.00072463458628
 30
0.0
 10
133.0000744610059
 20
-80.00072463458628
 30
0.0
 10
133.0000744610059
 20
-80.00072463458628
 30
0.0
 10
140.7500753385682
 20
-80.00072463458628
 30
0.0
 10
140.7500753385682
 20
-80.00072463458628
 30
0.0
 10
140.7500753385682
 20
-80.00072463458628
 30
0.0
 10
148.5000762161303
 20
-80.00072463458628
 30
0.0
 10
148.5000762161303
 20
-80.00072463458628
 30
0.0
 10
148.5000762161303
 20
-80.00072463458628
 30
0.0
 10
156.2500770936923
 20
-80.00072463458628
 30
0.0
 10
156.2500770936923
 20
-80.00072463458628
 30
0.0
 10
156.2500770936923
 20
-80.00072463458628
 30
0.0
 10
164.0000779712544
 20
-80.00072463458628
 30
0.0
 10
164.0000779712544
 20
-80.00072463458628
 30
0.0
 10
164.2750779872458
 20
-80.00072463458628
 30
0.0
 10
164.5375778852726
 20
-80.05697471532808
 30
0.0
 10
164.7766402233181
 20
-80.15853733744072
 30
0.0
 10
165.0157025613635
 20
-80.26009995955305
 30
0.0
 10
165.2313273394275
 20
-80.4069751230359
 30
0.0
 10
165.412577115492
 20
-80.58822528851736
 30
0.0
 10
165.5938268915565
 20
-80.76947545399914
 30
0.0
 10
165.7407016656227
 20
-80.98510062147983
 30
0.0
 10
165.8422639956724
 20
-81.22416325158785
 30
0.0
 10
165.9438263257222
 20
-81.46322588169588
 30
0.0
 10
166.0000762117555
 20
-81.72572597443155
 30
0.0
 10
166.0000762117555
 20
-82.00072599042294
 30
0.0
 10
166.0000762117555
 20
-82.00072599042294
 30
0.0
 10
166.0000762117555
 20
-93.50072530937949
 30
0.0
 10
166.0000762117555
 20
-93.50072530937949
 30
0.0
 10
166.0000762117555
 20
-93.50072530937949
 30
0.0
 10
166.0000762117555
 20
-105.0007246283364
 30
0.0
 10
166.0000762117555
 20
-105.0007246283364
 30
0.0
 10
166.0000762117555
 20
-105.0007246283364
 30
0.0
 10
166.0000762117555
 20
-116.5007239472936
 30
0.0
 10
166.0000762117555
 20
-116.5007239472936
 30
0.0
 10
166.0000762117555
 20
-116.5007239472936
 30
0.0
 10
166.0000762117555
 20
-128.0007232662495
 30
0.0
 10
166.0000762117555
 20
-128.0007232662495
 30
0.0
  0
ENDBLK
  5
48
330
45
100
AcDbEntity
  8
0
100
AcDbBlockEnd
  0
BLOCK
  5
4C
330
4A
100
AcDbEntity
  8
0
100
AcDbBlockBegin
  2
BLOCK_4
 70
     0
 10
0.0
 20
0.0
 30
0.0
  3
BLOCK_4
  1

  0
SPLINE
  5
4E
330
4A
100
AcDbEntity
  8
LIVELLO_1
100
AcDbSpline
210
0.0
220
0.0
230
1.0
 70
    11
 71
     3
 72
   101
 73
    97
 74
     0
 42
0.0000000001
 43
0.0000000001
 12
1.0
 22
0.0
 32
0.0
 13
1.0
 23
0.0
 33
0.0
 40
0.0
 40
0.0
 40
0.0
 40
0.0
 40
1.0
 40
1.0
 40
1.0
 40
2.0
 40
2.0
 40
2.0
 40
3.0
 40
3.0
 40
3.0
 40
4.0
 40
4.0
 40
4.0
 40
5.0
 40
5.0
 40
5.0
 40
6.0
 40
6.0
 40
6.0
 40
7.0
 40
7.0
 40
7.0
 40
8.0
 40
8.0
 40
8.0
 40
9.0
 40
9.0
 40
9.0
 40
10.0
 40
10.0
 40
10.0
 40
11.0
 40
11.0
 40
11.0
 40
12.0
 40
12.0
 40
12.0
 40
13.0
 40
13.0
 40
13.0
 40
14.0
 40
14.0
 40
14.0
 40
15.0
 40
15.0
 40
15.0
 40
16.0
 40
16.0
 40
16.0
 40
17.0
 40
17.0
 40
17.0
 40
18.0
 40
18.0
 40
18.0
 40
19.0
 40
19.0
 40
19.0
 40
20.0
 40
20.0
 40
20.0
 40
21.0
 40
21.0
 40
21.0
 40
22.0
 40
22.0
 40
22.0
 40
23.0
 40
23.0
 40
23.0
 40
24.0
 40
24.0
 40
24.0
 40
25.0
 40
25.0
 40
25.0
 40
26.0
 40
26.0
 40
26.0
 40
27.0
 40
27.0
 40
27.0
 40
28.0
 40
28.0
 40
28.0
 40
29.0
 40
29.0
 40
29.0
 40
30.0
 40
30.0
 40
30.0
 40
31.0
 40
31.0
 40
31.0
 40
32.0
 40
32.0
 40
32.0
 40
32.0
 10
164.0001291093905
 20
-130.1772771755718
 30
0.0
 10
164.0001291093905
 20
-130.1772771755718
 30
0.0
 10
156.2501284331596
 20
-130.1772771755718
 30
0.0
 10
156.2501284331596
 20
-130.1772771755718
 30
0.0
 10
156.2501284331596
 20
-130.1772771755718
 30
0.0
 10
148.5001277569287
 20
-130.1772771755718
 30
0.0
 10
148.5001277569287
 20
-130.1772771755718
 30
0.0
 10
148.5001277569287
 20
-130.1772771755718
 30
0.0
 10
140.7501270806978
 20
-130.1772771755718
 30
0.0
 10
140.7501270806978
 20
-130.1772771755718
 30
0.0
 10
140.7501270806978
 20
-130.1772771755718
 30
0.0
 10
133.0001264044669
 20
-130.1772771755718
 30
0.0
 10
133.0001264044669
 20
-130.1772771755718
 30
0.0
 10
132.7001016513952
 20
-130.1772771755718
 30
0.0
 10
132.4140618328089
 20
-130.1162559217893
 30
0.0
 10
132.1537660285324
 20
-130.0059698025678
 30
0.0
 10
131.8934702242558
 20
-129.8956836833462
 30
0.0
 10
131.6589184342889
 20
-129.7361326986856
 30
0.0
 10
131.461869738456
 20
-129.5390732369293
 30
0.0
 10
131.2648210426231
 20
-129.342013775173
 30
0.0
 10
131.1052754409242
 20
-129.107445836321
 30
0.0
 10
130.9949920131835
 20
-128.8471258087168
 30
0.0
 10
130.8847085854428
 20
-128.5868057811126
 30
0.0
 10
130.8236873316603
 20
-128.3007336647562
 30
0.0
 10
130.8236873316603
 20
-128.0006658479909
 30
0.0
 10
130.8236873316603
 20
-128.0006658479909
 30
0.0
 10
130.8236873316603
 20
-116.5006787360656
 30
0.0
 10
130.8236873316603
 20
-116.5006787360656
 30
0.0
 10
130.8236873316603
 20
-116.5006787360656
 30
0.0
 10
130.8236873316603
 20
-105.0006916241406
 30
0.0
 10
130.8236873316603
 20
-105.0006916241406
 30
0.0
 10
130.8236873316603
 20
-105.0006916241406
 30
0.0
 10
130.8236873316603
 20
-93.50070451221522
 30
0.0
 10
130.8236873316603
 20
-93.50070451221522
 30
0.0
 10
130.8236873316603
 20
-93.50070451221522
 30
0.0
 10
130.8236873316603
 20
-82.00071740028987
 30
0.0
 10
130.8236873316603
 20
-82.00071740028987
 30
0.0
 10
130.8236873316603
 20
-81.70069264721818
 30
0.0
 10
130.8847085854428
 20
-81.41465282863192
 30
0.0
 10
130.9949920131835
 20
-81.15435702435535
 30
0.0
 10
131.1052754409242
 20
-80.8940612200788
 30
0.0
 10
131.2648210426231
 20
-80.65950943011194
 30
0.0
 10
131.461869738456
 20
-80.46246073427903
 30
0.0
 10
131.6589184342889
 20
-80.26541203844613
 30
0.0
 10
131.8934702242558
 20
-80.10586643674719
 30
0.0
 10
132.1537660285324
 20
-79.99558300900648
 30
0.0
 10
132.4140618328089
 20
-79.88529958126577
 30
0.0
 10
132.7001016513952
 20
-79.82427832748328
 30
0.0
 10
133.0001264044669
 20
-79.82427832748328
 30
0.0
 10
133.0001264044669
 20
-79.82427832748328
 30
0.0
 10
140.7501270806978
 20
-79.82427832748328
 30
0.0
 10
140.7501270806978
 20
-79.82427832748328
 30
0.0
 10
140.7501270806978
 20
-79.82427832748328
 30
0.0
 10
148.5001277569287
 20
-79.82427832748328
 30
0.0
 10
148.5001277569287
 20
-79.82427832748328
 30
0.0
 10
148.5001277569287
 20
-79.82427832748328
 30
0.0
 10
156.2501284331596
 20
-79.82427832748328
 30
0.0
 10
156.2501284331596
 20
-79.82427832748328
 30
0.0
 10
156.2501284331596
 20
-79.82427832748328
 30
0.0
 10
164.0001291093905
 20
-79.82427832748328
 30
0.0
 10
164.0001291093905
 20
-79.82427832748328
 30
0.0
 10
164.3001107987686
 20
-79.82427832748328
 30
0.0
 10
164.5861183195847
 20
-79.88529958126577
 30
0.0
 10
164.8463899005336
 20
-79.99558300900648
 30
0.0
 10
165.1066614814826
 20
-80.10586643674719
 30
0.0
 10
165.3411971225644
 20
-80.26541203844613
 30
0.0
 10
165.5382350524739
 20
-80.46246073427903
 30
0.0
 10
165.7352729823833
 20
-80.65950943011194
 30
0.0
 10
165.8948132011206
 20
-80.8940612200788
 30
0.0
 10
166.0050939373805
 20
-81.15435702435535
 30
0.0
 10
166.1153746736403
 20
-81.41465282863192
 30
0.0
 10
166.1763959274228
 20
-81.70069264721818
 30
0.0
 10
166.1763959274228
 20
-82.00071740028987
 30
0.0
 10
166.1763959274228
 20
-82.00071740028987
 30
0.0
 10
166.1763959274228
 20
-93.50070451221522
 30
0.0
 10
166.1763959274228
 20
-93.50070451221522
 30
0.0
 10
166.1763959274228
 20
-93.50070451221522
 30
0.0
 10
166.1763959274228
 20
-105.0006916241406
 30
0.0
 10
166.1763959274228
 20
-105.0006916241406
 30
0.0
 10
166.1763959274228
 20
-105.0006916241406
 30
0.0
 10
166.1763959274228
 20
-116.5006787360656
 30
0.0
 10
166.1763959274228
 20
-116.5006787360656
 30
0.0
 10
166.1763959274228
 20
-116.5006787360656
 30
0.0
 10
166.1763959274228
 20
-128.0006658479909
 30
0.0
 10
166.1763959274228
 20
-128.0006658479909
 30
0.0
 10
166.1763959274228
 20
-128.3007336647562
 30
0.0
 10
166.1153746736403
 20
-128.5868057811126
 30
0.0
 10
166.0050939373805
 20
-128.8471258087168
 30
0.0
 10
165.8948132011206
 20
-129.107445836321
 30
0.0
 10
165.7352729823833
 20
-129.342013775173
 30
0.0
 10
165.5382350524739
 20
-129.5390732369293
 30
0.0
 10
165.3411971225644
 20
-129.7361326986856
 30
0.0
 10
165.1066614814826
 20
-129.8956836833462
 30
0.0
 10
164.8463899005336
 20
-130.0059698025678
 30
0.0
 10
164.5861183195847
 20
-130.1162559217893
 30
0.0
 10
164.3001107987686
 20
-130.1772771755718
 30
0.0
 10
164.0001291093905
 20
-130.1772771755718
 30
0.0
  0
SPLINE
  5
4F
330
4A
100
AcDbEntity
  8
LIVELLO_1
100
AcDbSpline
210
0.0
220
0.0
230
1.0
 70
    11
 71
     3
 72
   101
 73
    97
 74
     0
 42
0.0000000001
 43
0.0000000001
 12
1.0
 22
0.0
 32
0.0
 13
1.0
 23
0.0
 33
0.0
 40
0.0
 40
0.0
 40
0.0
 40
0.0
 40
1.0
 40
1.0
 40
1.0
 40
2.0
 40
2.0
 40
2.0
 40
3.0
 40
3.0
 40
3.0
 40
4.0
 40
4.0
 40
4.0
 40
5.0
 40
5.0
 40
5.0
 40
6.0
 40
6.0
 40
6.0
 40
7.0
 40
7.0
 40
7.0
 40
8.0
 40
8.0
 40
8.0
 40
9.0
 40
9.0
 40
9.0
 40
10.0
 40
10.0
 40
10.0
 40
11.0
 40
11.0
 40
11.0
 40
12.0
 40
12.0
 40
12.0
 40
13.0
 40
13.0
 40
13.0
 40
14.0
 40
14.0
 40
14.0
 40
15.0
 40
15.0
 40
15.0
 40
16.0
 40
16.0
 40
16.0
 40
17.0
 40
17.0
 40
17.0
 40
18.0
 40
18.0
 40
18.0
 40
19.0
 40
19.0
 40
19.0
 40
20.0
 40
20.0
 40
20.0
 40
21.0
 40
21.0
 40
21.0
 40
22.0
 40
22.0
 40
22.0
 40
23.0
 40
23.0
 40
23.0
 40
24.0
 40
24.0
 40
24.0
 40
25.0
 40
25.0
 40
25.0
 40
26.0
 40
26.0
 40
26.0
 40
27.0
 40
27.0
 40
27.0
 40
28.0
 40
28.0
 40
28.0
 40
29.0
 40
29.0
 40
29.0
 40
30.0
 40
30.0
 40
30.0
 40
31.0
 40
31.0
 40
31.0
 40
32.0
 40
32.0
 40
32.0
 40
32.0
 10
133.0001264044669
 20
-80.17705610517287
 30
0.0
 10
132.7487205614308
 20
-80.17705610517287
 30
0.0
 10
132.5090388089679
 20
-80.22818347535865
 30
0.0
 10
132.2909319669814
 20
-80.32058739582709
 30
0.0
 10
132.0728251249949
 20
-80.41299131629553
 30
0.0
 10
131.8762931934848
 20
-80.5466717870466
 30
0.0
 10
131.7111869923542
 20
-80.7117779881772
 30
0.0
 10
131.5460807912236
 20
-80.8768841893078
 30
0.0
 10
131.4124003204725
 20
-81.07341612081792
 30
0.0
 10
131.3199964000041
 20
-81.29152296280441
 30
0.0
 10
131.2275924795357
 20
-81.5096298047909
 30
0.0
 10
131.1764651093499
 20
-81.74931155725376
 30
0.0
 10
131.1764651093499
 20
-82.00071740028987
 30
0.0
 10
131.1764651093499
 20
-82.00071740028987
 30
0.0
 10
131.1764651093499
 20
-93.50070451221522
 30
0.0
 10
131.1764651093499
 20
-93.50070451221522
 30
0.0
 10
131.1764651093499
 20
-93.50070451221522
 30
0.0
 10
131.1764651093499
 20
-105.0006916241406
 30
0.0
 10
131.1764651093499
 20
-105.0006916241406
 30
0.0
 10
131.1764651093499
 20
-105.0006916241406
 30
0.0
 10
131.1764651093499
 20
-116.5006787360656
 30
0.0
 10
131.1764651093499
 20
-116.5006787360656
 30
0.0
 10
131.1764651093499
 20
-116.5006787360656
 30
0.0
 10
131.1764651093499
 20
-128.0006658479909
 30
0.0
 10
131.1764651093499
 20
-128.0006658479909
 30
0.0
 10
131.1764651093499
 20
-128.2520716910271
 30
0.0
 10
131.2275924795357
 20
-128.4917642094133
 30
0.0
 10
131.3199964000041
 20
-128.7098872002849
 30
0.0
 10
131.4124003204725
 20
-128.9280101911565
 30
0.0
 10
131.5460807912236
 20
-129.1245636545134
 30
0.0
 10
131.7111869923542
 20
-129.2896913874907
 30
0.0
 10
131.8762931934848
 20
-129.4548191204681
 30
0.0
 10
132.0728251249949
 20
-129.588521123066
 30
0.0
 10
132.2909319669814
 20
-129.6809411924195
 30
0.0
 10
132.5090388089679
 20
-129.773361261773
 30
0.0
 10
132.7487205614308
 20
-129.8244993978822
 30
0.0
 10
133.0001264044669
 20
-129.8244993978822
 30
0.0
 10
133.0001264044669
 20
-129.8244993978822
 30
0.0
 10
140.7501270806978
 20
-129.8244993978822
 30
0.0
 10
140.7501270806978
 20
-129.8244993978822
 30
0.0
 10
140.7501270806978
 20
-129.8244993978822
 30
0.0
 10
148.5001277569287
 20
-129.8244993978822
 30
0.0
 10
148.5001277569287
 20
-129.8244993978822
 30
0.0
 10
148.5001277569287
 20
-129.8244993978822
 30
0.0
 10
156.2501284331596
 20
-129.8244993978822
 30
0.0
 10
156.2501284331596
 20
-129.8244993978822
 30
0.0
 10
156.2501284331596
 20
-129.8244993978822
 30
0.0
 10
164.0001291093905
 20
-129.8244993978822
 30
0.0
 10
164.0001291093905
 20
-129.8244993978822
 30
0.0
 10
164.251491888733
 20
-129.8244993978822
 30
0.0
 10
164.4911413434257
 20
-129.773361261773
 30
0.0
 10
164.7092239620846
 20
-129.6809411924195
 30
0.0
 10
164.9273065807434
 20
-129.588521123066
 30
0.0
 10
165.1238223633685
 20
-129.4548191204681
 30
0.0
 10
165.2889177985757
 20
-129.2896913874907
 30
0.0
 10
165.4540132337829
 20
-129.1245636545134
 30
0.0
 10
165.5876883215723
 20
-128.9280101911565
 30
0.0
 10
165.6800895505599
 20
-128.7098872002849
 30
0.0
 10
165.7724907795474
 20
-128.4917642094133
 30
0.0
 10
165.8236181497332
 20
-128.2520716910271
 30
0.0
 10
165.8236181497332
 20
-128.0006658479909
 30
0.0
 10
165.8236181497332
 20
-128.0006658479909
 30
0.0
 10
165.8236181497332
 20
-116.5006787360656
 30
0.0
 10
165.8236181497332
 20
-116.5006787360656
 30
0.0
 10
165.8236181497332
 20
-116.5006787360656
 30
0.0
 10
165.8236181497332
 20
-105.0006916241406
 30
0.0
 10
165.8236181497332
 20
-105.0006916241406
 30
0.0
 10
165.8236181497332
 20
-105.0006916241406
 30
0.0
 10
165.8236181497332
 20
-93.50070451221522
 30
0.0
 10
165.8236181497332
 20
-93.50070451221522
 30
0.0
 10
165.8236181497332
 20
-93.50070451221522
 30
0.0
 10
165.8236181497332
 20
-82.00071740028987
 30
0.0
 10
165.8236181497332
 20
-82.00071740028987
 30
0.0
 10
165.8236181497332
 20
-81.74931155725376
 30
0.0
 10
165.7724907795474
 20
-81.5096298047909
 30
0.0
 10
165.6800895505599
 20
-81.29152296280441
 30
0.0
 10
165.5876883215723
 20
-81.07341612081792
 30
0.0
 10
165.4540132337829
 20
-80.8768841893078
 30
0.0
 10
165.2889177985757
 20
-80.7117779881772
 30
0.0
 10
165.1238223633685
 20
-80.5466717870466
 30
0.0
 10
164.9273065807434
 20
-80.41299131629553
 30
0.0
 10
164.7092239620846
 20
-80.32058739582709
 30
0.0
 10
164.4911413434257
 20
-80.22818347535865
 30
0.0
 10
164.251491888733
 20
-80.17705610517287
 30
0.0
 10
164.0001291093905
 20
-80.17705610517287
 30
0.0
 10
164.0001291093905
 20
-80.17705610517287
 30
0.0
 10
156.2501284331596
 20
-80.17705610517287
 30
0.0
 10
156.2501284331596
 20
-80.17705610517287
 30
0.0
 10
156.2501284331596
 20
-80.17705610517287
 30
0.0
 10
148.5001277569287
 20
-80.17705610517287
 30
0.0
 10
148.5001277569287
 20
-80.17705610517287
 30
0.0
 10
148.5001277569287
 20
-80.17705610517287
 30
0.0
 10
140.7501270806978
 20
-80.17705610517287
 30
0.0
 10
140.7501270806978
 20
-80.17705610517287
 30
0.0
 10
140.7501270806978
 20
-80.17705610517287
 30
0.0
 10
133.0001264044669
 20
-80.17705610517287
 30
0.0
 10
133.0001264044669
 20
-80.17705610517287
 30
0.0
  0
INSERT
  5
50
330
4A
100
AcDbEntity
  8
LIVELLO_1
 62
   250
100
AcDbBlockReference
  2
*U4
 10
0.0
 20
0.0
 30
0.0
1001
ACAD
1002
{
1000
R14_HATCH_DATA
1000
50
1011
1.0
1021
0.0
1031
0.0
1011
0.0
1021
1.0
1031
0.0
1011
0.0
1021
0.0
1031
1.0
1040
0.0
1010
0.0
1020
0.0
1030
1.0
1000
SOLID
1070
     1
1070
     1
1071
        2
1071
        1
1071
        1
1070
     4
1070
     3
1070
     0
1070
     1
1071
      101
1071
       97
1040
0.0
1040
0.0
1040
0.0
1040
0.0
1040
1.0
1040
1.0
1040
1.0
1040
2.0
1040
2.0
1040
2.0
1040
3.0
1040
3.0
1040
3.0
1040
4.0
1040
4.0
1040
4.0
1040
5.0
1040
5.0
1040
5.0
1040
6.0
1040
6.0
1040
6.0
1040
7.0
1040
7.0
1040
7.0
1040
8.0
1040
8.0
1040
8.0
1040
9.0
1040
9.0
1040
9.0
1040
10.0
1040
10.0
1040
10.0
1040
11.0
1040
11.0
1040
11.0
1040
12.0
1040
12.0
1040
12.0
1040
13.0
1040
13.0
1040
13.0
1040
14.0
1040
14.0
1040
14.0
1040
15.0
1040
15.0
1040
15.0
1040
16.0
1040
16.0
1040
16.0
1040
17.0
1040
17.0
1040
17.0
1040
18.0
1040
18.0
1040
18.0
1040
19.0
1040
19.0
1040
19.0
1040
20.0
1040
20.0
1040
20.0
1040
21.0
1040
21.0
1040
21.0
1040
22.0
1040
22.0
1040
22.0
1040
23.0
1040
23.0
1040
23.0
1040
24.0
1040
24.0
1040
24.0
1040
25.0
1040
25.0
1040
25.0
1040
26.0
1040
26.0
1040
26.0
1040
27.0
1040
27.0
1040
27.0
1040
28.0
1040
28.0
1040
28.0
1040
29.0
1040
29.0
1040
29.0
1040
30.0
1040
30.0
1040
30.0
1040
31.0
1040
31.0
1040
31.0
1040
32.0
1040
32.0
1040
32.0
1040
32.0
1040
164.0001291093905
1040
-130.1772771755718
1040
164.0001291093905
1040
-130.1772771755718
1040
156.2501284331596
1040
-130.1772771755718
1040
156.2501284331596
1040
-130.1772771755718
1040
156.2501284331596
1040
-130.1772771755718
1040
148.5001277569287
1040
-130.1772771755718
1040
148.5001277569287
1040
-130.1772771755718
1040
148.5001277569287
1040
-130.1772771755718
1040
140.7501270806978
1040
-130.1772771755718
1040
140.7501270806978
1040
-130.1772771755718
1040
140.7501270806978
1040
-130.1772771755718
1040
133.0001264044669
1040
-130.1772771755718
1040
133.0001264044669
1040
-130.1772771755718
1040
132.7001016513952
1040
-130.1772771755718
1040
132.4140618328089
1040
-130.1162559217893
1040
132.1537660285324
1040
-130.0059698025678
1040
131.8934702242558
1040
-129.8956836833462
1040
131.6589184342889
1040
-129.7361326986856
1040
131.461869738456
1040
-129.5390732369293
1040
131.2648210426231
1040
-129.342013775173
1040
131.1052754409242
1040
-129.107445836321
1040
130.9949920131835
1040
-128.8471258087168
1040
130.8847085854428
1040
-128.5868057811126
1040
130.8236873316603
1040
-128.3007336647562
1040
130.8236873316603
1040
-128.0006658479909
1040
130.8236873316603
1040
-128.0006658479909
1040
130.8236873316603
1040
-116.5006787360656
1040
130.8236873316603
1040
-116.5006787360656
1040
130.8236873316603
1040
-116.5006787360656
1040
130.8236873316603
1040
-105.0006916241406
1040
130.8236873316603
1040
-105.0006916241406
1040
130.8236873316603
1040
-105.0006916241406
1040
130.8236873316603
1040
-93.50070451221522
1040
130.8236873316603
1040
-93.50070451221522
1040
130.8236873316603
1040
-93.50070451221522
1040
130.8236873316603
1040
-82.00071740028987
1040
130.8236873316603
1040
-82.00071740028987
1040
130.8236873316603
1040
-81.70069264721818
1040
130.8847085854428
1040
-81.41465282863192
1040
130.9949920131835
1040
-81.15435702435535
1040
131.1052754409242
1040
-80.8940612200788
1040
131.2648210426231
1040
-80.65950943011194
1040
131.461869738456
1040
-80.46246073427903
1040
131.6589184342889
1040
-80.26541203844613
1040
131.8934702242558
1040
-80.10586643674719
1040
132.1537660285324
1040
-79.99558300900648
1040
132.4140618328089
1040
-79.88529958126577
1040
132.7001016513952
1040
-79.82427832748328
1040
133.0001264044669
1040
-79.82427832748328
1040
133.0001264044669
1040
-79.82427832748328
1040
140.7501270806978
1040
-79.82427832748328
1040
140.7501270806978
1040
-79.82427832748328
1040
140.7501270806978
1040
-79.82427832748328
1040
148.5001277569287
1040
-79.82427832748328
1040
148.5001277569287
1040
-79.82427832748328
1040
148.5001277569287
1040
-79.82427832748328
1040
156.2501284331596
1040
-79.82427832748328
1040
156.2501284331596
1040
-79.82427832748328
1040
156.2501284331596
1040
-79.82427832748328
1040
164.0001291093905
1040
-79.82427832748328
1040
164.0001291093905
1040
-79.82427832748328
1040
164.3001107987686
1040
-79.82427832748328
1040
164.5861183195847
1040
-79.88529958126577
1040
164.8463899005336
1040
-79.99558300900648
1040
165.1066614814826
1040
-80.10586643674719
1040
165.3411971225644
1040
-80.26541203844613
1040
165.5382350524739
1040
-80.46246073427903
1040
165.7352729823833
1040
-80.65950943011194
1040
165.8948132011206
1040
-80.8940612200788
1040
166.0050939373805
1040
-81.15435702435535
1040
166.1153746736403
1040
-81.41465282863192
1040
166.1763959274228
1040
-81.70069264721818
1040
166.1763959274228
1040
-82.00071740028987
1040
166.1763959274228
1040
-82.00071740028987
1040
166.1763959274228
1040
-93.50070451221522
1040
166.1763959274228
1040
-93.50070451221522
1040
166.1763959274228
1040
-93.50070451221522
1040
166.1763959274228
1040
-105.0006916241406
1040
166.1763959274228
1040
-105.0006916241406
1040
166.1763959274228
1040
-105.0006916241406
1040
166.1763959274228
1040
-116.5006787360656
1040
166.1763959274228
1040
-116.5006787360656
1040
166.1763959274228
1040
-116.5006787360656
1040
166.1763959274228
1040
-128.0006658479909
1040
166.1763959274228
1040
-128.0006658479909
1040
166.1763959274228
1040
-128.3007336647562
1040
166.1153746736403
1040
-128.5868057811126
1040
166.0050939373805
1040
-128.8471258087168
1040
165.8948132011206
1040
-129.107445836321
1040
165.7352729823833
1040
-129.342013775173
1040
165.5382350524739
1040
-129.5390732369293
1040
165.3411971225644
1040
-129.7361326986856
1040
165.1066614814826
1040
-129.8956836833462
1040
164.8463899005336
1040
-130.0059698025678
1040
164.5861183195847
1040
-130.1162559217893
1040
164.3001107987686
1040
-130.1772771755718
1040
164.0001291093905
1040
-130.1772771755718
1071
        0
1071
        1
1071
        1
1070
     4
1070
     3
1070
     0
1070
     1
1071
      101
1071
       97
1040
0.0
1040
0.0
1040
0.0
1040
0.0
1040
1.0
1040
1.0
1040
1.0
1040
2.0
1040
2.0
1040
2.0
1040
3.0
1040
3.0
1040
3.0
1040
4.0
1040
4.0
1040
4.0
1040
5.0
1040
5.0
1040
5.0
1040
6.0
1040
6.0
1040
6.0
1040
7.0
1040
7.0
1040
7.0
1040
8.0
1040
8.0
1040
8.0
1040
9.0
1040
9.0
1040
9.0
1040
10.0
1040
10.0
1040
10.0
1040
11.0
1040
11.0
1040
11.0
1040
12.0
1040
12.0
1040
12.0
1040
13.0
1040
13.0
1040
13.0
1040
14.0
1040
14.0
1040
14.0
1040
15.0
1040
15.0
1040
15.0
1040
16.0
1040
16.0
1040
16.0
1040
17.0
1040
17.0
1040
17.0
1040
18.0
1040
18.0
1040
18.0
1040
19.0
1040
19.0
1040
19.0
1040
20.0
1040
20.0
1040
20.0
1040
21.0
1040
21.0
1040
21.0
1040
22.0
1040
22.0
1040
22.0
1040
23.0
1040
23.0
1040
23.0
1040
24.0
1040
24.0
1040
24.0
1040
25.0
1040
25.0
1040
25.0
1040
26.0
1040
26.0
1040
26.0
1040
27.0
1040
27.0
1040
27.0
1040
28.0
1040
28.0
1040
28.0
1040
29.0
1040
29.0
1040
29.0
1040
30.0
1040
30.0
1040
30.0
1040
31.0
1040
31.0
1040
31.0
1040
32.0
1040
32.0
1040
32.0
1040
32.0
1040
133.0001264044669
1040
-80.17705610517287
1040
132.7487205614308
1040
-80.17705610517287
1040
132.5090388089679
1040
-80.22818347535865
1040
132.2909319669814
1040
-80.32058739582709
1040
132.0728251249949
1040
-80.41299131629553
1040
131.8762931934848
1040
-80.5466717870466
1040
131.7111869923542
1040
-80.7117779881772
1040
131.5460807912236
1040
-80.8768841893078
1040
131.4124003204725
1040
-81.07341612081792
1040
131.3199964000041
1040
-81.29152296280441
1040
131.2275924795357
1040
-81.5096298047909
1040
131.1764651093499
1040
-81.74931155725376
1040
131.1764651093499
1040
-82.00071740028987
1040
131.1764651093499
1040
-82.00071740028987
1040
131.1764651093499
1040
-93.50070451221522
1040
131.1764651093499
1040
-93.50070451221522
1040
131.1764651093499
1040
-93.50070451221522
1040
131.1764651093499
1040
-105.0006916241406
1040
131.1764651093499
1040
-105.0006916241406
1040
131.1764651093499
1040
-105.0006916241406
1040
131.1764651093499
1040
-116.5006787360656
1040
131.1764651093499
1040
-116.5006787360656
1040
131.1764651093499
1040
-116.5006787360656
1040
131.1764651093499
1040
-128.0006658479909
1040
131.1764651093499
1040
-128.0006658479909
1040
131.1764651093499
1040
-128.2520716910271
1040
131.2275924795357
1040
-128.4917642094133
1040
131.3199964000041
1040
-128.7098872002849
1040
131.4124003204725
1040
-128.9280101911565
1040
131.5460807912236
1040
-129.1245636545134
1040
131.7111869923542
1040
-129.2896913874907
1040
131.8762931934848
1040
-129.4548191204681
1040
132.0728251249949
1040
-129.588521123066
1040
132.2909319669814
1040
-129.6809411924195
1040
132.5090388089679
1040
-129.773361261773
1040
132.7487205614308
1040
-129.8244993978822
1040
133.0001264044669
1040
-129.8244993978822
1040
133.0001264044669
1040
-129.8244993978822
1040
140.7501270806978
1040
-129.8244993978822
1040
140.7501270806978
1040
-129.8244993978822
1040
140.7501270806978
1040
-129.8244993978822
1040
148.5001277569287
1040
-129.8244993978822
1040
148.5001277569287
1040
-129.8244993978822
1040
148.5001277569287
1040
-129.8244993978822
1040
156.2501284331596
1040
-129.8244993978822
1040
156.2501284331596
1040
-129.8244993978822
1040
156.2501284331596
1040
-129.8244993978822
1040
164.0001291093905
1040
-129.8244993978822
1040
164.0001291093905
1040
-129.8244993978822
1040
164.251491888733
1040
-129.8244993978822
1040
164.4911413434257
1040
-129.773361261773
1040
164.7092239620846
1040
-129.6809411924195
1040
164.9273065807434
1040
-129.588521123066
1040
165.1238223633685
1040
-129.4548191204681
1040
165.2889177985757
1040
-129.2896913874907
1040
165.4540132337829
1040
-129.1245636545134
1040
165.5876883215723
1040
-128.9280101911565
1040
165.6800895505599
1040
-128.7098872002849
1040
165.7724907795474
1040
-128.4917642094133
1040
165.8236181497332
1040
-128.2520716910271
1040
165.8236181497332
1040
-128.0006658479909
1040
165.8236181497332
1040
-128.0006658479909
1040
165.8236181497332
1040
-116.5006787360656
1040
165.8236181497332
1040
-116.5006787360656
1040
165.8236181497332
1040
-116.5006787360656
1040
165.8236181497332
1040
-105.0006916241406
1040
165.8236181497332
1040
-105.0006916241406
1040
165.8236181497332
1040
-105.0006916241406
1040
165.8236181497332
1040
-93.50070451221522
1040
165.8236181497332
1040
-93.50070451221522
1040
165.8236181497332
1040
-93.50070451221522
1040
165.8236181497332
1040
-82.00071740028987
1040
165.8236181497332
1040
-82.00071740028987
1040
165.8236181497332
1040
-81.74931155725376
1040
165.7724907795474
1040
-81.5096298047909
1040
165.6800895505599
1040
-81.29152296280441
1040
165.5876883215723
1040
-81.07341612081792
1040
165.4540132337829
1040
-80.8768841893078
1040
165.2889177985757
1040
-80.7117779881772
1040
165.1238223633685
1040
-80.5466717870466
1040
164.9273065807434
1040
-80.41299131629553
1040
164.7092239620846
1040
-80.32058739582709
1040
164.4911413434257
1040
-80.22818347535865
1040
164.251491888733
1040
-80.17705610517287
1040
164.0001291093905
1040
-80.17705610517287
1040
164.0001291093905
1040
-80.17705610517287
1040
156.2501284331596
1040
-80.17705610517287
1040
156.2501284331596
1040
-80.17705610517287
1040
156.2501284331596
1040
-80.17705610517287
1040
148.5001277569287
1040
-80.17705610517287
1040
148.5001277569287
1040
-80.17705610517287
1040
148.5001277569287
1040
-80.17705610517287
1040
140.7501270806978
1040
-80.17705610517287
1040
140.7501270806978
1040
-80.17705610517287
1040
140.7501270806978
1040
-80.17705610517287
1040
133.0001264044669
1040
-80.17705610517287
1040
133.0001264044669
1040
-80.17705610517287
1071
        0
1070
     2
1070
     1
1071
        0
1002
}
  0
ENDBLK
  5
4D
330
4A
100
AcDbEntity
  8
0
100
AcDbBlockEnd
  0
BLOCK
  5
EF
330
56
100
AcDbEntity
  8
0
100
AcDbBlockBegin
  2
*U4
 70
     1
 10
0.0
 20
0.0
 30
0.0
  3
*U4
  1

  0
SOLID
  5
57
330
56
100
AcDbEntity
  8
LIVELLO_1
 62
   250
100
AcDbTrace
 10
130.8236873316603
 20
-128.0006658479909
 30
0.0
 11
130.8236873316603
 21
-82.00071740028987
 31
0.0
 12
130.9949920131835
 22
-128.8471258087168
 32
0.0
 13
130.9949920131835
 23
-128.8471258087168
 33
0.0
  0
SOLID
  5
58
330
56
100
AcDbEntity
  8
LIVELLO_1
 62
   250
100
AcDbTrace
 10
130.9949920131835
 20
-128.8471258087168
 30
0.0
 11
130.8236873316603
 21
-82.00071740028987
 31
0.0
 12
130.9949920131835
 22
-81.15435702435535
 32
0.0
 13
130.9949920131835
 23
-81.15435702435535
 33
0.0
  0
SOLID
  5
59
330
56
100
AcDbEntity
  8
LIVELLO_1
 62
   250
100
AcDbTrace
 10
130.9949920131835
 20
-128.8471258087168
 30
0.0
 11
130.9949920131835
 21
-81.15435702435535
 31
0.0
 12
131.1764651093499
 22
-129.1160824013853
 32
0.0
 13
131.1764651093499
 23
-129.1160824013853
 33
0.0
  0
SOLID
  5
5A
330
56
100
AcDbEntity
  8
LIVELLO_1
 62
   250
100
AcDbTrace
 10
131.1764651093499
 20
-129.1160824013853
 30
0.0
 11
130.9949920131835
 21
-81.15435702435535
 31
0.0
 12
131.1764651093499
 22
-80.88542030883119
 32
0.0
 13
131.1764651093499
 23
-80.88542030883119
 33
0.0
  0
SOLID
  5
5B
330
56
100
AcDbEntity
  8
LIVELLO_1
 62
   250
100
AcDbTrace
 10
131.1764651093499
 20
-129.1160824013853
 30
0.0
 11
131.1764651093499
 21
-128.0006658479909
 31
0.0
 12
131.3199964000041
 22
-129.3288064232439
 32
0.0
 13
131.3199964000041
 23
-129.3288064232439
 33
0.0
  0
SOLID
  5
5C
330
56
100
AcDbEntity
  8
LIVELLO_1
 62
   250
100
AcDbTrace
 10
131.3199964000041
 20
-129.3288064232439
 30
0.0
 11
131.1764651093499
 21
-128.0006658479909
 31
0.0
 12
131.3199964000041
 22
-128.7098872002849
 32
0.0
 13
131.3199964000041
 23
-128.7098872002849
 33
0.0
  0
SOLID
  5
5D
330
56
100
AcDbEntity
  8
LIVELLO_1
 62
   250
100
AcDbTrace
 10
131.1764651093499
 20
-82.00071740028987
 30
0.0
 11
131.1764651093499
 21
-80.88542030883119
 31
0.0
 12
131.3199964000041
 22
-81.29152296280441
 32
0.0
 13
131.3199964000041
 23
-81.29152296280441
 33
0.0
  0
SOLID
  5
5E
330
56
100
AcDbEntity
  8
LIVELLO_1
 62
   250
100
AcDbTrace
 10
131.3199964000041
 20
-81.29152296280441
 30
0.0
 11
131.1764651093499
 21
-80.88542030883119
 31
0.0
 12
131.3199964000041
 22
-80.67271200826804
 32
0.0
 13
131.3199964000041
 23
-80.67271200826804
 33
0.0
  0
SOLID
  5
5F
330
56
100
AcDbEntity
  8
LIVELLO_1
 62
   250
100
AcDbTrace
 10
131.3199964000041
 20
-129.3288064232439
 30
0.0
 11
131.3199964000041
 21
-128.7098872002849
 31
0.0
 12
131.461869738456
 22
-129.5390732369293
 32
0.0
 13
131.461869738456
 23
-129.5390732369293
 33
0.0
  0
SOLID
  5
60
330
56
100
AcDbEntity
  8
LIVELLO_1
 62
   250
100
AcDbTrace
 10
131.461869738456
 20
-129.5390732369293
 30
0.0
 11
131.3199964000041
 21
-128.7098872002849
 31
0.0
 12
131.461869738456
 22
-128.9201651499491
 32
0.0
 13
131.461869738456
 23
-128.9201651499491
 33
0.0
  0
SOLID
  5
61
330
56
100
AcDbEntity
  8
LIVELLO_1
 62
   250
100
AcDbTrace
 10
131.3199964000041
 20
-81.29152296280441
 30
0.0
 11
131.3199964000041
 21
-80.67271200826804
 31
0.0
 12
131.461869738456
 22
-81.08126648780338
 32
0.0
 13
131.461869738456
 23
-81.08126648780338
 33
0.0
  0
SOLID
  5
62
330
56
100
AcDbEntity
  8
LIVELLO_1
 62
   250
100
AcDbTrace
 10
131.461869738456
 20
-81.08126648780338
 30
0.0
 11
131.3199964000041
 21
-80.67271200826804
 31
0.0
 12
131.461869738456
 22
-80.46246073427903
 32
0.0
 13
131.461869738456
 23
-80.46246073427903
 33
0.0
  0
SOLID
  5
63
330
56
100
AcDbEntity
  8
LIVELLO_1
 62
   250
100
AcDbTrace
 10
131.461869738456
 20
-129.5390732369293
 30
0.0
 11
131.461869738456
 21
-128.9201651499491
 31
0.0
 12
131.7111869923542
 22
-129.7073143032119
 32
0.0
 13
131.7111869923542
 23
-129.7073143032119
 33
0.0
  0
SOLID
  5
64
330
56
100
AcDbEntity
  8
LIVELLO_1
 62
   250
100
AcDbTrace
 10
131.7111869923542
 20
-129.7073143032119
 30
0.0
 11
131.461869738456
 21
-128.9201651499491
 31
0.0
 12
131.7111869923542
 22
-129.2896913874907
 32
0.0
 13
131.7111869923542
 23
-129.2896913874907
 33
0.0
  0
SOLID
  5
65
330
56
100
AcDbEntity
  8
LIVELLO_1
 62
   250
100
AcDbTrace
 10
131.461869738456
 20
-81.08126648780338
 30
0.0
 11
131.461869738456
 21
-80.46246073427903
 31
0.0
 12
131.7111869923542
 22
-80.7117779881772
 32
0.0
 13
131.7111869923542
 23
-80.7117779881772
 33
0.0
  0
SOLID
  5
66
330
56
100
AcDbEntity
  8
LIVELLO_1
 62
   250
100
AcDbTrace
 10
131.7111869923542
 20
-80.7117779881772
 30
0.0
 11
131.461869738456
 21
-80.46246073427903
 31
0.0
 12
131.7111869923542
 22
-80.29422645691596
 32
0.0
 13
131.7111869923542
 23
-80.29422645691596
 33
0.0
  0
SOLID
  5
67
330
56
100
AcDbEntity
  8
LIVELLO_1
 62
   250
100
AcDbTrace
 10
131.7111869923542
 20
-129.7073143032119
 30
0.0
 11
131.7111869923542
 21
-129.2896913874907
 31
0.0
 12
132.1537660285324
 22
-130.0059698025678
 32
0.0
 13
132.1537660285324
 23
-130.0059698025678
 33
0.0
  0
SOLID
  5
68
330
56
100
AcDbEntity
  8
LIVELLO_1
 62
   250
100
AcDbTrace
 10
132.1537660285324
 20
-130.0059698025678
 30
0.0
 11
131.7111869923542
 21
-129.2896913874907
 31
0.0
 12
132.1537660285324
 22
-129.5883726510612
 32
0.0
 13
132.1537660285324
 23
-129.5883726510612
 33
0.0
  0
SOLID
  5
69
330
56
100
AcDbEntity
  8
LIVELLO_1
 62
   250
100
AcDbTrace
 10
131.7111869923542
 20
-80.7117779881772
 30
0.0
 11
131.7111869923542
 21
-80.29422645691596
 31
0.0
 12
132.1537660285324
 22
-80.41314192766524
 32
0.0
 13
132.1537660285324
 23
-80.41314192766524
 33
0.0
  0
SOLID
  5
6A
330
56
100
AcDbEntity
  8
LIVELLO_1
 62
   250
100
AcDbTrace
 10
132.1537660285324
 20
-80.41314192766524
 30
0.0
 11
131.7111869923542
 21
-80.29422645691596
 31
0.0
 12
132.1537660285324
 22
-79.99558300900648
 32
0.0
 13
132.1537660285324
 23
-79.99558300900648
 33
0.0
  0
SOLID
  5
6B
330
56
100
AcDbEntity
  8
LIVELLO_1
 62
   250
100
AcDbTrace
 10
132.1537660285324
 20
-130.0059698025678
 30
0.0
 11
132.1537660285324
 21
-129.5883726510612
 31
0.0
 12
132.2909319669814
 22
-130.0337328421068
 32
0.0
 13
132.2909319669814
 23
-130.0337328421068
 33
0.0
  0
SOLID
  5
6C
330
56
100
AcDbEntity
  8
LIVELLO_1
 62
   250
100
AcDbTrace
 10
132.2909319669814
 20
-130.0337328421068
 30
0.0
 11
132.1537660285324
 21
-129.5883726510612
 31
0.0
 12
132.2909319669814
 22
-129.6809411924195
 32
0.0
 13
132.2909319669814
 23
-129.6809411924195
 33
0.0
  0
SOLID
  5
6D
330
56
100
AcDbEntity
  8
LIVELLO_1
 62
   250
100
AcDbTrace
 10
132.1537660285324
 20
-80.41314192766524
 30
0.0
 11
132.1537660285324
 21
-79.99558300900648
 31
0.0
 12
132.2909319669814
 22
-80.32058739582709
 32
0.0
 13
132.2909319669814
 23
-80.32058739582709
 33
0.0
  0
SOLID
  5
6E
330
56
100
AcDbEntity
  8
LIVELLO_1
 62
   250
100
AcDbTrace
 10
132.2909319669814
 20
-80.32058739582709
 30
0.0
 11
132.1537660285324
 21
-79.99558300900648
 31
0.0
 12
132.2909319669814
 22
-79.96782040566403
 32
0.0
 13
132.2909319669814
 23
-79.96782040566403
 33
0.0
  0
SOLID
  5
6F
330
56
100
AcDbEntity
  8
LIVELLO_1
 62
   250
100
AcDbTrace
 10
132.2909319669814
 20
-130.0337328421068
 30
0.0
 11
132.2909319669814
 21
-129.6809411924195
 31
0.0
 12
133.0001264044669
 22
-130.1772771755718
 32
0.0
 13
133.0001264044669
 23
-130.1772771755718
 33
0.0
  0
SOLID
  5
70
330
56
100
AcDbEntity
  8
LIVELLO_1
 62
   250
100
AcDbTrace
 10
133.0001264044669
 20
-130.1772771755718
 30
0.0
 11
132.2909319669814
 21
-129.6809411924195
 31
0.0
 12
133.0001264044669
 22
-129.8244993978822
 32
0.0
 13
133.0001264044669
 23
-129.8244993978822
 33
0.0
  0
SOLID
  5
71
330
56
100
AcDbEntity
  8
LIVELLO_1
 62
   250
100
AcDbTrace
 10
132.2909319669814
 20
-80.32058739582709
 30
0.0
 11
132.2909319669814
 21
-79.96782040566403
 31
0.0
 12
133.0001264044669
 22
-80.17705610517287
 32
0.0
 13
133.0001264044669
 23
-80.17705610517287
 33
0.0
  0
SOLID
  5
72
330
56
100
AcDbEntity
  8
LIVELLO_1
 62
   250
100
AcDbTrace
 10
133.0001264044669
 20
-80.17705610517287
 30
0.0
 11
132.2909319669814
 21
-79.96782040566403
 31
0.0
 12
133.0001264044669
 22
-79.82427832748328
 32
0.0
 13
133.0001264044669
 23
-79.82427832748328
 33
0.0
  0
SOLID
  5
73
330
56
100
AcDbEntity
  8
LIVELLO_1
 62
   250
100
AcDbTrace
 10
133.0001264044669
 20
-130.1772771755718
 30
0.0
 11
133.0001264044669
 21
-129.8244993978822
 31
0.0
 12
133.3331342460237
 22
-130.1772771755718
 32
0.0
 13
133.3331342460237
 23
-130.1772771755718
 33
0.0
  0
SOLID
  5
74
330
56
100
AcDbEntity
  8
LIVELLO_1
 62
   250
100
AcDbTrace
 10
133.3331342460237
 20
-130.1772771755718
 30
0.0
 11
133.0001264044669
 21
-129.8244993978822
 31
0.0
 12
133.3331342460237
 22
-129.8244993978822
 32
0.0
 13
133.3331342460237
 23
-129.8244993978822
 33
0.0
  0
SOLID
  5
75
330
56
100
AcDbEntity
  8
LIVELLO_1
 62
   250
100
AcDbTrace
 10
133.0001264044669
 20
-80.17705610517287
 30
0.0
 11
133.0001264044669
 21
-79.82427832748328
 31
0.0
 12
133.3331342460237
 22
-80.17705610517287
 32
0.0
 13
133.3331342460237
 23
-80.17705610517287
 33
0.0
  0
SOLID
  5
76
330
56
100
AcDbEntity
  8
LIVELLO_1
 62
   250
100
AcDbTrace
 10
133.3331342460237
 20
-80.17705610517287
 30
0.0
 11
133.0001264044669
 21
-79.82427832748328
 31
0.0
 12
133.3331342460237
 22
-79.82427832748328
 32
0.0
 13
133.3331342460237
 23
-79.82427832748328
 33
0.0
  0
SOLID
  5
77
330
56
100
AcDbEntity
  8
LIVELLO_1
 62
   250
100
AcDbTrace
 10
133.3331342460237
 20
-130.1772771755718
 30
0.0
 11
133.3331342460237
 21
-129.8244993978822
 31
0.0
 12
134.211064010128
 22
-130.1772771755718
 32
0.0
 13
134.211064010128
 23
-130.1772771755718
 33
0.0
  0
SOLID
  5
78
330
56
100
AcDbEntity
  8
LIVELLO_1
 62
   250
100
AcDbTrace
 10
134.211064010128
 20
-130.1772771755718
 30
0.0
 11
133.3331342460237
 21
-129.8244993978822
 31
0.0
 12
134.211064010128
 22
-129.8244993978822
 32
0.0
 13
134.211064010128
 23
-129.8244993978822
 33
0.0
  0
SOLID
  5
79
330
56
100
AcDbEntity
  8
LIVELLO_1
 62
   250
100
AcDbTrace
 10
133.3331342460237
 20
-80.17705610517287
 30
0.0
 11
133.3331342460237
 21
-79.82427832748328
 31
0.0
 12
134.211064010128
 22
-80.17705610517287
 32
0.0
 13
134.211064010128
 23
-80.17705610517287
 33
0.0
  0
SOLID
  5
7A
330
56
100
AcDbEntity
  8
LIVELLO_1
 62
   250
100
AcDbTrace
 10
134.211064010128
 20
-80.17705610517287
 30
0.0
 11
133.3331342460237
 21
-79.82427832748328
 31
0.0
 12
134.211064010128
 22
-79.82427832748328
 32
0.0
 13
134.211064010128
 23
-79.82427832748328
 33
0.0
  0
SOLID
  5
7B
330
56
100
AcDbEntity
  8
LIVELLO_1
 62
   250
100
AcDbTrace
 10
134.211064010128
 20
-130.1772771755718
 30
0.0
 11
134.211064010128
 21
-129.8244993978822
 31
0.0
 12
136.8751267425823
 22
-130.1772771755718
 32
0.0
 13
136.8751267425823
 23
-130.1772771755718
 33
0.0
  0
SOLID
  5
7C
330
56
100
AcDbEntity
  8
LIVELLO_1
 62
   250
100
AcDbTrace
 10
136.8751267425823
 20
-130.1772771755718
 30
0.0
 11
134.211064010128
 21
-129.8244993978822
 31
0.0
 12
136.8751267425823
 22
-129.8244993978822
 32
0.0
 13
136.8751267425823
 23
-129.8244993978822
 33
0.0
  0
SOLID
  5
7D
330
56
100
AcDbEntity
  8
LIVELLO_1
 62
   250
100
AcDbTrace
 10
134.211064010128
 20
-80.17705610517287
 30
0.0
 11
134.211064010128
 21
-79.82427832748328
 31
0.0
 12
136.8751267425823
 22
-80.17705610517287
 32
0.0
 13
136.8751267425823
 23
-80.17705610517287
 33
0.0
  0
SOLID
  5
7E
330
56
100
AcDbEntity
  8
LIVELLO_1
 62
   250
100
AcDbTrace
 10
136.8751267425823
 20
-80.17705610517287
 30
0.0
 11
134.211064010128
 21
-79.82427832748328
 31
0.0
 12
136.8751267425823
 22
-79.82427832748328
 32
0.0
 13
136.8751267425823
 23
-79.82427832748328
 33
0.0
  0
SOLID
  5
7F
330
56
100
AcDbEntity
  8
LIVELLO_1
 62
   250
100
AcDbTrace
 10
136.8751267425823
 20
-130.1772771755718
 30
0.0
 11
136.8751267425823
 21
-129.8244993978822
 31
0.0
 12
139.5391894750367
 22
-130.1772771755718
 32
0.0
 13
139.5391894750367
 23
-130.1772771755718
 33
0.0
  0
SOLID
  5
80
330
56
100
AcDbEntity
  8
LIVELLO_1
 62
   250
100
AcDbTrace
 10
139.5391894750367
 20
-130.1772771755718
 30
0.0
 11
136.8751267425823
 21
-129.8244993978822
 31
0.0
 12
139.5391894750367
 22
-129.8244993978822
 32
0.0
 13
139.5391894750367
 23
-129.8244993978822
 33
0.0
  0
SOLID
  5
81
330
56
100
AcDbEntity
  8
LIVELLO_1
 62
   250
100
AcDbTrace
 10
136.8751267425823
 20
-80.17705610517287
 30
0.0
 11
136.8751267425823
 21
-79.82427832748328
 31
0.0
 12
139.5391894750367
 22
-80.17705610517287
 32
0.0
 13
139.5391894750367
 23
-80.17705610517287
 33
0.0
  0
SOLID
  5
82
330
56
100
AcDbEntity
  8
LIVELLO_1
 62
   250
100
AcDbTrace
 10
139.5391894750367
 20
-80.17705610517287
 30
0.0
 11
136.8751267425823
 21
-79.82427832748328
 31
0.0
 12
139.5391894750367
 22
-79.82427832748328
 32
0.0
 13
139.5391894750367
 23
-79.82427832748328
 33
0.0
  0
SOLID
  5
83
330
56
100
AcDbEntity
  8
LIVELLO_1
 62
   250
100
AcDbTrace
 10
139.5391894750367
 20
-130.1772771755718
 30
0.0
 11
139.5391894750367
 21
-129.8244993978822
 31
0.0
 12
140.417119239141
 22
-130.1772771755718
 32
0.0
 13
140.417119239141
 23
-130.1772771755718
 33
0.0
  0
SOLID
  5
84
330
56
100
AcDbEntity
  8
LIVELLO_1
 62
   250
100
AcDbTrace
 10
140.417119239141
 20
-130.1772771755718
 30
0.0
 11
139.5391894750367
 21
-129.8244993978822
 31
0.0
 12
140.417119239141
 22
-129.8244993978822
 32
0.0
 13
140.417119239141
 23
-129.8244993978822
 33
0.0
  0
SOLID
  5
85
330
56
100
AcDbEntity
  8
LIVELLO_1
 62
   250
100
AcDbTrace
 10
139.5391894750367
 20
-80.17705610517287
 30
0.0
 11
139.5391894750367
 21
-79.82427832748328
 31
0.0
 12
140.417119239141
 22
-80.17705610517287
 32
0.0
 13
140.417119239141
 23
-80.17705610517287
 33
0.0
  0
SOLID
  5
86
330
56
100
AcDbEntity
  8
LIVELLO_1
 62
   250
100
AcDbTrace
 10
140.417119239141
 20
-80.17705610517287
 30
0.0
 11
139.5391894750367
 21
-79.82427832748328
 31
0.0
 12
140.417119239141
 22
-79.82427832748328
 32
0.0
 13
140.417119239141
 23
-79.82427832748328
 33
0.0
  0
SOLID
  5
87
330
56
100
AcDbEntity
  8
LIVELLO_1
 62
   250
100
AcDbTrace
 10
140.417119239141
 20
-130.1772771755718
 30
0.0
 11
140.417119239141
 21
-129.8244993978822
 31
0.0
 12
140.7501270806978
 22
-130.1772771755718
 32
0.0
 13
140.7501270806978
 23
-130.1772771755718
 33
0.0
  0
SOLID
  5
88
330
56
100
AcDbEntity
  8
LIVELLO_1
 62
   250
100
AcDbTrace
 10
140.7501270806978
 20
-130.1772771755718
 30
0.0
 11
140.417119239141
 21
-129.8244993978822
 31
0.0
 12
140.7501270806978
 22
-129.8244993978822
 32
0.0
 13
140.7501270806978
 23
-129.8244993978822
 33
0.0
  0
SOLID
  5
89
330
56
100
AcDbEntity
  8
LIVELLO_1
 62
   250
100
AcDbTrace
 10
140.417119239141
 20
-80.17705610517287
 30
0.0
 11
140.417119239141
 21
-79.82427832748328
 31
0.0
 12
140.7501270806978
 22
-80.17705610517287
 32
0.0
 13
140.7501270806978
 23
-80.17705610517287
 33
0.0
  0
SOLID
  5
8A
330
56
100
AcDbEntity
  8
LIVELLO_1
 62
   250
100
AcDbTrace
 10
140.7501270806978
 20
-80.17705610517287
 30
0.0
 11
140.417119239141
 21
-79.82427832748328
 31
0.0
 12
140.7501270806978
 22
-79.82427832748328
 32
0.0
 13
140.7501270806978
 23
-79.82427832748328
 33
0.0
  0
SOLID
  5
8B
330
56
100
AcDbEntity
  8
LIVELLO_1
 62
   250
100
AcDbTrace
 10
140.7501270806978
 20
-130.1772771755718
 30
0.0
 11
140.7501270806978
 21
-129.8244993978822
 31
0.0
 12
141.0831349222546
 22
-130.1772771755718
 32
0.0
 13
141.0831349222546
 23
-130.1772771755718
 33
0.0
  0
SOLID
  5
8C
330
56
100
AcDbEntity
  8
LIVELLO_1
 62
   250
100
AcDbTrace
 10
141.0831349222546
 20
-130.1772771755718
 30
0.0
 11
140.7501270806978
 21
-129.8244993978822
 31
0.0
 12
141.0831349222546
 22
-129.8244993978822
 32
0.0
 13
141.0831349222546
 23
-129.8244993978822
 33
0.0
  0
SOLID
  5
8D
330
56
100
AcDbEntity
  8
LIVELLO_1
 62
   250
100
AcDbTrace
 10
140.7501270806978
 20
-80.17705610517287
 30
0.0
 11
140.7501270806978
 21
-79.82427832748328
 31
0.0
 12
141.0831349222546
 22
-80.17705610517287
 32
0.0
 13
141.0831349222546
 23
-80.17705610517287
 33
0.0
  0
SOLID
  5
8E
330
56
100
AcDbEntity
  8
LIVELLO_1
 62
   250
100
AcDbTrace
 10
141.0831349222546
 20
-80.17705610517287
 30
0.0
 11
140.7501270806978
 21
-79.82427832748328
 31
0.0
 12
141.0831349222546
 22
-79.82427832748328
 32
0.0
 13
141.0831349222546
 23
-79.82427832748328
 33
0.0
  0
SOLID
  5
8F
330
56
100
AcDbEntity
  8
LIVELLO_1
 62
   250
100
AcDbTrace
 10
141.0831349222546
 20
-130.1772771755718
 30
0.0
 11
141.0831349222546
 21
-129.8244993978822
 31
0.0
 12
141.9610646863589
 22
-130.1772771755718
 32
0.0
 13
141.9610646863589
 23
-130.1772771755718
 33
0.0
  0
SOLID
  5
90
330
56
100
AcDbEntity
  8
LIVELLO_1
 62
   250
100
AcDbTrace
 10
141.9610646863589
 20
-130.1772771755718
 30
0.0
 11
141.0831349222546
 21
-129.8244993978822
 31
0.0
 12
141.9610646863589
 22
-129.8244993978822
 32
0.0
 13
141.9610646863589
 23
-129.8244993978822
 33
0.0
  0
SOLID
  5
91
330
56
100
AcDbEntity
  8
LIVELLO_1
 62
   250
100
AcDbTrace
 10
141.0831349222546
 20
-80.17705610517287
 30
0.0
 11
141.0831349222546
 21
-79.82427832748328
 31
0.0
 12
141.9610646863589
 22
-80.17705610517287
 32
0.0
 13
141.9610646863589
 23
-80.17705610517287
 33
0.0
  0
SOLID
  5
92
330
56
100
AcDbEntity
  8
LIVELLO_1
 62
   250
100
AcDbTrace
 10
141.9610646863589
 20
-80.17705610517287
 30
0.0
 11
141.0831349222546
 21
-79.82427832748328
 31
0.0
 12
141.9610646863589
 22
-79.82427832748328
 32
0.0
 13
141.9610646863589
 23
-79.82427832748328
 33
0.0
  0
SOLID
  5
93
330
56
100
AcDbEntity
  8
LIVELLO_1
 62
   250
100
AcDbTrace
 10
141.9610646863589
 20
-130.1772771755718
 30
0.0
 11
141.9610646863589
 21
-129.8244993978822
 31
0.0
 12
144.6251274188132
 22
-130.1772771755718
 32
0.0
 13
144.6251274188132
 23
-130.1772771755718
 33
0.0
  0
SOLID
  5
94
330
56
100
AcDbEntity
  8
LIVELLO_1
 62
   250
100
AcDbTrace
 10
144.6251274188132
 20
-130.1772771755718
 30
0.0
 11
141.9610646863589
 21
-129.8244993978822
 31
0.0
 12
144.6251274188132
 22
-129.8244993978822
 32
0.0
 13
144.6251274188132
 23
-129.8244993978822
 33
0.0
  0
SOLID
  5
95
330
56
100
AcDbEntity
  8
LIVELLO_1
 62
   250
100
AcDbTrace
 10
141.9610646863589
 20
-80.17705610517287
 30
0.0
 11
141.9610646863589
 21
-79.82427832748328
 31
0.0
 12
144.6251274188132
 22
-80.17705610517287
 32
0.0
 13
144.6251274188132
 23
-80.17705610517287
 33
0.0
  0
SOLID
  5
96
330
56
100
AcDbEntity
  8
LIVELLO_1
 62
   250
100
AcDbTrace
 10
144.6251274188132
 20
-80.17705610517287
 30
0.0
 11
141.9610646863589
 21
-79.82427832748328
 31
0.0
 12
144.6251274188132
 22
-79.82427832748328
 32
0.0
 13
144.6251274188132
 23
-79.82427832748328
 33
0.0
  0
SOLID
  5
97
330
56
100
AcDbEntity
  8
LIVELLO_1
 62
   250
100
AcDbTrace
 10
144.6251274188132
 20
-130.1772771755718
 30
0.0
 11
144.6251274188132
 21
-129.8244993978822
 31
0.0
 12
147.2891901512676
 22
-130.1772771755718
 32
0.0
 13
147.2891901512676
 23
-130.1772771755718
 33
0.0
  0
SOLID
  5
98
330
56
100
AcDbEntity
  8
LIVELLO_1
 62
   250
100
AcDbTrace
 10
147.2891901512676
 20
-130.1772771755718
 30
0.0
 11
144.6251274188132
 21
-129.8244993978822
 31
0.0
 12
147.2891901512676
 22
-129.8244993978822
 32
0.0
 13
147.2891901512676
 23
-129.8244993978822
 33
0.0
  0
SOLID
  5
99
330
56
100
AcDbEntity
  8
LIVELLO_1
 62
   250
100
AcDbTrace
 10
144.6251274188132
 20
-80.17705610517287
 30
0.0
 11
144.6251274188132
 21
-79.82427832748328
 31
0.0
 12
147.2891901512676
 22
-80.17705610517287
 32
0.0
 13
147.2891901512676
 23
-80.17705610517287
 33
0.0
  0
SOLID
  5
9A
330
56
100
AcDbEntity
  8
LIVELLO_1
 62
   250
100
AcDbTrace
 10
147.2891901512676
 20
-80.17705610517287
 30
0.0
 11
144.6251274188132
 21
-79.82427832748328
 31
0.0
 12
147.2891901512676
 22
-79.82427832748328
 32
0.0
 13
147.2891901512676
 23
-79.82427832748328
 33
0.0
  0
SOLID
  5
9B
330
56
100
AcDbEntity
  8
LIVELLO_1
 62
   250
100
AcDbTrace
 10
147.2891901512676
 20
-130.1772771755718
 30
0.0
 11
147.2891901512676
 21
-129.8244993978822
 31
0.0
 12
148.1671199153719
 22
-130.1772771755718
 32
0.0
 13
148.1671199153719
 23
-130.1772771755718
 33
0.0
  0
SOLID
  5
9C
330
56
100
AcDbEntity
  8
LIVELLO_1
 62
   250
100
AcDbTrace
 10
148.1671199153719
 20
-130.1772771755718
 30
0.0
 11
147.2891901512676
 21
-129.8244993978822
 31
0.0
 12
148.1671199153719
 22
-129.8244993978822
 32
0.0
 13
148.1671199153719
 23
-129.8244993978822
 33
0.0
  0
SOLID
  5
9D
330
56
100
AcDbEntity
  8
LIVELLO_1
 62
   250
100
AcDbTrace
 10
147.2891901512676
 20
-80.17705610517287
 30
0.0
 11
147.2891901512676
 21
-79.82427832748328
 31
0.0
 12
148.1671199153719
 22
-80.17705610517287
 32
0.0
 13
148.1671199153719
 23
-80.17705610517287
 33
0.0
  0
SOLID
  5
9E
330
56
100
AcDbEntity
  8
LIVELLO_1
 62
   250
100
AcDbTrace
 10
148.1671199153719
 20
-80.17705610517287
 30
0.0
 11
147.2891901512676
 21
-79.82427832748328
 31
0.0
 12
148.1671199153719
 22
-79.82427832748328
 32
0.0
 13
148.1671199153719
 23
-79.82427832748328
 33
0.0
  0
SOLID
  5
9F
330
56
100
AcDbEntity
  8
LIVELLO_1
 62
   250
100
AcDbTrace
 10
148.1671199153719
 20
-130.1772771755718
 30
0.0
 11
148.1671199153719
 21
-129.8244993978822
 31
0.0
 12
148.5001277569287
 22
-130.1772771755718
 32
0.0
 13
148.5001277569287
 23
-130.1772771755718
 33
0.0
  0
SOLID
  5
A0
330
56
100
AcDbEntity
  8
LIVELLO_1
 62
   250
100
AcDbTrace
 10
148.5001277569287
 20
-130.1772771755718
 30
0.0
 11
148.1671199153719
 21
-129.8244993978822
 31
0.0
 12
148.5001277569287
 22
-129.8244993978822
 32
0.0
 13
148.5001277569287
 23
-129.8244993978822
 33
0.0
  0
SOLID
  5
A1
330
56
100
AcDbEntity
  8
LIVELLO_1
 62
   250
100
AcDbTrace
 10
148.1671199153719
 20
-80.17705610517287
 30
0.0
 11
148.1671199153719
 21
-79.82427832748328
 31
0.0
 12
148.5001277569287
 22
-80.17705610517287
 32
0.0
 13
148.5001277569287
 23
-80.17705610517287
 33
0.0
  0
SOLID
  5
A2
330
56
100
AcDbEntity
  8
LIVELLO_1
 62
   250
100
AcDbTrace
 10
148.5001277569287
 20
-80.17705610517287
 30
0.0
 11
148.1671199153719
 21
-79.82427832748328
 31
0.0
 12
148.5001277569287
 22
-79.82427832748328
 32
0.0
 13
148.5001277569287
 23
-79.82427832748328
 33
0.0
  0
SOLID
  5
A3
330
56
100
AcDbEntity
  8
LIVELLO_1
 62
   250
100
AcDbTrace
 10
148.5001277569287
 20
-130.1772771755718
 30
0.0
 11
148.5001277569287
 21
-129.8244993978822
 31
0.0
 12
148.8331355984855
 22
-130.1772771755718
 32
0.0
 13
148.8331355984855
 23
-130.1772771755718
 33
0.0
  0
SOLID
  5
A4
330
56
100
AcDbEntity
  8
LIVELLO_1
 62
   250
100
AcDbTrace
 10
148.8331355984855
 20
-130.1772771755718
 30
0.0
 11
148.5001277569287
 21
-129.8244993978822
 31
0.0
 12
148.8331355984855
 22
-129.8244993978822
 32
0.0
 13
148.8331355984855
 23
-129.8244993978822
 33
0.0
  0
SOLID
  5
A5
330
56
100
AcDbEntity
  8
LIVELLO_1
 62
   250
100
AcDbTrace
 10
148.5001277569287
 20
-80.17705610517287
 30
0.0
 11
148.5001277569287
 21
-79.82427832748328
 31
0.0
 12
148.8331355984855
 22
-80.17705610517287
 32
0.0
 13
148.8331355984855
 23
-80.17705610517287
 33
0.0
  0
SOLID
  5
A6
330
56
100
AcDbEntity
  8
LIVELLO_1
 62
   250
100
AcDbTrace
 10
148.8331355984855
 20
-80.17705610517287
 30
0.0
 11
148.5001277569287
 21
-79.82427832748328
 31
0.0
 12
148.8331355984855
 22
-79.82427832748328
 32
0.0
 13
148.8331355984855
 23
-79.82427832748328
 33
0.0
  0
SOLID
  5
A7
330
56
100
AcDbEntity
  8
LIVELLO_1
 62
   250
100
AcDbTrace
 10
148.8331355984855
 20
-130.1772771755718
 30
0.0
 11
148.8331355984855
 21
-129.8244993978822
 31
0.0
 12
149.7110653625898
 22
-130.1772771755718
 32
0.0
 13
149.7110653625898
 23
-130.1772771755718
 33
0.0
  0
SOLID
  5
A8
330
56
100
AcDbEntity
  8
LIVELLO_1
 62
   250
100
AcDbTrace
 10
149.7110653625898
 20
-130.1772771755718
 30
0.0
 11
148.8331355984855
 21
-129.8244993978822
 31
0.0
 12
149.7110653625898
 22
-129.8244993978822
 32
0.0
 13
149.7110653625898
 23
-129.8244993978822
 33
0.0
  0
SOLID
  5
A9
330
56
100
AcDbEntity
  8
LIVELLO_1
 62
   250
100
AcDbTrace
 10
148.8331355984855
 20
-80.17705610517287
 30
0.0
 11
148.8331355984855
 21
-79.82427832748328
 31
0.0
 12
149.7110653625898
 22
-80.17705610517287
 32
0.0
 13
149.7110653625898
 23
-80.17705610517287
 33
0.0
  0
SOLID
  5
AA
330
56
100
AcDbEntity
  8
LIVELLO_1
 62
   250
100
AcDbTrace
 10
149.7110653625898
 20
-80.17705610517287
 30
0.0
 11
148.8331355984855
 21
-79.82427832748328
 31
0.0
 12
149.7110653625898
 22
-79.82427832748328
 32
0.0
 13
149.7110653625898
 23
-79.82427832748328
 33
0.0
  0
SOLID
  5
AB
330
56
100
AcDbEntity
  8
LIVELLO_1
 62
   250
100
AcDbTrace
 10
149.7110653625898
 20
-130.1772771755718
 30
0.0
 11
149.7110653625898
 21
-129.8244993978822
 31
0.0
 12
152.3751280950441
 22
-130.1772771755718
 32
0.0
 13
152.3751280950441
 23
-130.1772771755718
 33
0.0
  0
SOLID
  5
AC
330
56
100
AcDbEntity
  8
LIVELLO_1
 62
   250
100
AcDbTrace
 10
152.3751280950441
 20
-130.1772771755718
 30
0.0
 11
149.7110653625898
 21
-129.8244993978822
 31
0.0
 12
152.3751280950441
 22
-129.8244993978822
 32
0.0
 13
152.3751280950441
 23
-129.8244993978822
 33
0.0
  0
SOLID
  5
AD
330
56
100
AcDbEntity
  8
LIVELLO_1
 62
   250
100
AcDbTrace
 10
149.7110653625898
 20
-80.17705610517287
 30
0.0
 11
149.7110653625898
 21
-79.82427832748328
 31
0.0
 12
152.3751280950441
 22
-80.17705610517287
 32
0.0
 13
152.3751280950441
 23
-80.17705610517287
 33
0.0
  0
SOLID
  5
AE
330
56
100
AcDbEntity
  8
LIVELLO_1
 62
   250
100
AcDbTrace
 10
152.3751280950441
 20
-80.17705610517287
 30
0.0
 11
149.7110653625898
 21
-79.82427832748328
 31
0.0
 12
152.3751280950441
 22
-79.82427832748328
 32
0.0
 13
152.3751280950441
 23
-79.82427832748328
 33
0.0
  0
SOLID
  5
AF
330
56
100
AcDbEntity
  8
LIVELLO_1
 62
   250
100
AcDbTrace
 10
152.3751280950441
 20
-130.1772771755718
 30
0.0
 11
152.3751280950441
 21
-129.8244993978822
 31
0.0
 12
155.0391908274985
 22
-130.1772771755718
 32
0.0
 13
155.0391908274985
 23
-130.1772771755718
 33
0.0
  0
SOLID
  5
B0
330
56
100
AcDbEntity
  8
LIVELLO_1
 62
   250
100
AcDbTrace
 10
155.0391908274985
 20
-130.1772771755718
 30
0.0
 11
152.3751280950441
 21
-129.8244993978822
 31
0.0
 12
155.0391908274985
 22
-129.8244993978822
 32
0.0
 13
155.0391908274985
 23
-129.8244993978822
 33
0.0
  0
SOLID
  5
B1
330
56
100
AcDbEntity
  8
LIVELLO_1
 62
   250
100
AcDbTrace
 10
152.3751280950441
 20
-80.17705610517287
 30
0.0
 11
152.3751280950441
 21
-79.82427832748328
 31
0.0
 12
155.0391908274985
 22
-80.17705610517287
 32
0.0
 13
155.0391908274985
 23
-80.17705610517287
 33
0.0
  0
SOLID
  5
B2
330
56
100
AcDbEntity
  8
LIVELLO_1
 62
   250
100
AcDbTrace
 10
155.0391908274985
 20
-80.17705610517287
 30
0.0
 11
152.3751280950441
 21
-79.82427832748328
 31
0.0
 12
155.0391908274985
 22
-79.82427832748328
 32
0.0
 13
155.0391908274985
 23
-79.82427832748328
 33
0.0
  0
SOLID
  5
B3
330
56
100
AcDbEntity
  8
LIVELLO_1
 62
   250
100
AcDbTrace
 10
155.0391908274985
 20
-130.1772771755718
 30
0.0
 11
155.0391908274985
 21
-129.8244993978822
 31
0.0
 12
155.9171205916028
 22
-130.1772771755718
 32
0.0
 13
155.9171205916028
 23
-130.1772771755718
 33
0.0
  0
SOLID
  5
B4
330
56
100
AcDbEntity
  8
LIVELLO_1
 62
   250
100
AcDbTrace
 10
155.9171205916028
 20
-130.1772771755718
 30
0.0
 11
155.0391908274985
 21
-129.8244993978822
 31
0.0
 12
155.9171205916028
 22
-129.8244993978822
 32
0.0
 13
155.9171205916028
 23
-129.8244993978822
 33
0.0
  0
SOLID
  5
B5
330
56
100
AcDbEntity
  8
LIVELLO_1
 62
   250
100
AcDbTrace
 10
155.0391908274985
 20
-80.17705610517287
 30
0.0
 11
155.0391908274985
 21
-79.82427832748328
 31
0.0
 12
155.9171205916028
 22
-80.17705610517287
 32
0.0
 13
155.9171205916028
 23
-80.17705610517287
 33
0.0
  0
SOLID
  5
B6
330
56
100
AcDbEntity
  8
LIVELLO_1
 62
   250
100
AcDbTrace
 10
155.9171205916028
 20
-80.17705610517287
 30
0.0
 11
155.0391908274985
 21
-79.82427832748328
 31
0.0
 12
155.9171205916028
 22
-79.82427832748328
 32
0.0
 13
155.9171205916028
 23
-79.82427832748328
 33
0.0
  0
SOLID
  5
B7
330
56
100
AcDbEntity
  8
LIVELLO_1
 62
   250
100
AcDbTrace
 10
155.9171205916028
 20
-130.1772771755718
 30
0.0
 11
155.9171205916028
 21
-129.8244993978822
 31
0.0
 12
156.2501284331596
 22
-130.1772771755718
 32
0.0
 13
156.2501284331596
 23
-130.1772771755718
 33
0.0
  0
SOLID
  5
B8
330
56
100
AcDbEntity
  8
LIVELLO_1
 62
   250
100
AcDbTrace
 10
156.2501284331596
 20
-130.1772771755718
 30
0.0
 11
155.9171205916028
 21
-129.8244993978822
 31
0.0
 12
156.2501284331596
 22
-129.8244993978822
 32
0.0
 13
156.2501284331596
 23
-129.8244993978822
 33
0.0
  0
SOLID
  5
B9
330
56
100
AcDbEntity
  8
LIVELLO_1
 62
   250
100
AcDbTrace
 10
155.9171205916028
 20
-80.17705610517287
 30
0.0
 11
155.9171205916028
 21
-79.82427832748328
 31
0.0
 12
156.2501284331596
 22
-80.17705610517287
 32
0.0
 13
156.2501284331596
 23
-80.17705610517287
 33
0.0
  0
SOLID
  5
BA
330
56
100
AcDbEntity
  8
LIVELLO_1
 62
   250
100
AcDbTrace
 10
156.2501284331596
 20
-80.17705610517287
 30
0.0
 11
155.9171205916028
 21
-79.82427832748328
 31
0.0
 12
156.2501284331596
 22
-79.82427832748328
 32
0.0
 13
156.2501284331596
 23
-79.82427832748328
 33
0.0
  0
SOLID
  5
BB
330
56
100
AcDbEntity
  8
LIVELLO_1
 62
   250
100
AcDbTrace
 10
156.2501284331596
 20
-130.1772771755718
 30
0.0
 11
156.2501284331596
 21
-129.8244993978822
 31
0.0
 12
156.5831362747164
 22
-130.1772771755718
 32
0.0
 13
156.5831362747164
 23
-130.1772771755718
 33
0.0
  0
SOLID
  5
BC
330
56
100
AcDbEntity
  8
LIVELLO_1
 62
   250
100
AcDbTrace
 10
156.5831362747164
 20
-130.1772771755718
 30
0.0
 11
156.2501284331596
 21
-129.8244993978822
 31
0.0
 12
156.5831362747164
 22
-129.8244993978822
 32
0.0
 13
156.5831362747164
 23
-129.8244993978822
 33
0.0
  0
SOLID
  5
BD
330
56
100
AcDbEntity
  8
LIVELLO_1
 62
   250
100
AcDbTrace
 10
156.2501284331596
 20
-80.17705610517287
 30
0.0
 11
156.2501284331596
 21
-79.82427832748328
 31
0.0
 12
156.5831362747164
 22
-80.17705610517287
 32
0.0
 13
156.5831362747164
 23
-80.17705610517287
 33
0.0
  0
SOLID
  5
BE
330
56
100
AcDbEntity
  8
LIVELLO_1
 62
   250
100
AcDbTrace
 10
156.5831362747164
 20
-80.17705610517287
 30
0.0
 11
156.2501284331596
 21
-79.82427832748328
 31
0.0
 12
156.5831362747164
 22
-79.82427832748328
 32
0.0
 13
156.5831362747164
 23
-79.82427832748328
 33
0.0
  0
SOLID
  5
BF
330
56
100
AcDbEntity
  8
LIVELLO_1
 62
   250
100
AcDbTrace
 10
156.5831362747164
 20
-130.1772771755718
 30
0.0
 11
156.5831362747164
 21
-129.8244993978822
 31
0.0
 12
157.4610660388207
 22
-130.1772771755718
 32
0.0
 13
157.4610660388207
 23
-130.1772771755718
 33
0.0
  0
SOLID
  5
C0
330
56
100
AcDbEntity
  8
LIVELLO_1
 62
   250
100
AcDbTrace
 10
157.4610660388207
 20
-130.1772771755718
 30
0.0
 11
156.5831362747164
 21
-129.8244993978822
 31
0.0
 12
157.4610660388207
 22
-129.8244993978822
 32
0.0
 13
157.4610660388207
 23
-129.8244993978822
 33
0.0
  0
SOLID
  5
C1
330
56
100
AcDbEntity
  8
LIVELLO_1
 62
   250
100
AcDbTrace
 10
156.5831362747164
 20
-80.17705610517287
 30
0.0
 11
156.5831362747164
 21
-79.82427832748328
 31
0.0
 12
157.4610660388207
 22
-80.17705610517287
 32
0.0
 13
157.4610660388207
 23
-80.17705610517287
 33
0.0
  0
SOLID
  5
C2
330
56
100
AcDbEntity
  8
LIVELLO_1
 62
   250
100
AcDbTrace
 10
157.4610660388207
 20
-80.17705610517287
 30
0.0
 11
156.5831362747164
 21
-79.82427832748328
 31
0.0
 12
157.4610660388207
 22
-79.82427832748328
 32
0.0
 13
157.4610660388207
 23
-79.82427832748328
 33
0.0
  0
SOLID
  5
C3
330
56
100
AcDbEntity
  8
LIVELLO_1
 62
   250
100
AcDbTrace
 10
157.4610660388207
 20
-130.1772771755718
 30
0.0
 11
157.4610660388207
 21
-129.8244993978822
 31
0.0
 12
160.1251287712751
 22
-130.1772771755718
 32
0.0
 13
160.1251287712751
 23
-130.1772771755718
 33
0.0
  0
SOLID
  5
C4
330
56
100
AcDbEntity
  8
LIVELLO_1
 62
   250
100
AcDbTrace
 10
160.1251287712751
 20
-130.1772771755718
 30
0.0
 11
157.4610660388207
 21
-129.8244993978822
 31
0.0
 12
160.1251287712751
 22
-129.8244993978822
 32
0.0
 13
160.1251287712751
 23
-129.8244993978822
 33
0.0
  0
SOLID
  5
C5
330
56
100
AcDbEntity
  8
LIVELLO_1
 62
   250
100
AcDbTrace
 10
157.4610660388207
 20
-80.17705610517287
 30
0.0
 11
157.4610660388207
 21
-79.82427832748328
 31
0.0
 12
160.1251287712751
 22
-80.17705610517287
 32
0.0
 13
160.1251287712751
 23
-80.17705610517287
 33
0.0
  0
SOLID
  5
C6
330
56
100
AcDbEntity
  8
LIVELLO_1
 62
   250
100
AcDbTrace
 10
160.1251287712751
 20
-80.17705610517287
 30
0.0
 11
157.4610660388207
 21
-79.82427832748328
 31
0.0
 12
160.1251287712751
 22
-79.82427832748328
 32
0.0
 13
160.1251287712751
 23
-79.82427832748328
 33
0.0
  0
SOLID
  5
C7
330
56
100
AcDbEntity
  8
LIVELLO_1
 62
   250
100
AcDbTrace
 10
160.1251287712751
 20
-130.1772771755718
 30
0.0
 11
160.1251287712751
 21
-129.8244993978822
 31
0.0
 12
162.7891915037294
 22
-130.1772771755718
 32
0.0
 13
162.7891915037294
 23
-130.1772771755718
 33
0.0
  0
SOLID
  5
C8
330
56
100
AcDbEntity
  8
LIVELLO_1
 62
   250
100
AcDbTrace
 10
162.7891915037294
 20
-130.1772771755718
 30
0.0
 11
160.1251287712751
 21
-129.8244993978822
 31
0.0
 12
162.7891915037294
 22
-129.8244993978822
 32
0.0
 13
162.7891915037294
 23
-129.8244993978822
 33
0.0
  0
SOLID
  5
C9
330
56
100
AcDbEntity
  8
LIVELLO_1
 62
   250
100
AcDbTrace
 10
160.1251287712751
 20
-80.17705610517287
 30
0.0
 11
160.1251287712751
 21
-79.82427832748328
 31
0.0
 12
162.7891915037294
 22
-80.17705610517287
 32
0.0
 13
162.7891915037294
 23
-80.17705610517287
 33
0.0
  0
SOLID
  5
CA
330
56
100
AcDbEntity
  8
LIVELLO_1
 62
   250
100
AcDbTrace
 10
162.7891915037294
 20
-80.17705610517287
 30
0.0
 11
160.1251287712751
 21
-79.82427832748328
 31
0.0
 12
162.7891915037294
 22
-79.82427832748328
 32
0.0
 13
162.7891915037294
 23
-79.82427832748328
 33
0.0
  0
SOLID
  5
CB
330
56
100
AcDbEntity
  8
LIVELLO_1
 62
   250
100
AcDbTrace
 10
162.7891915037294
 20
-130.1772771755718
 30
0.0
 11
162.7891915037294
 21
-129.8244993978822
 31
0.0
 12
163.6671212678337
 22
-130.1772771755718
 32
0.0
 13
163.6671212678337
 23
-130.1772771755718
 33
0.0
  0
SOLID
  5
CC
330
56
100
AcDbEntity
  8
LIVELLO_1
 62
   250
100
AcDbTrace
 10
163.6671212678337
 20
-130.1772771755718
 30
0.0
 11
162.7891915037294
 21
-129.8244993978822
 31
0.0
 12
163.6671212678337
 22
-129.8244993978822
 32
0.0
 13
163.6671212678337
 23
-129.8244993978822
 33
0.0
  0
SOLID
  5
CD
330
56
100
AcDbEntity
  8
LIVELLO_1
 62
   250
100
AcDbTrace
 10
162.7891915037294
 20
-80.17705610517287
 30
0.0
 11
162.7891915037294
 21
-79.82427832748328
 31
0.0
 12
163.6671212678337
 22
-80.17705610517287
 32
0.0
 13
163.6671212678337
 23
-80.17705610517287
 33
0.0
  0
SOLID
  5
CE
330
56
100
AcDbEntity
  8
LIVELLO_1
 62
   250
100
AcDbTrace
 10
163.6671212678337
 20
-80.17705610517287
 30
0.0
 11
162.7891915037294
 21
-79.82427832748328
 31
0.0
 12
163.6671212678337
 22
-79.82427832748328
 32
0.0
 13
163.6671212678337
 23
-79.82427832748328
 33
0.0
  0
SOLID
  5
CF
330
56
100
AcDbEntity
  8
LIVELLO_1
 62
   250
100
AcDbTrace
 10
163.6671212678337
 20
-130.1772771755718
 30
0.0
 11
163.6671212678337
 21
-129.8244993978822
 31
0.0
 12
164.0001291093905
 22
-130.1772771755718
 32
0.0
 13
164.0001291093905
 23
-130.1772771755718
 33
0.0
  0
SOLID
  5
D0
330
56
100
AcDbEntity
  8
LIVELLO_1
 62
   250
100
AcDbTrace
 10
164.0001291093905
 20
-130.1772771755718
 30
0.0
 11
163.6671212678337
 21
-129.8244993978822
 31
0.0
 12
164.0001291093905
 22
-129.8244993978822
 32
0.0
 13
164.0001291093905
 23
-129.8244993978822
 33
0.0
  0
SOLID
  5
D1
330
56
100
AcDbEntity
  8
LIVELLO_1
 62
   250
100
AcDbTrace
 10
163.6671212678337
 20
-80.17705610517287
 30
0.0
 11
163.6671212678337
 21
-79.82427832748328
 31
0.0
 12
164.0001291093905
 22
-80.17705610517287
 32
0.0
 13
164.0001291093905
 23
-80.17705610517287
 33
0.0
  0
SOLID
  5
D2
330
56
100
AcDbEntity
  8
LIVELLO_1
 62
   250
100
AcDbTrace
 10
164.0001291093905
 20
-80.17705610517287
 30
0.0
 11
163.6671212678337
 21
-79.82427832748328
 31
0.0
 12
164.0001291093905
 22
-79.82427832748328
 32
0.0
 13
164.0001291093905
 23
-79.82427832748328
 33
0.0
  0
SOLID
  5
D3
330
56
100
AcDbEntity
  8
LIVELLO_1
 62
   250
100
AcDbTrace
 10
164.0001291093905
 20
-130.1772771755718
 30
0.0
 11
164.0001291093905
 21
-129.8244993978822
 31
0.0
 12
164.7092239620846
 22
-130.033736109157
 32
0.0
 13
164.7092239620846
 23
-130.033736109157
 33
0.0
  0
SOLID
  5
D4
330
56
100
AcDbEntity
  8
LIVELLO_1
 62
   250
100
AcDbTrace
 10
164.7092239620846
 20
-130.033736109157
 30
0.0
 11
164.0001291093905
 21
-129.8244993978822
 31
0.0
 12
164.7092239620846
 22
-129.6809411924195
 32
0.0
 13
164.7092239620846
 23
-129.6809411924195
 33
0.0
  0
SOLID
  5
D5
330
56
100
AcDbEntity
  8
LIVELLO_1
 62
   250
100
AcDbTrace
 10
164.0001291093905
 20
-80.17705610517287
 30
0.0
 11
164.0001291093905
 21
-79.82427832748328
 31
0.0
 12
164.7092239620846
 22
-80.32058739582709
 32
0.0
 13
164.7092239620846
 23
-80.32058739582709
 33
0.0
  0
SOLID
  5
D6
330
56
100
AcDbEntity
  8
LIVELLO_1
 62
   250
100
AcDbTrace
 10
164.7092239620846
 20
-80.32058739582709
 30
0.0
 11
164.0001291093905
 21
-79.82427832748328
 31
0.0
 12
164.7092239620846
 22
-79.96781713866514
 32
0.0
 13
164.7092239620846
 23
-79.96781713866514
 33
0.0
  0
SOLID
  5
D7
330
56
100
AcDbEntity
  8
LIVELLO_1
 62
   250
100
AcDbTrace
 10
164.7092239620846
 20
-130.033736109157
 30
0.0
 11
164.7092239620846
 21
-129.6809411924195
 31
0.0
 12
164.8463899005336
 22
-130.0059698025678
 32
0.0
 13
164.8463899005336
 23
-130.0059698025678
 33
0.0
  0
SOLID
  5
D8
330
56
100
AcDbEntity
  8
LIVELLO_1
 62
   250
100
AcDbTrace
 10
164.8463899005336
 20
-130.0059698025678
 30
0.0
 11
164.7092239620846
 21
-129.6809411924195
 31
0.0
 12
164.8463899005336
 22
-129.5883644850564
 32
0.0
 13
164.8463899005336
 23
-129.5883644850564
 33
0.0
  0
SOLID
  5
D9
330
56
100
AcDbEntity
  8
LIVELLO_1
 62
   250
100
AcDbTrace
 10
164.7092239620846
 20
-80.32058739582709
 30
0.0
 11
164.7092239620846
 21
-79.96781713866514
 31
0.0
 12
164.8463899005336
 22
-80.41315009243421
 32
0.0
 13
164.8463899005336
 23
-80.41315009243421
 33
0.0
  0
SOLID
  5
DA
330
56
100
AcDbEntity
  8
LIVELLO_1
 62
   250
100
AcDbTrace
 10
164.8463899005336
 20
-80.41315009243421
 30
0.0
 11
164.7092239620846
 21
-79.96781713866514
 31
0.0
 12
164.8463899005336
 22
-79.99558300900648
 32
0.0
 13
164.8463899005336
 23
-79.99558300900648
 33
0.0
  0
SOLID
  5
DB
330
56
100
AcDbEntity
  8
LIVELLO_1
 62
   250
100
AcDbTrace
 10
164.8463899005336
 20
-130.0059698025678
 30
0.0
 11
164.8463899005336
 21
-129.5883644850564
 31
0.0
 12
165.2889177985757
 22
-129.7073267388481
 32
0.0
 13
165.2889177985757
 23
-129.7073267388481
 33
0.0
  0
SOLID
  5
DC
330
56
100
AcDbEntity
  8
LIVELLO_1
 62
   250
100
AcDbTrace
 10
165.2889177985757
 20
-129.7073267388481
 30
0.0
 11
164.8463899005336
 21
-129.5883644850564
 31
0.0
 12
165.2889177985757
 22
-129.2896913874907
 32
0.0
 13
165.2889177985757
 23
-129.2896913874907
 33
0.0
  0
SOLID
  5
DD
330
56
100
AcDbEntity
  8
LIVELLO_1
 62
   250
100
AcDbTrace
 10
164.8463899005336
 20
-80.41315009243421
 30
0.0
 11
164.8463899005336
 21
-79.99558300900648
 31
0.0
 12
165.2889177985757
 22
-80.7117779881772
 32
0.0
 13
165.2889177985757
 23
-80.7117779881772
 33
0.0
  0
SOLID
  5
DE
330
56
100
AcDbEntity
  8
LIVELLO_1
 62
   250
100
AcDbTrace
 10
165.2889177985757
 20
-80.7117779881772
 30
0.0
 11
164.8463899005336
 21
-79.99558300900648
 31
0.0
 12
165.2889177985757
 22
-80.29421402178167
 32
0.0
 13
165.2889177985757
 23
-80.29421402178167
 33
0.0
  0
SOLID
  5
DF
330
56
100
AcDbEntity
  8
LIVELLO_1
 62
   250
100
AcDbTrace
 10
165.2889177985757
 20
-129.7073267388481
 30
0.0
 11
165.2889177985757
 21
-129.2896913874907
 31
0.0
 12
165.5382350524739
 22
-129.5390732369293
 32
0.0
 13
165.5382350524739
 23
-129.5390732369293
 33
0.0
  0
SOLID
  5
E0
330
56
100
AcDbEntity
  8
LIVELLO_1
 62
   250
100
AcDbTrace
 10
165.5382350524739
 20
-129.5390732369293
 30
0.0
 11
165.2889177985757
 21
-129.2896913874907
 31
0.0
 12
165.5382350524739
 22
-128.9201473521161
 32
0.0
 13
165.5382350524739
 23
-128.9201473521161
 33
0.0
  0
SOLID
  5
E1
330
56
100
AcDbEntity
  8
LIVELLO_1
 62
   250
100
AcDbTrace
 10
165.2889177985757
 20
-80.7117779881772
 30
0.0
 11
165.2889177985757
 21
-80.29421402178167
 31
0.0
 12
165.5382350524739
 22
-81.08128428381882
 32
0.0
 13
165.5382350524739
 23
-81.08128428381882
 33
0.0
  0
SOLID
  5
E2
330
56
100
AcDbEntity
  8
LIVELLO_1
 62
   250
100
AcDbTrace
 10
165.5382350524739
 20
-81.08128428381882
 30
0.0
 11
165.2889177985757
 21
-80.29421402178167
 31
0.0
 12
165.5382350524739
 22
-80.46246073427903
 32
0.0
 13
165.5382350524739
 23
-80.46246073427903
 33
0.0
  0
SOLID
  5
E3
330
56
100
AcDbEntity
  8
LIVELLO_1
 62
   250
100
AcDbTrace
 10
165.5382350524739
 20
-129.5390732369293
 30
0.0
 11
165.5382350524739
 21
-128.9201473521161
 31
0.0
 12
165.6800895505599
 22
-129.3288258617495
 32
0.0
 13
165.6800895505599
 23
-129.3288258617495
 33
0.0
  0
SOLID
  5
E4
330
56
100
AcDbEntity
  8
LIVELLO_1
 62
   250
100
AcDbTrace
 10
165.6800895505599
 20
-129.3288258617495
 30
0.0
 11
165.5382350524739
 21
-128.9201473521161
 31
0.0
 12
165.6800895505599
 22
-128.7098872002849
 32
0.0
 13
165.6800895505599
 23
-128.7098872002849
 33
0.0
  0
SOLID
  5
E5
330
56
100
AcDbEntity
  8
LIVELLO_1
 62
   250
100
AcDbTrace
 10
165.5382350524739
 20
-81.08128428381882
 30
0.0
 11
165.5382350524739
 21
-80.46246073427903
 31
0.0
 12
165.6800895505599
 22
-81.29152296280441
 32
0.0
 13
165.6800895505599
 23
-81.29152296280441
 33
0.0
  0
SOLID
  5
E6
330
56
100
AcDbEntity
  8
LIVELLO_1
 62
   250
100
AcDbTrace
 10
165.6800895505599
 20
-81.29152296280441
 30
0.0
 11
165.5382350524739
 21
-80.46246073427903
 31
0.0
 12
165.6800895505599
 22
-80.67269257119906
 32
0.0
 13
165.6800895505599
 23
-80.67269257119906
 33
0.0
  0
SOLID
  5
E7
330
56
100
AcDbEntity
  8
LIVELLO_1
 62
   250
100
AcDbTrace
 10
165.6800895505599
 20
-129.3288258617495
 30
0.0
 11
165.6800895505599
 21
-128.7098872002849
 31
0.0
 12
165.8236181497332
 22
-129.1160972444226
 32
0.0
 13
165.8236181497332
 23
-129.1160972444226
 33
0.0
  0
SOLID
  5
E8
330
56
100
AcDbEntity
  8
LIVELLO_1
 62
   250
100
AcDbTrace
 10
165.8236181497332
 20
-129.1160972444226
 30
0.0
 11
165.6800895505599
 21
-128.7098872002849
 31
0.0
 12
165.8236181497332
 22
-128.0006658479909
 32
0.0
 13
165.8236181497332
 23
-128.0006658479909
 33
0.0
  0
SOLID
  5
E9
330
56
100
AcDbEntity
  8
LIVELLO_1
 62
   250
100
AcDbTrace
 10
165.6800895505599
 20
-81.29152296280441
 30
0.0
 11
165.6800895505599
 21
-80.67269257119906
 31
0.0
 12
165.8236181497332
 22
-82.00071740028987
 32
0.0
 13
165.8236181497332
 23
-82.00071740028987
 33
0.0
  0
SOLID
  5
EA
330
56
100
AcDbEntity
  8
LIVELLO_1
 62
   250
100
AcDbTrace
 10
165.8236181497332
 20
-82.00071740028987
 30
0.0
 11
165.6800895505599
 21
-80.67269257119906
 31
0.0
 12
165.8236181497332
 22
-80.88540546689082
 32
0.0
 13
165.8236181497332
 23
-80.88540546689082
 33
0.0
  0
SOLID
  5
EB
330
56
100
AcDbEntity
  8
LIVELLO_1
 62
   250
100
AcDbTrace
 10
165.8236181497332
 20
-129.1160972444226
 30
0.0
 11
165.8236181497332
 21
-80.88540546689082
 31
0.0
 12
166.0050939373805
 22
-128.8471258087168
 32
0.0
 13
166.0050939373805
 23
-128.8471258087168
 33
0.0
  0
SOLID
  5
EC
330
56
100
AcDbEntity
  8
LIVELLO_1
 62
   250
100
AcDbTrace
 10
166.0050939373805
 20
-128.8471258087168
 30
0.0
 11
165.8236181497332
 21
-80.88540546689082
 31
0.0
 12
166.0050939373805
 22
-81.15435702435535
 32
0.0
 13
166.0050939373805
 23
-81.15435702435535
 33
0.0
  0
SOLID
  5
ED
330
56
100
AcDbEntity
  8
LIVELLO_1
 62
   250
100
AcDbTrace
 10
166.0050939373805
 20
-128.8471258087168
 30
0.0
 11
166.0050939373805
 21
-81.15435702435535
 31
0.0
 12
166.1763959274228
 22
-128.0006658479909
 32
0.0
 13
166.1763959274228
 23
-128.0006658479909
 33
0.0
  0
SOLID
  5
EE
330
56
100
AcDbEntity
  8
LIVELLO_1
 62
   250
100
AcDbTrace
 10
166.1763959274228
 20
-128.0006658479909
 30
0.0
 11
166.0050939373805
 21
-81.15435702435535
 31
0.0
 12
166.1763959274228
 22
-82.00071740028987
 32
0.0
 13
166.1763959274228
 23
-82.00071740028987
 33
0.0
  0
ENDBLK
  5
F0
330
56
100
AcDbEntity
  8
0
100
AcDbBlockEnd
  0
ENDSEC
  0
SECTION
  2
ENTITIES
  0
INSERT
  5
42
330
1F
100
AcDbEntity
  8
LIVELLO_1
100
AcDbBlockReference
  2
BLOCK_2
 10
0.0
 20
0.0
 30
0.0
  0
ENDSEC
  0
SECTION
  2
OBJECTS
  0
DICTIONARY
  5
C
330
0
100
AcDbDictionary
  3
ACAD_GROUP
350
D
  3
ACAD_LAYOUT
350
1A
  3
ACAD_MATERIAL
350
3B
  3
ACAD_MLEADERSTYLE
350
53
  3
ACAD_MLINESTYLE
350
17
  3
ACAD_PLOTSETTINGS
350
19
  3
ACAD_VISUALSTYLE
350
2A
  3
ACDBVARIABLEDICTIONARY
350
51
1001
ACAD
1000
TREAT_AS_HARD
1070
     0
  0
DICTIONARY
  5
D
102
{ACAD_REACTORS
330
C
102
}
330
C
100
AcDbDictionary
1001
ACAD
1000
TREAT_AS_HARD
1070
     0
  0
DICTIONARY
  5
1A
102
{ACAD_REACTORS
330
C
102
}
330
C
100
AcDbDictionary
1001
ACAD
1000
TREAT_AS_HARD
1070
     0
  0
DICTIONARY
  5
3B
102
{ACAD_REACTORS
330
C
102
}
330
C
100
AcDbDictionary
  3
BYBLOCK
350
3D
  3
BYLAYER
350
3C
  3
GLOBAL
350
3E
1001
ACAD
1000
TREAT_AS_HARD
1070
     0
  0
DICTIONARY
  5
53
102
{ACAD_REACTORS
330
C
102
}
330
C
100
AcDbDictionary
1001
ACAD
1000
TREAT_AS_HARD
1070
     0
  0
DICTIONARY
  5
17
102
{ACAD_REACTORS
330
C
102
}
330
C
100
AcDbDictionary
  3
STANDARD
350
18
1001
ACAD
1000
TREAT_AS_HARD
1070
     0
  0
DICTIONARY
  5
19
102
{ACAD_REACTORS
330
C
102
}
330
C
100
AcDbDictionary
1001
ACAD
1000
TREAT_AS_HARD
1070
     0
  0
DICTIONARY
  5
2A
102
{ACAD_REACTORS
330
C
102
}
330
C
100
AcDbDictionary
  3
2DWIREFRAME
350
2F
  3
3DWIREFRAME
350
30
  3
3D_HIDDEN
350
31
  3
BASIC
350
32
  3
BRIGHTEN
350
36
  3
COLORCHANGE
350
3A
  3
CONCEPTUAL
350
34
  3
DIM
350
35
  3
FACEPATTERN
350
39
  3
FLAT
350
2B
  3
FLATWITHEDGES
350
2C
  3
GOURAUD
350
2D
  3
GOURAUDWITHEDGES
350
2E
  3
LINEPATTERN
350
38
  3
REALISTIC
350
33
  3
THICKEN
350
37
1001
ACAD
1000
TREAT_AS_HARD
1070
     0
  0
DICTIONARY
  5
51
102
{ACAD_REACTORS
330
C
102
}
330
C
100
AcDbDictionary
  3
DIMASSOC
350
54
  3
HIDETEXT
350
55
1001
ACAD
1000
TREAT_AS_HARD
1070
     0
  0
MATERIAL
  5
3D
102
{ACAD_REACTORS
330
3B
102
}
102
{ACAD_XDICTIONARY
360
F3
102
}
330
3B
100
AcDbMaterial
  1
ByBlock
  0
MATERIAL
  5
3C
102
{ACAD_REACTORS
330
3B
102
}
102
{ACAD_XDICTIONARY
360
F1
102
}
330
3B
100
AcDbMaterial
  1
ByLayer
  0
MATERIAL
  5
3E
102
{ACAD_REACTORS
330
3B
102
}
102
{ACAD_XDICTIONARY
360
F5
102
}
330
3B
100
AcDbMaterial
  1
Global
  0
MLINESTYLE
  5
18
102
{ACAD_REACTORS
330
17
102
}
330
17
100
AcDbMlineStyle
  2
Standard
 70
     0
  3

 62
   256
 51
90.0
 52
90.0
 71
     2
 49
0.5
 62
   256
  6
BYLAYER
 49
-0.5
 62
   256
  6
BYLAYER
  0
ACAD_PROXY_OBJECT
  5
2F
102
{ACAD_REACTORS
330
2A
102
}
330
2A
100
AcDbZombieObject
 90
      499
 91
      501
 93
      436
310
42CC9915DA5C99599C985B595049028333333333333E3BF0000000000000FB0107901411070040501600405405064090741402480A0340
1001
ACAD
1000
AcDbSavedByObjectVersion
1070
     0
  0
ACAD_PROXY_OBJECT
  5
30
102
{ACAD_REACTORS
330
2A
102
}
330
2A
100
AcDbZombieObject
 90
      499
 91
      501
 93
      436
310
42CCD915DA5C99599C985B595059028333333333333E3BF0000000000000FB0107901411070040501600405405064090741402480A0340
1001
ACAD
1000
AcDbSavedByObjectVersion
1070
     0
  0
ACAD_PROXY_OBJECT
  5
31
102
{ACAD_REACTORS
330
2A
102
}
330
2A
100
AcDbZombieObject
 90
      499
 91
      501
 93
      500
310
424CD108121A5919195B90640502408333333333333E3BF0000000000000FB01079024090700405020000000000001110200405405064090740C02480A0340
1001
ACAD
1000
AcDbSavedByObjectVersion
1070
     0
  0
ACAD_PROXY_OBJECT
  5
32
102
{ACAD_REACTORS
330
2A
102
}
330
2A
100
AcDbZombieObject
 90
      499
 91
      501
 93
      388
310
4150985CDA58D07406404333333333333E3BF0000000000000FB0107A41107004050150841D405064090741402480A0350
1001
ACAD
1000
AcDbSavedByObjectVersion
1070
     0
  0
ACAD_PROXY_OBJECT
  5
36
102
{ACAD_REACTORS
330
2A
102
}
330
2A
100
AcDbZombieObject
 90
      499
 91
      501
 93
      428
310
42109C9A59DA1D195B90C409028333333333333E3BF0000000000000FB010790141107004050150841D405064090741402480A029950
1001
ACAD
1000
AcDbSavedByObjectVersion
1070
     0
  0
ACAD_PROXY_OBJECT
  5
3A
102
{ACAD_REACTORS
330
2A
102
}
330
2A
100
AcDbZombieObject
 90
      499
 91
      501
 93
      452
310
42D0DBDB1BDC90DA185B99D95104090240C333333333333E3BF0000000000000FB0108901411070040501508421405064090741402480A0350
1001
ACAD
1000
AcDbSavedByObjectVersion
1070
     0
  0
ACAD_PROXY_OBJECT
  5
34
102
{ACAD_REACTORS
330
2A
102
}
330
2A
100
AcDbZombieObject
 90
      499
 91
      501
 93
      500
310
4290DBDB98D95C1D1D585B10940D028333333333333E3BF0000000000000FB0107902409070040501000000000000111010841D405064090740C02480A0340
1001
ACAD
1000
AcDbSavedByObjectVersion
1070
     0
  0
ACAD_PROXY_OBJECT
  5
35
102
{ACAD_REACTORS
330
2A
102
}
330
2A
100
AcDbZombieObject
 90
      499
 91
      501
 93
      412
310
40D11A5B50B409028333333333333E3BF0000000000000FB010790141107004050150841D405064090741402480A02677FFFFFD0
1001
ACAD
1000
AcDbSavedByObjectVersion
1070
     0
  0
ACAD_PROXY_OBJECT
  5
39
102
{ACAD_REACTORS
330
2A
102
}
330
2A
100
AcDbZombieObject
 90
      499
 91
      501
 93
      444
310
42D19858D95C185D1D195C9B90F409028333333333333E3BF0000000000000FB010790141107004050150841D405064090741402480A0350
1001
ACAD
1000
AcDbSavedByObjectVersion
1070
     0
  0
ACAD_PROXY_OBJECT
  5
2B
102
{ACAD_REACTORS
330
2A
102
}
330
2A
100
AcDbZombieObject
 90
      499
 91
      501
 93
      388
310
41119B185D240901404333333333333E3BF0000000000000F9010740A41107004050150841D405064090741402480A1B50
1001
ACAD
1000
AcDbSavedByObjectVersion
1070
     0
  0
ACAD_PROXY_OBJECT
  5
2C
102
{ACAD_REACTORS
330
2A
102
}
330
2A
100
AcDbZombieObject
 90
      499
 91
      501
 93
      476
310
43519B185D15DA5D1A115919D95CD0140901404333333333333E3BF0000000000000F9010740901411070040501600405405064090741402480A1B50
1001
ACAD
1000
AcDbSavedByObjectVersion
1070
     0
  0
ACAD_PROXY_OBJECT
  5
2D
102
{ACAD_REACTORS
330
2A
102
}
330
2A
100
AcDbZombieObject
 90
      499
 91
      501
 93
      412
310
41D1DBDD5C985D5910240902404333333333333E3BF0000000000000F9010740A411070040501641D405064090741402480A1B50
1001
ACAD
1000
AcDbSavedByObjectVersion
1070
     0
  0
ACAD_PROXY_OBJECT
  5
2E
102
{ACAD_REACTORS
330
2A
102
}
330
2A
100
AcDbZombieObject
 90
      499
 91
      501
 93
      500
310
4411DBDD5C985D5915DA5D1A115919D95CD0340902404333333333333E3BF0000000000000F9010740901411070040501600405405064090741402480A1B50
1001
ACAD
1000
AcDbSavedByObjectVersion
1070
     0
  0
ACAD_PROXY_OBJECT
  5
38
102
{ACAD_REACTORS
330
2A
102
}
330
2A
100
AcDbZombieObject
 90
      499
 91
      501
 93
      444
310
42D31A5B995C185D1D195C9B90E409028333333333333E3BF0000000000000FB010790141107004050750841D405064090741402483A0350
1001
ACAD
1000
AcDbSavedByObjectVersion
1070
     0
  0
ACAD_PROXY_OBJECT
  5
33
102
{ACAD_REACTORS
330
2A
102
}
330
2A
100
AcDbZombieObject
 90
      499
 91
      501
 93
      420
310
425499585B1A5CDD1A58D08409028333333333333E3BF0000000000000FB01079019070040501508421405064090741402480A1B40
1001
ACAD
1000
AcDbSavedByObjectVersion
1070
     0
  0
ACAD_PROXY_OBJECT
  5
37
102
{ACAD_REACTORS
330
2A
102
}
330
2A
100
AcDbZombieObject
 90
      499
 91
      501
 93
      412
310
41D51A1A58DAD95B90D409028333333333333E3BF0000000000000FB010790141107004050150C41D405064090741402480A0350
1001
ACAD
1000
AcDbSavedByObjectVersion
1070
     0
  0
DICTIONARYVAR
  5
54
102
{ACAD_REACTORS
330
51
102
}
330
51
100
DictionaryVariables
280
     0
  1
2
  0
DICTIONARYVAR
  5
55
102
{ACAD_REACTORS
330
51
102
}
330
51
100
DictionaryVariables
280
     0
  1
1
  0
DICTIONARY
  5
F3
330
3D
100
AcDbDictionary
  3
ACAD_XREC_ROUNDTRIP
360
F4
1001
ACAD
1000
TREAT_AS_HARD
1070
     1
  0
DICTIONARY
  5
F1
330
3C
100
AcDbDictionary
  3
ACAD_XREC_ROUNDTRIP
360
F2
1001
ACAD
1000
TREAT_AS_HARD
1070
     1
  0
DICTIONARY
  5
F5
330
3E
100
AcDbDictionary
  3
ACAD_XREC_ROUNDTRIP
360
F6
1001
ACAD
1000
TREAT_AS_HARD
1070
     1
  0
XRECORD
  5
F4
102
{ACAD_REACTORS
330
F3
102
}
330
F3
100
AcDbXrecord
102
MATERIAL
148
0.0
149
0.0
149
0.0
 93
        0
 94
      127
282
     0
 72
     1
 77
     1
171
     1
175
     1
179
     1
273
     0
  0
XRECORD
  5
F2
102
{ACAD_REACTORS
330
F1
102
}
330
F1
100
AcDbXrecord
102
MATERIAL
148
0.0
149
0.0
149
0.0
 93
        0
 94
      127
282
     0
 72
     1
 77
     1
171
     1
175
     1
179
     1
273
     0
  0
XRECORD
  5
F6
102
{ACAD_REACTORS
330
F5
102
}
330
F5
100
AcDbXrecord
102
MATERIAL
148
0.0
149
0.0
149
0.0
 93
        0
 94
      127
282
     0
 72
     1
 77
     1
171
     1
175
     1
179
     1
273
     0
  0
ENDSEC
  0
EOF
