G75*
%MOIN*%
%OFA0B0*%
%FSLAX25Y25*%
%IPPOS*%
%LPD*%
%AMOC8*
5,1,8,0,0,1.08239X$1,22.5*
%
%ADD10C,0.01000*%
%ADD11C,0.00000*%
%ADD12C,0.00039*%
%ADD13OC8,0.06102*%
%ADD14C,0.05600*%
%ADD15C,0.06000*%
%ADD16OC8,0.07400*%
%ADD17OC8,0.15748*%
%ADD18R,0.15748X0.15748*%
%ADD19C,0.07677*%
%ADD20C,0.01600*%
%ADD21C,0.02800*%
%ADD22C,0.02400*%
%ADD23C,0.03562*%
%ADD24C,0.03600*%
D10*
X0008350Y0009237D02*
X0008350Y0211363D01*
X0008352Y0211487D01*
X0008358Y0211610D01*
X0008367Y0211734D01*
X0008381Y0211856D01*
X0008398Y0211979D01*
X0008420Y0212101D01*
X0008445Y0212222D01*
X0008474Y0212342D01*
X0008506Y0212461D01*
X0008543Y0212580D01*
X0008583Y0212697D01*
X0008626Y0212812D01*
X0008674Y0212927D01*
X0008725Y0213039D01*
X0008779Y0213150D01*
X0008837Y0213260D01*
X0008898Y0213367D01*
X0008963Y0213473D01*
X0009031Y0213576D01*
X0009102Y0213677D01*
X0009176Y0213776D01*
X0009253Y0213873D01*
X0009334Y0213967D01*
X0009417Y0214058D01*
X0009503Y0214147D01*
X0009592Y0214233D01*
X0009683Y0214316D01*
X0009777Y0214397D01*
X0009874Y0214474D01*
X0009973Y0214548D01*
X0010074Y0214619D01*
X0010177Y0214687D01*
X0010283Y0214752D01*
X0010390Y0214813D01*
X0010500Y0214871D01*
X0010611Y0214925D01*
X0010723Y0214976D01*
X0010838Y0215024D01*
X0010953Y0215067D01*
X0011070Y0215107D01*
X0011189Y0215144D01*
X0011308Y0215176D01*
X0011428Y0215205D01*
X0011549Y0215230D01*
X0011671Y0215252D01*
X0011794Y0215269D01*
X0011916Y0215283D01*
X0012040Y0215292D01*
X0012163Y0215298D01*
X0012287Y0215300D01*
X0262350Y0215300D01*
X0268350Y0209300D01*
X0268350Y0164300D01*
X0278350Y0154300D01*
X0278350Y0025300D01*
X0268350Y0015300D01*
X0268350Y0009237D01*
X0268348Y0009113D01*
X0268342Y0008990D01*
X0268333Y0008866D01*
X0268319Y0008744D01*
X0268302Y0008621D01*
X0268280Y0008499D01*
X0268255Y0008378D01*
X0268226Y0008258D01*
X0268194Y0008139D01*
X0268157Y0008020D01*
X0268117Y0007903D01*
X0268074Y0007788D01*
X0268026Y0007673D01*
X0267975Y0007561D01*
X0267921Y0007450D01*
X0267863Y0007340D01*
X0267802Y0007233D01*
X0267737Y0007127D01*
X0267669Y0007024D01*
X0267598Y0006923D01*
X0267524Y0006824D01*
X0267447Y0006727D01*
X0267366Y0006633D01*
X0267283Y0006542D01*
X0267197Y0006453D01*
X0267108Y0006367D01*
X0267017Y0006284D01*
X0266923Y0006203D01*
X0266826Y0006126D01*
X0266727Y0006052D01*
X0266626Y0005981D01*
X0266523Y0005913D01*
X0266417Y0005848D01*
X0266310Y0005787D01*
X0266200Y0005729D01*
X0266089Y0005675D01*
X0265977Y0005624D01*
X0265862Y0005576D01*
X0265747Y0005533D01*
X0265630Y0005493D01*
X0265511Y0005456D01*
X0265392Y0005424D01*
X0265272Y0005395D01*
X0265151Y0005370D01*
X0265029Y0005348D01*
X0264906Y0005331D01*
X0264784Y0005317D01*
X0264660Y0005308D01*
X0264537Y0005302D01*
X0264413Y0005300D01*
X0012287Y0005300D01*
X0012163Y0005302D01*
X0012040Y0005308D01*
X0011916Y0005317D01*
X0011794Y0005331D01*
X0011671Y0005348D01*
X0011549Y0005370D01*
X0011428Y0005395D01*
X0011308Y0005424D01*
X0011189Y0005456D01*
X0011070Y0005493D01*
X0010953Y0005533D01*
X0010838Y0005576D01*
X0010723Y0005624D01*
X0010611Y0005675D01*
X0010500Y0005729D01*
X0010390Y0005787D01*
X0010283Y0005848D01*
X0010177Y0005913D01*
X0010074Y0005981D01*
X0009973Y0006052D01*
X0009874Y0006126D01*
X0009777Y0006203D01*
X0009683Y0006284D01*
X0009592Y0006367D01*
X0009503Y0006453D01*
X0009417Y0006542D01*
X0009334Y0006633D01*
X0009253Y0006727D01*
X0009176Y0006824D01*
X0009102Y0006923D01*
X0009031Y0007024D01*
X0008963Y0007127D01*
X0008898Y0007233D01*
X0008837Y0007340D01*
X0008779Y0007450D01*
X0008725Y0007561D01*
X0008674Y0007673D01*
X0008626Y0007788D01*
X0008583Y0007903D01*
X0008543Y0008020D01*
X0008506Y0008139D01*
X0008474Y0008258D01*
X0008445Y0008378D01*
X0008420Y0008499D01*
X0008398Y0008621D01*
X0008381Y0008744D01*
X0008367Y0008866D01*
X0008358Y0008990D01*
X0008352Y0009113D01*
X0008350Y0009237D01*
X0138350Y0015300D02*
X0138350Y0021300D01*
X0169350Y0052300D01*
X0169350Y0079300D01*
X0176350Y0086300D01*
X0176350Y0111300D01*
X0193350Y0128300D01*
X0221350Y0128300D01*
X0225350Y0132300D01*
X0225350Y0160300D01*
X0224050Y0161600D01*
X0209850Y0161600D01*
X0207950Y0159700D01*
X0207750Y0159700D01*
X0207750Y0156600D01*
D11*
X0262051Y0145300D02*
X0262053Y0145458D01*
X0262059Y0145616D01*
X0262069Y0145774D01*
X0262083Y0145932D01*
X0262101Y0146089D01*
X0262122Y0146246D01*
X0262148Y0146402D01*
X0262178Y0146558D01*
X0262211Y0146713D01*
X0262249Y0146866D01*
X0262290Y0147019D01*
X0262335Y0147171D01*
X0262384Y0147322D01*
X0262437Y0147471D01*
X0262493Y0147619D01*
X0262553Y0147765D01*
X0262617Y0147910D01*
X0262685Y0148053D01*
X0262756Y0148195D01*
X0262830Y0148335D01*
X0262908Y0148472D01*
X0262990Y0148608D01*
X0263074Y0148742D01*
X0263163Y0148873D01*
X0263254Y0149002D01*
X0263349Y0149129D01*
X0263446Y0149254D01*
X0263547Y0149376D01*
X0263651Y0149495D01*
X0263758Y0149612D01*
X0263868Y0149726D01*
X0263981Y0149837D01*
X0264096Y0149946D01*
X0264214Y0150051D01*
X0264335Y0150153D01*
X0264458Y0150253D01*
X0264584Y0150349D01*
X0264712Y0150442D01*
X0264842Y0150532D01*
X0264975Y0150618D01*
X0265110Y0150702D01*
X0265246Y0150781D01*
X0265385Y0150858D01*
X0265526Y0150930D01*
X0265668Y0151000D01*
X0265812Y0151065D01*
X0265958Y0151127D01*
X0266105Y0151185D01*
X0266254Y0151240D01*
X0266404Y0151291D01*
X0266555Y0151338D01*
X0266707Y0151381D01*
X0266860Y0151420D01*
X0267015Y0151456D01*
X0267170Y0151487D01*
X0267326Y0151515D01*
X0267482Y0151539D01*
X0267639Y0151559D01*
X0267797Y0151575D01*
X0267954Y0151587D01*
X0268113Y0151595D01*
X0268271Y0151599D01*
X0268429Y0151599D01*
X0268587Y0151595D01*
X0268746Y0151587D01*
X0268903Y0151575D01*
X0269061Y0151559D01*
X0269218Y0151539D01*
X0269374Y0151515D01*
X0269530Y0151487D01*
X0269685Y0151456D01*
X0269840Y0151420D01*
X0269993Y0151381D01*
X0270145Y0151338D01*
X0270296Y0151291D01*
X0270446Y0151240D01*
X0270595Y0151185D01*
X0270742Y0151127D01*
X0270888Y0151065D01*
X0271032Y0151000D01*
X0271174Y0150930D01*
X0271315Y0150858D01*
X0271454Y0150781D01*
X0271590Y0150702D01*
X0271725Y0150618D01*
X0271858Y0150532D01*
X0271988Y0150442D01*
X0272116Y0150349D01*
X0272242Y0150253D01*
X0272365Y0150153D01*
X0272486Y0150051D01*
X0272604Y0149946D01*
X0272719Y0149837D01*
X0272832Y0149726D01*
X0272942Y0149612D01*
X0273049Y0149495D01*
X0273153Y0149376D01*
X0273254Y0149254D01*
X0273351Y0149129D01*
X0273446Y0149002D01*
X0273537Y0148873D01*
X0273626Y0148742D01*
X0273710Y0148608D01*
X0273792Y0148472D01*
X0273870Y0148335D01*
X0273944Y0148195D01*
X0274015Y0148053D01*
X0274083Y0147910D01*
X0274147Y0147765D01*
X0274207Y0147619D01*
X0274263Y0147471D01*
X0274316Y0147322D01*
X0274365Y0147171D01*
X0274410Y0147019D01*
X0274451Y0146866D01*
X0274489Y0146713D01*
X0274522Y0146558D01*
X0274552Y0146402D01*
X0274578Y0146246D01*
X0274599Y0146089D01*
X0274617Y0145932D01*
X0274631Y0145774D01*
X0274641Y0145616D01*
X0274647Y0145458D01*
X0274649Y0145300D01*
X0274647Y0145142D01*
X0274641Y0144984D01*
X0274631Y0144826D01*
X0274617Y0144668D01*
X0274599Y0144511D01*
X0274578Y0144354D01*
X0274552Y0144198D01*
X0274522Y0144042D01*
X0274489Y0143887D01*
X0274451Y0143734D01*
X0274410Y0143581D01*
X0274365Y0143429D01*
X0274316Y0143278D01*
X0274263Y0143129D01*
X0274207Y0142981D01*
X0274147Y0142835D01*
X0274083Y0142690D01*
X0274015Y0142547D01*
X0273944Y0142405D01*
X0273870Y0142265D01*
X0273792Y0142128D01*
X0273710Y0141992D01*
X0273626Y0141858D01*
X0273537Y0141727D01*
X0273446Y0141598D01*
X0273351Y0141471D01*
X0273254Y0141346D01*
X0273153Y0141224D01*
X0273049Y0141105D01*
X0272942Y0140988D01*
X0272832Y0140874D01*
X0272719Y0140763D01*
X0272604Y0140654D01*
X0272486Y0140549D01*
X0272365Y0140447D01*
X0272242Y0140347D01*
X0272116Y0140251D01*
X0271988Y0140158D01*
X0271858Y0140068D01*
X0271725Y0139982D01*
X0271590Y0139898D01*
X0271454Y0139819D01*
X0271315Y0139742D01*
X0271174Y0139670D01*
X0271032Y0139600D01*
X0270888Y0139535D01*
X0270742Y0139473D01*
X0270595Y0139415D01*
X0270446Y0139360D01*
X0270296Y0139309D01*
X0270145Y0139262D01*
X0269993Y0139219D01*
X0269840Y0139180D01*
X0269685Y0139144D01*
X0269530Y0139113D01*
X0269374Y0139085D01*
X0269218Y0139061D01*
X0269061Y0139041D01*
X0268903Y0139025D01*
X0268746Y0139013D01*
X0268587Y0139005D01*
X0268429Y0139001D01*
X0268271Y0139001D01*
X0268113Y0139005D01*
X0267954Y0139013D01*
X0267797Y0139025D01*
X0267639Y0139041D01*
X0267482Y0139061D01*
X0267326Y0139085D01*
X0267170Y0139113D01*
X0267015Y0139144D01*
X0266860Y0139180D01*
X0266707Y0139219D01*
X0266555Y0139262D01*
X0266404Y0139309D01*
X0266254Y0139360D01*
X0266105Y0139415D01*
X0265958Y0139473D01*
X0265812Y0139535D01*
X0265668Y0139600D01*
X0265526Y0139670D01*
X0265385Y0139742D01*
X0265246Y0139819D01*
X0265110Y0139898D01*
X0264975Y0139982D01*
X0264842Y0140068D01*
X0264712Y0140158D01*
X0264584Y0140251D01*
X0264458Y0140347D01*
X0264335Y0140447D01*
X0264214Y0140549D01*
X0264096Y0140654D01*
X0263981Y0140763D01*
X0263868Y0140874D01*
X0263758Y0140988D01*
X0263651Y0141105D01*
X0263547Y0141224D01*
X0263446Y0141346D01*
X0263349Y0141471D01*
X0263254Y0141598D01*
X0263163Y0141727D01*
X0263074Y0141858D01*
X0262990Y0141992D01*
X0262908Y0142128D01*
X0262830Y0142265D01*
X0262756Y0142405D01*
X0262685Y0142547D01*
X0262617Y0142690D01*
X0262553Y0142835D01*
X0262493Y0142981D01*
X0262437Y0143129D01*
X0262384Y0143278D01*
X0262335Y0143429D01*
X0262290Y0143581D01*
X0262249Y0143734D01*
X0262211Y0143887D01*
X0262178Y0144042D01*
X0262148Y0144198D01*
X0262122Y0144354D01*
X0262101Y0144511D01*
X0262083Y0144668D01*
X0262069Y0144826D01*
X0262059Y0144984D01*
X0262053Y0145142D01*
X0262051Y0145300D01*
X0262051Y0035300D02*
X0262053Y0035458D01*
X0262059Y0035616D01*
X0262069Y0035774D01*
X0262083Y0035932D01*
X0262101Y0036089D01*
X0262122Y0036246D01*
X0262148Y0036402D01*
X0262178Y0036558D01*
X0262211Y0036713D01*
X0262249Y0036866D01*
X0262290Y0037019D01*
X0262335Y0037171D01*
X0262384Y0037322D01*
X0262437Y0037471D01*
X0262493Y0037619D01*
X0262553Y0037765D01*
X0262617Y0037910D01*
X0262685Y0038053D01*
X0262756Y0038195D01*
X0262830Y0038335D01*
X0262908Y0038472D01*
X0262990Y0038608D01*
X0263074Y0038742D01*
X0263163Y0038873D01*
X0263254Y0039002D01*
X0263349Y0039129D01*
X0263446Y0039254D01*
X0263547Y0039376D01*
X0263651Y0039495D01*
X0263758Y0039612D01*
X0263868Y0039726D01*
X0263981Y0039837D01*
X0264096Y0039946D01*
X0264214Y0040051D01*
X0264335Y0040153D01*
X0264458Y0040253D01*
X0264584Y0040349D01*
X0264712Y0040442D01*
X0264842Y0040532D01*
X0264975Y0040618D01*
X0265110Y0040702D01*
X0265246Y0040781D01*
X0265385Y0040858D01*
X0265526Y0040930D01*
X0265668Y0041000D01*
X0265812Y0041065D01*
X0265958Y0041127D01*
X0266105Y0041185D01*
X0266254Y0041240D01*
X0266404Y0041291D01*
X0266555Y0041338D01*
X0266707Y0041381D01*
X0266860Y0041420D01*
X0267015Y0041456D01*
X0267170Y0041487D01*
X0267326Y0041515D01*
X0267482Y0041539D01*
X0267639Y0041559D01*
X0267797Y0041575D01*
X0267954Y0041587D01*
X0268113Y0041595D01*
X0268271Y0041599D01*
X0268429Y0041599D01*
X0268587Y0041595D01*
X0268746Y0041587D01*
X0268903Y0041575D01*
X0269061Y0041559D01*
X0269218Y0041539D01*
X0269374Y0041515D01*
X0269530Y0041487D01*
X0269685Y0041456D01*
X0269840Y0041420D01*
X0269993Y0041381D01*
X0270145Y0041338D01*
X0270296Y0041291D01*
X0270446Y0041240D01*
X0270595Y0041185D01*
X0270742Y0041127D01*
X0270888Y0041065D01*
X0271032Y0041000D01*
X0271174Y0040930D01*
X0271315Y0040858D01*
X0271454Y0040781D01*
X0271590Y0040702D01*
X0271725Y0040618D01*
X0271858Y0040532D01*
X0271988Y0040442D01*
X0272116Y0040349D01*
X0272242Y0040253D01*
X0272365Y0040153D01*
X0272486Y0040051D01*
X0272604Y0039946D01*
X0272719Y0039837D01*
X0272832Y0039726D01*
X0272942Y0039612D01*
X0273049Y0039495D01*
X0273153Y0039376D01*
X0273254Y0039254D01*
X0273351Y0039129D01*
X0273446Y0039002D01*
X0273537Y0038873D01*
X0273626Y0038742D01*
X0273710Y0038608D01*
X0273792Y0038472D01*
X0273870Y0038335D01*
X0273944Y0038195D01*
X0274015Y0038053D01*
X0274083Y0037910D01*
X0274147Y0037765D01*
X0274207Y0037619D01*
X0274263Y0037471D01*
X0274316Y0037322D01*
X0274365Y0037171D01*
X0274410Y0037019D01*
X0274451Y0036866D01*
X0274489Y0036713D01*
X0274522Y0036558D01*
X0274552Y0036402D01*
X0274578Y0036246D01*
X0274599Y0036089D01*
X0274617Y0035932D01*
X0274631Y0035774D01*
X0274641Y0035616D01*
X0274647Y0035458D01*
X0274649Y0035300D01*
X0274647Y0035142D01*
X0274641Y0034984D01*
X0274631Y0034826D01*
X0274617Y0034668D01*
X0274599Y0034511D01*
X0274578Y0034354D01*
X0274552Y0034198D01*
X0274522Y0034042D01*
X0274489Y0033887D01*
X0274451Y0033734D01*
X0274410Y0033581D01*
X0274365Y0033429D01*
X0274316Y0033278D01*
X0274263Y0033129D01*
X0274207Y0032981D01*
X0274147Y0032835D01*
X0274083Y0032690D01*
X0274015Y0032547D01*
X0273944Y0032405D01*
X0273870Y0032265D01*
X0273792Y0032128D01*
X0273710Y0031992D01*
X0273626Y0031858D01*
X0273537Y0031727D01*
X0273446Y0031598D01*
X0273351Y0031471D01*
X0273254Y0031346D01*
X0273153Y0031224D01*
X0273049Y0031105D01*
X0272942Y0030988D01*
X0272832Y0030874D01*
X0272719Y0030763D01*
X0272604Y0030654D01*
X0272486Y0030549D01*
X0272365Y0030447D01*
X0272242Y0030347D01*
X0272116Y0030251D01*
X0271988Y0030158D01*
X0271858Y0030068D01*
X0271725Y0029982D01*
X0271590Y0029898D01*
X0271454Y0029819D01*
X0271315Y0029742D01*
X0271174Y0029670D01*
X0271032Y0029600D01*
X0270888Y0029535D01*
X0270742Y0029473D01*
X0270595Y0029415D01*
X0270446Y0029360D01*
X0270296Y0029309D01*
X0270145Y0029262D01*
X0269993Y0029219D01*
X0269840Y0029180D01*
X0269685Y0029144D01*
X0269530Y0029113D01*
X0269374Y0029085D01*
X0269218Y0029061D01*
X0269061Y0029041D01*
X0268903Y0029025D01*
X0268746Y0029013D01*
X0268587Y0029005D01*
X0268429Y0029001D01*
X0268271Y0029001D01*
X0268113Y0029005D01*
X0267954Y0029013D01*
X0267797Y0029025D01*
X0267639Y0029041D01*
X0267482Y0029061D01*
X0267326Y0029085D01*
X0267170Y0029113D01*
X0267015Y0029144D01*
X0266860Y0029180D01*
X0266707Y0029219D01*
X0266555Y0029262D01*
X0266404Y0029309D01*
X0266254Y0029360D01*
X0266105Y0029415D01*
X0265958Y0029473D01*
X0265812Y0029535D01*
X0265668Y0029600D01*
X0265526Y0029670D01*
X0265385Y0029742D01*
X0265246Y0029819D01*
X0265110Y0029898D01*
X0264975Y0029982D01*
X0264842Y0030068D01*
X0264712Y0030158D01*
X0264584Y0030251D01*
X0264458Y0030347D01*
X0264335Y0030447D01*
X0264214Y0030549D01*
X0264096Y0030654D01*
X0263981Y0030763D01*
X0263868Y0030874D01*
X0263758Y0030988D01*
X0263651Y0031105D01*
X0263547Y0031224D01*
X0263446Y0031346D01*
X0263349Y0031471D01*
X0263254Y0031598D01*
X0263163Y0031727D01*
X0263074Y0031858D01*
X0262990Y0031992D01*
X0262908Y0032128D01*
X0262830Y0032265D01*
X0262756Y0032405D01*
X0262685Y0032547D01*
X0262617Y0032690D01*
X0262553Y0032835D01*
X0262493Y0032981D01*
X0262437Y0033129D01*
X0262384Y0033278D01*
X0262335Y0033429D01*
X0262290Y0033581D01*
X0262249Y0033734D01*
X0262211Y0033887D01*
X0262178Y0034042D01*
X0262148Y0034198D01*
X0262122Y0034354D01*
X0262101Y0034511D01*
X0262083Y0034668D01*
X0262069Y0034826D01*
X0262059Y0034984D01*
X0262053Y0035142D01*
X0262051Y0035300D01*
X0057051Y0015300D02*
X0057053Y0015458D01*
X0057059Y0015616D01*
X0057069Y0015774D01*
X0057083Y0015932D01*
X0057101Y0016089D01*
X0057122Y0016246D01*
X0057148Y0016402D01*
X0057178Y0016558D01*
X0057211Y0016713D01*
X0057249Y0016866D01*
X0057290Y0017019D01*
X0057335Y0017171D01*
X0057384Y0017322D01*
X0057437Y0017471D01*
X0057493Y0017619D01*
X0057553Y0017765D01*
X0057617Y0017910D01*
X0057685Y0018053D01*
X0057756Y0018195D01*
X0057830Y0018335D01*
X0057908Y0018472D01*
X0057990Y0018608D01*
X0058074Y0018742D01*
X0058163Y0018873D01*
X0058254Y0019002D01*
X0058349Y0019129D01*
X0058446Y0019254D01*
X0058547Y0019376D01*
X0058651Y0019495D01*
X0058758Y0019612D01*
X0058868Y0019726D01*
X0058981Y0019837D01*
X0059096Y0019946D01*
X0059214Y0020051D01*
X0059335Y0020153D01*
X0059458Y0020253D01*
X0059584Y0020349D01*
X0059712Y0020442D01*
X0059842Y0020532D01*
X0059975Y0020618D01*
X0060110Y0020702D01*
X0060246Y0020781D01*
X0060385Y0020858D01*
X0060526Y0020930D01*
X0060668Y0021000D01*
X0060812Y0021065D01*
X0060958Y0021127D01*
X0061105Y0021185D01*
X0061254Y0021240D01*
X0061404Y0021291D01*
X0061555Y0021338D01*
X0061707Y0021381D01*
X0061860Y0021420D01*
X0062015Y0021456D01*
X0062170Y0021487D01*
X0062326Y0021515D01*
X0062482Y0021539D01*
X0062639Y0021559D01*
X0062797Y0021575D01*
X0062954Y0021587D01*
X0063113Y0021595D01*
X0063271Y0021599D01*
X0063429Y0021599D01*
X0063587Y0021595D01*
X0063746Y0021587D01*
X0063903Y0021575D01*
X0064061Y0021559D01*
X0064218Y0021539D01*
X0064374Y0021515D01*
X0064530Y0021487D01*
X0064685Y0021456D01*
X0064840Y0021420D01*
X0064993Y0021381D01*
X0065145Y0021338D01*
X0065296Y0021291D01*
X0065446Y0021240D01*
X0065595Y0021185D01*
X0065742Y0021127D01*
X0065888Y0021065D01*
X0066032Y0021000D01*
X0066174Y0020930D01*
X0066315Y0020858D01*
X0066454Y0020781D01*
X0066590Y0020702D01*
X0066725Y0020618D01*
X0066858Y0020532D01*
X0066988Y0020442D01*
X0067116Y0020349D01*
X0067242Y0020253D01*
X0067365Y0020153D01*
X0067486Y0020051D01*
X0067604Y0019946D01*
X0067719Y0019837D01*
X0067832Y0019726D01*
X0067942Y0019612D01*
X0068049Y0019495D01*
X0068153Y0019376D01*
X0068254Y0019254D01*
X0068351Y0019129D01*
X0068446Y0019002D01*
X0068537Y0018873D01*
X0068626Y0018742D01*
X0068710Y0018608D01*
X0068792Y0018472D01*
X0068870Y0018335D01*
X0068944Y0018195D01*
X0069015Y0018053D01*
X0069083Y0017910D01*
X0069147Y0017765D01*
X0069207Y0017619D01*
X0069263Y0017471D01*
X0069316Y0017322D01*
X0069365Y0017171D01*
X0069410Y0017019D01*
X0069451Y0016866D01*
X0069489Y0016713D01*
X0069522Y0016558D01*
X0069552Y0016402D01*
X0069578Y0016246D01*
X0069599Y0016089D01*
X0069617Y0015932D01*
X0069631Y0015774D01*
X0069641Y0015616D01*
X0069647Y0015458D01*
X0069649Y0015300D01*
X0069647Y0015142D01*
X0069641Y0014984D01*
X0069631Y0014826D01*
X0069617Y0014668D01*
X0069599Y0014511D01*
X0069578Y0014354D01*
X0069552Y0014198D01*
X0069522Y0014042D01*
X0069489Y0013887D01*
X0069451Y0013734D01*
X0069410Y0013581D01*
X0069365Y0013429D01*
X0069316Y0013278D01*
X0069263Y0013129D01*
X0069207Y0012981D01*
X0069147Y0012835D01*
X0069083Y0012690D01*
X0069015Y0012547D01*
X0068944Y0012405D01*
X0068870Y0012265D01*
X0068792Y0012128D01*
X0068710Y0011992D01*
X0068626Y0011858D01*
X0068537Y0011727D01*
X0068446Y0011598D01*
X0068351Y0011471D01*
X0068254Y0011346D01*
X0068153Y0011224D01*
X0068049Y0011105D01*
X0067942Y0010988D01*
X0067832Y0010874D01*
X0067719Y0010763D01*
X0067604Y0010654D01*
X0067486Y0010549D01*
X0067365Y0010447D01*
X0067242Y0010347D01*
X0067116Y0010251D01*
X0066988Y0010158D01*
X0066858Y0010068D01*
X0066725Y0009982D01*
X0066590Y0009898D01*
X0066454Y0009819D01*
X0066315Y0009742D01*
X0066174Y0009670D01*
X0066032Y0009600D01*
X0065888Y0009535D01*
X0065742Y0009473D01*
X0065595Y0009415D01*
X0065446Y0009360D01*
X0065296Y0009309D01*
X0065145Y0009262D01*
X0064993Y0009219D01*
X0064840Y0009180D01*
X0064685Y0009144D01*
X0064530Y0009113D01*
X0064374Y0009085D01*
X0064218Y0009061D01*
X0064061Y0009041D01*
X0063903Y0009025D01*
X0063746Y0009013D01*
X0063587Y0009005D01*
X0063429Y0009001D01*
X0063271Y0009001D01*
X0063113Y0009005D01*
X0062954Y0009013D01*
X0062797Y0009025D01*
X0062639Y0009041D01*
X0062482Y0009061D01*
X0062326Y0009085D01*
X0062170Y0009113D01*
X0062015Y0009144D01*
X0061860Y0009180D01*
X0061707Y0009219D01*
X0061555Y0009262D01*
X0061404Y0009309D01*
X0061254Y0009360D01*
X0061105Y0009415D01*
X0060958Y0009473D01*
X0060812Y0009535D01*
X0060668Y0009600D01*
X0060526Y0009670D01*
X0060385Y0009742D01*
X0060246Y0009819D01*
X0060110Y0009898D01*
X0059975Y0009982D01*
X0059842Y0010068D01*
X0059712Y0010158D01*
X0059584Y0010251D01*
X0059458Y0010347D01*
X0059335Y0010447D01*
X0059214Y0010549D01*
X0059096Y0010654D01*
X0058981Y0010763D01*
X0058868Y0010874D01*
X0058758Y0010988D01*
X0058651Y0011105D01*
X0058547Y0011224D01*
X0058446Y0011346D01*
X0058349Y0011471D01*
X0058254Y0011598D01*
X0058163Y0011727D01*
X0058074Y0011858D01*
X0057990Y0011992D01*
X0057908Y0012128D01*
X0057830Y0012265D01*
X0057756Y0012405D01*
X0057685Y0012547D01*
X0057617Y0012690D01*
X0057553Y0012835D01*
X0057493Y0012981D01*
X0057437Y0013129D01*
X0057384Y0013278D01*
X0057335Y0013429D01*
X0057290Y0013581D01*
X0057249Y0013734D01*
X0057211Y0013887D01*
X0057178Y0014042D01*
X0057148Y0014198D01*
X0057122Y0014354D01*
X0057101Y0014511D01*
X0057083Y0014668D01*
X0057069Y0014826D01*
X0057059Y0014984D01*
X0057053Y0015142D01*
X0057051Y0015300D01*
X0062051Y0205300D02*
X0062053Y0205458D01*
X0062059Y0205616D01*
X0062069Y0205774D01*
X0062083Y0205932D01*
X0062101Y0206089D01*
X0062122Y0206246D01*
X0062148Y0206402D01*
X0062178Y0206558D01*
X0062211Y0206713D01*
X0062249Y0206866D01*
X0062290Y0207019D01*
X0062335Y0207171D01*
X0062384Y0207322D01*
X0062437Y0207471D01*
X0062493Y0207619D01*
X0062553Y0207765D01*
X0062617Y0207910D01*
X0062685Y0208053D01*
X0062756Y0208195D01*
X0062830Y0208335D01*
X0062908Y0208472D01*
X0062990Y0208608D01*
X0063074Y0208742D01*
X0063163Y0208873D01*
X0063254Y0209002D01*
X0063349Y0209129D01*
X0063446Y0209254D01*
X0063547Y0209376D01*
X0063651Y0209495D01*
X0063758Y0209612D01*
X0063868Y0209726D01*
X0063981Y0209837D01*
X0064096Y0209946D01*
X0064214Y0210051D01*
X0064335Y0210153D01*
X0064458Y0210253D01*
X0064584Y0210349D01*
X0064712Y0210442D01*
X0064842Y0210532D01*
X0064975Y0210618D01*
X0065110Y0210702D01*
X0065246Y0210781D01*
X0065385Y0210858D01*
X0065526Y0210930D01*
X0065668Y0211000D01*
X0065812Y0211065D01*
X0065958Y0211127D01*
X0066105Y0211185D01*
X0066254Y0211240D01*
X0066404Y0211291D01*
X0066555Y0211338D01*
X0066707Y0211381D01*
X0066860Y0211420D01*
X0067015Y0211456D01*
X0067170Y0211487D01*
X0067326Y0211515D01*
X0067482Y0211539D01*
X0067639Y0211559D01*
X0067797Y0211575D01*
X0067954Y0211587D01*
X0068113Y0211595D01*
X0068271Y0211599D01*
X0068429Y0211599D01*
X0068587Y0211595D01*
X0068746Y0211587D01*
X0068903Y0211575D01*
X0069061Y0211559D01*
X0069218Y0211539D01*
X0069374Y0211515D01*
X0069530Y0211487D01*
X0069685Y0211456D01*
X0069840Y0211420D01*
X0069993Y0211381D01*
X0070145Y0211338D01*
X0070296Y0211291D01*
X0070446Y0211240D01*
X0070595Y0211185D01*
X0070742Y0211127D01*
X0070888Y0211065D01*
X0071032Y0211000D01*
X0071174Y0210930D01*
X0071315Y0210858D01*
X0071454Y0210781D01*
X0071590Y0210702D01*
X0071725Y0210618D01*
X0071858Y0210532D01*
X0071988Y0210442D01*
X0072116Y0210349D01*
X0072242Y0210253D01*
X0072365Y0210153D01*
X0072486Y0210051D01*
X0072604Y0209946D01*
X0072719Y0209837D01*
X0072832Y0209726D01*
X0072942Y0209612D01*
X0073049Y0209495D01*
X0073153Y0209376D01*
X0073254Y0209254D01*
X0073351Y0209129D01*
X0073446Y0209002D01*
X0073537Y0208873D01*
X0073626Y0208742D01*
X0073710Y0208608D01*
X0073792Y0208472D01*
X0073870Y0208335D01*
X0073944Y0208195D01*
X0074015Y0208053D01*
X0074083Y0207910D01*
X0074147Y0207765D01*
X0074207Y0207619D01*
X0074263Y0207471D01*
X0074316Y0207322D01*
X0074365Y0207171D01*
X0074410Y0207019D01*
X0074451Y0206866D01*
X0074489Y0206713D01*
X0074522Y0206558D01*
X0074552Y0206402D01*
X0074578Y0206246D01*
X0074599Y0206089D01*
X0074617Y0205932D01*
X0074631Y0205774D01*
X0074641Y0205616D01*
X0074647Y0205458D01*
X0074649Y0205300D01*
X0074647Y0205142D01*
X0074641Y0204984D01*
X0074631Y0204826D01*
X0074617Y0204668D01*
X0074599Y0204511D01*
X0074578Y0204354D01*
X0074552Y0204198D01*
X0074522Y0204042D01*
X0074489Y0203887D01*
X0074451Y0203734D01*
X0074410Y0203581D01*
X0074365Y0203429D01*
X0074316Y0203278D01*
X0074263Y0203129D01*
X0074207Y0202981D01*
X0074147Y0202835D01*
X0074083Y0202690D01*
X0074015Y0202547D01*
X0073944Y0202405D01*
X0073870Y0202265D01*
X0073792Y0202128D01*
X0073710Y0201992D01*
X0073626Y0201858D01*
X0073537Y0201727D01*
X0073446Y0201598D01*
X0073351Y0201471D01*
X0073254Y0201346D01*
X0073153Y0201224D01*
X0073049Y0201105D01*
X0072942Y0200988D01*
X0072832Y0200874D01*
X0072719Y0200763D01*
X0072604Y0200654D01*
X0072486Y0200549D01*
X0072365Y0200447D01*
X0072242Y0200347D01*
X0072116Y0200251D01*
X0071988Y0200158D01*
X0071858Y0200068D01*
X0071725Y0199982D01*
X0071590Y0199898D01*
X0071454Y0199819D01*
X0071315Y0199742D01*
X0071174Y0199670D01*
X0071032Y0199600D01*
X0070888Y0199535D01*
X0070742Y0199473D01*
X0070595Y0199415D01*
X0070446Y0199360D01*
X0070296Y0199309D01*
X0070145Y0199262D01*
X0069993Y0199219D01*
X0069840Y0199180D01*
X0069685Y0199144D01*
X0069530Y0199113D01*
X0069374Y0199085D01*
X0069218Y0199061D01*
X0069061Y0199041D01*
X0068903Y0199025D01*
X0068746Y0199013D01*
X0068587Y0199005D01*
X0068429Y0199001D01*
X0068271Y0199001D01*
X0068113Y0199005D01*
X0067954Y0199013D01*
X0067797Y0199025D01*
X0067639Y0199041D01*
X0067482Y0199061D01*
X0067326Y0199085D01*
X0067170Y0199113D01*
X0067015Y0199144D01*
X0066860Y0199180D01*
X0066707Y0199219D01*
X0066555Y0199262D01*
X0066404Y0199309D01*
X0066254Y0199360D01*
X0066105Y0199415D01*
X0065958Y0199473D01*
X0065812Y0199535D01*
X0065668Y0199600D01*
X0065526Y0199670D01*
X0065385Y0199742D01*
X0065246Y0199819D01*
X0065110Y0199898D01*
X0064975Y0199982D01*
X0064842Y0200068D01*
X0064712Y0200158D01*
X0064584Y0200251D01*
X0064458Y0200347D01*
X0064335Y0200447D01*
X0064214Y0200549D01*
X0064096Y0200654D01*
X0063981Y0200763D01*
X0063868Y0200874D01*
X0063758Y0200988D01*
X0063651Y0201105D01*
X0063547Y0201224D01*
X0063446Y0201346D01*
X0063349Y0201471D01*
X0063254Y0201598D01*
X0063163Y0201727D01*
X0063074Y0201858D01*
X0062990Y0201992D01*
X0062908Y0202128D01*
X0062830Y0202265D01*
X0062756Y0202405D01*
X0062685Y0202547D01*
X0062617Y0202690D01*
X0062553Y0202835D01*
X0062493Y0202981D01*
X0062437Y0203129D01*
X0062384Y0203278D01*
X0062335Y0203429D01*
X0062290Y0203581D01*
X0062249Y0203734D01*
X0062211Y0203887D01*
X0062178Y0204042D01*
X0062148Y0204198D01*
X0062122Y0204354D01*
X0062101Y0204511D01*
X0062083Y0204668D01*
X0062069Y0204826D01*
X0062059Y0204984D01*
X0062053Y0205142D01*
X0062051Y0205300D01*
D12*
X0097448Y0149603D02*
X0097450Y0149443D01*
X0097456Y0149283D01*
X0097466Y0149123D01*
X0097479Y0148964D01*
X0097497Y0148805D01*
X0097519Y0148646D01*
X0097544Y0148488D01*
X0097573Y0148331D01*
X0097606Y0148174D01*
X0097643Y0148019D01*
X0097684Y0147864D01*
X0097729Y0147710D01*
X0097777Y0147558D01*
X0097829Y0147406D01*
X0097885Y0147256D01*
X0097944Y0147108D01*
X0098007Y0146961D01*
X0098074Y0146815D01*
X0098144Y0146672D01*
X0098218Y0146529D01*
X0098295Y0146389D01*
X0098376Y0146251D01*
X0098460Y0146115D01*
X0098547Y0145981D01*
X0098637Y0145849D01*
X0098731Y0145719D01*
X0098828Y0145592D01*
X0098928Y0145467D01*
X0099031Y0145344D01*
X0099137Y0145224D01*
X0099246Y0145107D01*
X0099358Y0144993D01*
X0099472Y0144881D01*
X0099589Y0144772D01*
X0099709Y0144666D01*
X0099832Y0144563D01*
X0099957Y0144463D01*
X0100084Y0144366D01*
X0100214Y0144272D01*
X0100346Y0144182D01*
X0100480Y0144095D01*
X0100616Y0144011D01*
X0100754Y0143930D01*
X0100894Y0143853D01*
X0101037Y0143779D01*
X0101180Y0143709D01*
X0101326Y0143642D01*
X0101473Y0143579D01*
X0101621Y0143520D01*
X0101771Y0143464D01*
X0101923Y0143412D01*
X0102075Y0143364D01*
X0102229Y0143319D01*
X0102384Y0143278D01*
X0102539Y0143241D01*
X0102696Y0143208D01*
X0102853Y0143179D01*
X0103011Y0143154D01*
X0103170Y0143132D01*
X0103329Y0143114D01*
X0103488Y0143101D01*
X0103648Y0143091D01*
X0103808Y0143085D01*
X0103968Y0143083D01*
X0104128Y0143085D01*
X0104288Y0143091D01*
X0104448Y0143101D01*
X0104607Y0143114D01*
X0104766Y0143132D01*
X0104925Y0143154D01*
X0105083Y0143179D01*
X0105240Y0143208D01*
X0105397Y0143241D01*
X0105552Y0143278D01*
X0105707Y0143319D01*
X0105861Y0143364D01*
X0106013Y0143412D01*
X0106165Y0143464D01*
X0106315Y0143520D01*
X0106463Y0143579D01*
X0106610Y0143642D01*
X0106756Y0143709D01*
X0106899Y0143779D01*
X0107042Y0143853D01*
X0107182Y0143930D01*
X0107320Y0144011D01*
X0107456Y0144095D01*
X0107590Y0144182D01*
X0107722Y0144272D01*
X0107852Y0144366D01*
X0107979Y0144463D01*
X0108104Y0144563D01*
X0108227Y0144666D01*
X0108347Y0144772D01*
X0108464Y0144881D01*
X0108578Y0144993D01*
X0108690Y0145107D01*
X0108799Y0145224D01*
X0108905Y0145344D01*
X0109008Y0145467D01*
X0109108Y0145592D01*
X0109205Y0145719D01*
X0109299Y0145849D01*
X0109389Y0145981D01*
X0109476Y0146115D01*
X0109560Y0146251D01*
X0109641Y0146389D01*
X0109718Y0146529D01*
X0109792Y0146672D01*
X0109862Y0146815D01*
X0109929Y0146961D01*
X0109992Y0147108D01*
X0110051Y0147256D01*
X0110107Y0147406D01*
X0110159Y0147558D01*
X0110207Y0147710D01*
X0110252Y0147864D01*
X0110293Y0148019D01*
X0110330Y0148174D01*
X0110363Y0148331D01*
X0110392Y0148488D01*
X0110417Y0148646D01*
X0110439Y0148805D01*
X0110457Y0148964D01*
X0110470Y0149123D01*
X0110480Y0149283D01*
X0110486Y0149443D01*
X0110488Y0149603D01*
X0110486Y0149763D01*
X0110480Y0149923D01*
X0110470Y0150083D01*
X0110457Y0150242D01*
X0110439Y0150401D01*
X0110417Y0150560D01*
X0110392Y0150718D01*
X0110363Y0150875D01*
X0110330Y0151032D01*
X0110293Y0151187D01*
X0110252Y0151342D01*
X0110207Y0151496D01*
X0110159Y0151648D01*
X0110107Y0151800D01*
X0110051Y0151950D01*
X0109992Y0152098D01*
X0109929Y0152245D01*
X0109862Y0152391D01*
X0109792Y0152534D01*
X0109718Y0152677D01*
X0109641Y0152817D01*
X0109560Y0152955D01*
X0109476Y0153091D01*
X0109389Y0153225D01*
X0109299Y0153357D01*
X0109205Y0153487D01*
X0109108Y0153614D01*
X0109008Y0153739D01*
X0108905Y0153862D01*
X0108799Y0153982D01*
X0108690Y0154099D01*
X0108578Y0154213D01*
X0108464Y0154325D01*
X0108347Y0154434D01*
X0108227Y0154540D01*
X0108104Y0154643D01*
X0107979Y0154743D01*
X0107852Y0154840D01*
X0107722Y0154934D01*
X0107590Y0155024D01*
X0107456Y0155111D01*
X0107320Y0155195D01*
X0107182Y0155276D01*
X0107042Y0155353D01*
X0106899Y0155427D01*
X0106756Y0155497D01*
X0106610Y0155564D01*
X0106463Y0155627D01*
X0106315Y0155686D01*
X0106165Y0155742D01*
X0106013Y0155794D01*
X0105861Y0155842D01*
X0105707Y0155887D01*
X0105552Y0155928D01*
X0105397Y0155965D01*
X0105240Y0155998D01*
X0105083Y0156027D01*
X0104925Y0156052D01*
X0104766Y0156074D01*
X0104607Y0156092D01*
X0104448Y0156105D01*
X0104288Y0156115D01*
X0104128Y0156121D01*
X0103968Y0156123D01*
X0103808Y0156121D01*
X0103648Y0156115D01*
X0103488Y0156105D01*
X0103329Y0156092D01*
X0103170Y0156074D01*
X0103011Y0156052D01*
X0102853Y0156027D01*
X0102696Y0155998D01*
X0102539Y0155965D01*
X0102384Y0155928D01*
X0102229Y0155887D01*
X0102075Y0155842D01*
X0101923Y0155794D01*
X0101771Y0155742D01*
X0101621Y0155686D01*
X0101473Y0155627D01*
X0101326Y0155564D01*
X0101180Y0155497D01*
X0101037Y0155427D01*
X0100894Y0155353D01*
X0100754Y0155276D01*
X0100616Y0155195D01*
X0100480Y0155111D01*
X0100346Y0155024D01*
X0100214Y0154934D01*
X0100084Y0154840D01*
X0099957Y0154743D01*
X0099832Y0154643D01*
X0099709Y0154540D01*
X0099589Y0154434D01*
X0099472Y0154325D01*
X0099358Y0154213D01*
X0099246Y0154099D01*
X0099137Y0153982D01*
X0099031Y0153862D01*
X0098928Y0153739D01*
X0098828Y0153614D01*
X0098731Y0153487D01*
X0098637Y0153357D01*
X0098547Y0153225D01*
X0098460Y0153091D01*
X0098376Y0152955D01*
X0098295Y0152817D01*
X0098218Y0152677D01*
X0098144Y0152534D01*
X0098074Y0152391D01*
X0098007Y0152245D01*
X0097944Y0152098D01*
X0097885Y0151950D01*
X0097829Y0151800D01*
X0097777Y0151648D01*
X0097729Y0151496D01*
X0097684Y0151342D01*
X0097643Y0151187D01*
X0097606Y0151032D01*
X0097573Y0150875D01*
X0097544Y0150718D01*
X0097519Y0150560D01*
X0097497Y0150401D01*
X0097479Y0150242D01*
X0097466Y0150083D01*
X0097456Y0149923D01*
X0097450Y0149763D01*
X0097448Y0149603D01*
X0176189Y0149631D02*
X0176191Y0149472D01*
X0176197Y0149312D01*
X0176207Y0149153D01*
X0176220Y0148995D01*
X0176238Y0148836D01*
X0176259Y0148678D01*
X0176285Y0148521D01*
X0176314Y0148364D01*
X0176347Y0148209D01*
X0176384Y0148054D01*
X0176424Y0147900D01*
X0176469Y0147746D01*
X0176517Y0147595D01*
X0176568Y0147444D01*
X0176624Y0147295D01*
X0176683Y0147147D01*
X0176746Y0147000D01*
X0176812Y0146855D01*
X0176882Y0146712D01*
X0176956Y0146571D01*
X0177032Y0146431D01*
X0177113Y0146293D01*
X0177196Y0146158D01*
X0177283Y0146024D01*
X0177373Y0145893D01*
X0177467Y0145764D01*
X0177563Y0145637D01*
X0177663Y0145513D01*
X0177765Y0145391D01*
X0177871Y0145271D01*
X0177979Y0145155D01*
X0178090Y0145040D01*
X0178205Y0144929D01*
X0178321Y0144821D01*
X0178441Y0144715D01*
X0178563Y0144613D01*
X0178687Y0144513D01*
X0178814Y0144417D01*
X0178943Y0144323D01*
X0179074Y0144233D01*
X0179208Y0144146D01*
X0179343Y0144063D01*
X0179481Y0143982D01*
X0179621Y0143906D01*
X0179762Y0143832D01*
X0179905Y0143762D01*
X0180050Y0143696D01*
X0180197Y0143633D01*
X0180345Y0143574D01*
X0180494Y0143518D01*
X0180645Y0143467D01*
X0180796Y0143419D01*
X0180950Y0143374D01*
X0181104Y0143334D01*
X0181259Y0143297D01*
X0181414Y0143264D01*
X0181571Y0143235D01*
X0181728Y0143209D01*
X0181886Y0143188D01*
X0182045Y0143170D01*
X0182203Y0143157D01*
X0182362Y0143147D01*
X0182522Y0143141D01*
X0182681Y0143139D01*
X0182840Y0143141D01*
X0183000Y0143147D01*
X0183159Y0143157D01*
X0183317Y0143170D01*
X0183476Y0143188D01*
X0183634Y0143209D01*
X0183791Y0143235D01*
X0183948Y0143264D01*
X0184103Y0143297D01*
X0184258Y0143334D01*
X0184412Y0143374D01*
X0184566Y0143419D01*
X0184717Y0143467D01*
X0184868Y0143518D01*
X0185017Y0143574D01*
X0185165Y0143633D01*
X0185312Y0143696D01*
X0185457Y0143762D01*
X0185600Y0143832D01*
X0185741Y0143906D01*
X0185881Y0143982D01*
X0186019Y0144063D01*
X0186154Y0144146D01*
X0186288Y0144233D01*
X0186419Y0144323D01*
X0186548Y0144417D01*
X0186675Y0144513D01*
X0186799Y0144613D01*
X0186921Y0144715D01*
X0187041Y0144821D01*
X0187157Y0144929D01*
X0187272Y0145040D01*
X0187383Y0145155D01*
X0187491Y0145271D01*
X0187597Y0145391D01*
X0187699Y0145513D01*
X0187799Y0145637D01*
X0187895Y0145764D01*
X0187989Y0145893D01*
X0188079Y0146024D01*
X0188166Y0146158D01*
X0188249Y0146293D01*
X0188330Y0146431D01*
X0188406Y0146571D01*
X0188480Y0146712D01*
X0188550Y0146855D01*
X0188616Y0147000D01*
X0188679Y0147147D01*
X0188738Y0147295D01*
X0188794Y0147444D01*
X0188845Y0147595D01*
X0188893Y0147746D01*
X0188938Y0147900D01*
X0188978Y0148054D01*
X0189015Y0148209D01*
X0189048Y0148364D01*
X0189077Y0148521D01*
X0189103Y0148678D01*
X0189124Y0148836D01*
X0189142Y0148995D01*
X0189155Y0149153D01*
X0189165Y0149312D01*
X0189171Y0149472D01*
X0189173Y0149631D01*
X0189171Y0149790D01*
X0189165Y0149950D01*
X0189155Y0150109D01*
X0189142Y0150267D01*
X0189124Y0150426D01*
X0189103Y0150584D01*
X0189077Y0150741D01*
X0189048Y0150898D01*
X0189015Y0151053D01*
X0188978Y0151208D01*
X0188938Y0151362D01*
X0188893Y0151516D01*
X0188845Y0151667D01*
X0188794Y0151818D01*
X0188738Y0151967D01*
X0188679Y0152115D01*
X0188616Y0152262D01*
X0188550Y0152407D01*
X0188480Y0152550D01*
X0188406Y0152691D01*
X0188330Y0152831D01*
X0188249Y0152969D01*
X0188166Y0153104D01*
X0188079Y0153238D01*
X0187989Y0153369D01*
X0187895Y0153498D01*
X0187799Y0153625D01*
X0187699Y0153749D01*
X0187597Y0153871D01*
X0187491Y0153991D01*
X0187383Y0154107D01*
X0187272Y0154222D01*
X0187157Y0154333D01*
X0187041Y0154441D01*
X0186921Y0154547D01*
X0186799Y0154649D01*
X0186675Y0154749D01*
X0186548Y0154845D01*
X0186419Y0154939D01*
X0186288Y0155029D01*
X0186154Y0155116D01*
X0186019Y0155199D01*
X0185881Y0155280D01*
X0185741Y0155356D01*
X0185600Y0155430D01*
X0185457Y0155500D01*
X0185312Y0155566D01*
X0185165Y0155629D01*
X0185017Y0155688D01*
X0184868Y0155744D01*
X0184717Y0155795D01*
X0184566Y0155843D01*
X0184412Y0155888D01*
X0184258Y0155928D01*
X0184103Y0155965D01*
X0183948Y0155998D01*
X0183791Y0156027D01*
X0183634Y0156053D01*
X0183476Y0156074D01*
X0183317Y0156092D01*
X0183159Y0156105D01*
X0183000Y0156115D01*
X0182840Y0156121D01*
X0182681Y0156123D01*
X0182522Y0156121D01*
X0182362Y0156115D01*
X0182203Y0156105D01*
X0182045Y0156092D01*
X0181886Y0156074D01*
X0181728Y0156053D01*
X0181571Y0156027D01*
X0181414Y0155998D01*
X0181259Y0155965D01*
X0181104Y0155928D01*
X0180950Y0155888D01*
X0180796Y0155843D01*
X0180645Y0155795D01*
X0180494Y0155744D01*
X0180345Y0155688D01*
X0180197Y0155629D01*
X0180050Y0155566D01*
X0179905Y0155500D01*
X0179762Y0155430D01*
X0179621Y0155356D01*
X0179481Y0155280D01*
X0179343Y0155199D01*
X0179208Y0155116D01*
X0179074Y0155029D01*
X0178943Y0154939D01*
X0178814Y0154845D01*
X0178687Y0154749D01*
X0178563Y0154649D01*
X0178441Y0154547D01*
X0178321Y0154441D01*
X0178205Y0154333D01*
X0178090Y0154222D01*
X0177979Y0154107D01*
X0177871Y0153991D01*
X0177765Y0153871D01*
X0177663Y0153749D01*
X0177563Y0153625D01*
X0177467Y0153498D01*
X0177373Y0153369D01*
X0177283Y0153238D01*
X0177196Y0153104D01*
X0177113Y0152969D01*
X0177032Y0152831D01*
X0176956Y0152691D01*
X0176882Y0152550D01*
X0176812Y0152407D01*
X0176746Y0152262D01*
X0176683Y0152115D01*
X0176624Y0151967D01*
X0176568Y0151818D01*
X0176517Y0151667D01*
X0176469Y0151516D01*
X0176424Y0151362D01*
X0176384Y0151208D01*
X0176347Y0151053D01*
X0176314Y0150898D01*
X0176285Y0150741D01*
X0176259Y0150584D01*
X0176238Y0150426D01*
X0176220Y0150267D01*
X0176207Y0150109D01*
X0176197Y0149950D01*
X0176191Y0149790D01*
X0176189Y0149631D01*
X0176184Y0071158D02*
X0176186Y0070998D01*
X0176192Y0070838D01*
X0176202Y0070678D01*
X0176215Y0070518D01*
X0176233Y0070359D01*
X0176255Y0070200D01*
X0176280Y0070042D01*
X0176309Y0069884D01*
X0176343Y0069728D01*
X0176380Y0069572D01*
X0176420Y0069417D01*
X0176465Y0069263D01*
X0176513Y0069110D01*
X0176566Y0068959D01*
X0176621Y0068809D01*
X0176681Y0068660D01*
X0176744Y0068513D01*
X0176811Y0068367D01*
X0176881Y0068223D01*
X0176955Y0068081D01*
X0177032Y0067940D01*
X0177113Y0067802D01*
X0177197Y0067666D01*
X0177284Y0067531D01*
X0177375Y0067399D01*
X0177469Y0067269D01*
X0177566Y0067142D01*
X0177666Y0067017D01*
X0177769Y0066894D01*
X0177875Y0066774D01*
X0177984Y0066657D01*
X0178096Y0066542D01*
X0178211Y0066430D01*
X0178328Y0066321D01*
X0178448Y0066215D01*
X0178571Y0066112D01*
X0178696Y0066012D01*
X0178823Y0065915D01*
X0178953Y0065821D01*
X0179085Y0065730D01*
X0179220Y0065643D01*
X0179356Y0065559D01*
X0179494Y0065478D01*
X0179635Y0065401D01*
X0179777Y0065327D01*
X0179921Y0065257D01*
X0180067Y0065190D01*
X0180214Y0065127D01*
X0180363Y0065067D01*
X0180513Y0065012D01*
X0180664Y0064959D01*
X0180817Y0064911D01*
X0180971Y0064866D01*
X0181126Y0064826D01*
X0181282Y0064789D01*
X0181438Y0064755D01*
X0181596Y0064726D01*
X0181754Y0064701D01*
X0181913Y0064679D01*
X0182072Y0064661D01*
X0182232Y0064648D01*
X0182392Y0064638D01*
X0182552Y0064632D01*
X0182712Y0064630D01*
X0182872Y0064632D01*
X0183032Y0064638D01*
X0183192Y0064648D01*
X0183352Y0064661D01*
X0183511Y0064679D01*
X0183670Y0064701D01*
X0183828Y0064726D01*
X0183986Y0064755D01*
X0184142Y0064789D01*
X0184298Y0064826D01*
X0184453Y0064866D01*
X0184607Y0064911D01*
X0184760Y0064959D01*
X0184911Y0065012D01*
X0185061Y0065067D01*
X0185210Y0065127D01*
X0185357Y0065190D01*
X0185503Y0065257D01*
X0185647Y0065327D01*
X0185789Y0065401D01*
X0185930Y0065478D01*
X0186068Y0065559D01*
X0186204Y0065643D01*
X0186339Y0065730D01*
X0186471Y0065821D01*
X0186601Y0065915D01*
X0186728Y0066012D01*
X0186853Y0066112D01*
X0186976Y0066215D01*
X0187096Y0066321D01*
X0187213Y0066430D01*
X0187328Y0066542D01*
X0187440Y0066657D01*
X0187549Y0066774D01*
X0187655Y0066894D01*
X0187758Y0067017D01*
X0187858Y0067142D01*
X0187955Y0067269D01*
X0188049Y0067399D01*
X0188140Y0067531D01*
X0188227Y0067666D01*
X0188311Y0067802D01*
X0188392Y0067940D01*
X0188469Y0068081D01*
X0188543Y0068223D01*
X0188613Y0068367D01*
X0188680Y0068513D01*
X0188743Y0068660D01*
X0188803Y0068809D01*
X0188858Y0068959D01*
X0188911Y0069110D01*
X0188959Y0069263D01*
X0189004Y0069417D01*
X0189044Y0069572D01*
X0189081Y0069728D01*
X0189115Y0069884D01*
X0189144Y0070042D01*
X0189169Y0070200D01*
X0189191Y0070359D01*
X0189209Y0070518D01*
X0189222Y0070678D01*
X0189232Y0070838D01*
X0189238Y0070998D01*
X0189240Y0071158D01*
X0189238Y0071318D01*
X0189232Y0071478D01*
X0189222Y0071638D01*
X0189209Y0071798D01*
X0189191Y0071957D01*
X0189169Y0072116D01*
X0189144Y0072274D01*
X0189115Y0072432D01*
X0189081Y0072588D01*
X0189044Y0072744D01*
X0189004Y0072899D01*
X0188959Y0073053D01*
X0188911Y0073206D01*
X0188858Y0073357D01*
X0188803Y0073507D01*
X0188743Y0073656D01*
X0188680Y0073803D01*
X0188613Y0073949D01*
X0188543Y0074093D01*
X0188469Y0074235D01*
X0188392Y0074376D01*
X0188311Y0074514D01*
X0188227Y0074650D01*
X0188140Y0074785D01*
X0188049Y0074917D01*
X0187955Y0075047D01*
X0187858Y0075174D01*
X0187758Y0075299D01*
X0187655Y0075422D01*
X0187549Y0075542D01*
X0187440Y0075659D01*
X0187328Y0075774D01*
X0187213Y0075886D01*
X0187096Y0075995D01*
X0186976Y0076101D01*
X0186853Y0076204D01*
X0186728Y0076304D01*
X0186601Y0076401D01*
X0186471Y0076495D01*
X0186339Y0076586D01*
X0186204Y0076673D01*
X0186068Y0076757D01*
X0185930Y0076838D01*
X0185789Y0076915D01*
X0185647Y0076989D01*
X0185503Y0077059D01*
X0185357Y0077126D01*
X0185210Y0077189D01*
X0185061Y0077249D01*
X0184911Y0077304D01*
X0184760Y0077357D01*
X0184607Y0077405D01*
X0184453Y0077450D01*
X0184298Y0077490D01*
X0184142Y0077527D01*
X0183986Y0077561D01*
X0183828Y0077590D01*
X0183670Y0077615D01*
X0183511Y0077637D01*
X0183352Y0077655D01*
X0183192Y0077668D01*
X0183032Y0077678D01*
X0182872Y0077684D01*
X0182712Y0077686D01*
X0182552Y0077684D01*
X0182392Y0077678D01*
X0182232Y0077668D01*
X0182072Y0077655D01*
X0181913Y0077637D01*
X0181754Y0077615D01*
X0181596Y0077590D01*
X0181438Y0077561D01*
X0181282Y0077527D01*
X0181126Y0077490D01*
X0180971Y0077450D01*
X0180817Y0077405D01*
X0180664Y0077357D01*
X0180513Y0077304D01*
X0180363Y0077249D01*
X0180214Y0077189D01*
X0180067Y0077126D01*
X0179921Y0077059D01*
X0179777Y0076989D01*
X0179635Y0076915D01*
X0179494Y0076838D01*
X0179356Y0076757D01*
X0179220Y0076673D01*
X0179085Y0076586D01*
X0178953Y0076495D01*
X0178823Y0076401D01*
X0178696Y0076304D01*
X0178571Y0076204D01*
X0178448Y0076101D01*
X0178328Y0075995D01*
X0178211Y0075886D01*
X0178096Y0075774D01*
X0177984Y0075659D01*
X0177875Y0075542D01*
X0177769Y0075422D01*
X0177666Y0075299D01*
X0177566Y0075174D01*
X0177469Y0075047D01*
X0177375Y0074917D01*
X0177284Y0074785D01*
X0177197Y0074650D01*
X0177113Y0074514D01*
X0177032Y0074376D01*
X0176955Y0074235D01*
X0176881Y0074093D01*
X0176811Y0073949D01*
X0176744Y0073803D01*
X0176681Y0073656D01*
X0176621Y0073507D01*
X0176566Y0073357D01*
X0176513Y0073206D01*
X0176465Y0073053D01*
X0176420Y0072899D01*
X0176380Y0072744D01*
X0176343Y0072588D01*
X0176309Y0072432D01*
X0176280Y0072274D01*
X0176255Y0072116D01*
X0176233Y0071957D01*
X0176215Y0071798D01*
X0176202Y0071638D01*
X0176192Y0071478D01*
X0176186Y0071318D01*
X0176184Y0071158D01*
X0110512Y0070891D02*
X0110510Y0070731D01*
X0110504Y0070570D01*
X0110494Y0070410D01*
X0110481Y0070251D01*
X0110463Y0070091D01*
X0110441Y0069933D01*
X0110416Y0069774D01*
X0110386Y0069617D01*
X0110353Y0069460D01*
X0110316Y0069304D01*
X0110275Y0069149D01*
X0110231Y0068995D01*
X0110182Y0068842D01*
X0110130Y0068690D01*
X0110074Y0068540D01*
X0110015Y0068391D01*
X0109952Y0068244D01*
X0109885Y0068098D01*
X0109815Y0067954D01*
X0109741Y0067812D01*
X0109663Y0067671D01*
X0109583Y0067533D01*
X0109499Y0067396D01*
X0109411Y0067262D01*
X0109320Y0067130D01*
X0109227Y0067000D01*
X0109129Y0066872D01*
X0109029Y0066747D01*
X0108926Y0066624D01*
X0108820Y0066504D01*
X0108711Y0066387D01*
X0108599Y0066272D01*
X0108484Y0066160D01*
X0108367Y0066051D01*
X0108247Y0065945D01*
X0108124Y0065842D01*
X0107999Y0065742D01*
X0107871Y0065644D01*
X0107741Y0065551D01*
X0107609Y0065460D01*
X0107475Y0065372D01*
X0107338Y0065288D01*
X0107200Y0065208D01*
X0107059Y0065130D01*
X0106917Y0065056D01*
X0106773Y0064986D01*
X0106627Y0064919D01*
X0106480Y0064856D01*
X0106331Y0064797D01*
X0106181Y0064741D01*
X0106029Y0064689D01*
X0105876Y0064640D01*
X0105722Y0064596D01*
X0105567Y0064555D01*
X0105411Y0064518D01*
X0105254Y0064485D01*
X0105097Y0064455D01*
X0104938Y0064430D01*
X0104780Y0064408D01*
X0104620Y0064390D01*
X0104461Y0064377D01*
X0104301Y0064367D01*
X0104140Y0064361D01*
X0103980Y0064359D01*
X0103820Y0064361D01*
X0103659Y0064367D01*
X0103499Y0064377D01*
X0103340Y0064390D01*
X0103180Y0064408D01*
X0103022Y0064430D01*
X0102863Y0064455D01*
X0102706Y0064485D01*
X0102549Y0064518D01*
X0102393Y0064555D01*
X0102238Y0064596D01*
X0102084Y0064640D01*
X0101931Y0064689D01*
X0101779Y0064741D01*
X0101629Y0064797D01*
X0101480Y0064856D01*
X0101333Y0064919D01*
X0101187Y0064986D01*
X0101043Y0065056D01*
X0100901Y0065130D01*
X0100760Y0065208D01*
X0100622Y0065288D01*
X0100485Y0065372D01*
X0100351Y0065460D01*
X0100219Y0065551D01*
X0100089Y0065644D01*
X0099961Y0065742D01*
X0099836Y0065842D01*
X0099713Y0065945D01*
X0099593Y0066051D01*
X0099476Y0066160D01*
X0099361Y0066272D01*
X0099249Y0066387D01*
X0099140Y0066504D01*
X0099034Y0066624D01*
X0098931Y0066747D01*
X0098831Y0066872D01*
X0098733Y0067000D01*
X0098640Y0067130D01*
X0098549Y0067262D01*
X0098461Y0067396D01*
X0098377Y0067533D01*
X0098297Y0067671D01*
X0098219Y0067812D01*
X0098145Y0067954D01*
X0098075Y0068098D01*
X0098008Y0068244D01*
X0097945Y0068391D01*
X0097886Y0068540D01*
X0097830Y0068690D01*
X0097778Y0068842D01*
X0097729Y0068995D01*
X0097685Y0069149D01*
X0097644Y0069304D01*
X0097607Y0069460D01*
X0097574Y0069617D01*
X0097544Y0069774D01*
X0097519Y0069933D01*
X0097497Y0070091D01*
X0097479Y0070251D01*
X0097466Y0070410D01*
X0097456Y0070570D01*
X0097450Y0070731D01*
X0097448Y0070891D01*
X0097450Y0071051D01*
X0097456Y0071212D01*
X0097466Y0071372D01*
X0097479Y0071531D01*
X0097497Y0071691D01*
X0097519Y0071849D01*
X0097544Y0072008D01*
X0097574Y0072165D01*
X0097607Y0072322D01*
X0097644Y0072478D01*
X0097685Y0072633D01*
X0097729Y0072787D01*
X0097778Y0072940D01*
X0097830Y0073092D01*
X0097886Y0073242D01*
X0097945Y0073391D01*
X0098008Y0073538D01*
X0098075Y0073684D01*
X0098145Y0073828D01*
X0098219Y0073970D01*
X0098297Y0074111D01*
X0098377Y0074249D01*
X0098461Y0074386D01*
X0098549Y0074520D01*
X0098640Y0074652D01*
X0098733Y0074782D01*
X0098831Y0074910D01*
X0098931Y0075035D01*
X0099034Y0075158D01*
X0099140Y0075278D01*
X0099249Y0075395D01*
X0099361Y0075510D01*
X0099476Y0075622D01*
X0099593Y0075731D01*
X0099713Y0075837D01*
X0099836Y0075940D01*
X0099961Y0076040D01*
X0100089Y0076138D01*
X0100219Y0076231D01*
X0100351Y0076322D01*
X0100485Y0076410D01*
X0100622Y0076494D01*
X0100760Y0076574D01*
X0100901Y0076652D01*
X0101043Y0076726D01*
X0101187Y0076796D01*
X0101333Y0076863D01*
X0101480Y0076926D01*
X0101629Y0076985D01*
X0101779Y0077041D01*
X0101931Y0077093D01*
X0102084Y0077142D01*
X0102238Y0077186D01*
X0102393Y0077227D01*
X0102549Y0077264D01*
X0102706Y0077297D01*
X0102863Y0077327D01*
X0103022Y0077352D01*
X0103180Y0077374D01*
X0103340Y0077392D01*
X0103499Y0077405D01*
X0103659Y0077415D01*
X0103820Y0077421D01*
X0103980Y0077423D01*
X0104140Y0077421D01*
X0104301Y0077415D01*
X0104461Y0077405D01*
X0104620Y0077392D01*
X0104780Y0077374D01*
X0104938Y0077352D01*
X0105097Y0077327D01*
X0105254Y0077297D01*
X0105411Y0077264D01*
X0105567Y0077227D01*
X0105722Y0077186D01*
X0105876Y0077142D01*
X0106029Y0077093D01*
X0106181Y0077041D01*
X0106331Y0076985D01*
X0106480Y0076926D01*
X0106627Y0076863D01*
X0106773Y0076796D01*
X0106917Y0076726D01*
X0107059Y0076652D01*
X0107200Y0076574D01*
X0107338Y0076494D01*
X0107475Y0076410D01*
X0107609Y0076322D01*
X0107741Y0076231D01*
X0107871Y0076138D01*
X0107999Y0076040D01*
X0108124Y0075940D01*
X0108247Y0075837D01*
X0108367Y0075731D01*
X0108484Y0075622D01*
X0108599Y0075510D01*
X0108711Y0075395D01*
X0108820Y0075278D01*
X0108926Y0075158D01*
X0109029Y0075035D01*
X0109129Y0074910D01*
X0109227Y0074782D01*
X0109320Y0074652D01*
X0109411Y0074520D01*
X0109499Y0074386D01*
X0109583Y0074249D01*
X0109663Y0074111D01*
X0109741Y0073970D01*
X0109815Y0073828D01*
X0109885Y0073684D01*
X0109952Y0073538D01*
X0110015Y0073391D01*
X0110074Y0073242D01*
X0110130Y0073092D01*
X0110182Y0072940D01*
X0110231Y0072787D01*
X0110275Y0072633D01*
X0110316Y0072478D01*
X0110353Y0072322D01*
X0110386Y0072165D01*
X0110416Y0072008D01*
X0110441Y0071849D01*
X0110463Y0071691D01*
X0110481Y0071531D01*
X0110494Y0071372D01*
X0110504Y0071212D01*
X0110510Y0071051D01*
X0110512Y0070891D01*
D13*
X0258850Y0105300D03*
X0258850Y0115300D03*
X0268850Y0115300D03*
X0268850Y0105300D03*
X0268850Y0125300D03*
X0258850Y0125300D03*
D14*
X0258350Y0202500D02*
X0258350Y0208100D01*
X0248350Y0208100D02*
X0248350Y0202500D01*
X0238350Y0202500D02*
X0238350Y0208100D01*
X0228350Y0208100D02*
X0228350Y0202500D01*
X0218350Y0202500D02*
X0218350Y0208100D01*
X0208350Y0208100D02*
X0208350Y0202500D01*
X0198350Y0202500D02*
X0198350Y0208100D01*
X0188350Y0208100D02*
X0188350Y0202500D01*
X0188350Y0018100D02*
X0188350Y0012500D01*
X0178350Y0012500D02*
X0178350Y0018100D01*
X0168350Y0018100D02*
X0168350Y0012500D01*
X0158350Y0012500D02*
X0158350Y0018100D01*
X0148350Y0018100D02*
X0148350Y0012500D01*
X0138350Y0012500D02*
X0138350Y0018100D01*
X0128350Y0018100D02*
X0128350Y0012500D01*
X0118350Y0012500D02*
X0118350Y0018100D01*
X0208350Y0018100D02*
X0208350Y0012500D01*
X0218350Y0012500D02*
X0218350Y0018100D01*
X0228350Y0018100D02*
X0228350Y0012500D01*
X0238350Y0012500D02*
X0238350Y0018100D01*
X0248350Y0018100D02*
X0248350Y0012500D01*
X0258350Y0012500D02*
X0258350Y0018100D01*
D15*
X0265850Y0055300D02*
X0271850Y0055300D01*
X0271850Y0065300D02*
X0265850Y0065300D01*
X0172350Y0202300D02*
X0172350Y0208300D01*
X0162350Y0208300D02*
X0162350Y0202300D01*
X0152350Y0202300D02*
X0152350Y0208300D01*
X0142350Y0208300D02*
X0142350Y0202300D01*
X0132350Y0202300D02*
X0132350Y0208300D01*
X0122350Y0208300D02*
X0122350Y0202300D01*
X0112350Y0202300D02*
X0112350Y0208300D01*
X0102350Y0208300D02*
X0102350Y0202300D01*
X0092350Y0202300D02*
X0092350Y0208300D01*
X0082350Y0208300D02*
X0082350Y0202300D01*
X0026350Y0200300D02*
X0020350Y0200300D01*
X0020350Y0190300D02*
X0026350Y0190300D01*
X0026350Y0180300D02*
X0020350Y0180300D01*
X0020350Y0170300D02*
X0026350Y0170300D01*
D16*
X0077750Y0166600D03*
X0087750Y0166600D03*
X0087750Y0156600D03*
X0087750Y0146600D03*
X0077750Y0146600D03*
X0077750Y0156600D03*
X0077750Y0136600D03*
X0087750Y0136600D03*
X0087750Y0081100D03*
X0077750Y0081100D03*
X0077750Y0071100D03*
X0077750Y0061100D03*
X0087750Y0061100D03*
X0087750Y0071100D03*
X0087750Y0051100D03*
X0077750Y0051100D03*
X0207750Y0050600D03*
X0217750Y0050600D03*
X0217750Y0060600D03*
X0207750Y0060600D03*
X0207750Y0070600D03*
X0217750Y0070600D03*
X0217750Y0080600D03*
X0207750Y0080600D03*
X0207750Y0136600D03*
X0217750Y0136600D03*
X0217750Y0146600D03*
X0207750Y0146600D03*
X0207750Y0156600D03*
X0217750Y0156600D03*
X0217750Y0166600D03*
X0207750Y0166600D03*
D17*
X0054350Y0038000D03*
X0042550Y0018300D03*
D18*
X0030750Y0038000D03*
D19*
X0030750Y0035000D03*
X0030750Y0041000D03*
X0054350Y0041000D03*
X0054350Y0035000D03*
X0045550Y0018300D03*
X0039550Y0018300D03*
D20*
X0042070Y0024009D02*
X0042550Y0023810D01*
X0043030Y0024009D01*
X0043030Y0027974D01*
X0046557Y0027974D01*
X0052224Y0022307D01*
X0052224Y0018780D01*
X0051789Y0018780D01*
X0051789Y0017820D01*
X0052224Y0017820D01*
X0052224Y0014293D01*
X0046557Y0008626D01*
X0043030Y0008626D01*
X0043030Y0012591D01*
X0042550Y0012790D01*
X0042070Y0012591D01*
X0042070Y0008626D01*
X0038543Y0008626D01*
X0032876Y0014293D01*
X0032876Y0017820D01*
X0033311Y0017820D01*
X0033311Y0018780D01*
X0032876Y0018780D01*
X0032876Y0022307D01*
X0038543Y0027974D01*
X0042070Y0027974D01*
X0042070Y0024009D01*
X0042070Y0024482D02*
X0043030Y0024482D01*
X0043030Y0026081D02*
X0042070Y0026081D01*
X0042070Y0027679D02*
X0043030Y0027679D01*
X0040213Y0029278D02*
X0048543Y0029278D01*
X0050094Y0027726D02*
X0058606Y0027726D01*
X0064624Y0033744D01*
X0064624Y0039501D01*
X0069537Y0034587D01*
X0070713Y0034100D01*
X0147049Y0034100D01*
X0136707Y0023758D01*
X0135891Y0022943D01*
X0135775Y0022662D01*
X0135404Y0022508D01*
X0133942Y0021046D01*
X0133350Y0019617D01*
X0132758Y0021046D01*
X0131950Y0021854D01*
X0131950Y0025016D01*
X0131402Y0026339D01*
X0130389Y0027352D01*
X0128389Y0029352D01*
X0127066Y0029900D01*
X0101585Y0029900D01*
X0100182Y0030481D01*
X0098518Y0030481D01*
X0096982Y0029845D01*
X0095805Y0028668D01*
X0095169Y0027132D01*
X0095169Y0027007D01*
X0092563Y0029613D01*
X0091663Y0030513D01*
X0090487Y0031000D01*
X0071024Y0031000D01*
X0071003Y0031021D01*
X0069606Y0031600D01*
X0068094Y0031600D01*
X0066697Y0031021D01*
X0065629Y0029953D01*
X0065050Y0028556D01*
X0065050Y0027044D01*
X0065629Y0025647D01*
X0066697Y0024579D01*
X0068094Y0024000D01*
X0069606Y0024000D01*
X0071003Y0024579D01*
X0071024Y0024600D01*
X0088525Y0024600D01*
X0104925Y0008200D01*
X0068553Y0008200D01*
X0070725Y0010372D01*
X0072049Y0013570D01*
X0072049Y0017030D01*
X0070725Y0020228D01*
X0068278Y0022675D01*
X0065080Y0023999D01*
X0061620Y0023999D01*
X0058422Y0022675D01*
X0055975Y0020228D01*
X0054651Y0017030D01*
X0054651Y0013570D01*
X0055975Y0010372D01*
X0058147Y0008200D01*
X0012287Y0008200D01*
X0012085Y0008220D01*
X0011711Y0008375D01*
X0011425Y0008661D01*
X0011270Y0009035D01*
X0011250Y0009237D01*
X0011250Y0211363D01*
X0011270Y0211565D01*
X0011425Y0211939D01*
X0011711Y0212225D01*
X0012085Y0212380D01*
X0012287Y0212400D01*
X0063147Y0212400D01*
X0060975Y0210228D01*
X0059651Y0207030D01*
X0059651Y0203570D01*
X0060975Y0200372D01*
X0063422Y0197925D01*
X0066620Y0196601D01*
X0070080Y0196601D01*
X0073278Y0197925D01*
X0075725Y0200372D01*
X0076950Y0203330D01*
X0076950Y0201226D01*
X0077772Y0199241D01*
X0079291Y0197722D01*
X0081276Y0196900D01*
X0083424Y0196900D01*
X0085409Y0197722D01*
X0086928Y0199241D01*
X0087350Y0200260D01*
X0087772Y0199241D01*
X0088150Y0198863D01*
X0088150Y0179663D01*
X0088637Y0178487D01*
X0089537Y0177587D01*
X0093150Y0173975D01*
X0093150Y0169827D01*
X0090277Y0172700D01*
X0085223Y0172700D01*
X0082326Y0169802D01*
X0080028Y0172100D01*
X0077950Y0172100D01*
X0077950Y0166800D01*
X0077550Y0166800D01*
X0077550Y0172100D01*
X0075472Y0172100D01*
X0072250Y0168878D01*
X0072250Y0166800D01*
X0077550Y0166800D01*
X0077550Y0166400D01*
X0072250Y0166400D01*
X0072250Y0164322D01*
X0074548Y0162024D01*
X0072323Y0159800D01*
X0071975Y0159800D01*
X0069550Y0162225D01*
X0069550Y0188126D01*
X0069571Y0188147D01*
X0070150Y0189544D01*
X0070150Y0191056D01*
X0069571Y0192453D01*
X0068503Y0193521D01*
X0067106Y0194100D01*
X0065594Y0194100D01*
X0064197Y0193521D01*
X0063129Y0192453D01*
X0062550Y0191056D01*
X0062550Y0189544D01*
X0063129Y0188147D01*
X0063150Y0188126D01*
X0063150Y0160263D01*
X0063637Y0159087D01*
X0064537Y0158187D01*
X0066125Y0156600D01*
X0063637Y0154113D01*
X0063150Y0152937D01*
X0063150Y0124663D01*
X0063637Y0123487D01*
X0070037Y0117087D01*
X0071213Y0116600D01*
X0128676Y0116600D01*
X0128697Y0116579D01*
X0130094Y0116000D01*
X0131606Y0116000D01*
X0133003Y0116579D01*
X0134071Y0117647D01*
X0134650Y0119044D01*
X0134650Y0120556D01*
X0134071Y0121953D01*
X0133003Y0123021D01*
X0131606Y0123600D01*
X0130094Y0123600D01*
X0128697Y0123021D01*
X0128676Y0123000D01*
X0127632Y0123000D01*
X0127650Y0123044D01*
X0127650Y0124556D01*
X0127071Y0125953D01*
X0126003Y0127021D01*
X0124606Y0127600D01*
X0123094Y0127600D01*
X0121697Y0127021D01*
X0121676Y0127000D01*
X0120632Y0127000D01*
X0120650Y0127044D01*
X0120650Y0128556D01*
X0120071Y0129953D01*
X0119003Y0131021D01*
X0117606Y0131600D01*
X0116094Y0131600D01*
X0114697Y0131021D01*
X0114676Y0131000D01*
X0090777Y0131000D01*
X0093850Y0134073D01*
X0093850Y0139127D01*
X0091377Y0141600D01*
X0093850Y0144073D01*
X0093850Y0149127D01*
X0091377Y0151600D01*
X0093850Y0154073D01*
X0093850Y0154275D01*
X0098163Y0158587D01*
X0099063Y0159487D01*
X0099550Y0160663D01*
X0099550Y0175937D01*
X0099063Y0177113D01*
X0094550Y0181625D01*
X0094550Y0197366D01*
X0095409Y0197722D01*
X0096928Y0199241D01*
X0097350Y0200260D01*
X0097772Y0199241D01*
X0099291Y0197722D01*
X0101276Y0196900D01*
X0103424Y0196900D01*
X0105409Y0197722D01*
X0106928Y0199241D01*
X0107695Y0201093D01*
X0107902Y0200457D01*
X0108245Y0199784D01*
X0108689Y0199173D01*
X0109223Y0198639D01*
X0109834Y0198195D01*
X0110507Y0197852D01*
X0111226Y0197618D01*
X0111972Y0197500D01*
X0112150Y0197500D01*
X0112150Y0205100D01*
X0112550Y0205100D01*
X0112550Y0197500D01*
X0112728Y0197500D01*
X0113474Y0197618D01*
X0114193Y0197852D01*
X0114866Y0198195D01*
X0115477Y0198639D01*
X0116011Y0199173D01*
X0116455Y0199784D01*
X0116798Y0200457D01*
X0117005Y0201093D01*
X0117772Y0199241D01*
X0119291Y0197722D01*
X0121276Y0196900D01*
X0123424Y0196900D01*
X0125409Y0197722D01*
X0126928Y0199241D01*
X0127350Y0200260D01*
X0127772Y0199241D01*
X0129291Y0197722D01*
X0131276Y0196900D01*
X0133424Y0196900D01*
X0135409Y0197722D01*
X0136928Y0199241D01*
X0137350Y0200260D01*
X0137772Y0199241D01*
X0139291Y0197722D01*
X0141276Y0196900D01*
X0143424Y0196900D01*
X0145409Y0197722D01*
X0146928Y0199241D01*
X0147350Y0200260D01*
X0147772Y0199241D01*
X0149291Y0197722D01*
X0151276Y0196900D01*
X0153424Y0196900D01*
X0155409Y0197722D01*
X0156928Y0199241D01*
X0157350Y0200260D01*
X0157772Y0199241D01*
X0159291Y0197722D01*
X0161276Y0196900D01*
X0163424Y0196900D01*
X0165409Y0197722D01*
X0166928Y0199241D01*
X0167350Y0200260D01*
X0167772Y0199241D01*
X0169291Y0197722D01*
X0171276Y0196900D01*
X0173424Y0196900D01*
X0175132Y0197607D01*
X0147637Y0170113D01*
X0147150Y0168937D01*
X0147150Y0058625D01*
X0136025Y0047500D01*
X0091928Y0047500D01*
X0093250Y0048822D01*
X0093250Y0050900D01*
X0087950Y0050900D01*
X0087950Y0051300D01*
X0093250Y0051300D01*
X0093250Y0053378D01*
X0090952Y0055676D01*
X0093177Y0057900D01*
X0138628Y0057900D01*
X0139594Y0057500D01*
X0141106Y0057500D01*
X0142503Y0058079D01*
X0143571Y0059147D01*
X0144150Y0060544D01*
X0144150Y0062056D01*
X0143571Y0063453D01*
X0142503Y0064521D01*
X0141106Y0065100D01*
X0139594Y0065100D01*
X0138197Y0064521D01*
X0137976Y0064300D01*
X0110135Y0064300D01*
X0111852Y0066346D01*
X0112931Y0069312D01*
X0112931Y0072469D01*
X0111852Y0075435D01*
X0111852Y0075435D01*
X0110455Y0077100D01*
X0137176Y0077100D01*
X0137197Y0077079D01*
X0138594Y0076500D01*
X0140106Y0076500D01*
X0141503Y0077079D01*
X0142571Y0078147D01*
X0143150Y0079544D01*
X0143150Y0081056D01*
X0142571Y0082453D01*
X0142224Y0082800D01*
X0142571Y0083147D01*
X0143150Y0084544D01*
X0143150Y0086056D01*
X0142571Y0087453D01*
X0142224Y0087800D01*
X0142571Y0088147D01*
X0143150Y0089544D01*
X0143150Y0091056D01*
X0142571Y0092453D01*
X0142493Y0092531D01*
X0142895Y0092932D01*
X0143531Y0094468D01*
X0143531Y0096132D01*
X0142895Y0097668D01*
X0142493Y0098069D01*
X0142571Y0098147D01*
X0143150Y0099544D01*
X0143150Y0101056D01*
X0142571Y0102453D01*
X0141503Y0103521D01*
X0140106Y0104100D01*
X0138594Y0104100D01*
X0137197Y0103521D01*
X0137176Y0103500D01*
X0103550Y0103500D01*
X0103550Y0107937D01*
X0103063Y0109113D01*
X0100150Y0112025D01*
X0100150Y0112056D01*
X0099571Y0113453D01*
X0098503Y0114521D01*
X0097106Y0115100D01*
X0095594Y0115100D01*
X0094197Y0114521D01*
X0093129Y0113453D01*
X0092550Y0112056D01*
X0092550Y0110544D01*
X0092714Y0110148D01*
X0091982Y0109845D01*
X0090805Y0108668D01*
X0090169Y0107132D01*
X0090169Y0105468D01*
X0090750Y0104065D01*
X0090750Y0095584D01*
X0091298Y0094261D01*
X0092059Y0093500D01*
X0086492Y0093500D01*
X0086402Y0093531D01*
X0085858Y0093500D01*
X0085313Y0093500D01*
X0085226Y0093464D01*
X0085131Y0093458D01*
X0084641Y0093221D01*
X0084137Y0093013D01*
X0084070Y0092946D01*
X0083985Y0092904D01*
X0083622Y0092498D01*
X0083237Y0092113D01*
X0083201Y0092025D01*
X0078900Y0087200D01*
X0075223Y0087200D01*
X0071650Y0083627D01*
X0071650Y0078573D01*
X0074123Y0076100D01*
X0071650Y0073627D01*
X0071650Y0073500D01*
X0070713Y0073500D01*
X0069537Y0073013D01*
X0068637Y0072113D01*
X0062637Y0066113D01*
X0062150Y0064937D01*
X0062150Y0044730D01*
X0058606Y0048274D01*
X0050094Y0048274D01*
X0044076Y0042256D01*
X0044076Y0033744D01*
X0050094Y0027726D01*
X0048450Y0026081D02*
X0065449Y0026081D01*
X0065050Y0027679D02*
X0046852Y0027679D01*
X0050049Y0024482D02*
X0066930Y0024482D01*
X0067774Y0022884D02*
X0090241Y0022884D01*
X0088642Y0024482D02*
X0070770Y0024482D01*
X0068850Y0027800D02*
X0089850Y0027800D01*
X0109850Y0007800D01*
X0140850Y0007800D01*
X0148350Y0015300D01*
X0148350Y0027300D01*
X0173350Y0052300D01*
X0173350Y0078300D01*
X0180350Y0085300D01*
X0180350Y0110300D01*
X0195350Y0125300D01*
X0222350Y0125300D01*
X0228350Y0131300D01*
X0228350Y0157300D01*
X0234550Y0157159D02*
X0271390Y0157159D01*
X0269792Y0158757D02*
X0234550Y0158757D01*
X0234550Y0160356D02*
X0268193Y0160356D01*
X0266707Y0161841D02*
X0275450Y0153099D01*
X0275450Y0150503D01*
X0273278Y0152675D01*
X0270080Y0153999D01*
X0266620Y0153999D01*
X0263422Y0152675D01*
X0260975Y0150228D01*
X0259651Y0147030D01*
X0259651Y0143570D01*
X0260975Y0140372D01*
X0263422Y0137925D01*
X0266620Y0136601D01*
X0270080Y0136601D01*
X0273278Y0137925D01*
X0275450Y0140097D01*
X0275450Y0069337D01*
X0274909Y0069878D01*
X0272924Y0070700D01*
X0264776Y0070700D01*
X0262791Y0069878D01*
X0261272Y0068359D01*
X0260450Y0066374D01*
X0260450Y0064226D01*
X0261272Y0062241D01*
X0262791Y0060722D01*
X0263810Y0060300D01*
X0262791Y0059878D01*
X0261272Y0058359D01*
X0260450Y0056374D01*
X0260450Y0054226D01*
X0261272Y0052241D01*
X0262791Y0050722D01*
X0264776Y0049900D01*
X0272924Y0049900D01*
X0274909Y0050722D01*
X0275450Y0051263D01*
X0275450Y0040503D01*
X0273278Y0042675D01*
X0270080Y0043999D01*
X0266620Y0043999D01*
X0263422Y0042675D01*
X0260975Y0040228D01*
X0259651Y0037030D01*
X0259651Y0033570D01*
X0260975Y0030372D01*
X0263422Y0027925D01*
X0266620Y0026601D01*
X0270080Y0026601D01*
X0273278Y0027925D01*
X0275450Y0030097D01*
X0275450Y0026501D01*
X0266707Y0017758D01*
X0265891Y0016943D01*
X0265450Y0015877D01*
X0265450Y0009237D01*
X0265430Y0009035D01*
X0265275Y0008661D01*
X0264989Y0008375D01*
X0264615Y0008220D01*
X0264413Y0008200D01*
X0261404Y0008200D01*
X0262758Y0009554D01*
X0263550Y0011466D01*
X0263550Y0019134D01*
X0262758Y0021046D01*
X0261296Y0022508D01*
X0259384Y0023300D01*
X0257316Y0023300D01*
X0255404Y0022508D01*
X0253942Y0021046D01*
X0253350Y0019617D01*
X0252758Y0021046D01*
X0251296Y0022508D01*
X0249384Y0023300D01*
X0247316Y0023300D01*
X0245404Y0022508D01*
X0243942Y0021046D01*
X0243350Y0019617D01*
X0242758Y0021046D01*
X0241296Y0022508D01*
X0239384Y0023300D01*
X0237316Y0023300D01*
X0235404Y0022508D01*
X0233942Y0021046D01*
X0233350Y0019617D01*
X0232758Y0021046D01*
X0231296Y0022508D01*
X0229384Y0023300D01*
X0227316Y0023300D01*
X0225404Y0022508D01*
X0223942Y0021046D01*
X0223350Y0019617D01*
X0222758Y0021046D01*
X0221296Y0022508D01*
X0219384Y0023300D01*
X0217316Y0023300D01*
X0215404Y0022508D01*
X0213942Y0021046D01*
X0213350Y0019617D01*
X0212758Y0021046D01*
X0211296Y0022508D01*
X0209384Y0023300D01*
X0207316Y0023300D01*
X0205404Y0022508D01*
X0203942Y0021046D01*
X0203150Y0019134D01*
X0203150Y0011466D01*
X0203942Y0009554D01*
X0205296Y0008200D01*
X0191404Y0008200D01*
X0192758Y0009554D01*
X0193550Y0011466D01*
X0193550Y0019134D01*
X0192758Y0021046D01*
X0191296Y0022508D01*
X0189384Y0023300D01*
X0187316Y0023300D01*
X0185404Y0022508D01*
X0183942Y0021046D01*
X0183150Y0019134D01*
X0183150Y0011466D01*
X0183942Y0009554D01*
X0185296Y0008200D01*
X0180002Y0008200D01*
X0180116Y0008237D01*
X0180761Y0008566D01*
X0181347Y0008991D01*
X0181859Y0009503D01*
X0182284Y0010089D01*
X0182613Y0010734D01*
X0182837Y0011423D01*
X0182950Y0012138D01*
X0182950Y0015263D01*
X0178387Y0015263D01*
X0178387Y0015337D01*
X0178313Y0015337D01*
X0178313Y0022700D01*
X0177988Y0022700D01*
X0177273Y0022587D01*
X0176584Y0022363D01*
X0175939Y0022034D01*
X0175353Y0021609D01*
X0174841Y0021097D01*
X0174416Y0020511D01*
X0174087Y0019866D01*
X0173863Y0019177D01*
X0173750Y0018462D01*
X0173750Y0015337D01*
X0178313Y0015337D01*
X0178313Y0015263D01*
X0173750Y0015263D01*
X0173750Y0012138D01*
X0173863Y0011423D01*
X0174087Y0010734D01*
X0174416Y0010089D01*
X0174841Y0009503D01*
X0175353Y0008991D01*
X0175939Y0008566D01*
X0176584Y0008237D01*
X0176698Y0008200D01*
X0170002Y0008200D01*
X0170116Y0008237D01*
X0170761Y0008566D01*
X0171347Y0008991D01*
X0171859Y0009503D01*
X0172284Y0010089D01*
X0172613Y0010734D01*
X0172837Y0011423D01*
X0172950Y0012138D01*
X0172950Y0015263D01*
X0168387Y0015263D01*
X0168387Y0015337D01*
X0168313Y0015337D01*
X0168313Y0022700D01*
X0167988Y0022700D01*
X0167273Y0022587D01*
X0166584Y0022363D01*
X0165939Y0022034D01*
X0165353Y0021609D01*
X0164841Y0021097D01*
X0164416Y0020511D01*
X0164087Y0019866D01*
X0163863Y0019177D01*
X0163750Y0018462D01*
X0163750Y0015337D01*
X0168313Y0015337D01*
X0168313Y0015263D01*
X0163750Y0015263D01*
X0163750Y0012138D01*
X0163863Y0011423D01*
X0164087Y0010734D01*
X0164416Y0010089D01*
X0164841Y0009503D01*
X0165353Y0008991D01*
X0165939Y0008566D01*
X0166584Y0008237D01*
X0166698Y0008200D01*
X0161404Y0008200D01*
X0162758Y0009554D01*
X0163550Y0011466D01*
X0163550Y0019134D01*
X0162758Y0021046D01*
X0161296Y0022508D01*
X0159384Y0023300D01*
X0157316Y0023300D01*
X0155404Y0022508D01*
X0153942Y0021046D01*
X0153350Y0019617D01*
X0152758Y0021046D01*
X0151550Y0022254D01*
X0151550Y0025975D01*
X0175163Y0049587D01*
X0176063Y0050487D01*
X0176550Y0051663D01*
X0176550Y0064583D01*
X0176872Y0064199D01*
X0176872Y0064199D01*
X0176872Y0064199D01*
X0179605Y0062621D01*
X0182712Y0062073D01*
X0182712Y0062073D01*
X0185820Y0062621D01*
X0188552Y0064199D01*
X0190580Y0066616D01*
X0190650Y0066807D01*
X0190650Y0064163D01*
X0191137Y0062987D01*
X0195337Y0058787D01*
X0196237Y0057887D01*
X0197413Y0057400D01*
X0202323Y0057400D01*
X0204123Y0055600D01*
X0201650Y0053127D01*
X0201650Y0048073D01*
X0203223Y0046500D01*
X0199175Y0046500D01*
X0199163Y0046513D01*
X0199082Y0046546D01*
X0196065Y0049262D01*
X0195571Y0050453D01*
X0194503Y0051521D01*
X0193106Y0052100D01*
X0191594Y0052100D01*
X0190197Y0051521D01*
X0189129Y0050453D01*
X0188550Y0049056D01*
X0188550Y0047544D01*
X0189129Y0046147D01*
X0190197Y0045079D01*
X0191594Y0044500D01*
X0191789Y0044500D01*
X0195147Y0041478D01*
X0196037Y0040587D01*
X0197213Y0040100D01*
X0230487Y0040100D01*
X0231663Y0040587D01*
X0235575Y0044500D01*
X0235606Y0044500D01*
X0237003Y0045079D01*
X0238071Y0046147D01*
X0238650Y0047544D01*
X0238650Y0049056D01*
X0238071Y0050453D01*
X0237003Y0051521D01*
X0235606Y0052100D01*
X0234094Y0052100D01*
X0232697Y0051521D01*
X0231629Y0050453D01*
X0231050Y0049056D01*
X0231050Y0049025D01*
X0228525Y0046500D01*
X0222277Y0046500D01*
X0223850Y0048073D01*
X0223850Y0053127D01*
X0221377Y0055600D01*
X0223850Y0058073D01*
X0223850Y0063127D01*
X0221377Y0065600D01*
X0223850Y0068073D01*
X0223850Y0068100D01*
X0245987Y0068100D01*
X0247163Y0068587D01*
X0248063Y0069487D01*
X0248063Y0069487D01*
X0251063Y0072487D01*
X0251550Y0073663D01*
X0251550Y0105975D01*
X0252675Y0107100D01*
X0253399Y0107100D01*
X0253399Y0103042D01*
X0256592Y0099849D01*
X0261108Y0099849D01*
X0264274Y0103015D01*
X0266841Y0100449D01*
X0268715Y0100449D01*
X0268715Y0105165D01*
X0268985Y0105165D01*
X0268985Y0105435D01*
X0273701Y0105435D01*
X0273701Y0107309D01*
X0271135Y0109876D01*
X0274301Y0113042D01*
X0274301Y0117558D01*
X0271559Y0120300D01*
X0274301Y0123042D01*
X0274301Y0127558D01*
X0271950Y0129909D01*
X0271950Y0130016D01*
X0271402Y0131339D01*
X0270389Y0132352D01*
X0267389Y0135352D01*
X0266066Y0135900D01*
X0250134Y0135900D01*
X0248811Y0135352D01*
X0234550Y0121091D01*
X0234550Y0165937D01*
X0234063Y0167113D01*
X0233163Y0168013D01*
X0231863Y0169313D01*
X0230687Y0169800D01*
X0223177Y0169800D01*
X0222877Y0170100D01*
X0237987Y0170100D01*
X0239163Y0170587D01*
X0261063Y0192487D01*
X0261550Y0193663D01*
X0261550Y0194937D01*
X0261550Y0198346D01*
X0262758Y0199554D01*
X0263550Y0201466D01*
X0263550Y0209134D01*
X0262939Y0210610D01*
X0265450Y0208099D01*
X0265450Y0163723D01*
X0265891Y0162657D01*
X0266707Y0161841D01*
X0266707Y0161841D01*
X0266595Y0161954D02*
X0234550Y0161954D01*
X0234550Y0163553D02*
X0265521Y0163553D01*
X0265450Y0165151D02*
X0234550Y0165151D01*
X0234213Y0166750D02*
X0265450Y0166750D01*
X0265450Y0168348D02*
X0232827Y0168348D01*
X0230050Y0166600D02*
X0231350Y0165300D01*
X0231350Y0099300D01*
X0228350Y0096300D01*
X0203350Y0096300D01*
X0200550Y0098874D02*
X0200550Y0119126D01*
X0200571Y0119147D01*
X0201150Y0120544D01*
X0201150Y0122056D01*
X0201132Y0122100D01*
X0222987Y0122100D01*
X0224163Y0122587D01*
X0228150Y0126575D01*
X0228150Y0100625D01*
X0227025Y0099500D01*
X0205524Y0099500D01*
X0205503Y0099521D01*
X0204106Y0100100D01*
X0202594Y0100100D01*
X0201197Y0099521D01*
X0200550Y0098874D01*
X0200550Y0099612D02*
X0201416Y0099612D01*
X0200550Y0101211D02*
X0228150Y0101211D01*
X0228150Y0102809D02*
X0200550Y0102809D01*
X0200550Y0104408D02*
X0228150Y0104408D01*
X0228150Y0106006D02*
X0200550Y0106006D01*
X0200550Y0107605D02*
X0228150Y0107605D01*
X0228150Y0109203D02*
X0200550Y0109203D01*
X0200550Y0110802D02*
X0228150Y0110802D01*
X0228150Y0112400D02*
X0200550Y0112400D01*
X0200550Y0113999D02*
X0228150Y0113999D01*
X0228150Y0115597D02*
X0200550Y0115597D01*
X0200550Y0117196D02*
X0228150Y0117196D01*
X0228150Y0118794D02*
X0200550Y0118794D01*
X0201087Y0120393D02*
X0228150Y0120393D01*
X0228150Y0121991D02*
X0201150Y0121991D01*
X0197350Y0121300D02*
X0197350Y0068300D01*
X0193850Y0064800D02*
X0198050Y0060600D01*
X0207750Y0060600D01*
X0203271Y0056452D02*
X0176550Y0056452D01*
X0176550Y0054854D02*
X0203377Y0054854D01*
X0201779Y0053255D02*
X0176550Y0053255D01*
X0176547Y0051657D02*
X0190524Y0051657D01*
X0188965Y0050058D02*
X0175634Y0050058D01*
X0174035Y0048460D02*
X0188550Y0048460D01*
X0188833Y0046861D02*
X0172437Y0046861D01*
X0170838Y0045263D02*
X0190013Y0045263D01*
X0192717Y0043664D02*
X0169240Y0043664D01*
X0167641Y0042066D02*
X0194493Y0042066D01*
X0196327Y0040467D02*
X0166043Y0040467D01*
X0164444Y0038869D02*
X0260412Y0038869D01*
X0259750Y0037270D02*
X0162846Y0037270D01*
X0161247Y0035672D02*
X0259651Y0035672D01*
X0259651Y0034073D02*
X0159649Y0034073D01*
X0158050Y0032475D02*
X0260104Y0032475D01*
X0260766Y0030876D02*
X0156452Y0030876D01*
X0154853Y0029278D02*
X0262070Y0029278D01*
X0264016Y0027679D02*
X0153255Y0027679D01*
X0151656Y0026081D02*
X0275029Y0026081D01*
X0275450Y0027679D02*
X0272684Y0027679D01*
X0274630Y0029278D02*
X0275450Y0029278D01*
X0273431Y0024482D02*
X0151550Y0024482D01*
X0151550Y0022884D02*
X0156310Y0022884D01*
X0154181Y0021285D02*
X0152519Y0021285D01*
X0153321Y0019687D02*
X0153379Y0019687D01*
X0160390Y0022884D02*
X0186310Y0022884D01*
X0184181Y0021285D02*
X0181670Y0021285D01*
X0181859Y0021097D02*
X0181347Y0021609D01*
X0180761Y0022034D01*
X0180116Y0022363D01*
X0179427Y0022587D01*
X0178712Y0022700D01*
X0178387Y0022700D01*
X0178387Y0015337D01*
X0182950Y0015337D01*
X0182950Y0018462D01*
X0182837Y0019177D01*
X0182613Y0019866D01*
X0182284Y0020511D01*
X0181859Y0021097D01*
X0182671Y0019687D02*
X0183379Y0019687D01*
X0183150Y0018088D02*
X0182950Y0018088D01*
X0182950Y0016490D02*
X0183150Y0016490D01*
X0183150Y0014891D02*
X0182950Y0014891D01*
X0182950Y0013293D02*
X0183150Y0013293D01*
X0183150Y0011694D02*
X0182880Y0011694D01*
X0182288Y0010096D02*
X0183718Y0010096D01*
X0184999Y0008497D02*
X0180626Y0008497D01*
X0176074Y0008497D02*
X0170626Y0008497D01*
X0172288Y0010096D02*
X0174412Y0010096D01*
X0173820Y0011694D02*
X0172880Y0011694D01*
X0172950Y0013293D02*
X0173750Y0013293D01*
X0173750Y0014891D02*
X0172950Y0014891D01*
X0172950Y0015337D02*
X0168387Y0015337D01*
X0168387Y0022700D01*
X0168712Y0022700D01*
X0169427Y0022587D01*
X0170116Y0022363D01*
X0170761Y0022034D01*
X0171347Y0021609D01*
X0171859Y0021097D01*
X0172284Y0020511D01*
X0172613Y0019866D01*
X0172837Y0019177D01*
X0172950Y0018462D01*
X0172950Y0015337D01*
X0172950Y0016490D02*
X0173750Y0016490D01*
X0173750Y0018088D02*
X0172950Y0018088D01*
X0172671Y0019687D02*
X0174029Y0019687D01*
X0175030Y0021285D02*
X0171670Y0021285D01*
X0168387Y0021285D02*
X0168313Y0021285D01*
X0168313Y0019687D02*
X0168387Y0019687D01*
X0168387Y0018088D02*
X0168313Y0018088D01*
X0168313Y0016490D02*
X0168387Y0016490D01*
X0163750Y0016490D02*
X0163550Y0016490D01*
X0163550Y0018088D02*
X0163750Y0018088D01*
X0164029Y0019687D02*
X0163321Y0019687D01*
X0162519Y0021285D02*
X0165030Y0021285D01*
X0163750Y0014891D02*
X0163550Y0014891D01*
X0163550Y0013293D02*
X0163750Y0013293D01*
X0163820Y0011694D02*
X0163550Y0011694D01*
X0162982Y0010096D02*
X0164412Y0010096D01*
X0166074Y0008497D02*
X0161701Y0008497D01*
X0178313Y0016490D02*
X0178387Y0016490D01*
X0178387Y0018088D02*
X0178313Y0018088D01*
X0178313Y0019687D02*
X0178387Y0019687D01*
X0178387Y0021285D02*
X0178313Y0021285D01*
X0190390Y0022884D02*
X0206310Y0022884D01*
X0204181Y0021285D02*
X0192519Y0021285D01*
X0193321Y0019687D02*
X0203379Y0019687D01*
X0203150Y0018088D02*
X0193550Y0018088D01*
X0193550Y0016490D02*
X0203150Y0016490D01*
X0203150Y0014891D02*
X0193550Y0014891D01*
X0193550Y0013293D02*
X0203150Y0013293D01*
X0203150Y0011694D02*
X0193550Y0011694D01*
X0192982Y0010096D02*
X0203718Y0010096D01*
X0204999Y0008497D02*
X0191701Y0008497D01*
X0210390Y0022884D02*
X0216310Y0022884D01*
X0214181Y0021285D02*
X0212519Y0021285D01*
X0213321Y0019687D02*
X0213379Y0019687D01*
X0220390Y0022884D02*
X0226310Y0022884D01*
X0224181Y0021285D02*
X0222519Y0021285D01*
X0223321Y0019687D02*
X0223379Y0019687D01*
X0230390Y0022884D02*
X0236310Y0022884D01*
X0234181Y0021285D02*
X0232519Y0021285D01*
X0233321Y0019687D02*
X0233379Y0019687D01*
X0240390Y0022884D02*
X0246310Y0022884D01*
X0244181Y0021285D02*
X0242519Y0021285D01*
X0243321Y0019687D02*
X0243379Y0019687D01*
X0250390Y0022884D02*
X0256310Y0022884D01*
X0254181Y0021285D02*
X0252519Y0021285D01*
X0253321Y0019687D02*
X0253379Y0019687D01*
X0260390Y0022884D02*
X0271832Y0022884D01*
X0270234Y0021285D02*
X0262519Y0021285D01*
X0263321Y0019687D02*
X0268635Y0019687D01*
X0267037Y0018088D02*
X0263550Y0018088D01*
X0263550Y0016490D02*
X0265704Y0016490D01*
X0266707Y0017758D02*
X0266707Y0017758D01*
X0265450Y0014891D02*
X0263550Y0014891D01*
X0263550Y0013293D02*
X0265450Y0013293D01*
X0265450Y0011694D02*
X0263550Y0011694D01*
X0262982Y0010096D02*
X0265450Y0010096D01*
X0265111Y0008497D02*
X0261701Y0008497D01*
X0261215Y0040467D02*
X0231373Y0040467D01*
X0233141Y0042066D02*
X0262813Y0042066D01*
X0265811Y0043664D02*
X0234740Y0043664D01*
X0237187Y0045263D02*
X0275450Y0045263D01*
X0275450Y0046861D02*
X0238367Y0046861D01*
X0238650Y0048460D02*
X0275450Y0048460D01*
X0275450Y0050058D02*
X0273306Y0050058D01*
X0275450Y0043664D02*
X0270889Y0043664D01*
X0273887Y0042066D02*
X0275450Y0042066D01*
X0264394Y0050058D02*
X0238235Y0050058D01*
X0236676Y0051657D02*
X0261856Y0051657D01*
X0260852Y0053255D02*
X0223721Y0053255D01*
X0223850Y0051657D02*
X0233024Y0051657D01*
X0231465Y0050058D02*
X0223850Y0050058D01*
X0223850Y0048460D02*
X0230484Y0048460D01*
X0228886Y0046861D02*
X0222638Y0046861D01*
X0229850Y0043300D02*
X0234850Y0048300D01*
X0229850Y0043300D02*
X0197850Y0043300D01*
X0197350Y0043800D01*
X0192350Y0048300D01*
X0195735Y0050058D02*
X0201650Y0050058D01*
X0201650Y0048460D02*
X0196956Y0048460D01*
X0198732Y0046861D02*
X0202862Y0046861D01*
X0201650Y0051657D02*
X0194176Y0051657D01*
X0196074Y0058051D02*
X0176550Y0058051D01*
X0176550Y0059649D02*
X0194475Y0059649D01*
X0192877Y0061248D02*
X0176550Y0061248D01*
X0176550Y0062846D02*
X0179214Y0062846D01*
X0179605Y0062621D02*
X0179605Y0062621D01*
X0176666Y0064445D02*
X0176550Y0064445D01*
X0185820Y0062621D02*
X0185820Y0062621D01*
X0186210Y0062846D02*
X0191278Y0062846D01*
X0190650Y0064445D02*
X0188759Y0064445D01*
X0188552Y0064199D02*
X0188552Y0064199D01*
X0190100Y0066043D02*
X0190650Y0066043D01*
X0190580Y0066616D02*
X0190580Y0066616D01*
X0193850Y0064800D02*
X0193850Y0110300D01*
X0190350Y0113800D01*
X0190350Y0114300D01*
X0182940Y0121991D02*
X0180150Y0121991D01*
X0180150Y0121544D02*
X0180150Y0123056D01*
X0179571Y0124453D01*
X0179550Y0124474D01*
X0179550Y0134975D01*
X0179675Y0135100D01*
X0189987Y0135100D01*
X0191163Y0135587D01*
X0194163Y0138587D01*
X0195063Y0139487D01*
X0195550Y0140663D01*
X0195550Y0143100D01*
X0202623Y0143100D01*
X0204548Y0141176D01*
X0202250Y0138878D01*
X0202250Y0136800D01*
X0207550Y0136800D01*
X0207550Y0136400D01*
X0202250Y0136400D01*
X0202250Y0134322D01*
X0205372Y0131200D01*
X0192773Y0131200D01*
X0191707Y0130758D01*
X0176050Y0115101D01*
X0176050Y0118500D01*
X0177106Y0118500D01*
X0178503Y0119079D01*
X0179571Y0120147D01*
X0180150Y0121544D01*
X0179673Y0120393D02*
X0181342Y0120393D01*
X0179743Y0118794D02*
X0177816Y0118794D01*
X0178145Y0117196D02*
X0176050Y0117196D01*
X0176050Y0115597D02*
X0176546Y0115597D01*
X0176350Y0122300D02*
X0176350Y0136300D01*
X0178350Y0138300D01*
X0189350Y0138300D01*
X0192350Y0141300D01*
X0192350Y0145300D01*
X0193350Y0146300D01*
X0207450Y0146300D01*
X0207750Y0146600D01*
X0202951Y0142772D02*
X0195550Y0142772D01*
X0195550Y0141173D02*
X0204545Y0141173D01*
X0202947Y0139575D02*
X0195099Y0139575D01*
X0193552Y0137976D02*
X0202250Y0137976D01*
X0202250Y0136378D02*
X0191953Y0136378D01*
X0190933Y0129984D02*
X0179550Y0129984D01*
X0179550Y0131582D02*
X0204989Y0131582D01*
X0203391Y0133181D02*
X0179550Y0133181D01*
X0179550Y0134779D02*
X0202250Y0134779D01*
X0207950Y0136400D02*
X0207950Y0136800D01*
X0217550Y0136800D01*
X0217550Y0136400D01*
X0212250Y0136400D01*
X0207950Y0136400D01*
X0225165Y0123590D02*
X0228150Y0123590D01*
X0228150Y0125188D02*
X0226764Y0125188D01*
X0234550Y0125188D02*
X0238647Y0125188D01*
X0237049Y0123590D02*
X0234550Y0123590D01*
X0234550Y0121991D02*
X0235450Y0121991D01*
X0234550Y0126787D02*
X0240246Y0126787D01*
X0241844Y0128385D02*
X0234550Y0128385D01*
X0234550Y0129984D02*
X0243443Y0129984D01*
X0245041Y0131582D02*
X0234550Y0131582D01*
X0234550Y0133181D02*
X0246640Y0133181D01*
X0248238Y0134779D02*
X0234550Y0134779D01*
X0234550Y0136378D02*
X0275450Y0136378D01*
X0275450Y0137976D02*
X0273329Y0137976D01*
X0274927Y0139575D02*
X0275450Y0139575D01*
X0275450Y0134779D02*
X0267962Y0134779D01*
X0269560Y0133181D02*
X0275450Y0133181D01*
X0275450Y0131582D02*
X0271159Y0131582D01*
X0271950Y0129984D02*
X0275450Y0129984D01*
X0275450Y0128385D02*
X0273474Y0128385D01*
X0274301Y0126787D02*
X0275450Y0126787D01*
X0275450Y0125188D02*
X0274301Y0125188D01*
X0274301Y0123590D02*
X0275450Y0123590D01*
X0275450Y0121991D02*
X0273250Y0121991D01*
X0271652Y0120393D02*
X0275450Y0120393D01*
X0275450Y0118794D02*
X0273065Y0118794D01*
X0274301Y0117196D02*
X0275450Y0117196D01*
X0275450Y0115597D02*
X0274301Y0115597D01*
X0274301Y0113999D02*
X0275450Y0113999D01*
X0275450Y0112400D02*
X0273659Y0112400D01*
X0272061Y0110802D02*
X0275450Y0110802D01*
X0275450Y0109203D02*
X0271807Y0109203D01*
X0273406Y0107605D02*
X0275450Y0107605D01*
X0275450Y0106006D02*
X0273701Y0106006D01*
X0273701Y0105165D02*
X0268985Y0105165D01*
X0268985Y0100449D01*
X0270859Y0100449D01*
X0273701Y0103291D01*
X0273701Y0105165D01*
X0273701Y0104408D02*
X0275450Y0104408D01*
X0275450Y0102809D02*
X0273220Y0102809D01*
X0271621Y0101211D02*
X0275450Y0101211D01*
X0275450Y0099612D02*
X0251550Y0099612D01*
X0251550Y0098014D02*
X0275450Y0098014D01*
X0275450Y0096415D02*
X0251550Y0096415D01*
X0251550Y0094817D02*
X0275450Y0094817D01*
X0275450Y0093218D02*
X0251550Y0093218D01*
X0251550Y0091620D02*
X0275450Y0091620D01*
X0275450Y0090021D02*
X0251550Y0090021D01*
X0251550Y0088423D02*
X0275450Y0088423D01*
X0275450Y0086824D02*
X0251550Y0086824D01*
X0251550Y0085226D02*
X0275450Y0085226D01*
X0275450Y0083627D02*
X0251550Y0083627D01*
X0251550Y0082029D02*
X0275450Y0082029D01*
X0275450Y0080430D02*
X0251550Y0080430D01*
X0251550Y0078832D02*
X0275450Y0078832D01*
X0275450Y0077233D02*
X0251550Y0077233D01*
X0251550Y0075634D02*
X0275450Y0075634D01*
X0275450Y0074036D02*
X0251550Y0074036D01*
X0251013Y0072437D02*
X0275450Y0072437D01*
X0275450Y0070839D02*
X0249414Y0070839D01*
X0247816Y0069240D02*
X0262154Y0069240D01*
X0260975Y0067642D02*
X0223419Y0067642D01*
X0221820Y0066043D02*
X0260450Y0066043D01*
X0260450Y0064445D02*
X0222532Y0064445D01*
X0223850Y0062846D02*
X0261021Y0062846D01*
X0262265Y0061248D02*
X0223850Y0061248D01*
X0223850Y0059649D02*
X0262563Y0059649D01*
X0261145Y0058051D02*
X0223828Y0058051D01*
X0222229Y0056452D02*
X0260482Y0056452D01*
X0260450Y0054854D02*
X0222123Y0054854D01*
X0217750Y0070600D02*
X0218450Y0071300D01*
X0245350Y0071300D01*
X0248350Y0074300D01*
X0248350Y0107300D01*
X0251350Y0110300D01*
X0265350Y0110300D01*
X0268850Y0113800D01*
X0268850Y0115300D01*
X0258850Y0115300D02*
X0250350Y0115300D01*
X0244350Y0109300D01*
X0244350Y0084300D01*
X0240350Y0080300D01*
X0218050Y0080300D01*
X0217750Y0080600D01*
X0204350Y0087300D02*
X0236350Y0087300D01*
X0240350Y0091300D01*
X0240350Y0115300D01*
X0250350Y0125300D01*
X0258850Y0125300D01*
X0263371Y0137976D02*
X0234550Y0137976D01*
X0234550Y0139575D02*
X0261772Y0139575D01*
X0260643Y0141173D02*
X0234550Y0141173D01*
X0234550Y0142772D02*
X0259981Y0142772D01*
X0259651Y0144370D02*
X0234550Y0144370D01*
X0234550Y0145969D02*
X0259651Y0145969D01*
X0259873Y0147568D02*
X0234550Y0147568D01*
X0234550Y0149166D02*
X0260535Y0149166D01*
X0261512Y0150765D02*
X0234550Y0150765D01*
X0234550Y0152363D02*
X0263110Y0152363D01*
X0266529Y0153962D02*
X0234550Y0153962D01*
X0234550Y0155560D02*
X0272989Y0155560D01*
X0274587Y0153962D02*
X0270171Y0153962D01*
X0273589Y0152363D02*
X0275450Y0152363D01*
X0275450Y0150765D02*
X0275188Y0150765D01*
X0265450Y0169947D02*
X0223030Y0169947D01*
X0217750Y0166600D02*
X0230050Y0166600D01*
X0237350Y0173300D02*
X0258350Y0194300D01*
X0258350Y0205300D01*
X0263550Y0205114D02*
X0265450Y0205114D01*
X0265450Y0206712D02*
X0263550Y0206712D01*
X0263550Y0208311D02*
X0265238Y0208311D01*
X0263639Y0209909D02*
X0263229Y0209909D01*
X0263550Y0203515D02*
X0265450Y0203515D01*
X0265450Y0201917D02*
X0263550Y0201917D01*
X0263075Y0200318D02*
X0265450Y0200318D01*
X0265450Y0198720D02*
X0261924Y0198720D01*
X0261550Y0197121D02*
X0265450Y0197121D01*
X0265450Y0195523D02*
X0261550Y0195523D01*
X0261550Y0193924D02*
X0265450Y0193924D01*
X0265450Y0192326D02*
X0260901Y0192326D01*
X0259303Y0190727D02*
X0265450Y0190727D01*
X0265450Y0189129D02*
X0257704Y0189129D01*
X0256106Y0187530D02*
X0265450Y0187530D01*
X0265450Y0185932D02*
X0254507Y0185932D01*
X0252909Y0184333D02*
X0265450Y0184333D01*
X0265450Y0182735D02*
X0251310Y0182735D01*
X0249712Y0181136D02*
X0265450Y0181136D01*
X0265450Y0179538D02*
X0248113Y0179538D01*
X0246515Y0177939D02*
X0265450Y0177939D01*
X0265450Y0176341D02*
X0244916Y0176341D01*
X0243318Y0174742D02*
X0265450Y0174742D01*
X0265450Y0173144D02*
X0241719Y0173144D01*
X0240121Y0171545D02*
X0265450Y0171545D01*
X0237350Y0173300D02*
X0191750Y0173300D01*
X0172850Y0154400D01*
X0172850Y0090300D01*
X0169350Y0086700D02*
X0169450Y0085300D01*
X0169350Y0086700D02*
X0169350Y0156400D01*
X0190250Y0177300D01*
X0230350Y0177300D01*
X0248350Y0195300D01*
X0248350Y0205300D01*
X0238350Y0205300D02*
X0238350Y0196300D01*
X0223350Y0181300D01*
X0188350Y0181300D01*
X0165850Y0158800D01*
X0165850Y0053800D01*
X0149350Y0037300D01*
X0071350Y0037300D01*
X0065350Y0043300D01*
X0065350Y0064300D01*
X0071350Y0070300D01*
X0076950Y0070300D01*
X0077750Y0071100D01*
X0073658Y0075634D02*
X0066230Y0075634D01*
X0066250Y0075684D02*
X0066250Y0077643D01*
X0066594Y0077500D01*
X0068106Y0077500D01*
X0069503Y0078079D01*
X0070571Y0079147D01*
X0071150Y0080544D01*
X0071150Y0082056D01*
X0070571Y0083453D01*
X0070550Y0083474D01*
X0070550Y0112937D01*
X0070063Y0114113D01*
X0057550Y0126625D01*
X0057550Y0132303D01*
X0057650Y0132544D01*
X0057650Y0134056D01*
X0057071Y0135453D01*
X0056003Y0136521D01*
X0054606Y0137100D01*
X0053094Y0137100D01*
X0051697Y0136521D01*
X0050629Y0135453D01*
X0050050Y0134056D01*
X0050050Y0132544D01*
X0050629Y0131147D01*
X0051150Y0130626D01*
X0051150Y0124663D01*
X0051637Y0123487D01*
X0052537Y0122587D01*
X0064150Y0110975D01*
X0064150Y0100004D01*
X0063482Y0100281D01*
X0061818Y0100281D01*
X0060282Y0099645D01*
X0059105Y0098468D01*
X0058469Y0096932D01*
X0058469Y0095268D01*
X0059050Y0093865D01*
X0059050Y0078576D01*
X0058771Y0078461D01*
X0057589Y0077279D01*
X0056950Y0075735D01*
X0056950Y0074065D01*
X0057589Y0072521D01*
X0058771Y0071339D01*
X0060315Y0070700D01*
X0061985Y0070700D01*
X0063529Y0071339D01*
X0064711Y0072521D01*
X0065311Y0073969D01*
X0065702Y0074361D01*
X0066250Y0075684D01*
X0066250Y0077233D02*
X0072990Y0077233D01*
X0071650Y0078832D02*
X0070256Y0078832D01*
X0071103Y0080430D02*
X0071650Y0080430D01*
X0071650Y0082029D02*
X0071150Y0082029D01*
X0071650Y0083627D02*
X0070550Y0083627D01*
X0070550Y0085226D02*
X0073249Y0085226D01*
X0074847Y0086824D02*
X0070550Y0086824D01*
X0070550Y0088423D02*
X0079990Y0088423D01*
X0081415Y0090021D02*
X0070550Y0090021D01*
X0070550Y0091620D02*
X0082840Y0091620D01*
X0084633Y0093218D02*
X0070550Y0093218D01*
X0070550Y0094817D02*
X0091068Y0094817D01*
X0090750Y0096415D02*
X0070550Y0096415D01*
X0070550Y0098014D02*
X0090750Y0098014D01*
X0090750Y0099612D02*
X0070550Y0099612D01*
X0070550Y0101211D02*
X0090750Y0101211D01*
X0090750Y0102809D02*
X0070550Y0102809D01*
X0070550Y0104408D02*
X0090608Y0104408D01*
X0090169Y0106006D02*
X0070550Y0106006D01*
X0070550Y0107605D02*
X0090365Y0107605D01*
X0091340Y0109203D02*
X0070550Y0109203D01*
X0070550Y0110802D02*
X0092550Y0110802D01*
X0092693Y0112400D02*
X0070550Y0112400D01*
X0070110Y0113999D02*
X0093675Y0113999D01*
X0096350Y0111300D02*
X0100350Y0107300D01*
X0100350Y0101300D01*
X0101350Y0100300D01*
X0139350Y0100300D01*
X0142215Y0102809D02*
X0147150Y0102809D01*
X0147150Y0101211D02*
X0143086Y0101211D01*
X0143150Y0099612D02*
X0147150Y0099612D01*
X0147150Y0098014D02*
X0142549Y0098014D01*
X0143414Y0096415D02*
X0147150Y0096415D01*
X0147150Y0094817D02*
X0143531Y0094817D01*
X0143013Y0093218D02*
X0147150Y0093218D01*
X0147150Y0091620D02*
X0142916Y0091620D01*
X0143150Y0090021D02*
X0147150Y0090021D01*
X0147150Y0088423D02*
X0142685Y0088423D01*
X0142832Y0086824D02*
X0147150Y0086824D01*
X0147150Y0085226D02*
X0143150Y0085226D01*
X0142770Y0083627D02*
X0147150Y0083627D01*
X0147150Y0082029D02*
X0142747Y0082029D01*
X0143150Y0080430D02*
X0147150Y0080430D01*
X0147150Y0078832D02*
X0142855Y0078832D01*
X0141657Y0077233D02*
X0147150Y0077233D01*
X0147150Y0075634D02*
X0111684Y0075634D01*
X0112361Y0074036D02*
X0147150Y0074036D01*
X0147150Y0072437D02*
X0112931Y0072437D01*
X0112931Y0070839D02*
X0147150Y0070839D01*
X0147150Y0069240D02*
X0112905Y0069240D01*
X0112323Y0067642D02*
X0147150Y0067642D01*
X0147150Y0066043D02*
X0111598Y0066043D01*
X0111852Y0066346D02*
X0111852Y0066346D01*
X0110256Y0064445D02*
X0138121Y0064445D01*
X0140350Y0061300D02*
X0140150Y0061100D01*
X0087750Y0061100D01*
X0091729Y0056452D02*
X0144977Y0056452D01*
X0143378Y0054854D02*
X0091774Y0054854D01*
X0093250Y0053255D02*
X0141780Y0053255D01*
X0140181Y0051657D02*
X0093250Y0051657D01*
X0093250Y0050058D02*
X0138583Y0050058D01*
X0136984Y0048460D02*
X0092888Y0048460D01*
X0081350Y0044300D02*
X0077750Y0047900D01*
X0077750Y0051100D01*
X0081350Y0044300D02*
X0137350Y0044300D01*
X0150350Y0057300D01*
X0150350Y0168300D01*
X0179350Y0197300D01*
X0195350Y0197300D01*
X0198350Y0200300D01*
X0198350Y0205300D01*
X0208350Y0205300D02*
X0208350Y0198300D01*
X0203350Y0193300D01*
X0180850Y0193300D01*
X0153850Y0166300D01*
X0153850Y0061300D01*
X0158850Y0057800D02*
X0141350Y0040300D01*
X0074350Y0040300D01*
X0070350Y0044300D01*
X0070350Y0059300D01*
X0072150Y0061100D01*
X0077750Y0061100D01*
X0087750Y0071100D02*
X0095950Y0080300D01*
X0139350Y0080300D01*
X0139350Y0085300D02*
X0091950Y0085300D01*
X0087750Y0081100D01*
X0085950Y0090300D02*
X0077750Y0081100D01*
X0072059Y0074036D02*
X0065377Y0074036D01*
X0064627Y0072437D02*
X0068962Y0072437D01*
X0067363Y0070839D02*
X0062321Y0070839D01*
X0059979Y0070839D02*
X0011250Y0070839D01*
X0011250Y0072437D02*
X0057673Y0072437D01*
X0056962Y0074036D02*
X0011250Y0074036D01*
X0011250Y0075634D02*
X0056950Y0075634D01*
X0057570Y0077233D02*
X0011250Y0077233D01*
X0011250Y0078832D02*
X0059050Y0078832D01*
X0059050Y0080430D02*
X0011250Y0080430D01*
X0011250Y0082029D02*
X0059050Y0082029D01*
X0059050Y0083627D02*
X0011250Y0083627D01*
X0011250Y0085226D02*
X0059050Y0085226D01*
X0059050Y0086824D02*
X0011250Y0086824D01*
X0011250Y0088423D02*
X0059050Y0088423D01*
X0059050Y0090021D02*
X0011250Y0090021D01*
X0011250Y0091620D02*
X0059050Y0091620D01*
X0059050Y0093218D02*
X0011250Y0093218D01*
X0011250Y0094817D02*
X0058656Y0094817D01*
X0058469Y0096415D02*
X0011250Y0096415D01*
X0011250Y0098014D02*
X0058917Y0098014D01*
X0060249Y0099612D02*
X0011250Y0099612D01*
X0011250Y0101211D02*
X0064150Y0101211D01*
X0064150Y0102809D02*
X0011250Y0102809D01*
X0011250Y0104408D02*
X0064150Y0104408D01*
X0064150Y0106006D02*
X0011250Y0106006D01*
X0011250Y0107605D02*
X0064150Y0107605D01*
X0064150Y0109203D02*
X0011250Y0109203D01*
X0011250Y0110802D02*
X0064150Y0110802D01*
X0062724Y0112400D02*
X0011250Y0112400D01*
X0011250Y0113999D02*
X0061126Y0113999D01*
X0059527Y0115597D02*
X0011250Y0115597D01*
X0011250Y0117196D02*
X0057929Y0117196D01*
X0056330Y0118794D02*
X0011250Y0118794D01*
X0011250Y0120393D02*
X0054732Y0120393D01*
X0053133Y0121991D02*
X0011250Y0121991D01*
X0011250Y0123590D02*
X0051595Y0123590D01*
X0051150Y0125188D02*
X0011250Y0125188D01*
X0011250Y0126787D02*
X0051150Y0126787D01*
X0051150Y0128385D02*
X0011250Y0128385D01*
X0011250Y0129984D02*
X0051150Y0129984D01*
X0050448Y0131582D02*
X0011250Y0131582D01*
X0011250Y0133181D02*
X0050050Y0133181D01*
X0050350Y0134779D02*
X0011250Y0134779D01*
X0011250Y0136378D02*
X0051554Y0136378D01*
X0053850Y0133300D02*
X0054350Y0132800D01*
X0054350Y0125300D01*
X0067350Y0112300D01*
X0067350Y0081300D01*
X0065765Y0069240D02*
X0011250Y0069240D01*
X0011250Y0067642D02*
X0064166Y0067642D01*
X0062609Y0066043D02*
X0011250Y0066043D01*
X0011250Y0064445D02*
X0062150Y0064445D01*
X0062150Y0062846D02*
X0011250Y0062846D01*
X0011250Y0061248D02*
X0062150Y0061248D01*
X0062150Y0059649D02*
X0011250Y0059649D01*
X0011250Y0058051D02*
X0062150Y0058051D01*
X0062150Y0056452D02*
X0011250Y0056452D01*
X0011250Y0054854D02*
X0062150Y0054854D01*
X0062150Y0053255D02*
X0011250Y0053255D01*
X0011250Y0051657D02*
X0062150Y0051657D01*
X0062150Y0050058D02*
X0011250Y0050058D01*
X0011250Y0048460D02*
X0062150Y0048460D01*
X0062150Y0046861D02*
X0060018Y0046861D01*
X0061617Y0045263D02*
X0062150Y0045263D01*
X0064624Y0038869D02*
X0065256Y0038869D01*
X0064624Y0037270D02*
X0066854Y0037270D01*
X0068453Y0035672D02*
X0064624Y0035672D01*
X0064624Y0034073D02*
X0147022Y0034073D01*
X0145423Y0032475D02*
X0063354Y0032475D01*
X0061756Y0030876D02*
X0066552Y0030876D01*
X0065349Y0029278D02*
X0060157Y0029278D01*
X0058926Y0022884D02*
X0051647Y0022884D01*
X0052224Y0021285D02*
X0057033Y0021285D01*
X0055751Y0019687D02*
X0052224Y0019687D01*
X0051789Y0018088D02*
X0055089Y0018088D01*
X0054651Y0016490D02*
X0052224Y0016490D01*
X0052224Y0014891D02*
X0054651Y0014891D01*
X0054766Y0013293D02*
X0051224Y0013293D01*
X0049625Y0011694D02*
X0055428Y0011694D01*
X0056252Y0010096D02*
X0048027Y0010096D01*
X0043030Y0010096D02*
X0042070Y0010096D01*
X0042070Y0011694D02*
X0043030Y0011694D01*
X0037073Y0010096D02*
X0011250Y0010096D01*
X0011250Y0011694D02*
X0035475Y0011694D01*
X0033876Y0013293D02*
X0011250Y0013293D01*
X0011250Y0014891D02*
X0032876Y0014891D01*
X0032876Y0016490D02*
X0011250Y0016490D01*
X0011250Y0018088D02*
X0033311Y0018088D01*
X0032876Y0019687D02*
X0011250Y0019687D01*
X0011250Y0021285D02*
X0032876Y0021285D01*
X0033453Y0022884D02*
X0011250Y0022884D01*
X0011250Y0024482D02*
X0035051Y0024482D01*
X0036650Y0026081D02*
X0011250Y0026081D01*
X0011250Y0027679D02*
X0038248Y0027679D01*
X0038861Y0028326D02*
X0039319Y0028449D01*
X0039729Y0028686D01*
X0040064Y0029021D01*
X0040301Y0029431D01*
X0040424Y0029889D01*
X0040424Y0037520D01*
X0036459Y0037520D01*
X0036260Y0038000D01*
X0036459Y0038480D01*
X0040424Y0038480D01*
X0040424Y0046111D01*
X0040301Y0046569D01*
X0040064Y0046979D01*
X0039729Y0047314D01*
X0039319Y0047551D01*
X0038861Y0047674D01*
X0031230Y0047674D01*
X0031230Y0047239D01*
X0030270Y0047239D01*
X0030270Y0047674D01*
X0022639Y0047674D01*
X0022181Y0047551D01*
X0021771Y0047314D01*
X0021436Y0046979D01*
X0021199Y0046569D01*
X0021076Y0046111D01*
X0021076Y0038480D01*
X0025041Y0038480D01*
X0025240Y0038000D01*
X0025041Y0037520D01*
X0021076Y0037520D01*
X0021076Y0029889D01*
X0021199Y0029431D01*
X0021436Y0029021D01*
X0021771Y0028686D01*
X0022181Y0028449D01*
X0022639Y0028326D01*
X0030270Y0028326D01*
X0030270Y0028761D01*
X0031230Y0028761D01*
X0031230Y0028326D01*
X0038861Y0028326D01*
X0040424Y0030876D02*
X0046944Y0030876D01*
X0045346Y0032475D02*
X0040424Y0032475D01*
X0040424Y0034073D02*
X0044076Y0034073D01*
X0044076Y0035672D02*
X0040424Y0035672D01*
X0040424Y0037270D02*
X0044076Y0037270D01*
X0044076Y0038869D02*
X0040424Y0038869D01*
X0040424Y0040467D02*
X0044076Y0040467D01*
X0044076Y0042066D02*
X0040424Y0042066D01*
X0040424Y0043664D02*
X0045485Y0043664D01*
X0047083Y0045263D02*
X0040424Y0045263D01*
X0040132Y0046861D02*
X0048682Y0046861D01*
X0021368Y0046861D02*
X0011250Y0046861D01*
X0011250Y0045263D02*
X0021076Y0045263D01*
X0021076Y0043664D02*
X0011250Y0043664D01*
X0011250Y0042066D02*
X0021076Y0042066D01*
X0021076Y0040467D02*
X0011250Y0040467D01*
X0011250Y0038869D02*
X0021076Y0038869D01*
X0021076Y0037270D02*
X0011250Y0037270D01*
X0011250Y0035672D02*
X0021076Y0035672D01*
X0021076Y0034073D02*
X0011250Y0034073D01*
X0011250Y0032475D02*
X0021076Y0032475D01*
X0021076Y0030876D02*
X0011250Y0030876D01*
X0011250Y0029278D02*
X0021287Y0029278D01*
X0011589Y0008497D02*
X0057850Y0008497D01*
X0068850Y0008497D02*
X0104627Y0008497D01*
X0103029Y0010096D02*
X0070448Y0010096D01*
X0071272Y0011694D02*
X0101430Y0011694D01*
X0099832Y0013293D02*
X0071934Y0013293D01*
X0072049Y0014891D02*
X0098233Y0014891D01*
X0096635Y0016490D02*
X0072049Y0016490D01*
X0071611Y0018088D02*
X0095036Y0018088D01*
X0093438Y0019687D02*
X0070949Y0019687D01*
X0069667Y0021285D02*
X0091839Y0021285D01*
X0094496Y0027679D02*
X0095396Y0027679D01*
X0096415Y0029278D02*
X0092898Y0029278D01*
X0090785Y0030876D02*
X0143825Y0030876D01*
X0142226Y0029278D02*
X0128463Y0029278D01*
X0130062Y0027679D02*
X0140628Y0027679D01*
X0139029Y0026081D02*
X0131509Y0026081D01*
X0131950Y0024482D02*
X0137431Y0024482D01*
X0135867Y0022884D02*
X0131950Y0022884D01*
X0132519Y0021285D02*
X0134181Y0021285D01*
X0133379Y0019687D02*
X0133321Y0019687D01*
X0142436Y0058051D02*
X0146575Y0058051D01*
X0147150Y0059649D02*
X0143779Y0059649D01*
X0144150Y0061248D02*
X0147150Y0061248D01*
X0147150Y0062846D02*
X0143823Y0062846D01*
X0142579Y0064445D02*
X0147150Y0064445D01*
X0158850Y0057800D02*
X0158850Y0164300D01*
X0183850Y0189300D01*
X0210350Y0189300D01*
X0218350Y0197300D01*
X0218350Y0205300D01*
X0228350Y0205300D02*
X0228350Y0197300D01*
X0216350Y0185300D01*
X0185850Y0185300D01*
X0162350Y0161800D01*
X0162350Y0080300D01*
X0186850Y0082300D02*
X0186850Y0104300D01*
X0205284Y0099612D02*
X0227137Y0099612D01*
X0251550Y0101211D02*
X0255230Y0101211D01*
X0253632Y0102809D02*
X0251550Y0102809D01*
X0251550Y0104408D02*
X0253399Y0104408D01*
X0253399Y0106006D02*
X0251582Y0106006D01*
X0262470Y0101211D02*
X0266079Y0101211D01*
X0264480Y0102809D02*
X0264068Y0102809D01*
X0268715Y0102809D02*
X0268985Y0102809D01*
X0268985Y0101211D02*
X0268715Y0101211D01*
X0268715Y0104408D02*
X0268985Y0104408D01*
X0207750Y0070600D02*
X0203050Y0070600D01*
X0201350Y0072300D01*
X0201350Y0084300D01*
X0204350Y0087300D01*
X0184539Y0123590D02*
X0179929Y0123590D01*
X0179550Y0125188D02*
X0186137Y0125188D01*
X0187736Y0126787D02*
X0179550Y0126787D01*
X0179550Y0128385D02*
X0189334Y0128385D01*
X0147150Y0128385D02*
X0120650Y0128385D01*
X0120040Y0129984D02*
X0147150Y0129984D01*
X0147150Y0131582D02*
X0117648Y0131582D01*
X0116052Y0131582D02*
X0091359Y0131582D01*
X0092958Y0133181D02*
X0147150Y0133181D01*
X0147150Y0134779D02*
X0093850Y0134779D01*
X0093850Y0136378D02*
X0147150Y0136378D01*
X0147150Y0137976D02*
X0093850Y0137976D01*
X0093402Y0139575D02*
X0147150Y0139575D01*
X0147150Y0141173D02*
X0107247Y0141173D01*
X0107073Y0141073D02*
X0109803Y0142649D01*
X0111830Y0145064D01*
X0112908Y0148027D01*
X0112908Y0149122D01*
X0112908Y0151179D01*
X0111830Y0154142D01*
X0111830Y0154142D01*
X0109803Y0156557D01*
X0107073Y0158133D01*
X0103968Y0158681D01*
X0100863Y0158133D01*
X0098133Y0156557D01*
X0096107Y0154142D01*
X0096107Y0154142D01*
X0095028Y0151179D01*
X0095028Y0148027D01*
X0096107Y0145064D01*
X0098133Y0142649D01*
X0100863Y0141073D01*
X0100863Y0141073D01*
X0103968Y0140526D01*
X0107073Y0141073D01*
X0107073Y0141073D01*
X0109803Y0142649D02*
X0109803Y0142649D01*
X0109906Y0142772D02*
X0147150Y0142772D01*
X0147150Y0144370D02*
X0111247Y0144370D01*
X0111830Y0145064D02*
X0111830Y0145064D01*
X0112159Y0145969D02*
X0147150Y0145969D01*
X0147150Y0147568D02*
X0112741Y0147568D01*
X0112908Y0149166D02*
X0147150Y0149166D01*
X0147150Y0150765D02*
X0112908Y0150765D01*
X0112477Y0152363D02*
X0147150Y0152363D01*
X0147150Y0153962D02*
X0111895Y0153962D01*
X0110640Y0155560D02*
X0147150Y0155560D01*
X0147150Y0157159D02*
X0108761Y0157159D01*
X0109803Y0156557D02*
X0109803Y0156557D01*
X0103968Y0158681D02*
X0103968Y0158681D01*
X0100863Y0158133D02*
X0100863Y0158133D01*
X0099175Y0157159D02*
X0096734Y0157159D01*
X0098133Y0156557D02*
X0098133Y0156557D01*
X0097297Y0155560D02*
X0095136Y0155560D01*
X0096041Y0153962D02*
X0093738Y0153962D01*
X0092140Y0152363D02*
X0095459Y0152363D01*
X0095028Y0150765D02*
X0092212Y0150765D01*
X0093811Y0149166D02*
X0095028Y0149166D01*
X0095196Y0147568D02*
X0093850Y0147568D01*
X0093850Y0145969D02*
X0095777Y0145969D01*
X0096107Y0145064D02*
X0096107Y0145064D01*
X0096689Y0144370D02*
X0093850Y0144370D01*
X0092549Y0142772D02*
X0098030Y0142772D01*
X0098133Y0142649D02*
X0098133Y0142649D01*
X0098133Y0142649D01*
X0100689Y0141173D02*
X0091803Y0141173D01*
X0103968Y0140526D02*
X0103968Y0140526D01*
X0116850Y0127800D02*
X0081850Y0127800D01*
X0077750Y0131900D01*
X0077750Y0136600D01*
X0070350Y0143300D02*
X0073650Y0146600D01*
X0077750Y0146600D01*
X0070350Y0143300D02*
X0070350Y0126800D01*
X0073350Y0123800D01*
X0123850Y0123800D01*
X0127388Y0125188D02*
X0147150Y0125188D01*
X0147150Y0123590D02*
X0131630Y0123590D01*
X0130070Y0123590D02*
X0127650Y0123590D01*
X0130850Y0119800D02*
X0071850Y0119800D01*
X0066350Y0125300D01*
X0066350Y0152300D01*
X0070650Y0156600D01*
X0066350Y0160900D01*
X0066350Y0190300D01*
X0062722Y0189129D02*
X0031710Y0189129D01*
X0031750Y0189226D02*
X0031750Y0191374D01*
X0030928Y0193359D01*
X0029409Y0194878D01*
X0028390Y0195300D01*
X0029409Y0195722D01*
X0030928Y0197241D01*
X0031750Y0199226D01*
X0031750Y0201374D01*
X0030928Y0203359D01*
X0029409Y0204878D01*
X0027424Y0205700D01*
X0019276Y0205700D01*
X0017291Y0204878D01*
X0015772Y0203359D01*
X0014950Y0201374D01*
X0014950Y0199226D01*
X0015772Y0197241D01*
X0017291Y0195722D01*
X0018310Y0195300D01*
X0017291Y0194878D01*
X0015772Y0193359D01*
X0014950Y0191374D01*
X0014950Y0189226D01*
X0015772Y0187241D01*
X0017291Y0185722D01*
X0018310Y0185300D01*
X0017291Y0184878D01*
X0015772Y0183359D01*
X0014950Y0181374D01*
X0014950Y0179226D01*
X0015772Y0177241D01*
X0017291Y0175722D01*
X0019143Y0174955D01*
X0018507Y0174748D01*
X0017834Y0174405D01*
X0017223Y0173961D01*
X0016689Y0173427D01*
X0016245Y0172816D01*
X0015902Y0172143D01*
X0015668Y0171424D01*
X0015550Y0170678D01*
X0015550Y0170500D01*
X0023150Y0170500D01*
X0023150Y0170100D01*
X0023550Y0170100D01*
X0023550Y0170500D01*
X0031150Y0170500D01*
X0031150Y0170678D01*
X0031032Y0171424D01*
X0030798Y0172143D01*
X0030455Y0172816D01*
X0030011Y0173427D01*
X0029477Y0173961D01*
X0028866Y0174405D01*
X0028193Y0174748D01*
X0027557Y0174955D01*
X0029409Y0175722D01*
X0030928Y0177241D01*
X0031750Y0179226D01*
X0031750Y0181374D01*
X0030928Y0183359D01*
X0029409Y0184878D01*
X0028390Y0185300D01*
X0029409Y0185722D01*
X0030928Y0187241D01*
X0031750Y0189226D01*
X0031750Y0190727D02*
X0062550Y0190727D01*
X0063076Y0192326D02*
X0031356Y0192326D01*
X0030362Y0193924D02*
X0065170Y0193924D01*
X0067530Y0193924D02*
X0088150Y0193924D01*
X0088150Y0192326D02*
X0069624Y0192326D01*
X0070150Y0190727D02*
X0088150Y0190727D01*
X0088150Y0189129D02*
X0069978Y0189129D01*
X0069550Y0187530D02*
X0088150Y0187530D01*
X0088150Y0185932D02*
X0069550Y0185932D01*
X0069550Y0184333D02*
X0088150Y0184333D01*
X0088150Y0182735D02*
X0069550Y0182735D01*
X0069550Y0181136D02*
X0088150Y0181136D01*
X0088202Y0179538D02*
X0069550Y0179538D01*
X0069550Y0177939D02*
X0089185Y0177939D01*
X0090784Y0176341D02*
X0069550Y0176341D01*
X0069550Y0174742D02*
X0092382Y0174742D01*
X0093150Y0173144D02*
X0069550Y0173144D01*
X0069550Y0171545D02*
X0074917Y0171545D01*
X0073319Y0169947D02*
X0069550Y0169947D01*
X0069550Y0168348D02*
X0072250Y0168348D01*
X0069550Y0166750D02*
X0077550Y0166750D01*
X0077550Y0168348D02*
X0077950Y0168348D01*
X0077950Y0169947D02*
X0077550Y0169947D01*
X0077550Y0171545D02*
X0077950Y0171545D01*
X0080583Y0171545D02*
X0084069Y0171545D01*
X0082470Y0169947D02*
X0082181Y0169947D01*
X0091431Y0171545D02*
X0093150Y0171545D01*
X0093150Y0169947D02*
X0093030Y0169947D01*
X0096350Y0175300D02*
X0091350Y0180300D01*
X0091350Y0204300D01*
X0092350Y0205300D01*
X0096407Y0198720D02*
X0098293Y0198720D01*
X0100741Y0197121D02*
X0094550Y0197121D01*
X0094550Y0195523D02*
X0173047Y0195523D01*
X0173959Y0197121D02*
X0174646Y0197121D01*
X0170741Y0197121D02*
X0163959Y0197121D01*
X0166407Y0198720D02*
X0168293Y0198720D01*
X0171449Y0193924D02*
X0094550Y0193924D01*
X0094550Y0192326D02*
X0169850Y0192326D01*
X0168252Y0190727D02*
X0094550Y0190727D01*
X0094550Y0189129D02*
X0166653Y0189129D01*
X0165055Y0187530D02*
X0094550Y0187530D01*
X0094550Y0185932D02*
X0163456Y0185932D01*
X0161858Y0184333D02*
X0094550Y0184333D01*
X0094550Y0182735D02*
X0160259Y0182735D01*
X0158661Y0181136D02*
X0095039Y0181136D01*
X0096638Y0179538D02*
X0157062Y0179538D01*
X0155464Y0177939D02*
X0098236Y0177939D01*
X0099383Y0176341D02*
X0153865Y0176341D01*
X0152267Y0174742D02*
X0099550Y0174742D01*
X0099550Y0173144D02*
X0150668Y0173144D01*
X0149070Y0171545D02*
X0099550Y0171545D01*
X0099550Y0169947D02*
X0147568Y0169947D01*
X0147150Y0168348D02*
X0099550Y0168348D01*
X0099550Y0166750D02*
X0147150Y0166750D01*
X0147150Y0165151D02*
X0099550Y0165151D01*
X0099550Y0163553D02*
X0147150Y0163553D01*
X0147150Y0161954D02*
X0099550Y0161954D01*
X0099422Y0160356D02*
X0147150Y0160356D01*
X0147150Y0158757D02*
X0098333Y0158757D01*
X0096350Y0161300D02*
X0096350Y0175300D01*
X0096350Y0161300D02*
X0091650Y0156600D01*
X0087750Y0156600D01*
X0077750Y0156600D02*
X0070650Y0156600D01*
X0071420Y0160356D02*
X0072879Y0160356D01*
X0074477Y0161954D02*
X0069821Y0161954D01*
X0069550Y0163553D02*
X0073019Y0163553D01*
X0072250Y0165151D02*
X0069550Y0165151D01*
X0063150Y0165151D02*
X0011250Y0165151D01*
X0011250Y0163553D02*
X0063150Y0163553D01*
X0063150Y0161954D02*
X0011250Y0161954D01*
X0011250Y0160356D02*
X0063150Y0160356D01*
X0063967Y0158757D02*
X0011250Y0158757D01*
X0011250Y0157159D02*
X0065566Y0157159D01*
X0065085Y0155560D02*
X0011250Y0155560D01*
X0011250Y0153962D02*
X0063575Y0153962D01*
X0063150Y0152363D02*
X0011250Y0152363D01*
X0011250Y0150765D02*
X0063150Y0150765D01*
X0063150Y0149166D02*
X0011250Y0149166D01*
X0011250Y0147568D02*
X0063150Y0147568D01*
X0063150Y0145969D02*
X0011250Y0145969D01*
X0011250Y0144370D02*
X0063150Y0144370D01*
X0063150Y0142772D02*
X0011250Y0142772D01*
X0011250Y0141173D02*
X0063150Y0141173D01*
X0063150Y0139575D02*
X0011250Y0139575D01*
X0011250Y0137976D02*
X0063150Y0137976D01*
X0063150Y0136378D02*
X0056146Y0136378D01*
X0057350Y0134779D02*
X0063150Y0134779D01*
X0063150Y0133181D02*
X0057650Y0133181D01*
X0057550Y0131582D02*
X0063150Y0131582D01*
X0063150Y0129984D02*
X0057550Y0129984D01*
X0057550Y0128385D02*
X0063150Y0128385D01*
X0063150Y0126787D02*
X0057550Y0126787D01*
X0058987Y0125188D02*
X0063150Y0125188D01*
X0063595Y0123590D02*
X0060586Y0123590D01*
X0062184Y0121991D02*
X0065133Y0121991D01*
X0063783Y0120393D02*
X0066732Y0120393D01*
X0065381Y0118794D02*
X0068330Y0118794D01*
X0066980Y0117196D02*
X0069929Y0117196D01*
X0068578Y0115597D02*
X0147150Y0115597D01*
X0147150Y0113999D02*
X0099025Y0113999D01*
X0100007Y0112400D02*
X0147150Y0112400D01*
X0147150Y0110802D02*
X0101374Y0110802D01*
X0102972Y0109203D02*
X0147150Y0109203D01*
X0147150Y0107605D02*
X0103550Y0107605D01*
X0103550Y0106006D02*
X0147150Y0106006D01*
X0147150Y0104408D02*
X0103550Y0104408D01*
X0085950Y0090300D02*
X0139350Y0090300D01*
X0133620Y0117196D02*
X0147150Y0117196D01*
X0147150Y0118794D02*
X0134547Y0118794D01*
X0134650Y0120393D02*
X0147150Y0120393D01*
X0147150Y0121991D02*
X0134033Y0121991D01*
X0126237Y0126787D02*
X0147150Y0126787D01*
X0063150Y0166750D02*
X0029588Y0166750D01*
X0029477Y0166639D02*
X0030011Y0167173D01*
X0030455Y0167784D01*
X0030798Y0168457D01*
X0031032Y0169176D01*
X0031150Y0169922D01*
X0031150Y0170100D01*
X0023550Y0170100D01*
X0023550Y0165500D01*
X0026728Y0165500D01*
X0027474Y0165618D01*
X0028193Y0165852D01*
X0028866Y0166195D01*
X0029477Y0166639D01*
X0030743Y0168348D02*
X0063150Y0168348D01*
X0063150Y0169947D02*
X0031150Y0169947D01*
X0030992Y0171545D02*
X0063150Y0171545D01*
X0063150Y0173144D02*
X0030217Y0173144D01*
X0028205Y0174742D02*
X0063150Y0174742D01*
X0063150Y0176341D02*
X0030027Y0176341D01*
X0031217Y0177939D02*
X0063150Y0177939D01*
X0063150Y0179538D02*
X0031750Y0179538D01*
X0031750Y0181136D02*
X0063150Y0181136D01*
X0063150Y0182735D02*
X0031186Y0182735D01*
X0029953Y0184333D02*
X0063150Y0184333D01*
X0063150Y0185932D02*
X0029619Y0185932D01*
X0031048Y0187530D02*
X0063150Y0187530D01*
X0065363Y0197121D02*
X0030808Y0197121D01*
X0031540Y0198720D02*
X0062628Y0198720D01*
X0061029Y0200318D02*
X0031750Y0200318D01*
X0031525Y0201917D02*
X0060335Y0201917D01*
X0059673Y0203515D02*
X0030771Y0203515D01*
X0028839Y0205114D02*
X0059651Y0205114D01*
X0059651Y0206712D02*
X0011250Y0206712D01*
X0011250Y0205114D02*
X0017861Y0205114D01*
X0015929Y0203515D02*
X0011250Y0203515D01*
X0011250Y0201917D02*
X0015175Y0201917D01*
X0014950Y0200318D02*
X0011250Y0200318D01*
X0011250Y0198720D02*
X0015160Y0198720D01*
X0015892Y0197121D02*
X0011250Y0197121D01*
X0011250Y0195523D02*
X0017772Y0195523D01*
X0016338Y0193924D02*
X0011250Y0193924D01*
X0011250Y0192326D02*
X0015344Y0192326D01*
X0014950Y0190727D02*
X0011250Y0190727D01*
X0011250Y0189129D02*
X0014990Y0189129D01*
X0015652Y0187530D02*
X0011250Y0187530D01*
X0011250Y0185932D02*
X0017081Y0185932D01*
X0016747Y0184333D02*
X0011250Y0184333D01*
X0011250Y0182735D02*
X0015514Y0182735D01*
X0014950Y0181136D02*
X0011250Y0181136D01*
X0011250Y0179538D02*
X0014950Y0179538D01*
X0015483Y0177939D02*
X0011250Y0177939D01*
X0011250Y0176341D02*
X0016673Y0176341D01*
X0018495Y0174742D02*
X0011250Y0174742D01*
X0011250Y0173144D02*
X0016483Y0173144D01*
X0015708Y0171545D02*
X0011250Y0171545D01*
X0011250Y0169947D02*
X0015550Y0169947D01*
X0015550Y0169922D02*
X0015668Y0169176D01*
X0015902Y0168457D01*
X0016245Y0167784D01*
X0016689Y0167173D01*
X0017223Y0166639D01*
X0017834Y0166195D01*
X0018507Y0165852D01*
X0019226Y0165618D01*
X0019972Y0165500D01*
X0023150Y0165500D01*
X0023150Y0170100D01*
X0015550Y0170100D01*
X0015550Y0169922D01*
X0015957Y0168348D02*
X0011250Y0168348D01*
X0011250Y0166750D02*
X0017112Y0166750D01*
X0023150Y0166750D02*
X0023550Y0166750D01*
X0023550Y0168348D02*
X0023150Y0168348D01*
X0023150Y0169947D02*
X0023550Y0169947D01*
X0028928Y0195523D02*
X0088150Y0195523D01*
X0088150Y0197121D02*
X0083959Y0197121D01*
X0086407Y0198720D02*
X0088150Y0198720D01*
X0080741Y0197121D02*
X0071337Y0197121D01*
X0074072Y0198720D02*
X0078293Y0198720D01*
X0077326Y0200318D02*
X0075671Y0200318D01*
X0076365Y0201917D02*
X0076950Y0201917D01*
X0062255Y0211508D02*
X0011264Y0211508D01*
X0011250Y0209909D02*
X0060843Y0209909D01*
X0060181Y0208311D02*
X0011250Y0208311D01*
X0103959Y0197121D02*
X0120741Y0197121D01*
X0118293Y0198720D02*
X0115558Y0198720D01*
X0116727Y0200318D02*
X0117326Y0200318D01*
X0112550Y0200318D02*
X0112150Y0200318D01*
X0112150Y0198720D02*
X0112550Y0198720D01*
X0112550Y0201917D02*
X0112150Y0201917D01*
X0112150Y0203515D02*
X0112550Y0203515D01*
X0107973Y0200318D02*
X0107374Y0200318D01*
X0106407Y0198720D02*
X0109142Y0198720D01*
X0123959Y0197121D02*
X0130741Y0197121D01*
X0128293Y0198720D02*
X0126407Y0198720D01*
X0133959Y0197121D02*
X0140741Y0197121D01*
X0138293Y0198720D02*
X0136407Y0198720D01*
X0143959Y0197121D02*
X0150741Y0197121D01*
X0148293Y0198720D02*
X0146407Y0198720D01*
X0153959Y0197121D02*
X0160741Y0197121D01*
X0158293Y0198720D02*
X0156407Y0198720D01*
D21*
X0142850Y0151800D03*
X0142850Y0147800D03*
X0142850Y0143800D03*
X0142850Y0139800D03*
X0142850Y0135800D03*
X0130850Y0148800D03*
X0117850Y0148800D03*
X0116850Y0127800D03*
X0123850Y0123800D03*
X0130850Y0119800D03*
X0139350Y0100300D03*
X0139350Y0090300D03*
X0139350Y0085300D03*
X0139350Y0080300D03*
X0140350Y0061300D03*
X0153850Y0061300D03*
X0162350Y0080300D03*
X0169450Y0085300D03*
X0172850Y0090300D03*
X0186850Y0082300D03*
X0197350Y0068300D03*
X0183350Y0057800D03*
X0183350Y0054800D03*
X0180350Y0054800D03*
X0180350Y0057800D03*
X0192350Y0048300D03*
X0213350Y0022300D03*
X0223350Y0022300D03*
X0233350Y0022300D03*
X0243350Y0022300D03*
X0253850Y0022300D03*
X0264350Y0022300D03*
X0269850Y0046300D03*
X0234850Y0048300D03*
X0198850Y0014800D03*
X0203350Y0096300D03*
X0186850Y0104300D03*
X0190350Y0114300D03*
X0197350Y0121300D03*
X0213850Y0119800D03*
X0219850Y0119800D03*
X0237850Y0148800D03*
X0237850Y0153800D03*
X0237850Y0158800D03*
X0237850Y0163800D03*
X0228350Y0157300D03*
X0176350Y0122300D03*
X0176350Y0116800D03*
X0096350Y0111300D03*
X0081350Y0097800D03*
X0081350Y0094800D03*
X0078350Y0094800D03*
X0078350Y0097800D03*
X0067350Y0081300D03*
X0031350Y0129300D03*
X0027850Y0129300D03*
X0053850Y0133300D03*
X0056350Y0143800D03*
X0059350Y0143800D03*
X0059350Y0147300D03*
X0056350Y0147300D03*
X0032450Y0155000D03*
X0056850Y0185800D03*
X0066350Y0190300D03*
X0055850Y0201800D03*
X0068850Y0027800D03*
D22*
X0099350Y0026300D02*
X0126350Y0026300D01*
X0128350Y0024300D01*
X0128350Y0015300D01*
X0062650Y0076400D02*
X0061150Y0074900D01*
X0062650Y0076400D02*
X0062650Y0096100D01*
X0094350Y0096300D02*
X0095350Y0095300D01*
X0139350Y0095300D01*
X0094350Y0096300D02*
X0094350Y0106300D01*
X0204350Y0091300D02*
X0230850Y0091300D01*
X0235850Y0096300D01*
X0235850Y0117300D01*
X0250850Y0132300D01*
X0265350Y0132300D01*
X0268350Y0129300D01*
X0268350Y0125800D01*
X0268850Y0125300D01*
D23*
X0204350Y0091300D03*
X0139350Y0095300D03*
X0094350Y0106300D03*
X0062650Y0096100D03*
X0099350Y0026300D03*
D24*
X0061150Y0074900D03*
M02*
