G75*
%MOIN*%
%OFA0B0*%
%FSLAX25Y25*%
%IPPOS*%
%LPD*%
%AMOC8*
5,1,8,0,0,1.08239X$1,22.5*
%
%ADD10C,0.01000*%
%ADD11C,0.00000*%
%ADD12C,0.12998*%
%ADD13C,0.00039*%
%ADD14OC8,0.06502*%
%ADD15C,0.06000*%
%ADD16C,0.06400*%
%ADD17OC8,0.07800*%
%ADD18OC8,0.16148*%
%ADD19R,0.16148X0.16148*%
%ADD20C,0.08077*%
D10*
X0008350Y0009237D02*
X0008350Y0211363D01*
X0008352Y0211487D01*
X0008358Y0211610D01*
X0008367Y0211734D01*
X0008381Y0211856D01*
X0008398Y0211979D01*
X0008420Y0212101D01*
X0008445Y0212222D01*
X0008474Y0212342D01*
X0008506Y0212461D01*
X0008543Y0212580D01*
X0008583Y0212697D01*
X0008626Y0212812D01*
X0008674Y0212927D01*
X0008725Y0213039D01*
X0008779Y0213150D01*
X0008837Y0213260D01*
X0008898Y0213367D01*
X0008963Y0213473D01*
X0009031Y0213576D01*
X0009102Y0213677D01*
X0009176Y0213776D01*
X0009253Y0213873D01*
X0009334Y0213967D01*
X0009417Y0214058D01*
X0009503Y0214147D01*
X0009592Y0214233D01*
X0009683Y0214316D01*
X0009777Y0214397D01*
X0009874Y0214474D01*
X0009973Y0214548D01*
X0010074Y0214619D01*
X0010177Y0214687D01*
X0010283Y0214752D01*
X0010390Y0214813D01*
X0010500Y0214871D01*
X0010611Y0214925D01*
X0010723Y0214976D01*
X0010838Y0215024D01*
X0010953Y0215067D01*
X0011070Y0215107D01*
X0011189Y0215144D01*
X0011308Y0215176D01*
X0011428Y0215205D01*
X0011549Y0215230D01*
X0011671Y0215252D01*
X0011794Y0215269D01*
X0011916Y0215283D01*
X0012040Y0215292D01*
X0012163Y0215298D01*
X0012287Y0215300D01*
X0262350Y0215300D01*
X0268350Y0209300D01*
X0268350Y0164300D01*
X0278350Y0154300D01*
X0278350Y0025300D01*
X0268350Y0015300D01*
X0268350Y0009237D01*
X0268348Y0009113D01*
X0268342Y0008990D01*
X0268333Y0008866D01*
X0268319Y0008744D01*
X0268302Y0008621D01*
X0268280Y0008499D01*
X0268255Y0008378D01*
X0268226Y0008258D01*
X0268194Y0008139D01*
X0268157Y0008020D01*
X0268117Y0007903D01*
X0268074Y0007788D01*
X0268026Y0007673D01*
X0267975Y0007561D01*
X0267921Y0007450D01*
X0267863Y0007340D01*
X0267802Y0007233D01*
X0267737Y0007127D01*
X0267669Y0007024D01*
X0267598Y0006923D01*
X0267524Y0006824D01*
X0267447Y0006727D01*
X0267366Y0006633D01*
X0267283Y0006542D01*
X0267197Y0006453D01*
X0267108Y0006367D01*
X0267017Y0006284D01*
X0266923Y0006203D01*
X0266826Y0006126D01*
X0266727Y0006052D01*
X0266626Y0005981D01*
X0266523Y0005913D01*
X0266417Y0005848D01*
X0266310Y0005787D01*
X0266200Y0005729D01*
X0266089Y0005675D01*
X0265977Y0005624D01*
X0265862Y0005576D01*
X0265747Y0005533D01*
X0265630Y0005493D01*
X0265511Y0005456D01*
X0265392Y0005424D01*
X0265272Y0005395D01*
X0265151Y0005370D01*
X0265029Y0005348D01*
X0264906Y0005331D01*
X0264784Y0005317D01*
X0264660Y0005308D01*
X0264537Y0005302D01*
X0264413Y0005300D01*
X0012287Y0005300D01*
X0012163Y0005302D01*
X0012040Y0005308D01*
X0011916Y0005317D01*
X0011794Y0005331D01*
X0011671Y0005348D01*
X0011549Y0005370D01*
X0011428Y0005395D01*
X0011308Y0005424D01*
X0011189Y0005456D01*
X0011070Y0005493D01*
X0010953Y0005533D01*
X0010838Y0005576D01*
X0010723Y0005624D01*
X0010611Y0005675D01*
X0010500Y0005729D01*
X0010390Y0005787D01*
X0010283Y0005848D01*
X0010177Y0005913D01*
X0010074Y0005981D01*
X0009973Y0006052D01*
X0009874Y0006126D01*
X0009777Y0006203D01*
X0009683Y0006284D01*
X0009592Y0006367D01*
X0009503Y0006453D01*
X0009417Y0006542D01*
X0009334Y0006633D01*
X0009253Y0006727D01*
X0009176Y0006824D01*
X0009102Y0006923D01*
X0009031Y0007024D01*
X0008963Y0007127D01*
X0008898Y0007233D01*
X0008837Y0007340D01*
X0008779Y0007450D01*
X0008725Y0007561D01*
X0008674Y0007673D01*
X0008626Y0007788D01*
X0008583Y0007903D01*
X0008543Y0008020D01*
X0008506Y0008139D01*
X0008474Y0008258D01*
X0008445Y0008378D01*
X0008420Y0008499D01*
X0008398Y0008621D01*
X0008381Y0008744D01*
X0008367Y0008866D01*
X0008358Y0008990D01*
X0008352Y0009113D01*
X0008350Y0009237D01*
D11*
X0057051Y0015300D02*
X0057053Y0015458D01*
X0057059Y0015616D01*
X0057069Y0015774D01*
X0057083Y0015932D01*
X0057101Y0016089D01*
X0057122Y0016246D01*
X0057148Y0016402D01*
X0057178Y0016558D01*
X0057211Y0016713D01*
X0057249Y0016866D01*
X0057290Y0017019D01*
X0057335Y0017171D01*
X0057384Y0017322D01*
X0057437Y0017471D01*
X0057493Y0017619D01*
X0057553Y0017765D01*
X0057617Y0017910D01*
X0057685Y0018053D01*
X0057756Y0018195D01*
X0057830Y0018335D01*
X0057908Y0018472D01*
X0057990Y0018608D01*
X0058074Y0018742D01*
X0058163Y0018873D01*
X0058254Y0019002D01*
X0058349Y0019129D01*
X0058446Y0019254D01*
X0058547Y0019376D01*
X0058651Y0019495D01*
X0058758Y0019612D01*
X0058868Y0019726D01*
X0058981Y0019837D01*
X0059096Y0019946D01*
X0059214Y0020051D01*
X0059335Y0020153D01*
X0059458Y0020253D01*
X0059584Y0020349D01*
X0059712Y0020442D01*
X0059842Y0020532D01*
X0059975Y0020618D01*
X0060110Y0020702D01*
X0060246Y0020781D01*
X0060385Y0020858D01*
X0060526Y0020930D01*
X0060668Y0021000D01*
X0060812Y0021065D01*
X0060958Y0021127D01*
X0061105Y0021185D01*
X0061254Y0021240D01*
X0061404Y0021291D01*
X0061555Y0021338D01*
X0061707Y0021381D01*
X0061860Y0021420D01*
X0062015Y0021456D01*
X0062170Y0021487D01*
X0062326Y0021515D01*
X0062482Y0021539D01*
X0062639Y0021559D01*
X0062797Y0021575D01*
X0062954Y0021587D01*
X0063113Y0021595D01*
X0063271Y0021599D01*
X0063429Y0021599D01*
X0063587Y0021595D01*
X0063746Y0021587D01*
X0063903Y0021575D01*
X0064061Y0021559D01*
X0064218Y0021539D01*
X0064374Y0021515D01*
X0064530Y0021487D01*
X0064685Y0021456D01*
X0064840Y0021420D01*
X0064993Y0021381D01*
X0065145Y0021338D01*
X0065296Y0021291D01*
X0065446Y0021240D01*
X0065595Y0021185D01*
X0065742Y0021127D01*
X0065888Y0021065D01*
X0066032Y0021000D01*
X0066174Y0020930D01*
X0066315Y0020858D01*
X0066454Y0020781D01*
X0066590Y0020702D01*
X0066725Y0020618D01*
X0066858Y0020532D01*
X0066988Y0020442D01*
X0067116Y0020349D01*
X0067242Y0020253D01*
X0067365Y0020153D01*
X0067486Y0020051D01*
X0067604Y0019946D01*
X0067719Y0019837D01*
X0067832Y0019726D01*
X0067942Y0019612D01*
X0068049Y0019495D01*
X0068153Y0019376D01*
X0068254Y0019254D01*
X0068351Y0019129D01*
X0068446Y0019002D01*
X0068537Y0018873D01*
X0068626Y0018742D01*
X0068710Y0018608D01*
X0068792Y0018472D01*
X0068870Y0018335D01*
X0068944Y0018195D01*
X0069015Y0018053D01*
X0069083Y0017910D01*
X0069147Y0017765D01*
X0069207Y0017619D01*
X0069263Y0017471D01*
X0069316Y0017322D01*
X0069365Y0017171D01*
X0069410Y0017019D01*
X0069451Y0016866D01*
X0069489Y0016713D01*
X0069522Y0016558D01*
X0069552Y0016402D01*
X0069578Y0016246D01*
X0069599Y0016089D01*
X0069617Y0015932D01*
X0069631Y0015774D01*
X0069641Y0015616D01*
X0069647Y0015458D01*
X0069649Y0015300D01*
X0069647Y0015142D01*
X0069641Y0014984D01*
X0069631Y0014826D01*
X0069617Y0014668D01*
X0069599Y0014511D01*
X0069578Y0014354D01*
X0069552Y0014198D01*
X0069522Y0014042D01*
X0069489Y0013887D01*
X0069451Y0013734D01*
X0069410Y0013581D01*
X0069365Y0013429D01*
X0069316Y0013278D01*
X0069263Y0013129D01*
X0069207Y0012981D01*
X0069147Y0012835D01*
X0069083Y0012690D01*
X0069015Y0012547D01*
X0068944Y0012405D01*
X0068870Y0012265D01*
X0068792Y0012128D01*
X0068710Y0011992D01*
X0068626Y0011858D01*
X0068537Y0011727D01*
X0068446Y0011598D01*
X0068351Y0011471D01*
X0068254Y0011346D01*
X0068153Y0011224D01*
X0068049Y0011105D01*
X0067942Y0010988D01*
X0067832Y0010874D01*
X0067719Y0010763D01*
X0067604Y0010654D01*
X0067486Y0010549D01*
X0067365Y0010447D01*
X0067242Y0010347D01*
X0067116Y0010251D01*
X0066988Y0010158D01*
X0066858Y0010068D01*
X0066725Y0009982D01*
X0066590Y0009898D01*
X0066454Y0009819D01*
X0066315Y0009742D01*
X0066174Y0009670D01*
X0066032Y0009600D01*
X0065888Y0009535D01*
X0065742Y0009473D01*
X0065595Y0009415D01*
X0065446Y0009360D01*
X0065296Y0009309D01*
X0065145Y0009262D01*
X0064993Y0009219D01*
X0064840Y0009180D01*
X0064685Y0009144D01*
X0064530Y0009113D01*
X0064374Y0009085D01*
X0064218Y0009061D01*
X0064061Y0009041D01*
X0063903Y0009025D01*
X0063746Y0009013D01*
X0063587Y0009005D01*
X0063429Y0009001D01*
X0063271Y0009001D01*
X0063113Y0009005D01*
X0062954Y0009013D01*
X0062797Y0009025D01*
X0062639Y0009041D01*
X0062482Y0009061D01*
X0062326Y0009085D01*
X0062170Y0009113D01*
X0062015Y0009144D01*
X0061860Y0009180D01*
X0061707Y0009219D01*
X0061555Y0009262D01*
X0061404Y0009309D01*
X0061254Y0009360D01*
X0061105Y0009415D01*
X0060958Y0009473D01*
X0060812Y0009535D01*
X0060668Y0009600D01*
X0060526Y0009670D01*
X0060385Y0009742D01*
X0060246Y0009819D01*
X0060110Y0009898D01*
X0059975Y0009982D01*
X0059842Y0010068D01*
X0059712Y0010158D01*
X0059584Y0010251D01*
X0059458Y0010347D01*
X0059335Y0010447D01*
X0059214Y0010549D01*
X0059096Y0010654D01*
X0058981Y0010763D01*
X0058868Y0010874D01*
X0058758Y0010988D01*
X0058651Y0011105D01*
X0058547Y0011224D01*
X0058446Y0011346D01*
X0058349Y0011471D01*
X0058254Y0011598D01*
X0058163Y0011727D01*
X0058074Y0011858D01*
X0057990Y0011992D01*
X0057908Y0012128D01*
X0057830Y0012265D01*
X0057756Y0012405D01*
X0057685Y0012547D01*
X0057617Y0012690D01*
X0057553Y0012835D01*
X0057493Y0012981D01*
X0057437Y0013129D01*
X0057384Y0013278D01*
X0057335Y0013429D01*
X0057290Y0013581D01*
X0057249Y0013734D01*
X0057211Y0013887D01*
X0057178Y0014042D01*
X0057148Y0014198D01*
X0057122Y0014354D01*
X0057101Y0014511D01*
X0057083Y0014668D01*
X0057069Y0014826D01*
X0057059Y0014984D01*
X0057053Y0015142D01*
X0057051Y0015300D01*
X0262051Y0035300D02*
X0262053Y0035458D01*
X0262059Y0035616D01*
X0262069Y0035774D01*
X0262083Y0035932D01*
X0262101Y0036089D01*
X0262122Y0036246D01*
X0262148Y0036402D01*
X0262178Y0036558D01*
X0262211Y0036713D01*
X0262249Y0036866D01*
X0262290Y0037019D01*
X0262335Y0037171D01*
X0262384Y0037322D01*
X0262437Y0037471D01*
X0262493Y0037619D01*
X0262553Y0037765D01*
X0262617Y0037910D01*
X0262685Y0038053D01*
X0262756Y0038195D01*
X0262830Y0038335D01*
X0262908Y0038472D01*
X0262990Y0038608D01*
X0263074Y0038742D01*
X0263163Y0038873D01*
X0263254Y0039002D01*
X0263349Y0039129D01*
X0263446Y0039254D01*
X0263547Y0039376D01*
X0263651Y0039495D01*
X0263758Y0039612D01*
X0263868Y0039726D01*
X0263981Y0039837D01*
X0264096Y0039946D01*
X0264214Y0040051D01*
X0264335Y0040153D01*
X0264458Y0040253D01*
X0264584Y0040349D01*
X0264712Y0040442D01*
X0264842Y0040532D01*
X0264975Y0040618D01*
X0265110Y0040702D01*
X0265246Y0040781D01*
X0265385Y0040858D01*
X0265526Y0040930D01*
X0265668Y0041000D01*
X0265812Y0041065D01*
X0265958Y0041127D01*
X0266105Y0041185D01*
X0266254Y0041240D01*
X0266404Y0041291D01*
X0266555Y0041338D01*
X0266707Y0041381D01*
X0266860Y0041420D01*
X0267015Y0041456D01*
X0267170Y0041487D01*
X0267326Y0041515D01*
X0267482Y0041539D01*
X0267639Y0041559D01*
X0267797Y0041575D01*
X0267954Y0041587D01*
X0268113Y0041595D01*
X0268271Y0041599D01*
X0268429Y0041599D01*
X0268587Y0041595D01*
X0268746Y0041587D01*
X0268903Y0041575D01*
X0269061Y0041559D01*
X0269218Y0041539D01*
X0269374Y0041515D01*
X0269530Y0041487D01*
X0269685Y0041456D01*
X0269840Y0041420D01*
X0269993Y0041381D01*
X0270145Y0041338D01*
X0270296Y0041291D01*
X0270446Y0041240D01*
X0270595Y0041185D01*
X0270742Y0041127D01*
X0270888Y0041065D01*
X0271032Y0041000D01*
X0271174Y0040930D01*
X0271315Y0040858D01*
X0271454Y0040781D01*
X0271590Y0040702D01*
X0271725Y0040618D01*
X0271858Y0040532D01*
X0271988Y0040442D01*
X0272116Y0040349D01*
X0272242Y0040253D01*
X0272365Y0040153D01*
X0272486Y0040051D01*
X0272604Y0039946D01*
X0272719Y0039837D01*
X0272832Y0039726D01*
X0272942Y0039612D01*
X0273049Y0039495D01*
X0273153Y0039376D01*
X0273254Y0039254D01*
X0273351Y0039129D01*
X0273446Y0039002D01*
X0273537Y0038873D01*
X0273626Y0038742D01*
X0273710Y0038608D01*
X0273792Y0038472D01*
X0273870Y0038335D01*
X0273944Y0038195D01*
X0274015Y0038053D01*
X0274083Y0037910D01*
X0274147Y0037765D01*
X0274207Y0037619D01*
X0274263Y0037471D01*
X0274316Y0037322D01*
X0274365Y0037171D01*
X0274410Y0037019D01*
X0274451Y0036866D01*
X0274489Y0036713D01*
X0274522Y0036558D01*
X0274552Y0036402D01*
X0274578Y0036246D01*
X0274599Y0036089D01*
X0274617Y0035932D01*
X0274631Y0035774D01*
X0274641Y0035616D01*
X0274647Y0035458D01*
X0274649Y0035300D01*
X0274647Y0035142D01*
X0274641Y0034984D01*
X0274631Y0034826D01*
X0274617Y0034668D01*
X0274599Y0034511D01*
X0274578Y0034354D01*
X0274552Y0034198D01*
X0274522Y0034042D01*
X0274489Y0033887D01*
X0274451Y0033734D01*
X0274410Y0033581D01*
X0274365Y0033429D01*
X0274316Y0033278D01*
X0274263Y0033129D01*
X0274207Y0032981D01*
X0274147Y0032835D01*
X0274083Y0032690D01*
X0274015Y0032547D01*
X0273944Y0032405D01*
X0273870Y0032265D01*
X0273792Y0032128D01*
X0273710Y0031992D01*
X0273626Y0031858D01*
X0273537Y0031727D01*
X0273446Y0031598D01*
X0273351Y0031471D01*
X0273254Y0031346D01*
X0273153Y0031224D01*
X0273049Y0031105D01*
X0272942Y0030988D01*
X0272832Y0030874D01*
X0272719Y0030763D01*
X0272604Y0030654D01*
X0272486Y0030549D01*
X0272365Y0030447D01*
X0272242Y0030347D01*
X0272116Y0030251D01*
X0271988Y0030158D01*
X0271858Y0030068D01*
X0271725Y0029982D01*
X0271590Y0029898D01*
X0271454Y0029819D01*
X0271315Y0029742D01*
X0271174Y0029670D01*
X0271032Y0029600D01*
X0270888Y0029535D01*
X0270742Y0029473D01*
X0270595Y0029415D01*
X0270446Y0029360D01*
X0270296Y0029309D01*
X0270145Y0029262D01*
X0269993Y0029219D01*
X0269840Y0029180D01*
X0269685Y0029144D01*
X0269530Y0029113D01*
X0269374Y0029085D01*
X0269218Y0029061D01*
X0269061Y0029041D01*
X0268903Y0029025D01*
X0268746Y0029013D01*
X0268587Y0029005D01*
X0268429Y0029001D01*
X0268271Y0029001D01*
X0268113Y0029005D01*
X0267954Y0029013D01*
X0267797Y0029025D01*
X0267639Y0029041D01*
X0267482Y0029061D01*
X0267326Y0029085D01*
X0267170Y0029113D01*
X0267015Y0029144D01*
X0266860Y0029180D01*
X0266707Y0029219D01*
X0266555Y0029262D01*
X0266404Y0029309D01*
X0266254Y0029360D01*
X0266105Y0029415D01*
X0265958Y0029473D01*
X0265812Y0029535D01*
X0265668Y0029600D01*
X0265526Y0029670D01*
X0265385Y0029742D01*
X0265246Y0029819D01*
X0265110Y0029898D01*
X0264975Y0029982D01*
X0264842Y0030068D01*
X0264712Y0030158D01*
X0264584Y0030251D01*
X0264458Y0030347D01*
X0264335Y0030447D01*
X0264214Y0030549D01*
X0264096Y0030654D01*
X0263981Y0030763D01*
X0263868Y0030874D01*
X0263758Y0030988D01*
X0263651Y0031105D01*
X0263547Y0031224D01*
X0263446Y0031346D01*
X0263349Y0031471D01*
X0263254Y0031598D01*
X0263163Y0031727D01*
X0263074Y0031858D01*
X0262990Y0031992D01*
X0262908Y0032128D01*
X0262830Y0032265D01*
X0262756Y0032405D01*
X0262685Y0032547D01*
X0262617Y0032690D01*
X0262553Y0032835D01*
X0262493Y0032981D01*
X0262437Y0033129D01*
X0262384Y0033278D01*
X0262335Y0033429D01*
X0262290Y0033581D01*
X0262249Y0033734D01*
X0262211Y0033887D01*
X0262178Y0034042D01*
X0262148Y0034198D01*
X0262122Y0034354D01*
X0262101Y0034511D01*
X0262083Y0034668D01*
X0262069Y0034826D01*
X0262059Y0034984D01*
X0262053Y0035142D01*
X0262051Y0035300D01*
X0262051Y0145300D02*
X0262053Y0145458D01*
X0262059Y0145616D01*
X0262069Y0145774D01*
X0262083Y0145932D01*
X0262101Y0146089D01*
X0262122Y0146246D01*
X0262148Y0146402D01*
X0262178Y0146558D01*
X0262211Y0146713D01*
X0262249Y0146866D01*
X0262290Y0147019D01*
X0262335Y0147171D01*
X0262384Y0147322D01*
X0262437Y0147471D01*
X0262493Y0147619D01*
X0262553Y0147765D01*
X0262617Y0147910D01*
X0262685Y0148053D01*
X0262756Y0148195D01*
X0262830Y0148335D01*
X0262908Y0148472D01*
X0262990Y0148608D01*
X0263074Y0148742D01*
X0263163Y0148873D01*
X0263254Y0149002D01*
X0263349Y0149129D01*
X0263446Y0149254D01*
X0263547Y0149376D01*
X0263651Y0149495D01*
X0263758Y0149612D01*
X0263868Y0149726D01*
X0263981Y0149837D01*
X0264096Y0149946D01*
X0264214Y0150051D01*
X0264335Y0150153D01*
X0264458Y0150253D01*
X0264584Y0150349D01*
X0264712Y0150442D01*
X0264842Y0150532D01*
X0264975Y0150618D01*
X0265110Y0150702D01*
X0265246Y0150781D01*
X0265385Y0150858D01*
X0265526Y0150930D01*
X0265668Y0151000D01*
X0265812Y0151065D01*
X0265958Y0151127D01*
X0266105Y0151185D01*
X0266254Y0151240D01*
X0266404Y0151291D01*
X0266555Y0151338D01*
X0266707Y0151381D01*
X0266860Y0151420D01*
X0267015Y0151456D01*
X0267170Y0151487D01*
X0267326Y0151515D01*
X0267482Y0151539D01*
X0267639Y0151559D01*
X0267797Y0151575D01*
X0267954Y0151587D01*
X0268113Y0151595D01*
X0268271Y0151599D01*
X0268429Y0151599D01*
X0268587Y0151595D01*
X0268746Y0151587D01*
X0268903Y0151575D01*
X0269061Y0151559D01*
X0269218Y0151539D01*
X0269374Y0151515D01*
X0269530Y0151487D01*
X0269685Y0151456D01*
X0269840Y0151420D01*
X0269993Y0151381D01*
X0270145Y0151338D01*
X0270296Y0151291D01*
X0270446Y0151240D01*
X0270595Y0151185D01*
X0270742Y0151127D01*
X0270888Y0151065D01*
X0271032Y0151000D01*
X0271174Y0150930D01*
X0271315Y0150858D01*
X0271454Y0150781D01*
X0271590Y0150702D01*
X0271725Y0150618D01*
X0271858Y0150532D01*
X0271988Y0150442D01*
X0272116Y0150349D01*
X0272242Y0150253D01*
X0272365Y0150153D01*
X0272486Y0150051D01*
X0272604Y0149946D01*
X0272719Y0149837D01*
X0272832Y0149726D01*
X0272942Y0149612D01*
X0273049Y0149495D01*
X0273153Y0149376D01*
X0273254Y0149254D01*
X0273351Y0149129D01*
X0273446Y0149002D01*
X0273537Y0148873D01*
X0273626Y0148742D01*
X0273710Y0148608D01*
X0273792Y0148472D01*
X0273870Y0148335D01*
X0273944Y0148195D01*
X0274015Y0148053D01*
X0274083Y0147910D01*
X0274147Y0147765D01*
X0274207Y0147619D01*
X0274263Y0147471D01*
X0274316Y0147322D01*
X0274365Y0147171D01*
X0274410Y0147019D01*
X0274451Y0146866D01*
X0274489Y0146713D01*
X0274522Y0146558D01*
X0274552Y0146402D01*
X0274578Y0146246D01*
X0274599Y0146089D01*
X0274617Y0145932D01*
X0274631Y0145774D01*
X0274641Y0145616D01*
X0274647Y0145458D01*
X0274649Y0145300D01*
X0274647Y0145142D01*
X0274641Y0144984D01*
X0274631Y0144826D01*
X0274617Y0144668D01*
X0274599Y0144511D01*
X0274578Y0144354D01*
X0274552Y0144198D01*
X0274522Y0144042D01*
X0274489Y0143887D01*
X0274451Y0143734D01*
X0274410Y0143581D01*
X0274365Y0143429D01*
X0274316Y0143278D01*
X0274263Y0143129D01*
X0274207Y0142981D01*
X0274147Y0142835D01*
X0274083Y0142690D01*
X0274015Y0142547D01*
X0273944Y0142405D01*
X0273870Y0142265D01*
X0273792Y0142128D01*
X0273710Y0141992D01*
X0273626Y0141858D01*
X0273537Y0141727D01*
X0273446Y0141598D01*
X0273351Y0141471D01*
X0273254Y0141346D01*
X0273153Y0141224D01*
X0273049Y0141105D01*
X0272942Y0140988D01*
X0272832Y0140874D01*
X0272719Y0140763D01*
X0272604Y0140654D01*
X0272486Y0140549D01*
X0272365Y0140447D01*
X0272242Y0140347D01*
X0272116Y0140251D01*
X0271988Y0140158D01*
X0271858Y0140068D01*
X0271725Y0139982D01*
X0271590Y0139898D01*
X0271454Y0139819D01*
X0271315Y0139742D01*
X0271174Y0139670D01*
X0271032Y0139600D01*
X0270888Y0139535D01*
X0270742Y0139473D01*
X0270595Y0139415D01*
X0270446Y0139360D01*
X0270296Y0139309D01*
X0270145Y0139262D01*
X0269993Y0139219D01*
X0269840Y0139180D01*
X0269685Y0139144D01*
X0269530Y0139113D01*
X0269374Y0139085D01*
X0269218Y0139061D01*
X0269061Y0139041D01*
X0268903Y0139025D01*
X0268746Y0139013D01*
X0268587Y0139005D01*
X0268429Y0139001D01*
X0268271Y0139001D01*
X0268113Y0139005D01*
X0267954Y0139013D01*
X0267797Y0139025D01*
X0267639Y0139041D01*
X0267482Y0139061D01*
X0267326Y0139085D01*
X0267170Y0139113D01*
X0267015Y0139144D01*
X0266860Y0139180D01*
X0266707Y0139219D01*
X0266555Y0139262D01*
X0266404Y0139309D01*
X0266254Y0139360D01*
X0266105Y0139415D01*
X0265958Y0139473D01*
X0265812Y0139535D01*
X0265668Y0139600D01*
X0265526Y0139670D01*
X0265385Y0139742D01*
X0265246Y0139819D01*
X0265110Y0139898D01*
X0264975Y0139982D01*
X0264842Y0140068D01*
X0264712Y0140158D01*
X0264584Y0140251D01*
X0264458Y0140347D01*
X0264335Y0140447D01*
X0264214Y0140549D01*
X0264096Y0140654D01*
X0263981Y0140763D01*
X0263868Y0140874D01*
X0263758Y0140988D01*
X0263651Y0141105D01*
X0263547Y0141224D01*
X0263446Y0141346D01*
X0263349Y0141471D01*
X0263254Y0141598D01*
X0263163Y0141727D01*
X0263074Y0141858D01*
X0262990Y0141992D01*
X0262908Y0142128D01*
X0262830Y0142265D01*
X0262756Y0142405D01*
X0262685Y0142547D01*
X0262617Y0142690D01*
X0262553Y0142835D01*
X0262493Y0142981D01*
X0262437Y0143129D01*
X0262384Y0143278D01*
X0262335Y0143429D01*
X0262290Y0143581D01*
X0262249Y0143734D01*
X0262211Y0143887D01*
X0262178Y0144042D01*
X0262148Y0144198D01*
X0262122Y0144354D01*
X0262101Y0144511D01*
X0262083Y0144668D01*
X0262069Y0144826D01*
X0262059Y0144984D01*
X0262053Y0145142D01*
X0262051Y0145300D01*
X0062051Y0205300D02*
X0062053Y0205458D01*
X0062059Y0205616D01*
X0062069Y0205774D01*
X0062083Y0205932D01*
X0062101Y0206089D01*
X0062122Y0206246D01*
X0062148Y0206402D01*
X0062178Y0206558D01*
X0062211Y0206713D01*
X0062249Y0206866D01*
X0062290Y0207019D01*
X0062335Y0207171D01*
X0062384Y0207322D01*
X0062437Y0207471D01*
X0062493Y0207619D01*
X0062553Y0207765D01*
X0062617Y0207910D01*
X0062685Y0208053D01*
X0062756Y0208195D01*
X0062830Y0208335D01*
X0062908Y0208472D01*
X0062990Y0208608D01*
X0063074Y0208742D01*
X0063163Y0208873D01*
X0063254Y0209002D01*
X0063349Y0209129D01*
X0063446Y0209254D01*
X0063547Y0209376D01*
X0063651Y0209495D01*
X0063758Y0209612D01*
X0063868Y0209726D01*
X0063981Y0209837D01*
X0064096Y0209946D01*
X0064214Y0210051D01*
X0064335Y0210153D01*
X0064458Y0210253D01*
X0064584Y0210349D01*
X0064712Y0210442D01*
X0064842Y0210532D01*
X0064975Y0210618D01*
X0065110Y0210702D01*
X0065246Y0210781D01*
X0065385Y0210858D01*
X0065526Y0210930D01*
X0065668Y0211000D01*
X0065812Y0211065D01*
X0065958Y0211127D01*
X0066105Y0211185D01*
X0066254Y0211240D01*
X0066404Y0211291D01*
X0066555Y0211338D01*
X0066707Y0211381D01*
X0066860Y0211420D01*
X0067015Y0211456D01*
X0067170Y0211487D01*
X0067326Y0211515D01*
X0067482Y0211539D01*
X0067639Y0211559D01*
X0067797Y0211575D01*
X0067954Y0211587D01*
X0068113Y0211595D01*
X0068271Y0211599D01*
X0068429Y0211599D01*
X0068587Y0211595D01*
X0068746Y0211587D01*
X0068903Y0211575D01*
X0069061Y0211559D01*
X0069218Y0211539D01*
X0069374Y0211515D01*
X0069530Y0211487D01*
X0069685Y0211456D01*
X0069840Y0211420D01*
X0069993Y0211381D01*
X0070145Y0211338D01*
X0070296Y0211291D01*
X0070446Y0211240D01*
X0070595Y0211185D01*
X0070742Y0211127D01*
X0070888Y0211065D01*
X0071032Y0211000D01*
X0071174Y0210930D01*
X0071315Y0210858D01*
X0071454Y0210781D01*
X0071590Y0210702D01*
X0071725Y0210618D01*
X0071858Y0210532D01*
X0071988Y0210442D01*
X0072116Y0210349D01*
X0072242Y0210253D01*
X0072365Y0210153D01*
X0072486Y0210051D01*
X0072604Y0209946D01*
X0072719Y0209837D01*
X0072832Y0209726D01*
X0072942Y0209612D01*
X0073049Y0209495D01*
X0073153Y0209376D01*
X0073254Y0209254D01*
X0073351Y0209129D01*
X0073446Y0209002D01*
X0073537Y0208873D01*
X0073626Y0208742D01*
X0073710Y0208608D01*
X0073792Y0208472D01*
X0073870Y0208335D01*
X0073944Y0208195D01*
X0074015Y0208053D01*
X0074083Y0207910D01*
X0074147Y0207765D01*
X0074207Y0207619D01*
X0074263Y0207471D01*
X0074316Y0207322D01*
X0074365Y0207171D01*
X0074410Y0207019D01*
X0074451Y0206866D01*
X0074489Y0206713D01*
X0074522Y0206558D01*
X0074552Y0206402D01*
X0074578Y0206246D01*
X0074599Y0206089D01*
X0074617Y0205932D01*
X0074631Y0205774D01*
X0074641Y0205616D01*
X0074647Y0205458D01*
X0074649Y0205300D01*
X0074647Y0205142D01*
X0074641Y0204984D01*
X0074631Y0204826D01*
X0074617Y0204668D01*
X0074599Y0204511D01*
X0074578Y0204354D01*
X0074552Y0204198D01*
X0074522Y0204042D01*
X0074489Y0203887D01*
X0074451Y0203734D01*
X0074410Y0203581D01*
X0074365Y0203429D01*
X0074316Y0203278D01*
X0074263Y0203129D01*
X0074207Y0202981D01*
X0074147Y0202835D01*
X0074083Y0202690D01*
X0074015Y0202547D01*
X0073944Y0202405D01*
X0073870Y0202265D01*
X0073792Y0202128D01*
X0073710Y0201992D01*
X0073626Y0201858D01*
X0073537Y0201727D01*
X0073446Y0201598D01*
X0073351Y0201471D01*
X0073254Y0201346D01*
X0073153Y0201224D01*
X0073049Y0201105D01*
X0072942Y0200988D01*
X0072832Y0200874D01*
X0072719Y0200763D01*
X0072604Y0200654D01*
X0072486Y0200549D01*
X0072365Y0200447D01*
X0072242Y0200347D01*
X0072116Y0200251D01*
X0071988Y0200158D01*
X0071858Y0200068D01*
X0071725Y0199982D01*
X0071590Y0199898D01*
X0071454Y0199819D01*
X0071315Y0199742D01*
X0071174Y0199670D01*
X0071032Y0199600D01*
X0070888Y0199535D01*
X0070742Y0199473D01*
X0070595Y0199415D01*
X0070446Y0199360D01*
X0070296Y0199309D01*
X0070145Y0199262D01*
X0069993Y0199219D01*
X0069840Y0199180D01*
X0069685Y0199144D01*
X0069530Y0199113D01*
X0069374Y0199085D01*
X0069218Y0199061D01*
X0069061Y0199041D01*
X0068903Y0199025D01*
X0068746Y0199013D01*
X0068587Y0199005D01*
X0068429Y0199001D01*
X0068271Y0199001D01*
X0068113Y0199005D01*
X0067954Y0199013D01*
X0067797Y0199025D01*
X0067639Y0199041D01*
X0067482Y0199061D01*
X0067326Y0199085D01*
X0067170Y0199113D01*
X0067015Y0199144D01*
X0066860Y0199180D01*
X0066707Y0199219D01*
X0066555Y0199262D01*
X0066404Y0199309D01*
X0066254Y0199360D01*
X0066105Y0199415D01*
X0065958Y0199473D01*
X0065812Y0199535D01*
X0065668Y0199600D01*
X0065526Y0199670D01*
X0065385Y0199742D01*
X0065246Y0199819D01*
X0065110Y0199898D01*
X0064975Y0199982D01*
X0064842Y0200068D01*
X0064712Y0200158D01*
X0064584Y0200251D01*
X0064458Y0200347D01*
X0064335Y0200447D01*
X0064214Y0200549D01*
X0064096Y0200654D01*
X0063981Y0200763D01*
X0063868Y0200874D01*
X0063758Y0200988D01*
X0063651Y0201105D01*
X0063547Y0201224D01*
X0063446Y0201346D01*
X0063349Y0201471D01*
X0063254Y0201598D01*
X0063163Y0201727D01*
X0063074Y0201858D01*
X0062990Y0201992D01*
X0062908Y0202128D01*
X0062830Y0202265D01*
X0062756Y0202405D01*
X0062685Y0202547D01*
X0062617Y0202690D01*
X0062553Y0202835D01*
X0062493Y0202981D01*
X0062437Y0203129D01*
X0062384Y0203278D01*
X0062335Y0203429D01*
X0062290Y0203581D01*
X0062249Y0203734D01*
X0062211Y0203887D01*
X0062178Y0204042D01*
X0062148Y0204198D01*
X0062122Y0204354D01*
X0062101Y0204511D01*
X0062083Y0204668D01*
X0062069Y0204826D01*
X0062059Y0204984D01*
X0062053Y0205142D01*
X0062051Y0205300D01*
D12*
X0068350Y0205300D03*
X0268350Y0145300D03*
X0268350Y0035300D03*
X0063350Y0015300D03*
D13*
X0097448Y0070891D02*
X0097450Y0070731D01*
X0097456Y0070570D01*
X0097466Y0070410D01*
X0097479Y0070251D01*
X0097497Y0070091D01*
X0097519Y0069933D01*
X0097544Y0069774D01*
X0097574Y0069617D01*
X0097607Y0069460D01*
X0097644Y0069304D01*
X0097685Y0069149D01*
X0097729Y0068995D01*
X0097778Y0068842D01*
X0097830Y0068690D01*
X0097886Y0068540D01*
X0097945Y0068391D01*
X0098008Y0068244D01*
X0098075Y0068098D01*
X0098145Y0067954D01*
X0098219Y0067812D01*
X0098297Y0067671D01*
X0098377Y0067533D01*
X0098461Y0067396D01*
X0098549Y0067262D01*
X0098640Y0067130D01*
X0098733Y0067000D01*
X0098831Y0066872D01*
X0098931Y0066747D01*
X0099034Y0066624D01*
X0099140Y0066504D01*
X0099249Y0066387D01*
X0099361Y0066272D01*
X0099476Y0066160D01*
X0099593Y0066051D01*
X0099713Y0065945D01*
X0099836Y0065842D01*
X0099961Y0065742D01*
X0100089Y0065644D01*
X0100219Y0065551D01*
X0100351Y0065460D01*
X0100485Y0065372D01*
X0100622Y0065288D01*
X0100760Y0065208D01*
X0100901Y0065130D01*
X0101043Y0065056D01*
X0101187Y0064986D01*
X0101333Y0064919D01*
X0101480Y0064856D01*
X0101629Y0064797D01*
X0101779Y0064741D01*
X0101931Y0064689D01*
X0102084Y0064640D01*
X0102238Y0064596D01*
X0102393Y0064555D01*
X0102549Y0064518D01*
X0102706Y0064485D01*
X0102863Y0064455D01*
X0103022Y0064430D01*
X0103180Y0064408D01*
X0103340Y0064390D01*
X0103499Y0064377D01*
X0103659Y0064367D01*
X0103820Y0064361D01*
X0103980Y0064359D01*
X0104140Y0064361D01*
X0104301Y0064367D01*
X0104461Y0064377D01*
X0104620Y0064390D01*
X0104780Y0064408D01*
X0104938Y0064430D01*
X0105097Y0064455D01*
X0105254Y0064485D01*
X0105411Y0064518D01*
X0105567Y0064555D01*
X0105722Y0064596D01*
X0105876Y0064640D01*
X0106029Y0064689D01*
X0106181Y0064741D01*
X0106331Y0064797D01*
X0106480Y0064856D01*
X0106627Y0064919D01*
X0106773Y0064986D01*
X0106917Y0065056D01*
X0107059Y0065130D01*
X0107200Y0065208D01*
X0107338Y0065288D01*
X0107475Y0065372D01*
X0107609Y0065460D01*
X0107741Y0065551D01*
X0107871Y0065644D01*
X0107999Y0065742D01*
X0108124Y0065842D01*
X0108247Y0065945D01*
X0108367Y0066051D01*
X0108484Y0066160D01*
X0108599Y0066272D01*
X0108711Y0066387D01*
X0108820Y0066504D01*
X0108926Y0066624D01*
X0109029Y0066747D01*
X0109129Y0066872D01*
X0109227Y0067000D01*
X0109320Y0067130D01*
X0109411Y0067262D01*
X0109499Y0067396D01*
X0109583Y0067533D01*
X0109663Y0067671D01*
X0109741Y0067812D01*
X0109815Y0067954D01*
X0109885Y0068098D01*
X0109952Y0068244D01*
X0110015Y0068391D01*
X0110074Y0068540D01*
X0110130Y0068690D01*
X0110182Y0068842D01*
X0110231Y0068995D01*
X0110275Y0069149D01*
X0110316Y0069304D01*
X0110353Y0069460D01*
X0110386Y0069617D01*
X0110416Y0069774D01*
X0110441Y0069933D01*
X0110463Y0070091D01*
X0110481Y0070251D01*
X0110494Y0070410D01*
X0110504Y0070570D01*
X0110510Y0070731D01*
X0110512Y0070891D01*
X0110510Y0071051D01*
X0110504Y0071212D01*
X0110494Y0071372D01*
X0110481Y0071531D01*
X0110463Y0071691D01*
X0110441Y0071849D01*
X0110416Y0072008D01*
X0110386Y0072165D01*
X0110353Y0072322D01*
X0110316Y0072478D01*
X0110275Y0072633D01*
X0110231Y0072787D01*
X0110182Y0072940D01*
X0110130Y0073092D01*
X0110074Y0073242D01*
X0110015Y0073391D01*
X0109952Y0073538D01*
X0109885Y0073684D01*
X0109815Y0073828D01*
X0109741Y0073970D01*
X0109663Y0074111D01*
X0109583Y0074249D01*
X0109499Y0074386D01*
X0109411Y0074520D01*
X0109320Y0074652D01*
X0109227Y0074782D01*
X0109129Y0074910D01*
X0109029Y0075035D01*
X0108926Y0075158D01*
X0108820Y0075278D01*
X0108711Y0075395D01*
X0108599Y0075510D01*
X0108484Y0075622D01*
X0108367Y0075731D01*
X0108247Y0075837D01*
X0108124Y0075940D01*
X0107999Y0076040D01*
X0107871Y0076138D01*
X0107741Y0076231D01*
X0107609Y0076322D01*
X0107475Y0076410D01*
X0107338Y0076494D01*
X0107200Y0076574D01*
X0107059Y0076652D01*
X0106917Y0076726D01*
X0106773Y0076796D01*
X0106627Y0076863D01*
X0106480Y0076926D01*
X0106331Y0076985D01*
X0106181Y0077041D01*
X0106029Y0077093D01*
X0105876Y0077142D01*
X0105722Y0077186D01*
X0105567Y0077227D01*
X0105411Y0077264D01*
X0105254Y0077297D01*
X0105097Y0077327D01*
X0104938Y0077352D01*
X0104780Y0077374D01*
X0104620Y0077392D01*
X0104461Y0077405D01*
X0104301Y0077415D01*
X0104140Y0077421D01*
X0103980Y0077423D01*
X0103820Y0077421D01*
X0103659Y0077415D01*
X0103499Y0077405D01*
X0103340Y0077392D01*
X0103180Y0077374D01*
X0103022Y0077352D01*
X0102863Y0077327D01*
X0102706Y0077297D01*
X0102549Y0077264D01*
X0102393Y0077227D01*
X0102238Y0077186D01*
X0102084Y0077142D01*
X0101931Y0077093D01*
X0101779Y0077041D01*
X0101629Y0076985D01*
X0101480Y0076926D01*
X0101333Y0076863D01*
X0101187Y0076796D01*
X0101043Y0076726D01*
X0100901Y0076652D01*
X0100760Y0076574D01*
X0100622Y0076494D01*
X0100485Y0076410D01*
X0100351Y0076322D01*
X0100219Y0076231D01*
X0100089Y0076138D01*
X0099961Y0076040D01*
X0099836Y0075940D01*
X0099713Y0075837D01*
X0099593Y0075731D01*
X0099476Y0075622D01*
X0099361Y0075510D01*
X0099249Y0075395D01*
X0099140Y0075278D01*
X0099034Y0075158D01*
X0098931Y0075035D01*
X0098831Y0074910D01*
X0098733Y0074782D01*
X0098640Y0074652D01*
X0098549Y0074520D01*
X0098461Y0074386D01*
X0098377Y0074249D01*
X0098297Y0074111D01*
X0098219Y0073970D01*
X0098145Y0073828D01*
X0098075Y0073684D01*
X0098008Y0073538D01*
X0097945Y0073391D01*
X0097886Y0073242D01*
X0097830Y0073092D01*
X0097778Y0072940D01*
X0097729Y0072787D01*
X0097685Y0072633D01*
X0097644Y0072478D01*
X0097607Y0072322D01*
X0097574Y0072165D01*
X0097544Y0072008D01*
X0097519Y0071849D01*
X0097497Y0071691D01*
X0097479Y0071531D01*
X0097466Y0071372D01*
X0097456Y0071212D01*
X0097450Y0071051D01*
X0097448Y0070891D01*
X0176184Y0071158D02*
X0176186Y0070998D01*
X0176192Y0070838D01*
X0176202Y0070678D01*
X0176215Y0070518D01*
X0176233Y0070359D01*
X0176255Y0070200D01*
X0176280Y0070042D01*
X0176309Y0069884D01*
X0176343Y0069728D01*
X0176380Y0069572D01*
X0176420Y0069417D01*
X0176465Y0069263D01*
X0176513Y0069110D01*
X0176566Y0068959D01*
X0176621Y0068809D01*
X0176681Y0068660D01*
X0176744Y0068513D01*
X0176811Y0068367D01*
X0176881Y0068223D01*
X0176955Y0068081D01*
X0177032Y0067940D01*
X0177113Y0067802D01*
X0177197Y0067666D01*
X0177284Y0067531D01*
X0177375Y0067399D01*
X0177469Y0067269D01*
X0177566Y0067142D01*
X0177666Y0067017D01*
X0177769Y0066894D01*
X0177875Y0066774D01*
X0177984Y0066657D01*
X0178096Y0066542D01*
X0178211Y0066430D01*
X0178328Y0066321D01*
X0178448Y0066215D01*
X0178571Y0066112D01*
X0178696Y0066012D01*
X0178823Y0065915D01*
X0178953Y0065821D01*
X0179085Y0065730D01*
X0179220Y0065643D01*
X0179356Y0065559D01*
X0179494Y0065478D01*
X0179635Y0065401D01*
X0179777Y0065327D01*
X0179921Y0065257D01*
X0180067Y0065190D01*
X0180214Y0065127D01*
X0180363Y0065067D01*
X0180513Y0065012D01*
X0180664Y0064959D01*
X0180817Y0064911D01*
X0180971Y0064866D01*
X0181126Y0064826D01*
X0181282Y0064789D01*
X0181438Y0064755D01*
X0181596Y0064726D01*
X0181754Y0064701D01*
X0181913Y0064679D01*
X0182072Y0064661D01*
X0182232Y0064648D01*
X0182392Y0064638D01*
X0182552Y0064632D01*
X0182712Y0064630D01*
X0182872Y0064632D01*
X0183032Y0064638D01*
X0183192Y0064648D01*
X0183352Y0064661D01*
X0183511Y0064679D01*
X0183670Y0064701D01*
X0183828Y0064726D01*
X0183986Y0064755D01*
X0184142Y0064789D01*
X0184298Y0064826D01*
X0184453Y0064866D01*
X0184607Y0064911D01*
X0184760Y0064959D01*
X0184911Y0065012D01*
X0185061Y0065067D01*
X0185210Y0065127D01*
X0185357Y0065190D01*
X0185503Y0065257D01*
X0185647Y0065327D01*
X0185789Y0065401D01*
X0185930Y0065478D01*
X0186068Y0065559D01*
X0186204Y0065643D01*
X0186339Y0065730D01*
X0186471Y0065821D01*
X0186601Y0065915D01*
X0186728Y0066012D01*
X0186853Y0066112D01*
X0186976Y0066215D01*
X0187096Y0066321D01*
X0187213Y0066430D01*
X0187328Y0066542D01*
X0187440Y0066657D01*
X0187549Y0066774D01*
X0187655Y0066894D01*
X0187758Y0067017D01*
X0187858Y0067142D01*
X0187955Y0067269D01*
X0188049Y0067399D01*
X0188140Y0067531D01*
X0188227Y0067666D01*
X0188311Y0067802D01*
X0188392Y0067940D01*
X0188469Y0068081D01*
X0188543Y0068223D01*
X0188613Y0068367D01*
X0188680Y0068513D01*
X0188743Y0068660D01*
X0188803Y0068809D01*
X0188858Y0068959D01*
X0188911Y0069110D01*
X0188959Y0069263D01*
X0189004Y0069417D01*
X0189044Y0069572D01*
X0189081Y0069728D01*
X0189115Y0069884D01*
X0189144Y0070042D01*
X0189169Y0070200D01*
X0189191Y0070359D01*
X0189209Y0070518D01*
X0189222Y0070678D01*
X0189232Y0070838D01*
X0189238Y0070998D01*
X0189240Y0071158D01*
X0189238Y0071318D01*
X0189232Y0071478D01*
X0189222Y0071638D01*
X0189209Y0071798D01*
X0189191Y0071957D01*
X0189169Y0072116D01*
X0189144Y0072274D01*
X0189115Y0072432D01*
X0189081Y0072588D01*
X0189044Y0072744D01*
X0189004Y0072899D01*
X0188959Y0073053D01*
X0188911Y0073206D01*
X0188858Y0073357D01*
X0188803Y0073507D01*
X0188743Y0073656D01*
X0188680Y0073803D01*
X0188613Y0073949D01*
X0188543Y0074093D01*
X0188469Y0074235D01*
X0188392Y0074376D01*
X0188311Y0074514D01*
X0188227Y0074650D01*
X0188140Y0074785D01*
X0188049Y0074917D01*
X0187955Y0075047D01*
X0187858Y0075174D01*
X0187758Y0075299D01*
X0187655Y0075422D01*
X0187549Y0075542D01*
X0187440Y0075659D01*
X0187328Y0075774D01*
X0187213Y0075886D01*
X0187096Y0075995D01*
X0186976Y0076101D01*
X0186853Y0076204D01*
X0186728Y0076304D01*
X0186601Y0076401D01*
X0186471Y0076495D01*
X0186339Y0076586D01*
X0186204Y0076673D01*
X0186068Y0076757D01*
X0185930Y0076838D01*
X0185789Y0076915D01*
X0185647Y0076989D01*
X0185503Y0077059D01*
X0185357Y0077126D01*
X0185210Y0077189D01*
X0185061Y0077249D01*
X0184911Y0077304D01*
X0184760Y0077357D01*
X0184607Y0077405D01*
X0184453Y0077450D01*
X0184298Y0077490D01*
X0184142Y0077527D01*
X0183986Y0077561D01*
X0183828Y0077590D01*
X0183670Y0077615D01*
X0183511Y0077637D01*
X0183352Y0077655D01*
X0183192Y0077668D01*
X0183032Y0077678D01*
X0182872Y0077684D01*
X0182712Y0077686D01*
X0182552Y0077684D01*
X0182392Y0077678D01*
X0182232Y0077668D01*
X0182072Y0077655D01*
X0181913Y0077637D01*
X0181754Y0077615D01*
X0181596Y0077590D01*
X0181438Y0077561D01*
X0181282Y0077527D01*
X0181126Y0077490D01*
X0180971Y0077450D01*
X0180817Y0077405D01*
X0180664Y0077357D01*
X0180513Y0077304D01*
X0180363Y0077249D01*
X0180214Y0077189D01*
X0180067Y0077126D01*
X0179921Y0077059D01*
X0179777Y0076989D01*
X0179635Y0076915D01*
X0179494Y0076838D01*
X0179356Y0076757D01*
X0179220Y0076673D01*
X0179085Y0076586D01*
X0178953Y0076495D01*
X0178823Y0076401D01*
X0178696Y0076304D01*
X0178571Y0076204D01*
X0178448Y0076101D01*
X0178328Y0075995D01*
X0178211Y0075886D01*
X0178096Y0075774D01*
X0177984Y0075659D01*
X0177875Y0075542D01*
X0177769Y0075422D01*
X0177666Y0075299D01*
X0177566Y0075174D01*
X0177469Y0075047D01*
X0177375Y0074917D01*
X0177284Y0074785D01*
X0177197Y0074650D01*
X0177113Y0074514D01*
X0177032Y0074376D01*
X0176955Y0074235D01*
X0176881Y0074093D01*
X0176811Y0073949D01*
X0176744Y0073803D01*
X0176681Y0073656D01*
X0176621Y0073507D01*
X0176566Y0073357D01*
X0176513Y0073206D01*
X0176465Y0073053D01*
X0176420Y0072899D01*
X0176380Y0072744D01*
X0176343Y0072588D01*
X0176309Y0072432D01*
X0176280Y0072274D01*
X0176255Y0072116D01*
X0176233Y0071957D01*
X0176215Y0071798D01*
X0176202Y0071638D01*
X0176192Y0071478D01*
X0176186Y0071318D01*
X0176184Y0071158D01*
X0176189Y0149631D02*
X0176191Y0149472D01*
X0176197Y0149312D01*
X0176207Y0149153D01*
X0176220Y0148995D01*
X0176238Y0148836D01*
X0176259Y0148678D01*
X0176285Y0148521D01*
X0176314Y0148364D01*
X0176347Y0148209D01*
X0176384Y0148054D01*
X0176424Y0147900D01*
X0176469Y0147746D01*
X0176517Y0147595D01*
X0176568Y0147444D01*
X0176624Y0147295D01*
X0176683Y0147147D01*
X0176746Y0147000D01*
X0176812Y0146855D01*
X0176882Y0146712D01*
X0176956Y0146571D01*
X0177032Y0146431D01*
X0177113Y0146293D01*
X0177196Y0146158D01*
X0177283Y0146024D01*
X0177373Y0145893D01*
X0177467Y0145764D01*
X0177563Y0145637D01*
X0177663Y0145513D01*
X0177765Y0145391D01*
X0177871Y0145271D01*
X0177979Y0145155D01*
X0178090Y0145040D01*
X0178205Y0144929D01*
X0178321Y0144821D01*
X0178441Y0144715D01*
X0178563Y0144613D01*
X0178687Y0144513D01*
X0178814Y0144417D01*
X0178943Y0144323D01*
X0179074Y0144233D01*
X0179208Y0144146D01*
X0179343Y0144063D01*
X0179481Y0143982D01*
X0179621Y0143906D01*
X0179762Y0143832D01*
X0179905Y0143762D01*
X0180050Y0143696D01*
X0180197Y0143633D01*
X0180345Y0143574D01*
X0180494Y0143518D01*
X0180645Y0143467D01*
X0180796Y0143419D01*
X0180950Y0143374D01*
X0181104Y0143334D01*
X0181259Y0143297D01*
X0181414Y0143264D01*
X0181571Y0143235D01*
X0181728Y0143209D01*
X0181886Y0143188D01*
X0182045Y0143170D01*
X0182203Y0143157D01*
X0182362Y0143147D01*
X0182522Y0143141D01*
X0182681Y0143139D01*
X0182840Y0143141D01*
X0183000Y0143147D01*
X0183159Y0143157D01*
X0183317Y0143170D01*
X0183476Y0143188D01*
X0183634Y0143209D01*
X0183791Y0143235D01*
X0183948Y0143264D01*
X0184103Y0143297D01*
X0184258Y0143334D01*
X0184412Y0143374D01*
X0184566Y0143419D01*
X0184717Y0143467D01*
X0184868Y0143518D01*
X0185017Y0143574D01*
X0185165Y0143633D01*
X0185312Y0143696D01*
X0185457Y0143762D01*
X0185600Y0143832D01*
X0185741Y0143906D01*
X0185881Y0143982D01*
X0186019Y0144063D01*
X0186154Y0144146D01*
X0186288Y0144233D01*
X0186419Y0144323D01*
X0186548Y0144417D01*
X0186675Y0144513D01*
X0186799Y0144613D01*
X0186921Y0144715D01*
X0187041Y0144821D01*
X0187157Y0144929D01*
X0187272Y0145040D01*
X0187383Y0145155D01*
X0187491Y0145271D01*
X0187597Y0145391D01*
X0187699Y0145513D01*
X0187799Y0145637D01*
X0187895Y0145764D01*
X0187989Y0145893D01*
X0188079Y0146024D01*
X0188166Y0146158D01*
X0188249Y0146293D01*
X0188330Y0146431D01*
X0188406Y0146571D01*
X0188480Y0146712D01*
X0188550Y0146855D01*
X0188616Y0147000D01*
X0188679Y0147147D01*
X0188738Y0147295D01*
X0188794Y0147444D01*
X0188845Y0147595D01*
X0188893Y0147746D01*
X0188938Y0147900D01*
X0188978Y0148054D01*
X0189015Y0148209D01*
X0189048Y0148364D01*
X0189077Y0148521D01*
X0189103Y0148678D01*
X0189124Y0148836D01*
X0189142Y0148995D01*
X0189155Y0149153D01*
X0189165Y0149312D01*
X0189171Y0149472D01*
X0189173Y0149631D01*
X0189171Y0149790D01*
X0189165Y0149950D01*
X0189155Y0150109D01*
X0189142Y0150267D01*
X0189124Y0150426D01*
X0189103Y0150584D01*
X0189077Y0150741D01*
X0189048Y0150898D01*
X0189015Y0151053D01*
X0188978Y0151208D01*
X0188938Y0151362D01*
X0188893Y0151516D01*
X0188845Y0151667D01*
X0188794Y0151818D01*
X0188738Y0151967D01*
X0188679Y0152115D01*
X0188616Y0152262D01*
X0188550Y0152407D01*
X0188480Y0152550D01*
X0188406Y0152691D01*
X0188330Y0152831D01*
X0188249Y0152969D01*
X0188166Y0153104D01*
X0188079Y0153238D01*
X0187989Y0153369D01*
X0187895Y0153498D01*
X0187799Y0153625D01*
X0187699Y0153749D01*
X0187597Y0153871D01*
X0187491Y0153991D01*
X0187383Y0154107D01*
X0187272Y0154222D01*
X0187157Y0154333D01*
X0187041Y0154441D01*
X0186921Y0154547D01*
X0186799Y0154649D01*
X0186675Y0154749D01*
X0186548Y0154845D01*
X0186419Y0154939D01*
X0186288Y0155029D01*
X0186154Y0155116D01*
X0186019Y0155199D01*
X0185881Y0155280D01*
X0185741Y0155356D01*
X0185600Y0155430D01*
X0185457Y0155500D01*
X0185312Y0155566D01*
X0185165Y0155629D01*
X0185017Y0155688D01*
X0184868Y0155744D01*
X0184717Y0155795D01*
X0184566Y0155843D01*
X0184412Y0155888D01*
X0184258Y0155928D01*
X0184103Y0155965D01*
X0183948Y0155998D01*
X0183791Y0156027D01*
X0183634Y0156053D01*
X0183476Y0156074D01*
X0183317Y0156092D01*
X0183159Y0156105D01*
X0183000Y0156115D01*
X0182840Y0156121D01*
X0182681Y0156123D01*
X0182522Y0156121D01*
X0182362Y0156115D01*
X0182203Y0156105D01*
X0182045Y0156092D01*
X0181886Y0156074D01*
X0181728Y0156053D01*
X0181571Y0156027D01*
X0181414Y0155998D01*
X0181259Y0155965D01*
X0181104Y0155928D01*
X0180950Y0155888D01*
X0180796Y0155843D01*
X0180645Y0155795D01*
X0180494Y0155744D01*
X0180345Y0155688D01*
X0180197Y0155629D01*
X0180050Y0155566D01*
X0179905Y0155500D01*
X0179762Y0155430D01*
X0179621Y0155356D01*
X0179481Y0155280D01*
X0179343Y0155199D01*
X0179208Y0155116D01*
X0179074Y0155029D01*
X0178943Y0154939D01*
X0178814Y0154845D01*
X0178687Y0154749D01*
X0178563Y0154649D01*
X0178441Y0154547D01*
X0178321Y0154441D01*
X0178205Y0154333D01*
X0178090Y0154222D01*
X0177979Y0154107D01*
X0177871Y0153991D01*
X0177765Y0153871D01*
X0177663Y0153749D01*
X0177563Y0153625D01*
X0177467Y0153498D01*
X0177373Y0153369D01*
X0177283Y0153238D01*
X0177196Y0153104D01*
X0177113Y0152969D01*
X0177032Y0152831D01*
X0176956Y0152691D01*
X0176882Y0152550D01*
X0176812Y0152407D01*
X0176746Y0152262D01*
X0176683Y0152115D01*
X0176624Y0151967D01*
X0176568Y0151818D01*
X0176517Y0151667D01*
X0176469Y0151516D01*
X0176424Y0151362D01*
X0176384Y0151208D01*
X0176347Y0151053D01*
X0176314Y0150898D01*
X0176285Y0150741D01*
X0176259Y0150584D01*
X0176238Y0150426D01*
X0176220Y0150267D01*
X0176207Y0150109D01*
X0176197Y0149950D01*
X0176191Y0149790D01*
X0176189Y0149631D01*
X0110488Y0149603D02*
X0110486Y0149443D01*
X0110480Y0149283D01*
X0110470Y0149123D01*
X0110457Y0148964D01*
X0110439Y0148805D01*
X0110417Y0148646D01*
X0110392Y0148488D01*
X0110363Y0148331D01*
X0110330Y0148174D01*
X0110293Y0148019D01*
X0110252Y0147864D01*
X0110207Y0147710D01*
X0110159Y0147558D01*
X0110107Y0147406D01*
X0110051Y0147256D01*
X0109992Y0147108D01*
X0109929Y0146961D01*
X0109862Y0146815D01*
X0109792Y0146672D01*
X0109718Y0146529D01*
X0109641Y0146389D01*
X0109560Y0146251D01*
X0109476Y0146115D01*
X0109389Y0145981D01*
X0109299Y0145849D01*
X0109205Y0145719D01*
X0109108Y0145592D01*
X0109008Y0145467D01*
X0108905Y0145344D01*
X0108799Y0145224D01*
X0108690Y0145107D01*
X0108578Y0144993D01*
X0108464Y0144881D01*
X0108347Y0144772D01*
X0108227Y0144666D01*
X0108104Y0144563D01*
X0107979Y0144463D01*
X0107852Y0144366D01*
X0107722Y0144272D01*
X0107590Y0144182D01*
X0107456Y0144095D01*
X0107320Y0144011D01*
X0107182Y0143930D01*
X0107042Y0143853D01*
X0106899Y0143779D01*
X0106756Y0143709D01*
X0106610Y0143642D01*
X0106463Y0143579D01*
X0106315Y0143520D01*
X0106165Y0143464D01*
X0106013Y0143412D01*
X0105861Y0143364D01*
X0105707Y0143319D01*
X0105552Y0143278D01*
X0105397Y0143241D01*
X0105240Y0143208D01*
X0105083Y0143179D01*
X0104925Y0143154D01*
X0104766Y0143132D01*
X0104607Y0143114D01*
X0104448Y0143101D01*
X0104288Y0143091D01*
X0104128Y0143085D01*
X0103968Y0143083D01*
X0103808Y0143085D01*
X0103648Y0143091D01*
X0103488Y0143101D01*
X0103329Y0143114D01*
X0103170Y0143132D01*
X0103011Y0143154D01*
X0102853Y0143179D01*
X0102696Y0143208D01*
X0102539Y0143241D01*
X0102384Y0143278D01*
X0102229Y0143319D01*
X0102075Y0143364D01*
X0101923Y0143412D01*
X0101771Y0143464D01*
X0101621Y0143520D01*
X0101473Y0143579D01*
X0101326Y0143642D01*
X0101180Y0143709D01*
X0101037Y0143779D01*
X0100894Y0143853D01*
X0100754Y0143930D01*
X0100616Y0144011D01*
X0100480Y0144095D01*
X0100346Y0144182D01*
X0100214Y0144272D01*
X0100084Y0144366D01*
X0099957Y0144463D01*
X0099832Y0144563D01*
X0099709Y0144666D01*
X0099589Y0144772D01*
X0099472Y0144881D01*
X0099358Y0144993D01*
X0099246Y0145107D01*
X0099137Y0145224D01*
X0099031Y0145344D01*
X0098928Y0145467D01*
X0098828Y0145592D01*
X0098731Y0145719D01*
X0098637Y0145849D01*
X0098547Y0145981D01*
X0098460Y0146115D01*
X0098376Y0146251D01*
X0098295Y0146389D01*
X0098218Y0146529D01*
X0098144Y0146672D01*
X0098074Y0146815D01*
X0098007Y0146961D01*
X0097944Y0147108D01*
X0097885Y0147256D01*
X0097829Y0147406D01*
X0097777Y0147558D01*
X0097729Y0147710D01*
X0097684Y0147864D01*
X0097643Y0148019D01*
X0097606Y0148174D01*
X0097573Y0148331D01*
X0097544Y0148488D01*
X0097519Y0148646D01*
X0097497Y0148805D01*
X0097479Y0148964D01*
X0097466Y0149123D01*
X0097456Y0149283D01*
X0097450Y0149443D01*
X0097448Y0149603D01*
X0097450Y0149763D01*
X0097456Y0149923D01*
X0097466Y0150083D01*
X0097479Y0150242D01*
X0097497Y0150401D01*
X0097519Y0150560D01*
X0097544Y0150718D01*
X0097573Y0150875D01*
X0097606Y0151032D01*
X0097643Y0151187D01*
X0097684Y0151342D01*
X0097729Y0151496D01*
X0097777Y0151648D01*
X0097829Y0151800D01*
X0097885Y0151950D01*
X0097944Y0152098D01*
X0098007Y0152245D01*
X0098074Y0152391D01*
X0098144Y0152534D01*
X0098218Y0152677D01*
X0098295Y0152817D01*
X0098376Y0152955D01*
X0098460Y0153091D01*
X0098547Y0153225D01*
X0098637Y0153357D01*
X0098731Y0153487D01*
X0098828Y0153614D01*
X0098928Y0153739D01*
X0099031Y0153862D01*
X0099137Y0153982D01*
X0099246Y0154099D01*
X0099358Y0154213D01*
X0099472Y0154325D01*
X0099589Y0154434D01*
X0099709Y0154540D01*
X0099832Y0154643D01*
X0099957Y0154743D01*
X0100084Y0154840D01*
X0100214Y0154934D01*
X0100346Y0155024D01*
X0100480Y0155111D01*
X0100616Y0155195D01*
X0100754Y0155276D01*
X0100894Y0155353D01*
X0101037Y0155427D01*
X0101180Y0155497D01*
X0101326Y0155564D01*
X0101473Y0155627D01*
X0101621Y0155686D01*
X0101771Y0155742D01*
X0101923Y0155794D01*
X0102075Y0155842D01*
X0102229Y0155887D01*
X0102384Y0155928D01*
X0102539Y0155965D01*
X0102696Y0155998D01*
X0102853Y0156027D01*
X0103011Y0156052D01*
X0103170Y0156074D01*
X0103329Y0156092D01*
X0103488Y0156105D01*
X0103648Y0156115D01*
X0103808Y0156121D01*
X0103968Y0156123D01*
X0104128Y0156121D01*
X0104288Y0156115D01*
X0104448Y0156105D01*
X0104607Y0156092D01*
X0104766Y0156074D01*
X0104925Y0156052D01*
X0105083Y0156027D01*
X0105240Y0155998D01*
X0105397Y0155965D01*
X0105552Y0155928D01*
X0105707Y0155887D01*
X0105861Y0155842D01*
X0106013Y0155794D01*
X0106165Y0155742D01*
X0106315Y0155686D01*
X0106463Y0155627D01*
X0106610Y0155564D01*
X0106756Y0155497D01*
X0106899Y0155427D01*
X0107042Y0155353D01*
X0107182Y0155276D01*
X0107320Y0155195D01*
X0107456Y0155111D01*
X0107590Y0155024D01*
X0107722Y0154934D01*
X0107852Y0154840D01*
X0107979Y0154743D01*
X0108104Y0154643D01*
X0108227Y0154540D01*
X0108347Y0154434D01*
X0108464Y0154325D01*
X0108578Y0154213D01*
X0108690Y0154099D01*
X0108799Y0153982D01*
X0108905Y0153862D01*
X0109008Y0153739D01*
X0109108Y0153614D01*
X0109205Y0153487D01*
X0109299Y0153357D01*
X0109389Y0153225D01*
X0109476Y0153091D01*
X0109560Y0152955D01*
X0109641Y0152817D01*
X0109718Y0152677D01*
X0109792Y0152534D01*
X0109862Y0152391D01*
X0109929Y0152245D01*
X0109992Y0152098D01*
X0110051Y0151950D01*
X0110107Y0151800D01*
X0110159Y0151648D01*
X0110207Y0151496D01*
X0110252Y0151342D01*
X0110293Y0151187D01*
X0110330Y0151032D01*
X0110363Y0150875D01*
X0110392Y0150718D01*
X0110417Y0150560D01*
X0110439Y0150401D01*
X0110457Y0150242D01*
X0110470Y0150083D01*
X0110480Y0149923D01*
X0110486Y0149763D01*
X0110488Y0149603D01*
D14*
X0258850Y0125300D03*
X0268850Y0125300D03*
X0268850Y0115300D03*
X0268850Y0105300D03*
X0258850Y0105300D03*
X0258850Y0115300D03*
D15*
X0258350Y0202500D02*
X0258350Y0208100D01*
X0248350Y0208100D02*
X0248350Y0202500D01*
X0238350Y0202500D02*
X0238350Y0208100D01*
X0228350Y0208100D02*
X0228350Y0202500D01*
X0218350Y0202500D02*
X0218350Y0208100D01*
X0208350Y0208100D02*
X0208350Y0202500D01*
X0198350Y0202500D02*
X0198350Y0208100D01*
X0188350Y0208100D02*
X0188350Y0202500D01*
X0188350Y0018100D02*
X0188350Y0012500D01*
X0178350Y0012500D02*
X0178350Y0018100D01*
X0168350Y0018100D02*
X0168350Y0012500D01*
X0158350Y0012500D02*
X0158350Y0018100D01*
X0148350Y0018100D02*
X0148350Y0012500D01*
X0138350Y0012500D02*
X0138350Y0018100D01*
X0128350Y0018100D02*
X0128350Y0012500D01*
X0118350Y0012500D02*
X0118350Y0018100D01*
X0208350Y0018100D02*
X0208350Y0012500D01*
X0218350Y0012500D02*
X0218350Y0018100D01*
X0228350Y0018100D02*
X0228350Y0012500D01*
X0238350Y0012500D02*
X0238350Y0018100D01*
X0248350Y0018100D02*
X0248350Y0012500D01*
X0258350Y0012500D02*
X0258350Y0018100D01*
D16*
X0265850Y0055300D02*
X0271850Y0055300D01*
X0271850Y0065300D02*
X0265850Y0065300D01*
X0172350Y0202300D02*
X0172350Y0208300D01*
X0162350Y0208300D02*
X0162350Y0202300D01*
X0152350Y0202300D02*
X0152350Y0208300D01*
X0142350Y0208300D02*
X0142350Y0202300D01*
X0132350Y0202300D02*
X0132350Y0208300D01*
X0122350Y0208300D02*
X0122350Y0202300D01*
X0112350Y0202300D02*
X0112350Y0208300D01*
X0102350Y0208300D02*
X0102350Y0202300D01*
X0092350Y0202300D02*
X0092350Y0208300D01*
X0082350Y0208300D02*
X0082350Y0202300D01*
X0026350Y0200300D02*
X0020350Y0200300D01*
X0020350Y0190300D02*
X0026350Y0190300D01*
X0026350Y0180300D02*
X0020350Y0180300D01*
X0020350Y0170300D02*
X0026350Y0170300D01*
D17*
X0077750Y0166600D03*
X0087750Y0166600D03*
X0087750Y0156600D03*
X0087750Y0146600D03*
X0077750Y0146600D03*
X0077750Y0156600D03*
X0077750Y0136600D03*
X0087750Y0136600D03*
X0087750Y0081100D03*
X0077750Y0081100D03*
X0077750Y0071100D03*
X0077750Y0061100D03*
X0087750Y0061100D03*
X0087750Y0071100D03*
X0087750Y0051100D03*
X0077750Y0051100D03*
X0207750Y0050600D03*
X0217750Y0050600D03*
X0217750Y0060600D03*
X0207750Y0060600D03*
X0207750Y0070600D03*
X0217750Y0070600D03*
X0217750Y0080600D03*
X0207750Y0080600D03*
X0207750Y0136600D03*
X0217750Y0136600D03*
X0217750Y0146600D03*
X0207750Y0146600D03*
X0207750Y0156600D03*
X0217750Y0156600D03*
X0217750Y0166600D03*
X0207750Y0166600D03*
D18*
X0054350Y0038000D03*
X0042550Y0018300D03*
D19*
X0030750Y0038000D03*
D20*
X0030750Y0035000D03*
X0030750Y0041000D03*
X0054350Y0041000D03*
X0054350Y0035000D03*
X0045550Y0018300D03*
X0039550Y0018300D03*
M02*
