%
M48
M72
T01C0.01600
T02C0.02362
T03C0.02400
T04C0.03346
T05C0.03740
T06C0.04000
T07C0.05118
T08C0.12598
%
T01
X68850Y27800
X67350Y81300
X78350Y94800
X78350Y97800
X81350Y97800
X81350Y94800
X96350Y111300
X116850Y127800
X123850Y123800
X130850Y119800
X142850Y135800
X142850Y139800
X142850Y143800
X142850Y147800
X142850Y151800
X130850Y148800
X117850Y148800
X66350Y190300
X56850Y185800
X55850Y201800
X32450Y155000
X56350Y147300
X59350Y147300
X59350Y143800
X56350Y143800
X53850Y133300
X31350Y129300
X27850Y129300
X139350Y100300
X139350Y90300
X139350Y85300
X139350Y80300
X140350Y61300
X153850Y61300
X162350Y80300
X169450Y85300
X172850Y90300
X186850Y82300
X197350Y68300
X183350Y57800
X183350Y54800
X180350Y54800
X180350Y57800
X192350Y48300
X213350Y22300
X223350Y22300
X233350Y22300
X243350Y22300
X253850Y22300
X264350Y22300
X269850Y46300
X234850Y48300
X198850Y14800
X203350Y96300
X186850Y104300
X190350Y114300
X197350Y121300
X213850Y119800
X219850Y119800
X237850Y148800
X237850Y153800
X237850Y158800
X237850Y163800
X228350Y157300
X176350Y122300
X176350Y116800
T02
X204350Y91300
X139350Y95300
X94350Y106300
X62650Y96100
X99350Y26300
T03
X61150Y74900
T04
X118350Y15300
X128350Y15300
X138350Y15300
X148350Y15300
X158350Y15300
X168350Y15300
X178350Y15300
X188350Y15300
X208350Y15300
X218350Y15300
X228350Y15300
X238350Y15300
X248350Y15300
X258350Y15300
X258350Y205300
X248350Y205300
X238350Y205300
X228350Y205300
X218350Y205300
X208350Y205300
X198350Y205300
X188350Y205300
T05
X258850Y125300
X268850Y125300
X268850Y115300
X268850Y105300
X258850Y105300
X258850Y115300
T06
X217750Y136600
X207750Y136600
X207750Y146600
X217750Y146600
X217750Y156600
X207750Y156600
X207750Y166600
X217750Y166600
X172350Y205300
X162350Y205300
X152350Y205300
X142350Y205300
X132350Y205300
X122350Y205300
X112350Y205300
X102350Y205300
X92350Y205300
X82350Y205300
X77750Y166600
X87750Y166600
X87750Y156600
X87750Y146600
X77750Y146600
X77750Y156600
X77750Y136600
X87750Y136600
X23350Y170300
X23350Y180300
X23350Y190300
X23350Y200300
X77750Y81100
X87750Y81100
X87750Y71100
X87750Y61100
X77750Y61100
X77750Y71100
X77750Y51100
X87750Y51100
X207750Y50600
X217750Y50600
X217750Y60600
X207750Y60600
X207750Y70600
X217750Y70600
X217750Y80600
X207750Y80600
X268850Y65300
X268850Y55300
T07
X39550Y18300
X42550Y18300
X45550Y18300
X54350Y35000
X54350Y38000
X54350Y41000
X30750Y41000
X30750Y38000
X30750Y35000
T08
X63350Y15300
X268350Y35300
X268350Y145300
X68350Y205300
M30
